<svg width="25" height="24" viewBox="0 0 25 24" fill="none" xmlns="http://www.w3.org/2000/svg">
<path d="M22.5 18V20M2.5 18V20M22.5 13V6C22.5 4.89543 21.6046 4 20.5 4H4.5C3.39543 4 2.5 4.89543 2.5 6V13H22.5ZM23.5 18V15C23.5 13.8954 22.6046 13 21.5 13H3.5C2.39543 13 1.5 13.8954 1.5 15V18H23.5ZM7 13H10C10.5523 13 11 12.5523 11 12V10C11 9.44772 10.5523 9 10 9H7C6.44772 9 6 9.44772 6 10V12C6 12.5523 6.44772 13 7 13ZM15 13H18C18.5523 13 19 12.5523 19 12V10C19 9.44772 18.5523 9 18 9H15C14.4477 9 14 9.44772 14 10V12C14 12.5523 14.4477 13 15 13Z" stroke="#FAF9F7" stroke-width="2" stroke-linecap="round" stroke-linejoin="round"/>
</svg>
