<svg width="25" height="24" viewBox="0 0 25 24" fill="none" xmlns="http://www.w3.org/2000/svg">
<path d="M1.49978 19.0006C1.49978 18.4483 1.94749 18.0006 2.49978 18.0006H22.4998C23.0521 18.0006 23.4998 18.4483 23.4998 19.0006V22.0006C23.4998 22.5529 23.0521 23.0006 22.4998 23.0006H2.49978C1.9475 23.0006 1.49978 22.5529 1.49978 22.0006V19.0006Z" stroke="#FAF9F7" stroke-width="2" stroke-linejoin="round"/>
<path d="M4.49978 9.00059H9.49978V18.0006H4.49978V9.00059Z" stroke="#FAF9F7" stroke-width="2" stroke-linejoin="round"/>
<path d="M15.4998 9.00059H20.4998V18.0006H15.4998V9.00059Z" stroke="#FAF9F7" stroke-width="2" stroke-linejoin="round"/>
<path d="M2.26534 9.00059C1.23988 9.00059 0.878854 7.64112 1.76921 7.13235L12.0036 1.2841C12.3111 1.10842 12.6885 1.10843 12.9959 1.2841L23.2304 7.13235C24.1207 7.64112 23.7597 9.00059 22.7342 9.00059H2.26534Z" stroke="#FAF9F7" stroke-width="2" stroke-linejoin="round"/>
</svg>
