<svg width="25" height="24" viewBox="0 0 25 24" fill="none" xmlns="http://www.w3.org/2000/svg">
<path d="M9.50011 15.129C9.5 14 10.694 13.129 12.1668 13.129C13.1711 13.129 14.0457 13.5454 14.5005 14.1605M8.59677 7.84C8.59677 5.71922 10.5032 4 12.8548 4C14.9676 4 16.7209 5.38762 17.0554 7.20738C19.8567 7.34648 22.0806 9.43898 22.0806 12C22.0806 12.506 21.9938 12.9938 21.8329 13.4518C22.8557 14.2723 23.5 15.4683 23.5 16.8C23.5 18.0536 22.9291 19.1869 22.0089 20H4.16541C2.57221 19.1706 1.5 17.6182 1.5 15.84C1.5 13.7459 2.98701 11.965 5.06078 11.3092C5.05259 11.2204 5.04839 11.1307 5.04839 11.04C5.04839 9.2727 6.63706 7.84 8.59677 7.84Z" stroke="#FAF9F7" stroke-width="2" stroke-linecap="round" stroke-linejoin="round"/>
</svg>
