<svg width="25" height="24" viewBox="0 0 25 24" fill="none" xmlns="http://www.w3.org/2000/svg">
<path d="M1.5 4L1.29047 3.0222L0.5 3.19159V4H1.5ZM15.5 23V24V23ZM1.5 23H0.5V24H1.5V23ZM13.0809 1.51837L13.2905 2.49617L13.0809 1.51837ZM6.5 19V18H5.5V19H6.5ZM10.5 19H11.5V18H10.5V19ZM10.5 23V24H11.5V23H10.5ZM6.5 23H5.5V24H6.5V23ZM15.5 5V4C14.9477 4 14.5 4.44772 14.5 5H15.5ZM23.5 5H24.5C24.5 4.44772 24.0523 4 23.5 4V5ZM23.5 23V24C24.0523 24 24.5 23.5523 24.5 23H23.5ZM1.70953 4.97781L13.2905 2.49617L12.8714 0.540569L1.29047 3.0222L1.70953 4.97781ZM14.5 3.47398V23H16.5V3.47398H14.5ZM15.5 22H1.5V24H15.5V22ZM2.5 23V4H0.5V23H2.5ZM13.2905 2.49617C13.913 2.36278 14.5 2.83733 14.5 3.47398H16.5C16.5 1.56404 14.7389 0.140382 12.8714 0.540569L13.2905 2.49617ZM6.5 20H10.5V18H6.5V20ZM9.5 19V23H11.5V19H9.5ZM10.5 22H6.5V24H10.5V22ZM7.5 23V19H5.5V23H7.5ZM19.5 15H23.5V13H19.5V15ZM19.5 11H23.5V9H19.5V11ZM19.5 19H23.5V17H19.5V19ZM15.5 6H23.5V4H15.5V6ZM22.5 5V23H24.5V5H22.5ZM23.5 22L15.5 22V24L23.5 24V22ZM16.5 23V5H14.5V23H16.5ZM18.5 0V5H20.5V0H18.5ZM4.5 16H7.5V14H4.5V16ZM9.5 16H12.5V14H9.5V16ZM9.5 8H12.5V6H9.5V8ZM4.5 8H7.5V6H4.5V8ZM4.5 12H7.5V10H4.5V12ZM9.5 12H12.5V10H9.5V12Z" fill="#FAF9F7"/>
</svg>
