<svg width="25" height="24" viewBox="0 0 25 24" fill="none" xmlns="http://www.w3.org/2000/svg">
<path d="M19.5 14H5.5M19.5 14C20.6046 14 21.5 14.8954 21.5 16V23H3.5V16C3.5 14.8954 4.39543 14 5.5 14M19.5 14V9C19.5 7.89543 18.6046 7 17.5 7H7.5C6.39543 7 5.5 7.89543 5.5 9V14M5.5 11L6.69669 10.4017C7.20765 10.1462 7.80348 10.1214 8.33389 10.3336L9.25722 10.7029C9.73404 10.8936 10.266 10.8936 10.7428 10.7029L11.7572 10.2971C12.234 10.1064 12.766 10.1064 13.2428 10.2971L14.2572 10.7029C14.734 10.8936 15.266 10.8936 15.7428 10.7029L16.6661 10.3336C17.1965 10.1214 17.7923 10.1462 18.3033 10.4017L19.5 11M3.5 19L5.4199 18.2534C5.84174 18.0893 6.30675 18.0732 6.73893 18.2077L8.69158 18.8152C9.07852 18.9355 9.49291 18.9355 9.87985 18.8152L11.9059 18.1848C12.2928 18.0645 12.7072 18.0645 13.0941 18.1848L15.1202 18.8152C15.5071 18.9355 15.9215 18.9355 16.3084 18.8152L18.2611 18.2077C18.6933 18.0732 19.1583 18.0893 19.5801 18.2534L21.5 19M11.5 4.5C11.5 5.32843 10.8284 6 10 6C9.17157 6 8.5 5.32843 8.5 4.5C8.5 3.67157 10 2 10 2C10 2 11.5 3.67157 11.5 4.5ZM16.5 4.5C16.5 5.32843 15.8284 6 15 6C14.1716 6 13.5 5.32843 13.5 4.5C13.5 3.67157 15 2 15 2C15 2 16.5 3.67157 16.5 4.5Z" stroke="#FAF9F7" stroke-width="2"/>
</svg>
