<svg width="25" height="25" viewBox="0 0 25 25" fill="none" xmlns="http://www.w3.org/2000/svg">
<path d="M1.5 8L1.02115 7.1221L0.5 7.40637V8H1.5ZM23.5 8H24.5V7.40637L23.9789 7.1221L23.5 8ZM23.5 24V25H24.5V24H23.5ZM1.5 24H0.5V25H1.5V24ZM12.5 2L12.9789 1.1221L12.5 0.860912L12.0211 1.1221L12.5 2ZM7.27241 13.4253L6.31458 13.138C6.30307 13.1763 6.29387 13.2154 6.28704 13.2548L7.27241 13.4253ZM17.7276 13.4253L18.713 13.2548C18.7061 13.2154 18.6969 13.1763 18.6854 13.138L17.7276 13.4253ZM18.5222 15.3563L18.0273 16.2252L18.5222 15.3563ZM17.8919 14.3751L16.9065 14.5456V14.5456L17.8919 14.3751ZM7.1081 14.3751L6.12273 14.2047H6.12273L7.1081 14.3751ZM6.47783 15.3563L5.98291 14.4873L6.47783 15.3563ZM9.5 20H10.5C10.5 19.4477 10.0523 19 9.5 19V20ZM6.5 23H5.5H6.5ZM15.5 20V19C14.9477 19 14.5 19.4477 14.5 20H15.5ZM8.5 16C7.94772 16 7.5 16.4477 7.5 17C7.5 17.5523 7.94772 18 8.5 18V16ZM9.5 18C10.0523 18 10.5 17.5523 10.5 17C10.5 16.4477 10.0523 16 9.5 16V18ZM15.5 16C14.9477 16 14.5 16.4477 14.5 17C14.5 17.5523 14.9477 18 15.5 18V16ZM16.5 18C17.0523 18 17.5 17.5523 17.5 17C17.5 16.4477 17.0523 16 16.5 16V18ZM22.5 8V24H24.5V8H22.5ZM23.5 23H1.5V25H23.5V23ZM2.5 24V8H0.5V24H2.5ZM1.97885 8.8779L12.9789 2.8779L12.0211 1.1221L1.02115 7.1221L1.97885 8.8779ZM12.0211 2.8779L23.0211 8.8779L23.9789 7.1221L12.9789 1.1221L12.0211 2.8779ZM1.5 9H23.5V7H1.5V9ZM1.5 13H23.5V11H1.5V13ZM8.23023 13.7127C8.35713 13.2897 8.74645 13 9.18806 13V11C7.86324 11 6.69527 11.869 6.31458 13.138L8.23023 13.7127ZM8.09346 14.5456L8.25777 13.5958L6.28704 13.2548L6.12273 14.2047L8.09346 14.5456ZM6.5 17C6.5 16.6346 6.58247 16.5177 6.60802 16.484C6.65554 16.4215 6.72913 16.364 6.97274 16.2252L5.98291 14.4873C5.75451 14.6174 5.33919 14.8483 5.01579 15.2737C4.67043 15.7281 4.5 16.2986 4.5 17H6.5ZM6.5 19V17H4.5V19H6.5ZM6.5 19H6.5H4.5C4.5 20.1046 5.39543 21 6.5 21V19ZM18.5 19H6.5V21H18.5V19ZM18.5 19V21C19.6046 21 20.5 20.1046 20.5 19H18.5ZM18.5 17V19H20.5V17H18.5ZM18.0273 16.2252C18.2709 16.364 18.3445 16.4215 18.392 16.484C18.4175 16.5177 18.5 16.6346 18.5 17H20.5C20.5 16.2986 20.3296 15.7281 19.9842 15.2737C19.6608 14.8483 19.2455 14.6174 19.0171 14.4873L18.0273 16.2252ZM16.7422 13.5958L16.9065 14.5456L18.8773 14.2047L18.713 13.2548L16.7422 13.5958ZM15.8119 13C16.2535 13 16.6429 13.2897 16.7698 13.7127L18.6854 13.138C18.3047 11.869 17.1368 11 15.8119 11V13ZM9.18806 13H15.8119V11H9.18806V13ZM19.0171 14.4873C18.9907 14.4723 18.9129 14.4104 18.8773 14.2047L16.9065 14.5456C17.0116 15.1531 17.3365 15.8318 18.0273 16.2252L19.0171 14.4873ZM6.12273 14.2047C6.08714 14.4104 6.00933 14.4723 5.98291 14.4873L6.97274 16.2252C7.66346 15.8318 7.98837 15.1531 8.09346 14.5456L6.12273 14.2047ZM6.5 21H9.5V19H6.5V21ZM8.5 20V23H10.5V20H8.5ZM8.5 23H7.5V25H8.5V23ZM7.5 23L7.5 20H5.5L5.5 23H7.5ZM7.5 23H5.5C5.5 24.1046 6.39543 25 7.5 25V23ZM8.5 23V25C9.60457 25 10.5 24.1046 10.5 23H8.5ZM15.5 21H18.5V19H15.5V21ZM17.5 20V23H19.5V20H17.5ZM17.5 23H16.5V25H17.5V23ZM16.5 23V20H14.5V23H16.5ZM16.5 23H14.5C14.5 24.1046 15.3954 25 16.5 25V23ZM17.5 23V25C18.6046 25 19.5 24.1046 19.5 23H17.5ZM8.5 18H9.5V16H8.5V18ZM15.5 18H16.5V16H15.5V18Z" fill="#FAF9F7"/>
</svg>
