<svg width="25" height="24" viewBox="0 0 25 24" fill="none" xmlns="http://www.w3.org/2000/svg">
<path d="M5 20L4.08086 19.6061L3.14596 21.7875L5.36008 20.9329L5 20ZM19.6101 15.4329C20.1253 15.2341 20.3818 14.6552 20.1829 14.1399C19.9841 13.6247 19.4052 13.3682 18.8899 13.5671L19.6101 15.4329ZM15.348 1.47C15.0553 1.00167 14.4383 0.859291 13.97 1.152C13.5017 1.44471 13.3593 2.06166 13.652 2.53L15.348 1.47ZM14.6638 2.26204L13.8158 2.79204V2.79204L14.6638 2.26204ZM14.1313 9.34679L14.8906 9.99758L14.1313 9.34679ZM13.2407 8.84921C12.8813 9.26853 12.9299 9.89983 13.3492 10.2593C13.7685 10.6187 14.3998 10.5701 14.7593 10.1508L13.2407 8.84921ZM16.4855 10.1425C16.0119 10.4267 15.8584 11.0409 16.1425 11.5145C16.4267 11.9881 17.0409 12.1416 17.5145 11.8575L16.4855 10.1425ZM17.1337 10.9198L17.6481 11.7773L17.6482 11.7773L17.1337 10.9198ZM22.118 10.3727L21.8018 11.3213L22.118 10.3727ZM22.1838 11.4487C22.7077 11.6233 23.274 11.3402 23.4487 10.8162C23.6233 10.2923 23.3402 9.72596 22.8162 9.55132L22.1838 11.4487ZM6.00008 3C6.00008 2.44772 5.55237 2 5.00008 2C4.4478 2 4.00008 2.44772 4.00008 3H6.00008ZM4.00008 3.83333C4.00008 4.38562 4.4478 4.83333 5.00008 4.83333C5.55237 4.83333 6.00008 4.38562 6.00008 3.83333H4.00008ZM6.00008 7.16675C6.00008 6.61446 5.55237 6.16675 5.00008 6.16675C4.4478 6.16675 4.00008 6.61446 4.00008 7.16675H6.00008ZM4.00008 8.00008C4.00008 8.55237 4.4478 9.00008 5.00008 9.00008C5.55237 9.00008 6.00008 8.55237 6.00008 8.00008H4.00008ZM7.50008 6.5C8.05237 6.5 8.50008 6.05228 8.50008 5.5C8.50008 4.94772 8.05237 4.5 7.50008 4.5V6.5ZM6.66675 4.5C6.11446 4.5 5.66675 4.94772 5.66675 5.5C5.66675 6.05228 6.11446 6.5 6.66675 6.5V4.5ZM3.33333 6.5C3.88562 6.5 4.33333 6.05228 4.33333 5.5C4.33333 4.94772 3.88562 4.5 3.33333 4.5V6.5ZM2.5 4.5C1.94772 4.5 1.5 4.94772 1.5 5.5C1.5 6.05228 1.94772 6.5 2.5 6.5V4.5ZM9.28087 11.3753C8.93586 10.944 8.30657 10.8741 7.87531 11.2191C7.44404 11.5641 7.37412 12.1934 7.71913 12.6247L9.28087 11.3753ZM9.7241 13.5301L8.94323 14.1548L9.7241 13.5301ZM11.5334 15.189L12.0881 14.3569L11.5334 15.189ZM12.9453 17.3321C13.4048 17.6384 14.0257 17.5142 14.3321 17.0547C14.6384 16.5952 14.5142 15.9743 14.0547 15.6679L12.9453 17.3321ZM7.80199 14.9027C7.47209 14.4597 6.84559 14.3681 6.40266 14.698C5.95973 15.0279 5.86811 15.6544 6.19801 16.0973L7.80199 14.9027ZM7.05101 15.5685L6.24903 16.1658L6.24903 16.1658L7.05101 15.5685ZM9.92467 17.9628L10.3674 17.0662L10.3674 17.0662L9.92467 17.9628ZM9.55722 18.8966C10.0524 19.1412 10.6521 18.938 10.8966 18.4428C11.1412 17.9476 10.938 17.3479 10.4428 17.1034L9.55722 18.8966ZM17.3057 8.07812C18.3746 9.14701 19.0535 10.3343 19.3209 11.3504C19.5955 12.3939 19.401 13.0539 19.0735 13.3814L20.4877 14.7956C21.527 13.7563 21.6202 12.2291 21.255 10.8414C20.8826 9.42618 19.9942 7.93818 18.7199 6.66391L17.3057 8.07812ZM19.0735 13.3814C18.746 13.7089 18.086 13.9034 17.0424 13.6288C16.0264 13.3614 14.8391 12.6825 13.7702 11.6137L12.356 13.0279C13.6302 14.3021 15.1182 15.1905 16.5335 15.563C17.9212 15.9282 19.4484 15.835 20.4877 14.7956L19.0735 13.3814ZM13.7702 11.6137C12.7013 10.5448 12.0224 9.35745 11.755 8.3414C11.4804 7.29787 11.6749 6.63787 12.0024 6.31036L10.5882 4.89614C9.54888 5.93547 9.45568 7.46266 9.82087 8.85039C10.1933 10.2656 11.0817 11.7536 12.356 13.0279L13.7702 11.6137ZM12.0024 6.31036C12.3299 5.98285 12.9899 5.78835 14.0335 6.06297C15.0495 6.33035 16.2368 7.00924 17.3057 8.07812L18.7199 6.66391C17.4457 5.38965 15.9577 4.50124 14.5424 4.12882C13.1547 3.76363 11.6275 3.85682 10.5882 4.89614L12.0024 6.31036ZM10.0809 5.60608L4.08086 19.6061L5.91915 20.3939L11.9191 6.39392L10.0809 5.60608ZM5.36008 20.9329L19.6101 15.4329L18.8899 13.5671L4.63992 19.0671L5.36008 20.9329ZM13.652 2.53L13.8158 2.79204L15.5118 1.73204L15.348 1.47L13.652 2.53ZM13.3721 8.69599L13.2407 8.84921L14.7593 10.1508L14.8906 9.99758L13.3721 8.69599ZM13.8158 2.79204C14.9742 4.64548 14.7945 7.03652 13.3721 8.69599L14.8906 9.99758C16.882 7.67431 17.1335 4.32685 15.5118 1.73204L13.8158 2.79204ZM17.5145 11.8575L17.6481 11.7773L16.6192 10.0623L16.4855 10.1425L17.5145 11.8575ZM21.8018 11.3213L22.1838 11.4487L22.8162 9.55132L22.4342 9.42398L21.8018 11.3213ZM17.6482 11.7773C18.8998 11.0263 20.417 10.8598 21.8018 11.3213L22.4342 9.42398C20.4956 8.77778 18.3714 9.01096 16.6192 10.0623L17.6482 11.7773ZM4.00008 3V3.83333H6.00008V3H4.00008ZM4.00008 7.16675V8.00008H6.00008V7.16675H4.00008ZM7.50008 4.5H6.66675V6.5H7.50008V4.5ZM3.33333 4.5H2.5V6.5H3.33333V4.5ZM20 4V6C21.1046 6 22 5.10457 22 4H20ZM20 4H18C18 5.10457 18.8954 6 20 6V4ZM20 4V2C18.8954 2 18 2.89543 18 4H20ZM20 4H22C22 2.89543 21.1046 2 20 2V4ZM19 20.5C19 20.7761 18.7761 21 18.5 21V23C19.8807 23 21 21.8807 21 20.5H19ZM18.5 21C18.2239 21 18 20.7761 18 20.5H16C16 21.8807 17.1193 23 18.5 23V21ZM18 20.5C18 20.2239 18.2239 20 18.5 20V18C17.1193 18 16 19.1193 16 20.5H18ZM18.5 20C18.7761 20 19 20.2239 19 20.5H21C21 19.1193 19.8807 18 18.5 18V20ZM7.71913 12.6247L8.94323 14.1548L10.505 12.9054L9.28087 11.3753L7.71913 12.6247ZM10.9787 16.021L12.9453 17.3321L14.0547 15.6679L12.0881 14.3569L10.9787 16.021ZM8.94323 14.1548C9.52169 14.8779 10.2083 15.5074 10.9787 16.021L12.0881 14.3569C11.4889 13.9574 10.9549 13.4678 10.505 12.9054L8.94323 14.1548ZM6.19801 16.0973L6.24903 16.1658L7.853 14.9712L7.80199 14.9027L6.19801 16.0973ZM9.48188 18.8594L9.55722 18.8966L10.4428 17.1034L10.3674 17.0662L9.48188 18.8594ZM6.24903 16.1658C7.09866 17.3065 8.20656 18.2296 9.48189 18.8594L10.3674 17.0662C9.37553 16.5763 8.51383 15.8584 7.853 14.9712L6.24903 16.1658Z" fill="#FAF9F7"/>
</svg>
