<svg width="25" height="24" viewBox="0 0 25 24" fill="none" xmlns="http://www.w3.org/2000/svg">
<path d="M5.60325 8C4.27645 8 3.28134 6.84535 3.54154 5.60777L3.7518 4.60777C3.93066 3.75706 4.66133 3.12326 5.54665 3.01605L5.69584 2.28622C5.84872 1.53834 6.51987 1 7.2994 1H17.7006C18.4801 1 19.1513 1.53834 19.3042 2.28621L19.4533 3.01605C20.3387 3.12326 21.0693 3.75706 21.2482 4.60777L21.4585 5.60777C21.7187 6.84535 20.7235 8 19.3967 8M5.60325 8H19.3967M5.60325 8C5.48929 8 5.37776 7.99148 5.26927 7.97512L7.01345 21.2481C7.14497 22.2489 8.0394 23 9.09976 23H15.9003C16.9606 23 17.8551 22.2489 17.9866 21.2481L18.8587 14.6116L19.7308 7.97511C19.6223 7.99148 19.5107 8 19.3967 8M15.6538 15C15.6538 16.6569 14.2418 18 12.5 18C10.7582 18 9.34621 16.6569 9.34621 15C9.34621 13.3431 10.7582 12 12.5 12C14.2418 12 15.6538 13.3431 15.6538 15Z" stroke="#FAF9F7" stroke-width="2"/>
</svg>
