<svg width="25" height="24" viewBox="0 0 25 24" fill="none" xmlns="http://www.w3.org/2000/svg">
<path d="M16.3964 0.347382C16.0359 -0.0710768 15.4045 -0.118118 14.9861 0.242312C14.5676 0.602743 14.5206 1.23416 14.881 1.65262L16.3964 0.347382ZM14.881 5.65262C15.2414 6.07108 15.8728 6.11812 16.2913 5.75769C16.7097 5.39726 16.7568 4.76584 16.3964 4.34738L14.881 5.65262ZM11.3964 0.347382C11.0359 -0.0710768 10.4045 -0.118118 9.98605 0.242312C9.5676 0.602743 9.52055 1.23416 9.88098 1.65262L11.3964 0.347382ZM9.88098 5.65262C10.2414 6.07108 10.8728 6.11812 11.2913 5.75769C11.7097 5.39726 11.7568 4.76584 11.3964 4.34738L9.88098 5.65262ZM6.39636 0.347382C6.03593 -0.0710768 5.40451 -0.118118 4.98605 0.242312C4.5676 0.602743 4.52055 1.23416 4.88098 1.65262L6.39636 0.347382ZM4.88098 5.65262C5.24142 6.07108 5.87283 6.11812 6.29129 5.75769C6.70975 5.39726 6.75679 4.76584 6.39636 4.34738L4.88098 5.65262ZM22.077 12.1429L21.191 12.6064L22.077 12.1429ZM20.2833 17.2857L20.7145 18.188L20.2833 17.2857ZM15.2676 18.0274C14.7304 18.1557 14.399 18.6952 14.5274 19.2324C14.6557 19.7696 15.1952 20.101 15.7324 19.9726L15.2676 18.0274ZM2.51208 11.8085L1.51254 11.778L2.51208 11.8085ZM2.62171 14.5128L3.60952 14.3572L2.62171 14.5128ZM7.11952 22L6.39699 22.6913L6.69233 23H7.11952V22ZM12.8805 22V23H13.3077L13.603 22.6913L12.8805 22ZM17.3783 14.5128L18.3661 14.6685L17.3783 14.5128ZM17.4879 11.8085L18.4875 11.778V11.778L17.4879 11.8085ZM15.6387 1C14.881 1.65262 14.8807 1.65225 14.8804 1.6519C14.8803 1.65178 14.88 1.65142 14.8798 1.65119C14.8794 1.65073 14.879 1.65028 14.8786 1.64985C14.8779 1.64898 14.8772 1.64816 14.8765 1.64739C14.8752 1.64585 14.8741 1.64451 14.8731 1.64338C14.8712 1.64111 14.87 1.63963 14.8695 1.6389C14.8683 1.63747 14.8695 1.63895 14.8726 1.64312C14.879 1.65166 14.8921 1.66987 14.9081 1.69588C14.9419 1.75082 14.9782 1.82326 15.0005 1.90096C15.0348 2.02039 15.0489 2.15246 14.881 2.34738L16.3964 3.65262C17.0898 2.84754 17.1039 1.97961 16.9228 1.34904C16.8375 1.05174 16.7123 0.811682 16.6115 0.64787C16.5602 0.564509 16.5127 0.496773 16.4754 0.446726C16.4566 0.421597 16.4402 0.400621 16.4268 0.384049C16.4201 0.375754 16.4142 0.368534 16.4091 0.36242C16.4065 0.359362 16.4042 0.356578 16.4021 0.354071C16.401 0.352818 16.4 0.351633 16.399 0.350518C16.3986 0.349961 16.3981 0.349421 16.3977 0.348898C16.3974 0.348637 16.3971 0.348257 16.397 0.348127C16.3967 0.347753 16.3964 0.347382 15.6387 1ZM14.881 2.34738C14.1875 3.15246 14.1735 4.02039 14.3545 4.65096C14.4399 4.94826 14.5651 5.18832 14.6658 5.35213C14.7171 5.43549 14.7646 5.50323 14.802 5.55327C14.8208 5.5784 14.8372 5.59938 14.8505 5.61595C14.8572 5.62425 14.8632 5.63147 14.8683 5.63758C14.8708 5.64064 14.8731 5.64342 14.8753 5.64593C14.8763 5.64718 14.8773 5.64837 14.8783 5.64948C14.8788 5.65004 14.8792 5.65058 14.8797 5.6511C14.8799 5.65136 14.8802 5.65174 14.8803 5.65187C14.8807 5.65225 14.881 5.65262 15.6387 5C16.3964 4.34738 16.3967 4.34775 16.397 4.3481C16.3971 4.34822 16.3974 4.34858 16.3976 4.34881C16.398 4.34927 16.3984 4.34972 16.3987 4.35015C16.3995 4.35102 16.4002 4.35184 16.4008 4.35261C16.4021 4.35415 16.4033 4.35549 16.4042 4.35662C16.4061 4.35889 16.4073 4.36037 16.4079 4.3611C16.409 4.36253 16.4078 4.36105 16.4047 4.35688C16.3983 4.34834 16.3853 4.33013 16.3693 4.30412C16.3355 4.24918 16.2992 4.17674 16.2768 4.09904C16.2426 3.97961 16.2285 3.84754 16.3964 3.65262L14.881 2.34738ZM10.6387 1C9.88098 1.65262 9.88067 1.65225 9.88036 1.6519C9.88026 1.65178 9.87996 1.65142 9.87976 1.65119C9.87936 1.65073 9.87898 1.65028 9.87861 1.64985C9.87786 1.64898 9.87716 1.64816 9.87651 1.64739C9.87521 1.64585 9.87409 1.64451 9.87314 1.64338C9.87125 1.64111 9.87004 1.63963 9.86946 1.6389C9.8683 1.63747 9.86954 1.63895 9.87265 1.64312C9.87903 1.65166 9.89208 1.66987 9.90808 1.69588C9.94188 1.75082 9.97819 1.82326 10.0005 1.90096C10.0348 2.02039 10.0489 2.15246 9.88098 2.34738L11.3964 3.65262C12.0898 2.84754 12.1039 1.97961 11.9228 1.34904C11.8375 1.05174 11.7123 0.811682 11.6115 0.64787C11.5602 0.564509 11.5127 0.496773 11.4754 0.446726C11.4566 0.421597 11.4402 0.400621 11.4268 0.384049C11.4201 0.375754 11.4142 0.368534 11.4091 0.36242C11.4065 0.359362 11.4042 0.356578 11.4021 0.354071C11.401 0.352818 11.4 0.351633 11.399 0.350518C11.3986 0.349961 11.3981 0.349421 11.3977 0.348898C11.3974 0.348637 11.3971 0.348257 11.397 0.348127C11.3967 0.347753 11.3964 0.347382 10.6387 1ZM9.88098 2.34738C9.18755 3.15246 9.17346 4.02039 9.35451 4.65096C9.43986 4.94826 9.56505 5.18832 9.66583 5.35213C9.71712 5.43549 9.76464 5.50323 9.80199 5.55327C9.82075 5.5784 9.83718 5.59938 9.85053 5.61595C9.85722 5.62425 9.86315 5.63147 9.86825 5.63758C9.8708 5.64064 9.87315 5.64342 9.87527 5.64593C9.87633 5.64718 9.87734 5.64837 9.87829 5.64948C9.87877 5.65004 9.87923 5.65058 9.87968 5.6511C9.87991 5.65136 9.88023 5.65174 9.88034 5.65187C9.88067 5.65225 9.88098 5.65262 10.6387 5C11.3964 4.34738 11.3967 4.34775 11.397 4.3481C11.3971 4.34822 11.3974 4.34858 11.3976 4.34881C11.398 4.34927 11.3984 4.34972 11.3987 4.35015C11.3995 4.35102 11.4002 4.35184 11.4008 4.35261C11.4021 4.35415 11.4033 4.35549 11.4042 4.35662C11.4061 4.35889 11.4073 4.36037 11.4079 4.3611C11.409 4.36253 11.4078 4.36105 11.4047 4.35688C11.3983 4.34834 11.3853 4.33013 11.3693 4.30412C11.3355 4.24918 11.2992 4.17674 11.2768 4.09904C11.2426 3.97961 11.2285 3.84754 11.3964 3.65262L9.88098 2.34738ZM5.63867 1C4.88098 1.65262 4.88067 1.65225 4.88036 1.6519C4.88026 1.65178 4.87996 1.65142 4.87976 1.65119C4.87936 1.65073 4.87898 1.65028 4.87861 1.64985C4.87786 1.64898 4.87716 1.64816 4.87651 1.64739C4.87521 1.64585 4.87409 1.64451 4.87314 1.64338C4.87125 1.64111 4.87004 1.63963 4.86946 1.6389C4.8683 1.63747 4.86954 1.63895 4.87265 1.64312C4.87903 1.65166 4.89208 1.66987 4.90808 1.69588C4.94188 1.75082 4.97819 1.82326 5.0005 1.90096C5.03479 2.02039 5.04888 2.15246 4.88098 2.34738L6.39636 3.65262C7.0898 2.84754 7.10388 1.97961 6.92284 1.34904C6.83748 1.05174 6.71229 0.811682 6.61151 0.64787C6.56023 0.564509 6.51271 0.496773 6.47535 0.446726C6.45659 0.421597 6.44016 0.400621 6.42681 0.384049C6.42013 0.375754 6.41419 0.368534 6.40909 0.36242C6.40654 0.359362 6.4042 0.356578 6.40207 0.354071C6.40101 0.352818 6.4 0.351633 6.39905 0.350518C6.39857 0.349961 6.39811 0.349421 6.39766 0.348898C6.39744 0.348637 6.39711 0.348257 6.397 0.348127C6.39668 0.347753 6.39636 0.347382 5.63867 1ZM4.88098 2.34738C4.18755 3.15246 4.17346 4.02039 4.3545 4.65096C4.43986 4.94826 4.56505 5.18832 4.66583 5.35213C4.71712 5.43549 4.76464 5.50323 4.80199 5.55327C4.82075 5.5784 4.83718 5.59938 4.85053 5.61595C4.85722 5.62425 4.86315 5.63147 4.86825 5.63758C4.8708 5.64064 4.87315 5.64342 4.87527 5.64593C4.87633 5.64718 4.87734 5.64837 4.87829 5.64948C4.87877 5.65004 4.87923 5.65058 4.87968 5.6511C4.87991 5.65136 4.88023 5.65174 4.88034 5.65187C4.88067 5.65225 4.88098 5.65262 5.63867 5C6.39636 4.34738 6.39667 4.34775 6.39698 4.3481C6.39708 4.34822 6.39739 4.34858 6.39758 4.34881C6.39798 4.34927 6.39836 4.34972 6.39874 4.35015C6.39948 4.35102 6.40018 4.35184 6.40083 4.35261C6.40213 4.35415 6.40326 4.35549 6.4042 4.35662C6.40609 4.35889 6.4073 4.36037 6.40789 4.3611C6.40904 4.36253 6.40781 4.36105 6.40469 4.35688C6.39831 4.34834 6.38527 4.33013 6.36926 4.30412C6.33546 4.24918 6.29915 4.17674 6.27684 4.09904C6.24255 3.97961 6.22847 3.84754 6.39636 3.65262L4.88098 2.34738ZM17.2937 12C18.5212 12 19.4687 12.0033 20.1868 12.1281C20.9061 12.2531 21.1106 12.4528 21.191 12.6064L22.9631 11.6793C22.4455 10.69 21.4542 10.3183 20.5292 10.1576C19.6031 9.99669 18.4579 10 17.2937 10V12ZM21.191 12.6064C21.79 13.7513 21.6241 15.5367 19.8521 16.3834L20.7145 18.188C23.7258 16.749 23.9685 13.601 22.9631 11.6793L21.191 12.6064ZM19.8521 16.3834C18.7108 16.9288 17.561 17.3415 16.6912 17.6186C16.2579 17.7567 15.8978 17.8599 15.6476 17.9282C15.5227 17.9623 15.4254 17.9876 15.3605 18.0042C15.328 18.0125 15.3037 18.0185 15.288 18.0224C15.2801 18.0243 15.2745 18.0257 15.2711 18.0265C15.2694 18.027 15.2682 18.0272 15.2676 18.0274C15.2673 18.0274 15.2672 18.0275 15.2672 18.0275C15.2672 18.0275 15.2672 18.0275 15.2673 18.0275C15.2673 18.0274 15.2674 18.0274 15.2674 18.0274C15.2675 18.0274 15.2676 18.0274 15.5 19C15.7324 19.9726 15.7325 19.9726 15.7326 19.9726C15.7327 19.9726 15.7328 19.9725 15.7329 19.9725C15.7331 19.9724 15.7334 19.9724 15.7337 19.9723C15.7343 19.9722 15.735 19.972 15.7359 19.9718C15.7376 19.9714 15.7399 19.9708 15.7428 19.9701C15.7486 19.9687 15.7566 19.9667 15.7669 19.9642C15.7874 19.9591 15.8168 19.9518 15.8544 19.9422C15.9296 19.9231 16.0379 19.8948 16.1745 19.8575C16.4475 19.783 16.8348 19.6719 17.2983 19.5242C18.2223 19.2299 19.4641 18.7855 20.7145 18.188L19.8521 16.3834ZM3.51162 11.8389C3.5253 11.3898 3.90639 11 4.43406 11V9C2.90472 9 1.56152 10.1711 1.51254 11.778L3.51162 11.8389ZM3.60952 14.3572C3.49774 13.6478 3.48548 12.6964 3.51162 11.8389L1.51254 11.778C1.48557 12.6631 1.49192 13.7675 1.6339 14.6685L3.60952 14.3572ZM7.84206 21.3087C6.92731 20.3526 5.95461 19.211 5.16411 17.9947C4.3683 16.7703 3.79366 15.5256 3.60952 14.3572L1.6339 14.6685C1.87883 16.2227 2.61192 17.738 3.48718 19.0846C4.36773 20.4395 5.42941 21.6801 6.39699 22.6913L7.84206 21.3087ZM7.11952 23H12.8805V21H7.11952V23ZM16.3905 14.3572C16.2063 15.5256 15.6317 16.7703 14.8359 17.9947C14.0454 19.211 13.0727 20.3526 12.1579 21.3087L13.603 22.6913C14.5706 21.6801 15.6323 20.4395 16.5128 19.0846C17.3881 17.738 18.1212 16.2227 18.3661 14.6685L16.3905 14.3572ZM16.4884 11.8389C16.5145 12.6964 16.5023 13.6478 16.3905 14.3572L18.3661 14.6685C18.5081 13.7675 18.5144 12.6631 18.4875 11.778L16.4884 11.8389ZM15.5659 11C16.0936 11 16.4747 11.3898 16.4884 11.8389L18.4875 11.778C18.4385 10.1711 17.0953 9 15.5659 9V11ZM4.43406 11H15.5659V9H4.43406V11Z" fill="#FAF9F7"/>
</svg>
