<svg width="25" height="24" viewBox="0 0 25 24" fill="none" xmlns="http://www.w3.org/2000/svg">
<path d="M5 4.5H6M12.0511 10.3246C12.0511 10.3246 11.8276 11.5959 13.584 11.6229C15.3404 11.65 15.1169 12.9212 15.1169 12.9212M9.88328 13.0788C9.88328 13.0788 9.65973 14.35 11.4162 14.3771C13.1726 14.4041 12.9491 15.6754 12.9491 15.6754M3.5 23H21.5C22.6046 23 23.5 22.1046 23.5 21V3C23.5 1.89543 22.6046 1 21.5 1H3.5C2.39543 1 1.5 1.89543 1.5 3V21C1.5 22.1046 2.39543 23 3.5 23ZM18.5 13C18.5 16.3137 15.8137 19 12.5 19C9.18629 19 6.5 16.3137 6.5 13C6.5 9.68629 9.18629 7 12.5 7C15.8137 7 18.5 9.68629 18.5 13Z" stroke="#FAF9F7" stroke-width="2" stroke-linecap="round" stroke-linejoin="round"/>
</svg>
