<svg width="25" height="24" viewBox="0 0 25 24" fill="none" xmlns="http://www.w3.org/2000/svg">
<g clip-path="url(#clip0_6484_47334)">
<path d="M9.5 11C8.94772 11 8.5 11.4477 8.5 12C8.5 12.5523 8.94772 13 9.5 13V11ZM15.5 13C16.0523 13 16.5 12.5523 16.5 12C16.5 11.4477 16.0523 11 15.5 11V13ZM22.5 11C21.9477 11 21.5 11.4477 21.5 12C21.5 12.5523 21.9477 13 22.5 13V11ZM23.5 13C24.0523 13 24.5 12.5523 24.5 12C24.5 11.4477 24.0523 11 23.5 11V13ZM1.5 11C0.947715 11 0.5 11.4477 0.5 12C0.5 12.5523 0.947715 13 1.5 13V11ZM2.5 13C3.05228 13 3.5 12.5523 3.5 12C3.5 11.4477 3.05228 11 2.5 11V13ZM9.5 13H15.5V11H9.5V13ZM22.5 13H23.5V11H22.5V13ZM1.5 13H2.5V11H1.5V13ZM8.5 8V16H10.5V8H8.5ZM6.5 16V8H4.5V16H6.5ZM7.5 17C6.94772 17 6.5 16.5523 6.5 16H4.5C4.5 17.6569 5.84315 19 7.5 19V17ZM8.5 16C8.5 16.5523 8.05228 17 7.5 17V19C9.15685 19 10.5 17.6569 10.5 16H8.5ZM7.5 7C8.05228 7 8.5 7.44772 8.5 8H10.5C10.5 6.34315 9.15685 5 7.5 5V7ZM7.5 5C5.84315 5 4.5 6.34315 4.5 8H6.5C6.5 7.44772 6.94772 7 7.5 7V5ZM4.5 9.5V14.5H6.5V9.5H4.5ZM3.5 14.5V9.5H1.5V14.5H3.5ZM4 15C3.72386 15 3.5 14.7761 3.5 14.5H1.5C1.5 15.8807 2.61929 17 4 17V15ZM4.5 14.5C4.5 14.7761 4.27614 15 4 15V17C5.38071 17 6.5 15.8807 6.5 14.5H4.5ZM4 9C4.27614 9 4.5 9.22386 4.5 9.5H6.5C6.5 8.11929 5.38071 7 4 7V9ZM4 7C2.61929 7 1.5 8.11929 1.5 9.5H3.5C3.5 9.22386 3.72386 9 4 9V7ZM18.5 8V16H20.5V8H18.5ZM16.5 16V8H14.5V16H16.5ZM17.5 17C16.9477 17 16.5 16.5523 16.5 16H14.5C14.5 17.6569 15.8431 19 17.5 19V17ZM18.5 16C18.5 16.5523 18.0523 17 17.5 17V19C19.1569 19 20.5 17.6569 20.5 16H18.5ZM17.5 7C18.0523 7 18.5 7.44772 18.5 8H20.5C20.5 6.34315 19.1569 5 17.5 5V7ZM17.5 5C15.8431 5 14.5 6.34315 14.5 8H16.5C16.5 7.44772 16.9477 7 17.5 7V5ZM21.5 9.5V14.5H23.5V9.5H21.5ZM20.5 14.5V9.5H18.5V14.5H20.5ZM21 15C20.7239 15 20.5 14.7761 20.5 14.5H18.5C18.5 15.8807 19.6193 17 21 17V15ZM21.5 14.5C21.5 14.7761 21.2761 15 21 15V17C22.3807 17 23.5 15.8807 23.5 14.5H21.5ZM21 9C21.2761 9 21.5 9.22386 21.5 9.5H23.5C23.5 8.11929 22.3807 7 21 7V9ZM21 7C19.6193 7 18.5 8.11929 18.5 9.5H20.5C20.5 9.22386 20.7239 9 21 9V7Z" fill="#FAF9F7"/>
</g>
<defs>
<clipPath id="clip0_6484_47334">
<rect width="24" height="24" fill="white" transform="translate(0.5)"/>
</clipPath>
</defs>
</svg>
