<svg width="25" height="24" viewBox="0 0 25 24" fill="none" xmlns="http://www.w3.org/2000/svg">
<path d="M3.5 21.4996C2.94772 21.4996 2.5 21.9473 2.5 22.4996C2.5 23.0519 2.94772 23.4996 3.5 23.4996V21.4996ZM11.5 18.4996C11.5 17.9473 11.0523 17.4996 10.5 17.4996C9.94772 17.4996 9.5 17.9473 9.5 18.4996H11.5ZM9.38114 12.7151L9.56464 13.6981L9.38114 12.7151ZM21.6733 10.4206L21.4898 9.43756L21.6733 10.4206ZM21.6733 3.5786L21.8568 2.59558V2.59558L21.6733 3.5786ZM9.38114 1.28407L9.19764 2.26709L9.38114 1.28407ZM7.93979 12.6578C7.75105 12.1388 7.17729 11.8711 6.65826 12.0598C6.13922 12.2485 5.87147 12.8223 6.06021 13.3413L7.93979 12.6578ZM8.76063 17.8413L9.70043 17.4996L8.76063 17.8413ZM12.4487 12.1834C12.274 11.6594 11.7077 11.3763 11.1838 11.5509C10.6598 11.7256 10.3767 12.2919 10.5513 12.8158L12.4487 12.1834ZM3.5 23.4996H6.5V21.4996H3.5V23.4996ZM6.5 23.4996C9.26142 23.4996 11.5 21.261 11.5 18.4996H9.5C9.5 20.1564 8.15685 21.4996 6.5 21.4996V23.4996ZM9.19764 2.26709L21.4898 4.56162L21.8568 2.59558L9.56464 0.301052L9.19764 2.26709ZM21.5 4.57394V9.42524H23.5V4.57394H21.5ZM21.4898 9.43756L9.19764 11.7321L9.56464 13.6981L21.8568 11.4036L21.4898 9.43756ZM9.19764 11.7321C6.236 12.2849 3.5 10.0124 3.5 6.99959H1.5C1.5 11.264 5.37262 14.4806 9.56464 13.6981L9.19764 11.7321ZM21.5 9.42524C21.5 9.42774 21.4996 9.42879 21.4994 9.42938C21.4991 9.43033 21.4984 9.43174 21.4971 9.43325C21.4959 9.43476 21.4946 9.43572 21.4937 9.43624C21.4932 9.43657 21.4922 9.4371 21.4898 9.43756L21.8568 11.4036C22.8094 11.2258 23.5 10.3943 23.5 9.42524H21.5ZM21.4898 4.56162C21.4922 4.56208 21.4932 4.56262 21.4937 4.56294C21.4946 4.56346 21.4959 4.56442 21.4971 4.56593C21.4984 4.56745 21.4991 4.56885 21.4994 4.56981C21.4996 4.5704 21.5 4.57144 21.5 4.57394H23.5C23.5 3.60487 22.8094 2.7734 21.8568 2.59558L21.4898 4.56162ZM9.56464 0.301052C5.37262 -0.481457 1.5 2.73517 1.5 6.99959H3.5C3.5 3.98679 6.236 1.71425 9.19764 2.26709L9.56464 0.301052ZM9.5 6.99959C9.5 7.55188 9.05228 7.99959 8.5 7.99959V9.99959C10.1569 9.99959 11.5 8.65645 11.5 6.99959H9.5ZM8.5 7.99959C7.94772 7.99959 7.5 7.55188 7.5 6.99959H5.5C5.5 8.65645 6.84315 9.99959 8.5 9.99959V7.99959ZM7.5 6.99959C7.5 6.44731 7.94772 5.99959 8.5 5.99959V3.99959C6.84315 3.99959 5.5 5.34274 5.5 6.99959H7.5ZM8.5 5.99959C9.05228 5.99959 9.5 6.44731 9.5 6.99959H11.5C11.5 5.34274 10.1569 3.99959 8.5 3.99959V5.99959ZM6.06021 13.3413L7.82084 18.1831L9.70043 17.4996L7.93979 12.6578L6.06021 13.3413ZM9.70043 19.4996H12.1126V17.4996H9.70043V19.4996ZM14.0099 16.8671L12.4487 12.1834L10.5513 12.8158L12.1126 17.4996L14.0099 16.8671ZM12.1126 19.4996C13.4777 19.4996 14.4416 18.1622 14.0099 16.8671L12.1126 17.4996V19.4996ZM7.82084 18.1831C8.10825 18.9735 8.85942 19.4996 9.70043 19.4996V17.4996L9.70043 17.4996L7.82084 18.1831Z" fill="#FAF9F7"/>
</svg>
