<svg width="25" height="24" viewBox="0 0 25 24" fill="none" xmlns="http://www.w3.org/2000/svg">
<g clip-path="url(#clip0_6484_47321)">
<path d="M11.3614 12.7881L11.9306 13.6103L11.3614 12.7881ZM13.6383 12.7881L14.2075 11.9659L13.6383 12.7881ZM22.8678 19.1778L22.2986 20L22.8678 19.1778ZM2.13189 19.1778L1.56268 18.3556H1.56268L2.13189 19.1778ZM13.0348 9.19349L13.5635 10.0423L13.0348 9.19349ZM11.4998 12C11.4998 12.5523 11.9475 13 12.4998 13C13.0521 13 13.4998 12.5523 13.4998 12H11.4998ZM8.49983 6.25C8.49983 6.80228 8.94755 7.25 9.49983 7.25C10.0521 7.25 10.4998 6.80228 10.4998 6.25H8.49983ZM22.2986 20H2.7011V22H22.2986V20ZM2.7011 20L11.9306 13.6103L10.7922 11.9659L1.56268 18.3556L2.7011 20ZM13.069 13.6103L22.2986 20L23.437 18.3556L14.2075 11.9659L13.069 13.6103ZM11.9306 13.6103C12.2731 13.3733 12.7266 13.3733 13.069 13.6103L14.2075 11.9659C13.1801 11.2547 11.8195 11.2547 10.7922 11.9659L11.9306 13.6103ZM22.2986 22C24.2593 22 25.0491 19.4717 23.437 18.3556L22.2986 20L22.2986 20V22ZM2.7011 20H2.7011L1.56268 18.3556C-0.0494299 19.4717 0.740357 22 2.7011 22V20ZM10.4998 6C10.4998 5.5701 10.7205 5.06147 11.137 4.64263C11.5528 4.22455 12.0601 4 12.4998 4V2C11.4145 2 10.4218 2.52545 9.71886 3.23237C9.01663 3.93853 8.49983 4.9299 8.49983 6H10.4998ZM12.4998 4C13.052 4 13.5541 4.18166 13.9053 4.49556C14.2388 4.79369 14.4998 5.26591 14.4998 6H16.4998C16.4998 4.73409 16.0234 3.70631 15.2382 3.00444C14.4706 2.31834 13.4727 2 12.4998 2V4ZM14.4998 6C14.4998 6.36293 14.294 6.79257 13.8574 7.26364C13.4345 7.71993 12.9015 8.09848 12.5062 8.34464L13.5635 10.0423C14.0308 9.75132 14.7303 9.26397 15.3242 8.62323C15.9044 7.99726 16.4998 7.09875 16.4998 6H14.4998ZM11.4998 10.118V12H13.4998V10.118H11.4998ZM8.49983 6V6.25H10.4998V6H8.49983ZM12.5062 8.34464C11.9255 8.7063 11.4998 9.3557 11.4998 10.118H13.4998C13.4998 10.1177 13.4998 10.1164 13.5007 10.1134C13.5016 10.1101 13.5037 10.1044 13.5083 10.0965C13.5181 10.0799 13.5363 10.0593 13.5635 10.0423L12.5062 8.34464Z" fill="#FAF9F7"/>
</g>
<defs>
<clipPath id="clip0_6484_47321">
<rect width="24" height="24" fill="white" transform="translate(0.5)"/>
</clipPath>
</defs>
</svg>
