<svg width="25" height="24" viewBox="0 0 25 24" fill="none" xmlns="http://www.w3.org/2000/svg">
<path d="M2.5 9.88014C2.5 8.92659 2.95332 8.02983 3.72115 7.46442L12.5 1L21.2788 7.46443C22.0467 8.02983 22.5 8.92659 22.5 9.88014V20.5C22.5 21.8807 21.3807 23 20 23H16.5C15.9477 23 15.5 22.5523 15.5 22V16C15.5 15.7239 15.2761 15.5 15 15.5H10C9.72386 15.5 9.5 15.7239 9.5 16V22C9.5 22.5523 9.05228 23 8.5 23H5C3.61929 23 2.5 21.8807 2.5 20.5V9.88014Z" stroke="#FAF9F7" stroke-width="2" stroke-linecap="round" stroke-linejoin="round"/>
</svg>
