<svg width="25" height="24" viewBox="0 0 25 24" fill="none" xmlns="http://www.w3.org/2000/svg">
<g clip-path="url(#clip0_6484_47312)">
<path d="M2.5 1V0C1.94772 0 1.5 0.447715 1.5 1L2.5 1ZM22.5 1H23.5C23.5 0.447715 23.0523 0 22.5 0V1ZM22.5 23V24C23.0523 24 23.5 23.5523 23.5 23H22.5ZM2.5 23H1.5C1.5 23.5523 1.94772 24 2.5 24V23ZM16.5 18V19H17.5V18H16.5ZM8.5 18H7.5V19H8.5V18ZM6.5 6V5C5.94772 5 5.5 5.44772 5.5 6H6.5ZM10.5 6H11.5C11.5 5.44772 11.0523 5 10.5 5V6ZM10.5 10V11C11.0523 11 11.5 10.5523 11.5 10H10.5ZM6.5 10H5.5C5.5 10.5523 5.94772 11 6.5 11V10ZM14.5 6V5C13.9477 5 13.5 5.44772 13.5 6H14.5ZM18.5 6H19.5C19.5 5.44772 19.0523 5 18.5 5V6ZM18.5 10V11C19.0523 11 19.5 10.5523 19.5 10H18.5ZM14.5 10H13.5C13.5 10.5523 13.9477 11 14.5 11V10ZM10.5 18V17H9.5V18H10.5ZM14.5 18H15.5V17H14.5V18ZM14.5 23V24H15.5V23H14.5ZM10.5 23H9.5V24H10.5V23ZM1.5 0C0.947715 0 0.5 0.447715 0.5 1C0.5 1.55228 0.947715 2 1.5 2V0ZM23.5 2C24.0523 2 24.5 1.55228 24.5 1C24.5 0.447715 24.0523 0 23.5 0V2ZM1.5 22C0.947715 22 0.5 22.4477 0.5 23C0.5 23.5523 0.947715 24 1.5 24V22ZM23.5 24C24.0523 24 24.5 23.5523 24.5 23C24.5 22.4477 24.0523 22 23.5 22V24ZM2.5 2H22.5V0H2.5V2ZM21.5 1V23H23.5V1H21.5ZM22.5 22H2.5V24H22.5V22ZM3.5 23V1H1.5V23H3.5ZM12.5 15C14.1568 15 15.5 16.3431 15.5 18H17.5C17.5 15.2386 15.2614 13 12.5 13V15ZM9.5 18C9.5 16.3431 10.8432 15 12.5 15V13C9.73859 13 7.5 15.2386 7.5 18H9.5ZM8.5 19H16.5V17H8.5V19ZM6.5 7H10.5V5H6.5V7ZM9.5 6V10H11.5V6H9.5ZM10.5 9H6.5V11H10.5V9ZM7.5 10V6H5.5V10H7.5ZM14.5 7H18.5V5H14.5V7ZM17.5 6V10H19.5V6H17.5ZM18.5 9H14.5V11H18.5V9ZM15.5 10V6H13.5V10H15.5ZM10.5 19H14.5V17H10.5V19ZM13.5 18V23H15.5V18H13.5ZM14.5 22H10.5V24H14.5V22ZM11.5 23V18H9.5V23H11.5ZM1.5 2H23.5V0H1.5V2ZM1.5 24H23.5V22H1.5V24Z" fill="#FAF9F7"/>
</g>
<defs>
<clipPath id="clip0_6484_47312">
<rect width="24" height="24" fill="white" transform="translate(0.5)"/>
</clipPath>
</defs>
</svg>
