<svg width="25" height="24" viewBox="0 0 25 24" fill="none" xmlns="http://www.w3.org/2000/svg">
<g clip-path="url(#clip0_6484_47322)">
<path d="M11.5 0V15M11.5 15C9.84315 15 8.5 16.7909 8.5 19C8.5 21.2091 9.84315 23 11.5 23C13.1569 23 14.5 21.2091 14.5 19C14.5 16.7909 13.1569 15 11.5 15ZM20 1C18.067 1 16.5 1.97201 16.5 5.28571C16.5 8.59942 18.067 13 20 13C21.933 13 23.5 8.59942 23.5 5.28571C23.5 1.97201 21.933 1 20 1ZM20 1V24M1.5 25V13M1.5 13V2C1.5 2 5.5 3.5 5.5 11V13H1.5Z" stroke="#FAF9F7" stroke-width="2"/>
</g>
<defs>
<clipPath id="clip0_6484_47322">
<rect width="24" height="24" fill="white" transform="translate(0.5)"/>
</clipPath>
</defs>
</svg>
