<svg width="25" height="25" viewBox="0 0 25 25" fill="none" xmlns="http://www.w3.org/2000/svg">
<path d="M9.5 23.0005C8.94772 23.0005 8.5 23.4482 8.5 24.0005C8.5 24.5528 8.94772 25.0005 9.5 25.0005V23.0005ZM23.5 25.0005C24.0523 25.0005 24.5 24.5528 24.5 24.0005C24.5 23.4482 24.0523 23.0005 23.5 23.0005V25.0005ZM19.398 24.0005V25.0005H20.3671L20.3975 24.0319L19.398 24.0005ZM19.0307 16.4755L18.048 16.661L19.0307 16.4755ZM16 9.50049L16.0071 8.50052L14.1999 8.48768L15.149 10.0257L16 9.50049ZM21 11.0005L20.4453 11.8325L23.6239 13.9516L21.8912 10.5469L21 11.0005ZM18.6632 7.4455L17.9477 8.1441L17.9477 8.1441L18.6632 7.4455ZM15.7245 5.9405L14.8096 5.53668L14.3088 6.67125L15.5238 6.92016L15.7245 5.9405ZM19 3.00048L19.2972 3.95529L21.1647 3.37399L19.6 2.20048L19 3.00048ZM15 2.00047L15.2425 2.97062L15 2.00047ZM12.7857 3.68296L12.3521 4.58406L13.0795 4.93408L13.5751 4.2969L12.7857 3.68296ZM9.47954 2.55426L9.26157 3.53021L9.47954 2.55426ZM4 3.68296L3.51085 2.81076L0.656975 4.41129L3.918 4.67959L4 3.68296ZM7.5 4.50048L7.04928 5.39315L7.5 4.50048ZM9.47954 5.9405L9.66198 6.92372L11.6612 6.55274L10.1469 5.19576L9.47954 5.9405ZM5.07136 7.4455L5.52718 8.33558L5.07136 7.4455ZM2.5 14.218L1.50211 14.153L1.32599 16.859L3.21679 14.9153L2.5 14.218ZM9 9.703L9.85267 10.2255L11.1968 8.0318L8.72401 8.74184L9 9.703ZM11.5 18.5005L10.9541 19.3383L12.4221 20.2949L12.499 18.5444L11.5 18.5005ZM12 13.0005L11.0285 12.7634L12 13.0005ZM13.1531 10.4555L14.0025 9.9277L13.2335 8.69019L12.3552 9.85266L13.1531 10.4555ZM14.9898 15.3467L13.9992 15.4831L14.9898 15.3467ZM14.6224 24.0005L13.6305 23.8738L13.4866 25.0005H14.6224V24.0005ZM16.5 4.50049L15.6846 3.92158V3.92158L16.5 4.50049ZM18.1875 9.703L18.4086 8.72774H18.4086L18.1875 9.703ZM16.4472 11.3949C16.9412 11.1479 17.1414 10.5473 16.8944 10.0533C16.6474 9.5593 16.0468 9.35908 15.5528 9.60607L16.4472 11.3949ZM18.3162 15.4492C18.8402 15.2745 19.1233 14.7082 18.9487 14.1843C18.774 13.6603 18.2077 13.3772 17.6838 13.5518L18.3162 15.4492ZM19.124 20.4928C19.6721 20.4243 20.0608 19.9245 19.9923 19.3765C19.9238 18.8284 19.424 18.4397 18.876 18.5082L19.124 20.4928ZM9.5 25.0005H23.5V23.0005H9.5V25.0005ZM19.398 24.0005C20.3975 24.0319 20.3975 24.0318 20.3975 24.0317C20.3975 24.0316 20.3975 24.0315 20.3975 24.0314C20.3975 24.0312 20.3975 24.0309 20.3975 24.0305C20.3976 24.0298 20.3976 24.0287 20.3976 24.0274C20.3977 24.0248 20.3978 24.021 20.398 24.0161C20.3983 24.0062 20.3987 23.9919 20.3992 23.9734C20.4002 23.9362 20.4016 23.882 20.4032 23.8123C20.4063 23.673 20.4103 23.4719 20.4133 23.2224C20.4194 22.7236 20.422 22.0297 20.4082 21.2482C20.381 19.7038 20.2889 17.7498 20.0133 16.2899L18.048 16.661C18.2899 17.9421 18.3815 19.7506 18.4086 21.2835C18.4219 22.0406 18.4194 22.714 18.4135 23.198C18.4105 23.4398 18.4067 23.6338 18.4037 23.7668C18.4022 23.8334 18.4009 23.8846 18.3999 23.9188C18.3995 23.936 18.3991 23.9489 18.3988 23.9573C18.3987 23.9616 18.3986 23.9647 18.3986 23.9666C18.3985 23.9676 18.3985 23.9683 18.3985 23.9687C18.3985 23.969 18.3985 23.9691 18.3985 23.9691C18.3985 23.9692 18.3985 23.9692 18.3985 23.9692C18.3985 23.9692 18.3985 23.9691 19.398 24.0005ZM20.0133 16.2899C19.7055 14.6596 18.8944 12.8129 18.1988 11.4247C17.8453 10.7193 17.5103 10.1102 17.2634 9.67695C17.1398 9.4601 17.0379 9.28666 16.9664 9.16654C16.9306 9.10646 16.9024 9.05967 16.8828 9.0274C16.873 9.01126 16.8654 8.99875 16.86 8.99002C16.8573 8.98565 16.8552 8.98223 16.8537 8.97978C16.853 8.97855 16.8524 8.97756 16.8519 8.97681C16.8517 8.97644 16.8515 8.97613 16.8513 8.97588C16.8513 8.97576 16.8512 8.97561 16.8511 8.97555C16.8511 8.97542 16.851 8.97531 16 9.50049C15.149 10.0257 15.149 10.0256 15.1489 10.0255C15.1489 10.0255 15.1489 10.0255 15.1489 10.0255C15.1489 10.0255 15.1489 10.0255 15.149 10.0256C15.1491 10.0259 15.1494 10.0263 15.1498 10.027C15.1507 10.0284 15.1522 10.0308 15.1542 10.0341C15.1582 10.0407 15.1645 10.051 15.1729 10.0649C15.1898 10.0927 15.2152 10.1348 15.248 10.1899C15.3137 10.3002 15.4091 10.4626 15.5258 10.6673C15.7594 11.0772 16.0767 11.6542 16.4107 12.3207C17.0901 13.6765 17.7943 15.3172 18.048 16.661L20.0133 16.2899ZM21 11.0005C21.8912 10.5469 21.8912 10.5469 21.8911 10.5468C21.8911 10.5467 21.8911 10.5466 21.891 10.5465C21.8909 10.5464 21.8908 10.5461 21.8907 10.5459C21.8904 10.5454 21.8901 10.5447 21.8897 10.544C21.8889 10.5424 21.8878 10.5402 21.8864 10.5375C21.8836 10.532 21.8796 10.5243 21.8745 10.5144C21.8643 10.4946 21.8495 10.4661 21.8306 10.4299C21.7927 10.3576 21.7378 10.2541 21.6688 10.1269C21.531 9.87286 21.3353 9.52193 21.1035 9.13359C20.6531 8.37942 20.0184 7.40206 19.3788 6.74691L17.9477 8.1441C18.4101 8.61765 18.9437 9.41779 19.3863 10.1589C19.6008 10.5183 19.7827 10.8444 19.9109 11.0806C19.9748 11.1985 20.0251 11.2934 20.059 11.3581C20.076 11.3905 20.0888 11.4153 20.0972 11.4316C20.1014 11.4397 20.1045 11.4457 20.1065 11.4495C20.1074 11.4514 20.1081 11.4527 20.1085 11.4535C20.1087 11.4539 20.1088 11.4541 20.1089 11.4542C20.1089 11.4543 20.1089 11.4543 20.1089 11.4542C20.1089 11.4542 20.1088 11.4542 20.1088 11.4542C20.1088 11.4541 20.1088 11.454 21 11.0005ZM19.3788 6.74691C18.6863 6.03763 17.803 5.59769 17.1471 5.33933C16.8106 5.20675 16.5131 5.11398 16.2977 5.05381C16.1897 5.02362 16.1012 5.00135 16.0376 4.98617C16.0057 4.97857 15.98 4.97273 15.9611 4.96855C15.9516 4.96646 15.9439 4.96478 15.9378 4.9635C15.9348 4.96286 15.9323 4.96232 15.9302 4.96188C15.9291 4.96166 15.9282 4.96147 15.9273 4.96129C15.9269 4.96121 15.9265 4.96113 15.9262 4.96105C15.926 4.96102 15.9257 4.96097 15.9256 4.96095C15.9254 4.9609 15.9252 4.96085 15.7245 5.9405C15.5238 6.92016 15.5236 6.92011 15.5233 6.92007C15.5233 6.92006 15.5231 6.92001 15.523 6.91999C15.5227 6.91994 15.5225 6.91989 15.5223 6.91985C15.5219 6.91977 15.5216 6.91972 15.5215 6.91968C15.5211 6.91961 15.5212 6.91963 15.5217 6.91973C15.5227 6.91995 15.5254 6.92052 15.5296 6.92146C15.5382 6.92334 15.553 6.92669 15.5735 6.93159C15.6147 6.9414 15.6783 6.95734 15.7596 6.98006C15.9231 7.02572 16.1537 7.09756 16.4141 7.20014C16.9521 7.41211 17.5382 7.72466 17.9477 8.1441L19.3788 6.74691ZM19 3.00048C19.6 2.20048 19.5997 2.20029 19.5995 2.20009C19.5994 2.20002 19.5991 2.19981 19.5989 2.19966C19.5985 2.19937 19.5981 2.19905 19.5976 2.1987C19.5967 2.19802 19.5957 2.19724 19.5945 2.19637C19.5921 2.19464 19.5893 2.19254 19.586 2.1901C19.5793 2.18521 19.5707 2.17892 19.5601 2.17136C19.5391 2.15623 19.5103 2.13593 19.4743 2.11136C19.4025 2.06228 19.3015 1.99579 19.1752 1.91913C18.924 1.76659 18.5662 1.56972 18.1346 1.38991C17.2926 1.03907 16.0556 0.705803 14.7575 1.03033L15.2425 2.97062C15.9444 2.79516 16.7074 2.96189 17.3654 3.23606C17.6838 3.36875 17.951 3.51563 18.1373 3.62871C18.2298 3.68487 18.3006 3.73165 18.346 3.76265C18.3686 3.77812 18.3848 3.78956 18.394 3.79616C18.3985 3.79946 18.4014 3.80154 18.4024 3.8023C18.4029 3.80267 18.403 3.80272 18.4026 3.80242C18.4024 3.80227 18.4021 3.80204 18.4016 3.80172C18.4014 3.80156 18.4012 3.80137 18.4009 3.80117C18.4008 3.80106 18.4005 3.80089 18.4005 3.80084C18.4002 3.80067 18.4 3.80048 19 3.00048ZM14.7575 1.03033C13.9378 1.23524 13.229 1.80537 12.7889 2.21606C12.5533 2.43602 12.3592 2.64445 12.2236 2.79813C12.1555 2.8754 12.1012 2.93994 12.0627 2.98661C12.0435 3.00997 12.0282 3.02893 12.0171 3.04286C12.0115 3.04983 12.007 3.05554 12.0035 3.05993C12.0018 3.06212 12.0003 3.06398 11.9991 3.0655C11.9985 3.06626 11.998 3.06694 11.9976 3.06752C11.9973 3.06782 11.9971 3.06809 11.9969 3.06834C11.9968 3.06847 11.9967 3.06864 11.9966 3.0687C11.9965 3.06887 11.9964 3.06903 12.7857 3.68296C13.5751 4.2969 13.575 4.29705 13.5749 4.29719C13.5748 4.29723 13.5747 4.29737 13.5747 4.29745C13.5745 4.29762 13.5744 4.29776 13.5743 4.29789C13.5741 4.29814 13.574 4.2983 13.5739 4.29839C13.5738 4.29856 13.5739 4.29841 13.5743 4.29794C13.575 4.297 13.5768 4.29482 13.5794 4.29145C13.5848 4.28471 13.594 4.27329 13.6068 4.25779C13.6324 4.22671 13.672 4.17957 13.7236 4.12107C13.8276 4.00319 13.9762 3.84371 14.1536 3.67818C14.5396 3.31789 14.9379 3.04677 15.2425 2.97062L14.7575 1.03033ZM12.7857 3.68296C13.2194 2.78186 13.2192 2.78181 13.2191 2.78175C13.2191 2.78173 13.2189 2.78167 13.2188 2.78162C13.2187 2.78153 13.2184 2.78142 13.2182 2.78131C13.2177 2.78108 13.2172 2.78081 13.2165 2.78049C13.2152 2.77985 13.2135 2.77904 13.2114 2.77806C13.2073 2.7761 13.2017 2.77345 13.1947 2.77015C13.1807 2.76355 13.161 2.75434 13.1359 2.74277C13.0858 2.71964 13.014 2.68707 12.923 2.64715C12.7411 2.56738 12.4817 2.45788 12.1644 2.33561C11.5328 2.09225 10.6569 1.79258 9.6975 1.5783L9.26157 3.53021C10.0947 3.71629 10.872 3.98097 11.4453 4.20187C11.7305 4.31174 11.9615 4.40935 12.1195 4.47866C12.1984 4.51328 12.2589 4.54073 12.2985 4.559C12.3183 4.56813 12.3328 4.57495 12.3419 4.57922C12.3464 4.58135 12.3496 4.58284 12.3513 4.58366C12.3521 4.58407 12.3526 4.58431 12.3528 4.58438C12.3529 4.58441 12.3528 4.5844 12.3527 4.58435C12.3527 4.58432 12.3526 4.58429 12.3525 4.58424C12.3524 4.58421 12.3524 4.58417 12.3523 4.58416C12.3522 4.58411 12.3521 4.58406 12.7857 3.68296ZM9.6975 1.5783C8.1927 1.24222 6.61381 1.59092 5.49526 1.96175C4.92053 2.15228 4.43152 2.36092 4.08519 2.52227C3.91148 2.6032 3.77222 2.67291 3.67442 2.72349C3.62548 2.74879 3.58681 2.76936 3.55928 2.78422C3.54552 2.79165 3.53453 2.79766 3.52642 2.80213C3.52237 2.80436 3.51903 2.8062 3.51643 2.80765C3.51513 2.80837 3.51402 2.80899 3.51309 2.80951C3.51262 2.80977 3.5122 2.81001 3.51183 2.81021C3.51164 2.81032 3.5114 2.81046 3.5113 2.81051C3.51107 2.81064 3.51085 2.81076 4 3.68296C4.48915 4.55516 4.48895 4.55527 4.48877 4.55538C4.48872 4.5554 4.48854 4.5555 4.48845 4.55556C4.48826 4.55566 4.48811 4.55574 4.48801 4.5558C4.48781 4.55591 4.48778 4.55593 4.48793 4.55584C4.48824 4.55567 4.48924 4.55511 4.49094 4.55418C4.49434 4.55231 4.5005 4.54894 4.50931 4.54418C4.52694 4.53466 4.55515 4.51963 4.59308 4.50001C4.66903 4.46074 4.78351 4.40333 4.9298 4.33518C5.22345 4.19837 5.63941 4.021 6.12462 3.86014C7.12596 3.52818 8.28683 3.31252 9.26157 3.53021L9.6975 1.5783ZM4 3.68296C3.918 4.67959 3.9179 4.67959 3.9178 4.67958C3.91778 4.67958 3.91769 4.67957 3.91765 4.67957C3.91756 4.67956 3.91751 4.67955 3.91749 4.67955C3.91746 4.67955 3.91756 4.67956 3.91779 4.67958C3.91825 4.67962 3.91925 4.6797 3.92076 4.67983C3.92378 4.68009 3.92886 4.68053 3.93591 4.68117C3.95002 4.68244 3.97198 4.68447 4.00101 4.68733C4.0591 4.69305 4.14527 4.70205 4.25328 4.71482C4.46992 4.74043 4.77125 4.78082 5.10831 4.83961C5.81074 4.96213 6.56227 5.14725 7.04928 5.39315L7.95072 3.60782C7.18476 3.22107 6.1863 2.99744 5.45196 2.86935C5.07064 2.80284 4.7319 2.75747 4.48807 2.72865C4.36585 2.7142 4.26668 2.70382 4.19699 2.69695C4.16213 2.69352 4.13459 2.69096 4.11517 2.68922C4.10546 2.68834 4.09777 2.68767 4.09221 2.68719C4.08943 2.68695 4.08718 2.68676 4.08548 2.68662C4.08462 2.68655 4.08391 2.68649 4.08333 2.68644C4.08304 2.68642 4.08278 2.68639 4.08256 2.68638C4.08245 2.68637 4.08231 2.68636 4.08225 2.68635C4.08212 2.68634 4.082 2.68633 4 3.68296ZM7.04928 5.39315C7.38181 5.56105 7.8116 5.86844 8.19056 6.16729C8.37252 6.31079 8.52996 6.44205 8.64161 6.5372C8.69728 6.58464 8.74116 6.62276 8.77055 6.64851C8.78524 6.66137 8.79628 6.67113 8.80334 6.67738C8.80687 6.68051 8.8094 6.68276 8.81089 6.68409C8.81163 6.68475 8.81212 6.68519 8.81234 6.68538C8.81245 6.68548 8.81249 6.68552 8.81246 6.6855C8.81245 6.68549 8.81242 6.68546 8.81238 6.68542C8.81235 6.6854 8.81231 6.68536 8.8123 6.68535C8.81224 6.6853 8.81219 6.68525 9.47954 5.9405C10.1469 5.19576 10.1468 5.1957 10.1468 5.19564C10.1467 5.19562 10.1467 5.19555 10.1466 5.1955C10.1465 5.1954 10.1463 5.19528 10.1462 5.19514C10.1459 5.19488 10.1455 5.19455 10.1451 5.19416C10.1442 5.19338 10.1431 5.19236 10.1417 5.1911C10.1388 5.18858 10.1349 5.18512 10.13 5.18075C10.1202 5.17201 10.1062 5.15966 10.0884 5.14409C10.0529 5.11297 10.0021 5.06889 9.93887 5.01499C9.81269 4.90745 9.63525 4.7595 9.429 4.59686C9.03153 4.28341 8.47155 3.87079 7.95072 3.60782L7.04928 5.39315ZM9.47954 5.9405C9.29709 4.95729 9.29694 4.95732 9.29679 4.95735C9.29672 4.95736 9.29656 4.95739 9.29643 4.95741C9.29618 4.95746 9.29589 4.95751 9.29556 4.95757C9.29491 4.9577 9.29411 4.95784 9.29318 4.95802C9.29132 4.95837 9.28889 4.95883 9.28592 4.95939C9.27997 4.96053 9.27182 4.96209 9.26156 4.96409C9.24102 4.9681 9.21199 4.97387 9.17507 4.98146C9.10126 4.99663 8.99581 5.0191 8.86368 5.04932C8.59967 5.10969 8.22771 5.20134 7.78772 5.32801C6.91313 5.57981 5.74486 5.97709 4.61555 6.55543L5.52718 8.33558C6.50171 7.83651 7.53753 7.48128 8.34106 7.24994C8.74014 7.13504 9.07575 7.05245 9.30955 6.99898C9.42632 6.97228 9.51733 6.95292 9.57776 6.9405C9.60796 6.93429 9.63049 6.92983 9.64473 6.92704C9.65186 6.92565 9.65691 6.92469 9.65981 6.92413C9.66126 6.92386 9.66217 6.92369 9.66254 6.92362C9.66272 6.92358 9.66277 6.92357 9.66267 6.92359C9.66263 6.9236 9.66255 6.92362 9.66243 6.92364C9.66237 6.92365 9.66226 6.92367 9.66223 6.92367C9.66211 6.9237 9.66198 6.92372 9.47954 5.9405ZM4.61555 6.55543C3.78666 6.97991 3.22829 7.76779 2.84558 8.53218C2.45303 9.31622 2.17888 10.21 1.98606 11.0247C1.79174 11.8457 1.67147 12.6237 1.59968 13.1935C1.56365 13.4795 1.53951 13.7157 1.52426 13.882C1.51664 13.9652 1.51123 14.031 1.50766 14.077C1.50588 14.1 1.50455 14.118 1.50364 14.1308C1.50319 14.1372 1.50284 14.1423 1.50258 14.146C1.50246 14.1478 1.50236 14.1494 1.50228 14.1505C1.50224 14.1511 1.5022 14.1516 1.50218 14.1521C1.50216 14.1523 1.50215 14.1525 1.50214 14.1526C1.50212 14.1528 1.50211 14.153 2.5 14.218C3.49789 14.283 3.49788 14.2831 3.49787 14.2833C3.49787 14.2833 3.49786 14.2834 3.49786 14.2834C3.49785 14.2835 3.49785 14.2835 3.49786 14.2834C3.49787 14.2832 3.49791 14.2827 3.49797 14.2818C3.49808 14.2801 3.49829 14.2771 3.4986 14.2728C3.49921 14.2641 3.50022 14.2503 3.50167 14.2317C3.50456 14.1944 3.50919 14.1379 3.51591 14.0646C3.52937 13.9178 3.55115 13.7042 3.58399 13.4435C3.64996 12.9199 3.75928 12.2163 3.93229 11.4853C4.10681 10.748 4.33775 10.0192 4.63396 9.42757C4.94 8.81631 5.25406 8.47545 5.52718 8.33558L4.61555 6.55543ZM2.5 14.218C3.21679 14.9153 3.21677 14.9153 3.21677 14.9153C3.21678 14.9153 3.21678 14.9153 3.21679 14.9153C3.21683 14.9152 3.21691 14.9152 3.21702 14.9151C3.21724 14.9148 3.2176 14.9145 3.21811 14.9139C3.21912 14.9129 3.2207 14.9113 3.22284 14.9091C3.22712 14.9047 3.23361 14.898 3.24222 14.8892C3.25943 14.8716 3.28506 14.8455 3.31823 14.8117C3.38457 14.7443 3.48096 14.6466 3.60021 14.527C3.83894 14.2874 4.16812 13.9608 4.53055 13.6116C5.27911 12.8904 6.09424 12.147 6.5639 11.8263L5.4361 10.1746C4.80368 10.6065 3.86882 11.4719 3.14289 12.1713C2.76808 12.5324 2.4289 12.869 2.18359 13.1152C2.06081 13.2384 1.96125 13.3392 1.89215 13.4095C1.85759 13.4446 1.83063 13.4722 1.81218 13.491C1.80295 13.5005 1.79585 13.5077 1.79098 13.5127C1.78855 13.5152 1.78668 13.5171 1.78538 13.5185C1.78473 13.5192 1.78422 13.5197 1.78386 13.52C1.78368 13.5202 1.78353 13.5204 1.78342 13.5205C1.78337 13.5205 1.78332 13.5206 1.78329 13.5206C1.78324 13.5207 1.78321 13.5207 2.5 14.218ZM6.5639 11.8263C7.01276 11.5198 7.67093 11.2291 8.26536 11.0055C8.55324 10.8972 8.80929 10.8109 8.99278 10.7518C9.0843 10.7223 9.15716 10.6998 9.20619 10.6849C9.23069 10.6775 9.2492 10.672 9.26106 10.6685C9.26699 10.6668 9.27125 10.6655 9.27377 10.6648C9.27503 10.6644 9.27585 10.6642 9.27622 10.6641C9.27641 10.664 9.27648 10.664 9.27645 10.664C9.27643 10.664 9.27638 10.6641 9.2763 10.6641C9.27627 10.6641 9.27619 10.6641 9.27617 10.6641C9.27608 10.6641 9.27599 10.6642 9 9.703C8.72401 8.74184 8.7239 8.74187 8.72379 8.74191C8.72374 8.74192 8.72362 8.74195 8.72352 8.74198C8.72333 8.74204 8.72311 8.7421 8.72286 8.74217C8.72236 8.74232 8.72175 8.74249 8.72102 8.7427C8.71956 8.74313 8.71764 8.74368 8.71528 8.74437C8.71054 8.74575 8.70402 8.74765 8.69577 8.75008C8.6793 8.75494 8.65595 8.76188 8.6264 8.77083C8.56734 8.78872 8.48331 8.81468 8.37968 8.84806C8.17287 8.91466 7.88556 9.01157 7.56119 9.13359C6.93115 9.37059 6.08931 9.72863 5.4361 10.1746L6.5639 11.8263ZM9 9.703C8.14733 9.18055 8.14701 9.18107 8.14669 9.1816C8.14658 9.18179 8.14625 9.18232 8.14602 9.18269C8.14557 9.18343 8.14511 9.1842 8.14463 9.18499C8.14367 9.18657 8.14266 9.18825 8.14159 9.19002C8.13947 9.19357 8.13713 9.19752 8.13459 9.20185C8.1295 9.21052 8.12362 9.22077 8.11701 9.23258C8.1038 9.2562 8.08771 9.28612 8.0694 9.32232C8.03279 9.39473 7.98734 9.49228 7.93844 9.61498C7.84056 9.86058 7.72926 10.206 7.64732 10.6505C7.48271 11.5435 7.44066 12.8148 7.84102 14.4551L9.78398 13.9809C9.44968 12.6112 9.50137 11.625 9.61418 11.013C9.67095 10.7051 9.74427 10.486 9.79634 10.3554C9.82241 10.29 9.84327 10.2464 9.85422 10.2248C9.85969 10.214 9.86269 10.2086 9.86263 10.2087C9.8626 10.2088 9.8618 10.2102 9.86017 10.213C9.85935 10.2144 9.85832 10.2161 9.85707 10.2182C9.85645 10.2192 9.85577 10.2204 9.85504 10.2216C9.85467 10.2222 9.85429 10.2228 9.85389 10.2234C9.8537 10.2238 9.85339 10.2243 9.85329 10.2244C9.85298 10.2249 9.85267 10.2255 9 9.703ZM7.84102 14.4551C8.25021 16.1316 9.00267 17.3371 9.66429 18.1291C9.99444 18.5243 10.302 18.8167 10.5336 19.0147C10.6495 19.1138 10.7468 19.1896 10.8189 19.2431C10.855 19.2699 10.8848 19.2911 10.9076 19.3069C10.919 19.3148 10.9286 19.3214 10.9364 19.3266C10.9403 19.3292 10.9437 19.3315 10.9467 19.3335C10.9481 19.3344 10.9495 19.3353 10.9507 19.3361C10.9513 19.3365 10.9519 19.3369 10.9525 19.3373C10.9528 19.3375 10.9532 19.3377 10.9533 19.3378C10.9537 19.3381 10.9541 19.3383 11.5 18.5005C12.0459 17.6627 12.0463 17.6629 12.0467 17.6631C12.0468 17.6632 12.0471 17.6634 12.0473 17.6636C12.0478 17.6639 12.0482 17.6641 12.0486 17.6644C12.0493 17.6649 12.05 17.6653 12.0505 17.6657C12.0516 17.6664 12.0522 17.6668 12.0524 17.6669C12.0527 17.6671 12.0513 17.6662 12.0482 17.664C12.042 17.6597 12.0292 17.6507 12.0104 17.6368C11.9729 17.6089 11.9118 17.5618 11.8332 17.4945C11.6757 17.3599 11.4491 17.146 11.1992 16.8469C10.7007 16.2502 10.1095 15.3144 9.78398 13.9809L7.84102 14.4551ZM11.5 18.5005C12.499 18.5444 12.499 18.5444 12.499 18.5444C12.499 18.5444 12.499 18.5444 12.499 18.5443C12.499 18.5442 12.4991 18.5441 12.4991 18.5439C12.4991 18.5434 12.4991 18.5428 12.4992 18.5418C12.4992 18.54 12.4994 18.5371 12.4995 18.5333C12.4999 18.5256 12.5004 18.514 12.5011 18.4988C12.5025 18.4684 12.5046 18.4233 12.5074 18.3653C12.513 18.2492 12.5214 18.0816 12.5324 17.8762C12.5544 17.4652 12.5871 16.9046 12.6294 16.3049C12.7169 15.0646 12.8383 13.7834 12.9715 13.2376L11.0285 12.7634C10.8467 13.5084 10.7181 14.9772 10.6343 16.1642C10.591 16.7782 10.5577 17.3505 10.5353 17.7691C10.524 17.9785 10.5155 18.1498 10.5097 18.2689C10.5068 18.3285 10.5047 18.3751 10.5032 18.407C10.5025 18.4229 10.5019 18.4352 10.5015 18.4435C10.5014 18.4477 10.5012 18.4509 10.5011 18.4531C10.5011 18.4542 10.501 18.455 10.501 18.4556C10.501 18.4559 10.501 18.4561 10.501 18.4563C10.501 18.4564 10.501 18.4565 10.501 18.4565C10.501 18.4566 10.501 18.4566 11.5 18.5005ZM12.9715 13.2376C13.1296 12.5896 13.3803 12.0343 13.5939 11.6393C13.6999 11.4432 13.7947 11.2906 13.8607 11.1901C13.8936 11.14 13.9191 11.1031 13.9349 11.0807C13.9428 11.0695 13.9483 11.062 13.9511 11.0582C13.9525 11.0563 13.9532 11.0553 13.9532 11.0554C13.9532 11.0554 13.953 11.0556 13.9526 11.0561C13.9524 11.0563 13.9522 11.0567 13.9519 11.057C13.9518 11.0572 13.9516 11.0574 13.9515 11.0576C13.9514 11.0577 13.9513 11.0579 13.9512 11.058C13.9511 11.0581 13.951 11.0583 13.1531 10.4555C12.3552 9.85266 12.3551 9.85284 12.3549 9.85303C12.3549 9.8531 12.3547 9.8533 12.3546 9.85344C12.3544 9.85372 12.3542 9.85401 12.354 9.85432C12.3535 9.85494 12.353 9.85563 12.3524 9.85638C12.3513 9.85788 12.35 9.85964 12.3485 9.86166C12.3455 9.8657 12.3417 9.87077 12.3373 9.87686C12.3283 9.88904 12.3166 9.90529 12.3023 9.92548C12.2738 9.96583 12.235 10.022 12.1885 10.0929C12.0956 10.2345 11.971 10.4358 11.8347 10.6879C11.5636 11.1891 11.2377 11.9064 11.0285 12.7634L12.9715 13.2376ZM13.1531 10.4555C12.3037 10.9833 12.3036 10.9831 12.3035 10.983C12.3035 10.983 12.3034 10.9828 12.3034 10.9828C12.3033 10.9826 12.3033 10.9826 12.3032 10.9825C12.3032 10.9824 12.3032 10.9824 12.3033 10.9826C12.3035 10.983 12.3041 10.9839 12.305 10.9854C12.3068 10.9883 12.31 10.9935 12.3145 11.0009C12.3234 11.0157 12.3374 11.0391 12.356 11.0706C12.3931 11.1337 12.4481 11.2291 12.5158 11.3522C12.6516 11.5989 12.8374 11.9547 13.0334 12.3841C13.4305 13.2537 13.8468 14.3763 13.9992 15.4831L15.9805 15.2103C15.7905 13.8309 15.2885 12.5079 14.8528 11.5534C14.6324 11.0708 14.4232 10.6699 14.268 10.388C14.1904 10.2468 14.1259 10.1349 14.0799 10.0567C14.057 10.0176 14.0386 9.98698 14.0255 9.96529C14.0189 9.95445 14.0136 9.94585 14.0098 9.93956C14.0079 9.93641 14.0063 9.93385 14.005 9.93187C14.0044 9.93088 14.0039 9.93003 14.0035 9.92934C14.0033 9.92899 14.0031 9.92868 14.0029 9.92841C14.0028 9.92827 14.0027 9.92809 14.0027 9.92802C14.0026 9.92786 14.0025 9.9277 13.1531 10.4555ZM13.9992 15.4831C14.1741 16.7532 14.0928 18.8167 13.9526 20.6393C13.8837 21.5343 13.803 22.3448 13.7395 22.9316C13.7077 23.2247 13.6803 23.4615 13.6609 23.6245C13.6512 23.7059 13.6435 23.7689 13.6383 23.8112C13.6357 23.8323 13.6337 23.8483 13.6324 23.8588C13.6317 23.8641 13.6312 23.868 13.6309 23.8705C13.6307 23.8718 13.6306 23.8727 13.6305 23.8732C13.6305 23.8735 13.6305 23.8737 13.6305 23.8738C13.6305 23.8738 13.6305 23.8738 13.6305 23.8739C13.6305 23.8739 13.6305 23.8738 14.6224 24.0005C15.6144 24.1272 15.6144 24.1271 15.6144 24.127C15.6144 24.1269 15.6144 24.1268 15.6144 24.1267C15.6145 24.1264 15.6145 24.1261 15.6145 24.1256C15.6147 24.1247 15.6148 24.1235 15.615 24.1219C15.6154 24.1188 15.616 24.1142 15.6167 24.1083C15.6182 24.0964 15.6204 24.0791 15.6232 24.0565C15.6288 24.0114 15.6368 23.9454 15.6469 23.8609C15.667 23.6917 15.6952 23.4479 15.7278 23.1469C15.793 22.5454 15.8759 21.7136 15.9467 20.7927C16.0859 18.9833 16.1883 16.7199 15.9805 15.2103L13.9992 15.4831ZM14.6224 25.0005H19.398V23.0005H14.6224V25.0005ZM15.7245 5.9405C16.6393 6.34433 16.6393 6.34438 16.6393 6.34443C16.6393 6.34445 16.6392 6.34449 16.6392 6.34452C16.6392 6.34456 16.6392 6.3446 16.6392 6.34462C16.6392 6.34466 16.6392 6.34465 16.6392 6.34458C16.6393 6.34445 16.6394 6.3441 16.6397 6.34354C16.6402 6.34241 16.641 6.34045 16.6423 6.33768C16.6447 6.33214 16.6487 6.3234 16.6539 6.31177C16.6644 6.28849 16.6803 6.25375 16.7006 6.21008C16.7413 6.12246 16.7992 6.00034 16.8678 5.86352C17.0113 5.57688 17.1771 5.27414 17.3154 5.07941L15.6846 3.92158C15.4531 4.24766 15.2312 4.66492 15.0794 4.96808C15.0002 5.12617 14.9337 5.2664 14.8868 5.3674C14.8632 5.41804 14.8445 5.45919 14.8314 5.48821C14.8248 5.50273 14.8196 5.51425 14.816 5.52243C14.8142 5.52652 14.8127 5.52978 14.8116 5.53217C14.8111 5.53336 14.8107 5.53434 14.8103 5.53509C14.8102 5.53547 14.81 5.53579 14.8099 5.53605C14.8099 5.53619 14.8098 5.5363 14.8098 5.53641C14.8097 5.53646 14.8097 5.53653 14.8097 5.53655C14.8097 5.53662 14.8096 5.53668 15.7245 5.9405ZM17.3154 5.07941C17.4851 4.84034 17.9027 4.55605 18.4276 4.30541C18.6659 4.19164 18.8883 4.10231 19.0513 4.04153C19.1322 4.01134 19.1971 3.98872 19.2403 3.97412C19.2618 3.96683 19.2778 3.96157 19.2875 3.95841C19.2924 3.95683 19.2957 3.95577 19.2974 3.95525C19.2982 3.95499 19.2986 3.95486 19.2986 3.95487C19.2986 3.95487 19.2984 3.95491 19.2982 3.95498C19.2981 3.95502 19.298 3.95506 19.2978 3.95511C19.2977 3.95514 19.2976 3.95518 19.2975 3.9552C19.2974 3.95524 19.2972 3.95529 19 3.00048C18.7028 2.04567 18.7026 2.04573 18.7024 2.04578C18.7024 2.0458 18.7022 2.04586 18.702 2.04591C18.7018 2.04599 18.7014 2.04609 18.7011 2.0462C18.7004 2.04641 18.6996 2.04665 18.6988 2.04694C18.697 2.0475 18.6947 2.04821 18.692 2.04906C18.6867 2.05077 18.6795 2.05304 18.6708 2.05589C18.6532 2.06158 18.629 2.06955 18.5989 2.07975C18.5387 2.10013 18.4545 2.12954 18.3525 2.16759C18.1495 2.24328 17.8703 2.35521 17.5658 2.50062C17.0051 2.76834 16.1727 3.23406 15.6846 3.92158L17.3154 5.07941ZM16 9.50049C15.9929 10.5005 15.9928 10.5005 15.9928 10.5005C15.9928 10.5005 15.9927 10.5005 15.9927 10.5005C15.9926 10.5005 15.9926 10.5005 15.9926 10.5005C15.9926 10.5005 15.9926 10.5005 15.9928 10.5005C15.993 10.5005 15.9936 10.5005 15.9945 10.5005C15.9963 10.5005 15.9993 10.5005 16.0035 10.5006C16.0119 10.5007 16.025 10.5008 16.0424 10.5011C16.0771 10.5017 16.1288 10.5028 16.1939 10.5046C16.3243 10.5083 16.507 10.5151 16.7143 10.5276C17.1436 10.5534 17.6235 10.6005 17.9664 10.6783L18.4086 8.72774C17.8999 8.61245 17.2861 8.55834 16.8345 8.53117C16.6014 8.51714 16.3968 8.50952 16.2502 8.50539C16.1767 8.50332 16.1174 8.50211 16.0757 8.50142C16.0549 8.50107 16.0385 8.50085 16.0269 8.50072C16.0211 8.50065 16.0165 8.5006 16.0132 8.50057C16.0115 8.50055 16.0102 8.50054 16.0092 8.50054C16.0087 8.50053 16.0082 8.50053 16.0079 8.50052C16.0077 8.50052 16.0076 8.50052 16.0074 8.50052C16.0074 8.50052 16.0073 8.50052 16.0073 8.50052C16.0072 8.50052 16.0071 8.50052 16 9.50049ZM17.9664 10.6783C18.4924 10.7975 19.1025 11.0724 19.6157 11.3459C19.8645 11.4784 20.0758 11.6026 20.2239 11.693C20.2978 11.7381 20.3554 11.7745 20.3935 11.7989C20.4125 11.8111 20.4266 11.8203 20.4354 11.826C20.4398 11.8289 20.4428 11.8309 20.4445 11.832C20.4453 11.8326 20.4458 11.8329 20.446 11.833C20.446 11.833 20.446 11.833 20.4459 11.8329C20.4458 11.8329 20.4458 11.8329 20.4457 11.8328C20.4456 11.8328 20.4455 11.8327 20.4455 11.8327C20.4454 11.8326 20.4453 11.8325 21 11.0005C21.5547 10.1684 21.5546 10.1684 21.5545 10.1683C21.5544 10.1683 21.5543 10.1682 21.5542 10.1681C21.554 10.168 21.5538 10.1678 21.5536 10.1677C21.5531 10.1674 21.5525 10.167 21.5519 10.1666C21.5505 10.1657 21.5489 10.1646 21.5468 10.1632C21.5427 10.1605 21.5372 10.1569 21.5303 10.1524C21.5165 10.1433 21.4971 10.1307 21.4725 10.115C21.4234 10.0835 21.3536 10.0394 21.2663 9.98614C21.0922 9.87982 20.8464 9.73538 20.5561 9.58074C19.9913 9.27981 19.1952 8.90603 18.4086 8.72774L17.9664 10.6783ZM14.4472 12.3949L16.4472 11.3949L15.5528 9.60607L13.5528 10.6061L14.4472 12.3949ZM15.3162 16.4492L18.3162 15.4492L17.6838 13.5518L14.6838 14.5518L15.3162 16.4492ZM15.124 20.9928L19.124 20.4928L18.876 18.5082L14.876 19.0082L15.124 20.9928Z" fill="#FAF9F7"/>
</svg>
