<svg width="27" height="27" viewBox="0 0 27 27" fill="none" xmlns="http://www.w3.org/2000/svg">
<path d="M4.49951 3L5.12421 2.21913L3.49951 0.919375V3H4.49951ZM22.4995 3H23.4995V0.919375L21.8748 2.21913L22.4995 3ZM17.4995 7L17.3245 7.98456L17.7705 8.06386L18.1242 7.78087L17.4995 7ZM9.49951 7L8.87482 7.78087L9.22855 8.06386L9.67456 7.98456L9.49951 7ZM1.7342 14.3206C1.1903 14.2247 0.671642 14.5879 0.575739 15.1318C0.479836 15.6757 0.843004 16.1943 1.3869 16.2902L1.7342 14.3206ZM8.28055 17.5058C8.82445 17.6017 9.34311 17.2385 9.43901 16.6946C9.53491 16.1507 9.17174 15.6321 8.62785 15.5361L8.28055 17.5058ZM11.4995 12C11.4995 11.4477 11.0518 11 10.4995 11C9.94723 11 9.49951 11.4477 9.49951 12H11.4995ZM9.49951 12.5C9.49951 13.0523 9.94723 13.5 10.4995 13.5C11.0518 13.5 11.4995 13.0523 11.4995 12.5H9.49951ZM17.4995 12C17.4995 11.4477 17.0518 11 16.4995 11C15.9472 11 15.4995 11.4477 15.4995 12H17.4995ZM15.4995 12.5C15.4995 13.0523 15.9472 13.5 16.4995 13.5C17.0518 13.5 17.4995 13.0523 17.4995 12.5H15.4995ZM2.3869 19.7098C1.843 19.8057 1.47984 20.3243 1.57574 20.8682C1.67164 21.4121 2.1903 21.7753 2.7342 21.6794L2.3869 19.7098ZM8.64304 20.6375C9.18694 20.5416 9.5501 20.0229 9.4542 19.479C9.3583 18.9351 8.83964 18.572 8.29575 18.6679L8.64304 20.6375ZM25.6126 16.2902C26.1565 16.1943 26.5197 15.6757 26.4238 15.1318C26.3279 14.5879 25.8092 14.2247 25.2653 14.3206L25.6126 16.2902ZM18.3717 15.5361C17.8278 15.6321 17.4646 16.1507 17.5605 16.6946C17.6564 17.2385 18.1751 17.6017 18.719 17.5058L18.3717 15.5361ZM24.2653 21.6794C24.8092 21.7753 25.3279 21.4121 25.4238 20.8682C25.5197 20.3243 25.1565 19.8057 24.6126 19.7098L24.2653 21.6794ZM18.7038 18.6679C18.1599 18.572 17.6412 18.9351 17.5453 19.479C17.4494 20.0229 17.8126 20.5416 18.3565 20.6375L18.7038 18.6679ZM13.4995 20L12.4995 20.0009C12.5 20.5528 12.9476 21 13.4995 21C14.0515 21 14.499 20.5528 14.4995 20.0009L13.4995 20ZM13.5012 18.001L13.0005 17.1354C12.6918 17.314 12.5016 17.6435 12.5012 18.0001L13.5012 18.001ZM15.2316 17L15.7323 17.8656C16.2101 17.5892 16.3736 16.978 16.0976 16.5C15.8216 16.022 15.2106 15.858 14.7323 16.1335L15.2316 17ZM13.4995 17.998L13.0003 18.8645C13.3093 19.0425 13.6897 19.0425 13.9988 18.8645L13.4995 17.998ZM11.7675 17L12.2667 16.1335C11.7885 15.858 11.1774 16.022 10.9014 16.5C10.6255 16.978 10.7889 17.5892 11.2667 17.8656L11.7675 17ZM13.4978 18.001L14.4978 18.0001C14.4975 17.6435 14.3072 17.314 13.9985 17.1354L13.4978 18.001ZM21.4995 3V17H23.4995V3H21.4995ZM14.4995 24H12.4995V26H14.4995V24ZM5.49951 17V3H3.49951V17H5.49951ZM18.1242 7.78087L23.1242 3.78087L21.8748 2.21913L16.8748 6.21913L18.1242 7.78087ZM3.87482 3.78087L8.87482 7.78087L10.1242 6.21913L5.12421 2.21913L3.87482 3.78087ZM9.49951 7C9.67456 7.98456 9.67453 7.98456 9.67452 7.98457C9.67453 7.98457 9.67453 7.98457 9.67455 7.98456C9.67459 7.98456 9.67467 7.98454 9.67479 7.98452C9.67504 7.98448 9.67545 7.9844 9.67603 7.9843C9.6772 7.98409 9.67903 7.98377 9.68151 7.98333C9.68648 7.98245 9.69404 7.98112 9.70407 7.97936C9.72414 7.97584 9.75405 7.97062 9.79274 7.96395C9.87014 7.95059 9.98255 7.93141 10.1213 7.90836C10.3992 7.8622 10.7814 7.80074 11.1993 7.7394C12.0612 7.61288 12.9902 7.5 13.4995 7.5V5.5C12.8211 5.5 11.7501 5.63712 10.9089 5.7606C10.4753 5.82426 10.0802 5.8878 9.79363 5.93539C9.65022 5.95921 9.53364 5.9791 9.4526 5.99308C9.41207 6.00008 9.38041 6.0056 9.35869 6.00941C9.34784 6.01131 9.33947 6.01279 9.33372 6.0138C9.33084 6.01431 9.32862 6.0147 9.32707 6.01498C9.3263 6.01511 9.32569 6.01522 9.32526 6.0153C9.32504 6.01534 9.32487 6.01537 9.32473 6.01539C9.32467 6.0154 9.3246 6.01542 9.32457 6.01542C9.32451 6.01543 9.32446 6.01544 9.49951 7ZM13.4995 7.5C14.0088 7.5 14.9378 7.61288 15.7997 7.7394C16.2176 7.80074 16.5998 7.8622 16.8777 7.90836C17.0165 7.93141 17.1289 7.95059 17.2063 7.96395C17.245 7.97062 17.2749 7.97584 17.2949 7.97936C17.305 7.98112 17.3125 7.98245 17.3175 7.98333C17.32 7.98377 17.3218 7.98409 17.323 7.9843C17.3236 7.9844 17.324 7.98448 17.3242 7.98452C17.3244 7.98454 17.3244 7.98456 17.3245 7.98456C17.3245 7.98457 17.3245 7.98457 17.3245 7.98457C17.3245 7.98456 17.3245 7.98456 17.4995 7C17.6746 6.01544 17.6745 6.01543 17.6745 6.01542C17.6744 6.01542 17.6744 6.0154 17.6743 6.01539C17.6742 6.01537 17.674 6.01534 17.6738 6.0153C17.6733 6.01522 17.6727 6.01511 17.6719 6.01498C17.6704 6.0147 17.6682 6.01431 17.6653 6.0138C17.6596 6.01279 17.6512 6.01131 17.6403 6.00941C17.6186 6.0056 17.587 6.00008 17.5464 5.99308C17.4654 5.9791 17.3488 5.95921 17.2054 5.93539C16.9189 5.8878 16.5238 5.82426 16.0901 5.7606C15.249 5.63712 14.1779 5.5 13.4995 5.5V7.5ZM12.4995 24C8.63352 24 5.49951 20.866 5.49951 17H3.49951C3.49951 21.9706 7.52895 26 12.4995 26V24ZM21.4995 17C21.4995 20.866 18.3655 24 14.4995 24V26C19.4701 26 23.4995 21.9706 23.4995 17H21.4995ZM1.3869 16.2902L8.28055 17.5058L8.62785 15.5361L1.7342 14.3206L1.3869 16.2902ZM9.49951 12V12.5H11.4995V12H9.49951ZM15.4995 12V12.5H17.4995V12H15.4995ZM2.7342 21.6794L8.64304 20.6375L8.29575 18.6679L2.3869 19.7098L2.7342 21.6794ZM25.2653 14.3206L18.3717 15.5361L18.719 17.5058L25.6126 16.2902L25.2653 14.3206ZM24.6126 19.7098L18.7038 18.6679L18.3565 20.6375L24.2653 21.6794L24.6126 19.7098ZM14.4995 20.0009L14.5012 18.0019L12.5012 18.0001L12.4995 19.9991L14.4995 20.0009ZM14.002 18.8666L15.7323 17.8656L14.7308 16.1344L13.0005 17.1354L14.002 18.8666ZM14.7323 16.1335L13.0003 17.1315L13.9988 18.8645L15.7308 17.8665L14.7323 16.1335ZM13.9988 17.1315L12.2667 16.1335L11.2682 17.8665L13.0003 18.8645L13.9988 17.1315ZM11.2667 17.8656L12.997 18.8666L13.9985 17.1354L12.2682 16.1344L11.2667 17.8656ZM12.4978 18.0019L12.4995 20.0009L14.4995 19.9991L14.4978 18.0001L12.4978 18.0019Z" fill="#FAF9F7"/>
</svg>
