<svg width="25" height="24" viewBox="0 0 25 24" fill="none" xmlns="http://www.w3.org/2000/svg">
<path d="M19.5003 7L19.184 6.05132C18.7757 6.18743 18.5003 6.56957 18.5003 7H19.5003ZM19.5003 13H18.5003C18.5003 13.5523 18.948 14 19.5003 14V13ZM23.2557 11.2879L24.2456 11.1464L23.2557 11.2879ZM22.9475 9.13049L21.9575 9.27192V9.27192L22.9475 9.13049ZM5.50026 7H6.50026C6.50026 6.56957 6.22483 6.18743 5.81649 6.05132L5.50026 7ZM5.50026 13V14C6.05254 14 6.50026 13.5523 6.50026 13H5.50026ZM1.74485 11.2879L0.7549 11.1464L1.74485 11.2879ZM2.05305 9.13049L3.043 9.27192L2.05305 9.13049ZM11.5003 9C11.5003 8.44772 11.0525 8 10.5003 8C9.94797 8 9.50026 8.44772 9.50026 9H11.5003ZM9.50026 9.5C9.50026 10.0523 9.94797 10.5 10.5003 10.5C11.0525 10.5 11.5003 10.0523 11.5003 9.5H9.50026ZM15.5003 9C15.5003 8.44772 15.0525 8 14.5003 8C13.948 8 13.5003 8.44772 13.5003 9H15.5003ZM13.5003 9.5C13.5003 10.0523 13.948 10.5 14.5003 10.5C15.0525 10.5 15.5003 10.0523 15.5003 9.5H13.5003ZM11.5003 19C11.5003 18.4477 11.0525 18 10.5003 18C9.94797 18 9.50026 18.4477 9.50026 19H11.5003ZM15.5003 19C15.5003 18.4477 15.0525 18 14.5003 18C13.948 18 13.5003 18.4477 13.5003 19H15.5003ZM16.0003 20C18.4855 20 20.5003 17.9853 20.5003 15.5H18.5003C18.5003 16.8807 17.381 18 16.0003 18V20ZM11.5003 15.5C11.5003 17.9853 13.515 20 16.0003 20V18C14.6195 18 13.5003 16.8807 13.5003 15.5H11.5003ZM9.00026 20C11.4855 20 13.5003 17.9853 13.5003 15.5H11.5003C11.5003 16.8807 10.381 18 9.00026 18V20ZM4.50026 15.5C4.50026 17.9853 6.51498 20 9.00026 20V18C7.61955 18 6.50026 16.8807 6.50026 15.5H4.50026ZM12.5003 1C8.08198 1 4.50026 4.58172 4.50026 9H6.50026C6.50026 5.68629 9.18655 3 12.5003 3V1ZM20.5003 9C20.5003 4.58172 16.9185 1 12.5003 1V3C15.814 3 18.5003 5.68629 18.5003 9H20.5003ZM20.5003 15.5V9H18.5003V15.5H20.5003ZM4.50026 9V15.5H6.50026V9H4.50026ZM12.5003 14V16C13.6048 16 14.5003 15.1046 14.5003 14H12.5003ZM12.5003 14H10.5003C10.5003 15.1046 11.3957 16 12.5003 16V14ZM12.5003 14V12C11.3957 12 10.5003 12.8954 10.5003 14H12.5003ZM12.5003 14H14.5003C14.5003 12.8954 13.6048 12 12.5003 12V14ZM21.9575 9.27192L22.2657 11.4293L24.2456 11.1464L23.9374 8.98907L21.9575 9.27192ZM21.7707 12H19.5003V14H21.7707V12ZM20.5003 13V7H18.5003V13H20.5003ZM22.2657 11.4293C22.3088 11.7305 22.075 12 21.7707 12V14C23.2921 14 24.4608 12.6525 24.2456 11.1464L22.2657 11.4293ZM19.8165 7.94868C20.7867 7.62528 21.8129 8.25952 21.9575 9.27192L23.9374 8.98907C23.6163 6.7414 21.338 5.33333 19.184 6.05132L19.8165 7.94868ZM1.0631 8.98907L0.7549 11.1464L2.7348 11.4293L3.043 9.27192L1.0631 8.98907ZM3.22977 14H5.50026V12H3.22977V14ZM6.50026 13V7H4.50026V13H6.50026ZM0.7549 11.1464C0.539745 12.6525 1.7084 14 3.22977 14V12C2.9255 12 2.69177 11.7305 2.7348 11.4293L0.7549 11.1464ZM5.81649 6.05132C3.66251 5.33333 1.38419 6.7414 1.0631 8.98907L3.043 9.27192C3.18762 8.25951 4.21383 7.62528 5.18403 7.94868L5.81649 6.05132ZM9.50026 9V9.5H11.5003V9H9.50026ZM13.5003 9V9.5H15.5003V9H13.5003ZM10.5003 19C9.50026 19 9.50026 19.0004 9.50026 19.0008C9.50026 19.001 9.50026 19.0014 9.50026 19.0017C9.50026 19.0023 9.50026 19.0029 9.50027 19.0036C9.50027 19.005 9.50028 19.0065 9.50029 19.0082C9.50031 19.0115 9.50034 19.0155 9.5004 19.0201C9.50052 19.0292 9.50073 19.0408 9.5011 19.0547C9.50184 19.0825 9.50322 19.1195 9.50579 19.1645C9.51092 19.2541 9.52086 19.3771 9.54028 19.5228C9.57843 19.8089 9.65646 20.2081 9.82178 20.6214C9.98624 21.0325 10.2559 21.5043 10.7038 21.8776C11.1695 22.2657 11.7725 22.5 12.5003 22.5V20.5C12.228 20.5 12.081 20.4218 11.9842 20.3412C11.8697 20.2457 11.7643 20.0925 11.6787 19.8786C11.5941 19.6669 11.5471 19.4411 11.5227 19.2585C11.5109 19.1697 11.5052 19.0974 11.5025 19.0504C11.5012 19.027 11.5006 19.0103 11.5004 19.0014C11.5003 18.997 11.5002 18.9946 11.5002 18.9943C11.5002 18.9941 11.5002 18.9945 11.5002 18.9955C11.5002 18.9959 11.5003 18.9965 11.5003 18.9973C11.5003 18.9977 11.5003 18.9981 11.5003 18.9985C11.5003 18.9988 11.5003 18.9991 11.5003 18.9992C11.5003 18.9996 11.5003 19 10.5003 19ZM12.5003 22.5C13.228 22.5 13.831 22.2657 14.2967 21.8776C14.7447 21.5043 15.0143 21.0325 15.1787 20.6214C15.3441 20.2081 15.4221 19.8089 15.4602 19.5228C15.4797 19.3771 15.4896 19.2541 15.4947 19.1645C15.4973 19.1195 15.4987 19.0825 15.4994 19.0547C15.4998 19.0408 15.5 19.0292 15.5001 19.0201C15.5002 19.0155 15.5002 19.0115 15.5002 19.0082C15.5002 19.0065 15.5002 19.005 15.5003 19.0036C15.5003 19.0029 15.5003 19.0023 15.5003 19.0017C15.5003 19.0014 15.5003 19.001 15.5003 19.0008C15.5003 19.0004 15.5003 19 14.5003 19C13.5003 19 13.5003 18.9996 13.5003 18.9992C13.5003 18.9991 13.5003 18.9988 13.5003 18.9985C13.5003 18.9981 13.5003 18.9977 13.5003 18.9973C13.5003 18.9965 13.5003 18.9959 13.5003 18.9955C13.5003 18.9945 13.5003 18.9941 13.5003 18.9943C13.5003 18.9946 13.5002 18.997 13.5001 19.0014C13.4999 19.0103 13.4993 19.027 13.498 19.0504C13.4953 19.0974 13.4896 19.1697 13.4778 19.2585C13.4534 19.4411 13.4065 19.6669 13.3218 19.8786C13.2362 20.0925 13.1309 20.2457 13.0163 20.3412C12.9195 20.4218 12.7725 20.5 12.5003 20.5V22.5Z" fill="#FAF9F7"/>
</svg>
