<svg width="25" height="24" viewBox="0 0 25 24" fill="none" xmlns="http://www.w3.org/2000/svg">
<path d="M9.58405 5.00116L9.55564 6.00076L9.55722 6.0008L9.58405 5.00116ZM13.3587 17.3792L12.8227 18.2234L13.3587 17.3792ZM11.6413 17.3792L12.1773 18.2234L11.6413 17.3792ZM9.64404 4.92111L10.5958 4.61435L9.64404 4.92111ZM18.2747 9.14262L17.3502 8.7615L18.2747 9.14262ZM18.5571 11.4203L17.7932 12.0656L18.5571 11.4203ZM6.44289 11.4203L5.67895 10.775H5.67895L6.44289 11.4203ZM6.72527 9.14262L5.80074 9.52375L6.72527 9.14262ZM15.3806 4.84075L16.3407 5.1205L15.3806 4.84075ZM9.5 22C8.94772 22 8.5 22.4477 8.5 23C8.5 23.5523 8.94772 24 9.5 24V22ZM15.5 24C16.0523 24 16.5 23.5523 16.5 23C16.5 22.4477 16.0523 22 15.5 22V24ZM13.5 17.5C13.5 16.9477 13.0523 16.5 12.5 16.5C11.9477 16.5 11.5 16.9477 11.5 17.5H13.5ZM11.5 23C11.5 23.5523 11.9477 24 12.5 24C13.0523 24 13.5 23.5523 13.5 23H11.5ZM15.5 9C15.5 8.44772 15.0523 8 14.5 8C13.9477 8 13.5 8.44772 13.5 9H15.5ZM13.5 10C13.5 10.5523 13.9477 11 14.5 11C15.0523 11 15.5 10.5523 15.5 10H13.5ZM11.5 12C11.5 11.4477 11.0523 11 10.5 11C9.94772 11 9.5 11.4477 9.5 12H11.5ZM9.5 13C9.5 13.5523 9.94772 14 10.5 14C11.0523 14 11.5 13.5523 11.5 13H9.5ZM16.3407 5.1205C16.4446 4.76375 16.5 4.38747 16.5 4H14.5C14.5 4.19627 14.472 4.38424 14.4205 4.561L16.3407 5.1205ZM19.5 8C19.5 5.79085 17.7091 4 15.5 4V6C16.6046 6 17.5 6.89542 17.5 8H19.5ZM19.1993 9.52375C19.3934 9.05279 19.5 8.53759 19.5 8H17.5C17.5 8.27156 17.4464 8.5281 17.3502 8.7615L19.1993 9.52375ZM20.5 14C20.5 12.772 20.056 11.6452 19.321 10.775L17.7932 12.0656C18.2347 12.5884 18.5 13.2619 18.5 14H20.5ZM15.5 19C18.2614 19 20.5 16.7615 20.5 14H18.5C18.5 15.6569 17.1569 17 15.5 17V19ZM12.8227 18.2234C13.5973 18.7153 14.5169 19 15.5 19V17C14.9077 17 14.3584 16.8294 13.8948 16.535L12.8227 18.2234ZM9.5 19C10.4831 19 11.4027 18.7153 12.1773 18.2234L11.1052 16.535C10.6416 16.8294 10.0923 17 9.5 17V19ZM4.5 14C4.5 16.7615 6.73858 19 9.5 19V17C7.84314 17 6.5 15.6569 6.5 14H4.5ZM5.67895 10.775C4.94395 11.6452 4.5 12.772 4.5 14H6.5C6.5 13.2619 6.76527 12.5884 7.20682 12.0656L5.67895 10.775ZM5.5 8C5.5 8.53759 5.6066 9.05279 5.80074 9.52375L7.64979 8.7615C7.55357 8.5281 7.5 8.27156 7.5 8H5.5ZM9.5 4C7.29085 4 5.5 5.79085 5.5 8H7.5C7.5 6.89542 8.39542 6 9.5 6V4ZM9.61245 4.00156C9.57429 4.00048 9.53678 4 9.5 4V6C9.51944 6 9.53795 6.00025 9.55564 6.00076L9.61245 4.00156ZM8.5 4C8.5 4.4267 8.56714 4.83968 8.69225 5.22787L10.5958 4.61435C10.5339 4.42209 10.5 4.21601 10.5 4H8.5ZM12.5 0C10.2909 0 8.5 1.79085 8.5 4H10.5C10.5 2.89542 11.3954 2 12.5 2V0ZM16.5 4C16.5 1.79085 14.7091 0 12.5 0V2C13.6046 2 14.5 2.89542 14.5 4H16.5ZM13.8948 16.535C13.0598 16.0048 11.9402 16.0048 11.1052 16.535L12.1773 18.2234C12.358 18.1087 12.642 18.1087 12.8227 18.2234L13.8948 16.535ZM9.55722 6.0008C10.288 6.02041 10.8205 5.31141 10.5958 4.61435L8.69225 5.22787C8.49337 4.6108 8.96414 3.98417 9.61087 4.00152L9.55722 6.0008ZM17.3502 8.7615C17.1343 9.28536 17.0726 9.88465 17.1342 10.4373C17.1954 10.9863 17.39 11.5884 17.7932 12.0656L19.321 10.775C19.2416 10.6809 19.1525 10.4899 19.1219 10.2157C19.0917 9.94523 19.1302 9.69136 19.1993 9.52375L17.3502 8.7615ZM7.20682 12.0656C7.60996 11.5884 7.80458 10.9863 7.8658 10.4373C7.92743 9.88465 7.86574 9.28536 7.64979 8.7615L5.80074 9.52375C5.86984 9.69136 5.90828 9.94523 5.87812 10.2157C5.84754 10.4899 5.75845 10.6809 5.67895 10.775L7.20682 12.0656ZM14.4205 4.561C14.2114 5.2787 14.7506 6 15.5 6V4C16.0856 4 16.504 4.56013 16.3407 5.1205L14.4205 4.561ZM9.5 24H15.5V22H9.5V24ZM11.5 17.5V23H13.5V17.5H11.5ZM13.5 9V10H15.5V9H13.5ZM9.5 12V13H11.5V12H9.5Z" fill="#FAF9F7"/>
</svg>
