<svg width="25" height="24" viewBox="0 0 25 24" fill="none" xmlns="http://www.w3.org/2000/svg">
<path d="M19.9749 14.2339C17.8318 15.6654 15.2562 16.5 12.4856 16.5C9.71503 16.5 7.13938 15.6654 4.99637 14.2339M12.4857 3L2.5 17.9785C5.35735 19.8872 8.79155 21 12.4857 21C16.1798 21 19.614 19.8872 22.4713 17.9785L12.4857 3ZM16.4857 9C15.3811 9 14.4857 9.89543 14.4857 11C14.4857 12.1046 15.3811 13 16.4857 13C17.3174 13 18.0306 12.4922 18.3322 11.7698L16.4857 9ZM9.98565 11C10.8141 11 11.4857 10.3284 11.4857 9.5C11.4857 8.67157 10.8141 8 9.98565 8C9.15722 8 8.48565 8.67157 8.48565 9.5C8.48565 10.3284 9.15722 11 9.98565 11Z" stroke="#FAF9F7" stroke-width="2"/>
</svg>
