<svg width="25" height="25" viewBox="0 0 25 25" fill="none" xmlns="http://www.w3.org/2000/svg">
<path d="M1.5 13C1.5 16.8149 3.44204 20.1763 6.39143 22.1494L7.35392 21.5521C8.15502 21.055 8.50018 20.066 8.18231 19.1784L7.70948 17.8581C7.60167 17.5571 7.42326 17.2863 7.18921 17.0684L6.78364 16.6909C6.50915 16.4354 6.31201 16.1079 6.21473 15.7458L6.08495 15.2626C5.89283 14.5473 6.11172 13.7844 6.65386 13.2798L8.58463 11.4827C8.67947 11.3944 8.78266 11.3156 8.89275 11.2472L9.27416 11.0106C9.98921 10.5669 10.2973 9.68408 10.0136 8.89183C9.9444 8.69869 9.90904 8.49509 9.90904 8.28994V7.59233C9.90904 7.17459 9.77824 6.76734 9.535 6.42773L8.72723 5.29996L8.29308 4.49178C8.18928 4.29855 8.0544 4.12371 7.89384 3.97426L7.22041 3.34746C3.81133 5.21606 1.5 8.83811 1.5 13ZM1.5 13C1.5 19.0751 6.42487 24 12.5 24C18.5751 24 23.5 19.0751 23.5 13C23.5 6.92487 18.5751 2 12.5 2C6.42487 2 1.5 6.92485 1.5 13ZM13.2707 2.02656C17.679 2.33166 21.3725 5.2342 22.8313 9.21451C22.5627 9.28831 22.2811 9.30536 22.0044 9.26381L20.1001 8.97784C19.8712 8.94346 19.638 8.94908 19.411 8.99447L17.7096 9.33461C17.0312 9.47025 16.3308 9.24558 15.8578 8.74059L15.5194 8.37927C15.1537 7.98885 14.9764 7.45847 15.0336 6.92663L15.1106 6.21159C15.1559 5.79114 14.9084 5.39405 14.5111 5.24942C14.034 5.07578 13.788 4.5483 13.9617 4.07124L13.9993 3.96785C14.1319 3.60339 14.0485 3.19531 13.7833 2.91224L13.6311 2.74969C13.4653 2.57264 13.3486 2.35532 13.2927 2.11928L13.2707 2.02656ZM12.698 13.82L12.7882 13.738C13.2917 13.2802 13.9988 13.1208 14.65 13.3181L15.7339 13.5645C15.9433 13.6121 16.1436 13.6931 16.3273 13.8043L17.1 14.2727C17.8349 14.7737 17.9477 15.813 17.3376 16.4601L16.5187 17.3286C16.4397 17.4124 16.3681 17.5028 16.3047 17.5989L15.6942 18.5239C15.4703 18.8632 15.1466 19.1247 14.7677 19.2723L13.6554 19.7057C13.2407 19.8672 12.7741 19.6567 12.6209 19.2388C12.5744 19.112 12.561 18.9754 12.582 18.8419L12.7838 17.5575C12.8582 17.0843 12.7407 16.6009 12.4574 16.2146C11.9132 15.4724 12.0169 14.4391 12.698 13.82Z" stroke="#FAF9F7" stroke-width="2"/>
</svg>
