<svg width="25" height="24" viewBox="0 0 25 24" fill="none" xmlns="http://www.w3.org/2000/svg">
<path d="M22.2761 21.0577L22.9453 21.8009L22.2761 21.0577ZM10.1989 14.4389L9.45574 15.1081L10.1989 14.4389ZM4.87875 1.73597L5.54788 2.47912L4.87875 1.73597ZM7.0453 2.3593C7.58414 2.48042 8.11914 2.14179 8.24026 1.60295C8.36138 1.06411 8.02275 0.529106 7.48391 0.407987L7.0453 2.3593ZM23.6156 17.3364C23.4699 16.8037 22.9199 16.4899 22.3872 16.6356C21.8545 16.7813 21.5407 17.3313 21.6864 17.864L23.6156 17.3364ZM19.5002 11.9384C19.5002 15.8044 16.3662 18.9384 12.5002 18.9384V20.9384C17.4708 20.9384 21.5002 16.9089 21.5002 11.9384H19.5002ZM12.5002 18.9384C8.6342 18.9384 5.50019 15.8044 5.50019 11.9384H3.50019C3.50019 16.9089 7.52963 20.9384 12.5002 20.9384V18.9384ZM5.50019 11.9384C5.50019 8.07238 8.6342 4.93838 12.5002 4.93838V2.93838C7.52963 2.93838 3.50019 6.96781 3.50019 11.9384H5.50019ZM12.5002 4.93838C16.3662 4.93838 19.5002 8.07238 19.5002 11.9384H21.5002C21.5002 6.96781 17.4708 2.93838 12.5002 2.93838V4.93838ZM21.607 20.3146C21.4506 20.4554 21.1159 20.5958 20.4238 20.4934C19.74 20.3922 18.8559 20.07 17.82 19.5023C15.7567 18.3715 13.2894 16.3769 10.942 13.7698L9.45574 15.1081C11.9125 17.8365 14.5509 19.9913 16.8588 21.2561C18.0084 21.8862 19.1262 22.3232 20.1311 22.4719C21.1278 22.6193 22.1687 22.5001 22.9453 21.8009L21.607 20.3146ZM10.942 13.7698C8.59463 11.1627 6.86879 8.50048 5.95991 6.33034C5.50358 5.24075 5.27549 4.32779 5.24636 3.63714C5.21687 2.93814 5.39149 2.61993 5.54788 2.47912L4.20962 0.992825C3.43305 1.69205 3.20567 2.71479 3.24814 3.72142C3.29095 4.7364 3.60874 5.89375 4.11516 7.10294C5.1318 9.53037 6.99899 12.3796 9.45574 15.1081L10.942 13.7698ZM5.54788 2.47912C5.72799 2.31694 6.15064 2.1582 7.0453 2.3593L7.48391 0.407987C6.3347 0.149667 5.10131 0.18994 4.20962 0.992825L5.54788 2.47912ZM21.6864 17.864C21.883 18.5828 21.9408 19.1565 21.8988 19.5804C21.8575 19.9964 21.7292 20.2046 21.607 20.3146L22.9453 21.8009C23.539 21.2663 23.8139 20.5349 23.889 19.7778C23.9634 19.0286 23.8506 18.1959 23.6156 17.3364L21.6864 17.864ZM14.5002 9.93838C14.5002 10.4907 14.0525 10.9384 13.5002 10.9384V12.9384C15.157 12.9384 16.5002 11.5952 16.5002 9.93838H14.5002ZM13.5002 10.9384C12.9479 10.9384 12.5002 10.4907 12.5002 9.93838H10.5002C10.5002 11.5952 11.8433 12.9384 13.5002 12.9384V10.9384ZM12.5002 9.93838C12.5002 9.38609 12.9479 8.93838 13.5002 8.93838V6.93838C11.8433 6.93838 10.5002 8.28152 10.5002 9.93838H12.5002ZM13.5002 8.93838C14.0525 8.93838 14.5002 9.38609 14.5002 9.93838H16.5002C16.5002 8.28152 15.157 6.93838 13.5002 6.93838V8.93838Z" fill="#FAF9F7"/>
</svg>
