<svg width="25" height="24" viewBox="0 0 25 24" fill="none" xmlns="http://www.w3.org/2000/svg">
<g clip-path="url(#clip0_6484_47320)">
<path d="M9 21L9.8 20.4C9.59205 20.1227 9.25537 19.9729 8.91019 20.004C8.56502 20.0352 8.26057 20.2428 8.10557 20.5528L9 21ZM16 21L16.8 20.4C16.6111 20.1482 16.3148 20 16 20C15.6852 20 15.3889 20.1482 15.2 20.4L16 21ZM24.3 21.6C24.6314 21.1582 24.5418 20.5314 24.1 20.2C23.6582 19.8686 23.0314 19.9582 22.7 20.4L24.3 21.6ZM2.39443 20.5528C2.14744 20.0588 1.54676 19.8586 1.05279 20.1056C0.558808 20.3526 0.358584 20.9532 0.605573 21.4472L2.39443 20.5528ZM9 15L9.8 14.4C9.59205 14.1227 9.25537 13.9729 8.91019 14.004C8.56502 14.0352 8.26057 14.2428 8.10557 14.5528L9 15ZM16 15L16.8 14.4C16.6111 14.1482 16.3148 14 16 14C15.6852 14 15.3889 14.1482 15.2 14.4L16 15ZM24.3 15.6C24.6314 15.1582 24.5418 14.5314 24.1 14.2C23.6582 13.8686 23.0314 13.9582 22.7 14.4L24.3 15.6ZM2.39443 14.5528C2.14744 14.0588 1.54676 13.8586 1.05279 14.1056C0.558808 14.3526 0.358584 14.9532 0.605573 15.4472L2.39443 14.5528ZM19.5 16.5C19.5 17.0523 19.9477 17.5 20.5 17.5C21.0523 17.5 21.5 17.0523 21.5 16.5H19.5ZM23.5 2C24.0523 2 24.5 1.55228 24.5 1C24.5 0.447715 24.0523 0 23.5 0V2ZM11.5 16.5C11.5 17.0523 11.9477 17.5 12.5 17.5C13.0523 17.5 13.5 17.0523 13.5 16.5H11.5ZM15.5 2C16.0523 2 16.5 1.55228 16.5 1C16.5 0.447715 16.0523 0 15.5 0V2ZM9 21C8.2 21.6 8.20019 21.6003 8.20039 21.6005C8.20047 21.6006 8.20067 21.6009 8.20082 21.6011C8.20112 21.6015 8.20144 21.6019 8.20179 21.6024C8.20248 21.6033 8.20326 21.6043 8.20414 21.6055C8.2059 21.6078 8.20804 21.6106 8.21055 21.6139C8.21558 21.6205 8.22211 21.6289 8.23011 21.6391C8.2461 21.6595 8.26802 21.6871 8.29563 21.7207C8.35078 21.7878 8.42903 21.8797 8.52847 21.9882C8.72625 22.204 9.01362 22.4915 9.37531 22.7809C10.0782 23.3432 11.172 24 12.5 24V22C11.828 22 11.1718 21.6568 10.6247 21.2191C10.3614 21.0085 10.1488 20.796 10.0028 20.6368C9.93034 20.5578 9.87578 20.4934 9.84109 20.4512C9.82377 20.4301 9.81152 20.4147 9.80456 20.4058C9.80109 20.4014 9.79895 20.3986 9.79818 20.3976C9.79779 20.3971 9.79775 20.397 9.79805 20.3974C9.7982 20.3976 9.79844 20.3979 9.79876 20.3984C9.79893 20.3986 9.79911 20.3988 9.79932 20.3991C9.79942 20.3992 9.79959 20.3995 9.79964 20.3995C9.79982 20.3998 9.8 20.4 9 21ZM12.5 24C13.828 24 14.9218 23.3432 15.6247 22.7809C15.9864 22.4915 16.2738 22.204 16.4715 21.9882C16.571 21.8797 16.6492 21.7878 16.7044 21.7207C16.732 21.6871 16.7539 21.6595 16.7699 21.6391C16.7779 21.6289 16.7844 21.6205 16.7894 21.6139C16.792 21.6106 16.7941 21.6078 16.7959 21.6055C16.7967 21.6043 16.7975 21.6033 16.7982 21.6024C16.7986 21.6019 16.7989 21.6015 16.7992 21.6011C16.7993 21.6009 16.7995 21.6006 16.7996 21.6005C16.7998 21.6003 16.8 21.6 16 21C15.2 20.4 15.2002 20.3998 15.2004 20.3995C15.2004 20.3995 15.2006 20.3992 15.2007 20.3991C15.2009 20.3988 15.2011 20.3986 15.2012 20.3984C15.2016 20.3979 15.2018 20.3976 15.202 20.3974C15.2023 20.397 15.2022 20.3971 15.2018 20.3976C15.2011 20.3986 15.1989 20.4014 15.1954 20.4058C15.1885 20.4147 15.1762 20.4301 15.1589 20.4512C15.1242 20.4934 15.0697 20.5578 14.9972 20.6368C14.8512 20.796 14.6386 21.0085 14.3753 21.2191C13.8282 21.6568 13.172 22 12.5 22V24ZM16 21C15.2 21.6 15.2002 21.6003 15.2004 21.6006C15.2005 21.6007 15.2008 21.601 15.2009 21.6012C15.2012 21.6017 15.2016 21.6021 15.202 21.6026C15.2027 21.6036 15.2036 21.6047 15.2045 21.606C15.2064 21.6085 15.2087 21.6115 15.2113 21.6149C15.2166 21.6218 15.2234 21.6306 15.2318 21.6411C15.2484 21.6623 15.271 21.6905 15.2995 21.7248C15.3564 21.7933 15.437 21.8866 15.54 21.9964C15.7449 22.2151 16.0437 22.5048 16.4252 22.7954C17.1775 23.3686 18.3248 24 19.75 24V22C18.9252 22 18.1975 21.6314 17.6373 21.2046C17.3626 20.9952 17.1457 20.7849 16.9991 20.6286C16.9262 20.5509 16.8721 20.488 16.8382 20.4471C16.8213 20.4267 16.8095 20.412 16.803 20.4038C16.7998 20.3997 16.7979 20.3972 16.7974 20.3966C16.7972 20.3962 16.7972 20.3963 16.7977 20.3969C16.7979 20.3972 16.7982 20.3976 16.7986 20.3981C16.7988 20.3984 16.799 20.3986 16.7992 20.399C16.7993 20.3991 16.7995 20.3994 16.7996 20.3995C16.7998 20.3997 16.8 20.4 16 21ZM19.75 24C21.1752 24 22.3225 23.3686 23.0748 22.7954C23.4563 22.5048 23.7551 22.2151 23.96 21.9964C24.063 21.8866 24.1436 21.7933 24.2005 21.7248C24.229 21.6905 24.2516 21.6623 24.2682 21.6411C24.2766 21.6306 24.2834 21.6218 24.2887 21.6149C24.2913 21.6115 24.2936 21.6085 24.2955 21.606C24.2964 21.6047 24.2973 21.6036 24.298 21.6026C24.2984 21.6021 24.2988 21.6017 24.2991 21.6012C24.2992 21.601 24.2995 21.6007 24.2996 21.6006C24.2998 21.6003 24.3 21.6 23.5 21C22.7 20.4 22.7002 20.3997 22.7004 20.3995C22.7005 20.3994 22.7007 20.3991 22.7008 20.399C22.701 20.3986 22.7012 20.3984 22.7014 20.3981C22.7018 20.3976 22.7021 20.3972 22.7023 20.3969C22.7028 20.3963 22.7028 20.3962 22.7026 20.3966C22.7021 20.3972 22.7002 20.3997 22.697 20.4038C22.6905 20.412 22.6787 20.4267 22.6618 20.4471C22.6279 20.488 22.5738 20.5509 22.5009 20.6286C22.3543 20.7849 22.1374 20.9952 21.8627 21.2046C21.3025 21.6314 20.5748 22 19.75 22V24ZM1.5 21C0.605573 21.4472 0.605817 21.4477 0.606066 21.4482C0.606154 21.4484 0.606407 21.4489 0.606584 21.4492C0.606938 21.4499 0.607309 21.4507 0.607697 21.4514C0.608473 21.453 0.609317 21.4546 0.610229 21.4564C0.612053 21.46 0.614152 21.4641 0.616527 21.4686C0.621278 21.4777 0.627142 21.4887 0.634146 21.5016C0.648149 21.5272 0.66675 21.5602 0.690172 21.5993C0.736952 21.6775 0.803352 21.7812 0.891211 21.9017C1.06637 22.1419 1.33066 22.4542 1.69961 22.7649C2.44892 23.3959 3.60885 24 5.25 24V22C4.14115 22 3.42608 21.6041 2.98789 21.2351C2.76309 21.0458 2.6055 20.8581 2.50723 20.7233C2.45837 20.6563 2.42516 20.6037 2.40651 20.5726C2.39721 20.557 2.39165 20.547 2.38966 20.5434C2.38867 20.5415 2.38858 20.5413 2.38938 20.5429C2.38978 20.5436 2.3904 20.5448 2.39124 20.5465C2.39166 20.5473 2.39214 20.5482 2.39267 20.5493C2.39294 20.5498 2.39321 20.5504 2.39351 20.551C2.39365 20.5512 2.39388 20.5517 2.39396 20.5518C2.39419 20.5523 2.39443 20.5528 1.5 21ZM5.25 24C6.89115 24 8.05108 23.3959 8.80039 22.7649C9.16934 22.4542 9.43363 22.1419 9.60879 21.9017C9.69665 21.7812 9.76305 21.6775 9.80983 21.5993C9.83325 21.5602 9.85185 21.5272 9.86585 21.5016C9.87286 21.4887 9.87872 21.4777 9.88347 21.4686C9.88585 21.4641 9.88795 21.46 9.88977 21.4564C9.89068 21.4546 9.89153 21.453 9.8923 21.4514C9.89269 21.4507 9.89306 21.4499 9.89342 21.4492C9.89359 21.4489 9.89385 21.4484 9.89393 21.4482C9.89418 21.4477 9.89443 21.4472 9 21C8.10557 20.5528 8.10581 20.5523 8.10604 20.5518C8.10612 20.5517 8.10635 20.5512 8.10649 20.551C8.10679 20.5504 8.10706 20.5498 8.10733 20.5493C8.10786 20.5482 8.10834 20.5473 8.10876 20.5465C8.1096 20.5448 8.11022 20.5436 8.11062 20.5429C8.11142 20.5413 8.11133 20.5415 8.11034 20.5434C8.10835 20.547 8.10279 20.557 8.09349 20.5726C8.07484 20.6037 8.04163 20.6563 7.99277 20.7233C7.8945 20.8581 7.73691 21.0458 7.51211 21.2351C7.07392 21.6041 6.35885 22 5.25 22V24ZM9 15C8.2 15.6 8.20019 15.6003 8.20039 15.6005C8.20047 15.6006 8.20067 15.6009 8.20082 15.6011C8.20112 15.6015 8.20144 15.6019 8.20179 15.6024C8.20248 15.6033 8.20326 15.6043 8.20414 15.6055C8.2059 15.6078 8.20804 15.6106 8.21055 15.6139C8.21558 15.6205 8.22211 15.6289 8.23011 15.6391C8.2461 15.6595 8.26802 15.6871 8.29563 15.7207C8.35078 15.7878 8.42903 15.8797 8.52847 15.9882C8.72625 16.204 9.01362 16.4915 9.37531 16.7809C10.0782 17.3432 11.172 18 12.5 18V16C11.828 16 11.1718 15.6568 10.6247 15.2191C10.3614 15.0085 10.1488 14.796 10.0028 14.6368C9.93034 14.5578 9.87578 14.4934 9.84109 14.4512C9.82377 14.4301 9.81152 14.4147 9.80456 14.4058C9.80109 14.4014 9.79895 14.3986 9.79818 14.3976C9.79779 14.3971 9.79775 14.397 9.79805 14.3974C9.7982 14.3976 9.79844 14.3979 9.79876 14.3984C9.79893 14.3986 9.79911 14.3988 9.79932 14.3991C9.79942 14.3992 9.79959 14.3995 9.79964 14.3995C9.79982 14.3998 9.8 14.4 9 15ZM12.5 18C13.828 18 14.9218 17.3432 15.6247 16.7809C15.9864 16.4915 16.2738 16.204 16.4715 15.9882C16.571 15.8797 16.6492 15.7878 16.7044 15.7207C16.732 15.6871 16.7539 15.6595 16.7699 15.6391C16.7779 15.6289 16.7844 15.6205 16.7894 15.6139C16.792 15.6106 16.7941 15.6078 16.7959 15.6055C16.7967 15.6043 16.7975 15.6033 16.7982 15.6024C16.7986 15.6019 16.7989 15.6015 16.7992 15.6011C16.7993 15.6009 16.7995 15.6006 16.7996 15.6005C16.7998 15.6003 16.8 15.6 16 15C15.2 14.4 15.2002 14.3998 15.2004 14.3995C15.2004 14.3995 15.2006 14.3992 15.2007 14.3991C15.2009 14.3988 15.2011 14.3986 15.2012 14.3984C15.2016 14.3979 15.2018 14.3976 15.202 14.3974C15.2023 14.397 15.2022 14.3971 15.2018 14.3976C15.2011 14.3986 15.1989 14.4014 15.1954 14.4058C15.1885 14.4147 15.1762 14.4301 15.1589 14.4512C15.1242 14.4934 15.0697 14.5578 14.9972 14.6368C14.8512 14.796 14.6386 15.0085 14.3753 15.2191C13.8282 15.6568 13.172 16 12.5 16V18ZM16 15C15.2 15.6 15.2002 15.6003 15.2004 15.6006C15.2005 15.6007 15.2008 15.601 15.2009 15.6012C15.2012 15.6017 15.2016 15.6021 15.202 15.6026C15.2027 15.6036 15.2036 15.6047 15.2045 15.606C15.2064 15.6085 15.2087 15.6115 15.2113 15.6149C15.2166 15.6218 15.2234 15.6306 15.2318 15.6411C15.2484 15.6623 15.271 15.6905 15.2995 15.7248C15.3564 15.7933 15.437 15.8866 15.54 15.9964C15.7449 16.2151 16.0437 16.5048 16.4252 16.7954C17.1775 17.3686 18.3248 18 19.75 18V16C18.9252 16 18.1975 15.6314 17.6373 15.2046C17.3626 14.9952 17.1457 14.7849 16.9991 14.6286C16.9262 14.5509 16.8721 14.488 16.8382 14.4471C16.8213 14.4267 16.8095 14.412 16.803 14.4038C16.7998 14.3997 16.7979 14.3972 16.7974 14.3966C16.7972 14.3962 16.7972 14.3963 16.7977 14.3969C16.7979 14.3972 16.7982 14.3976 16.7986 14.3981C16.7988 14.3984 16.799 14.3986 16.7992 14.399C16.7993 14.3991 16.7995 14.3994 16.7996 14.3995C16.7998 14.3997 16.8 14.4 16 15ZM19.75 18C21.1752 18 22.3225 17.3686 23.0748 16.7954C23.4563 16.5048 23.7551 16.2151 23.96 15.9964C24.063 15.8866 24.1436 15.7933 24.2005 15.7248C24.229 15.6905 24.2516 15.6623 24.2682 15.6411C24.2766 15.6306 24.2834 15.6218 24.2887 15.6149C24.2913 15.6115 24.2936 15.6085 24.2955 15.606C24.2964 15.6047 24.2973 15.6036 24.298 15.6026C24.2984 15.6021 24.2988 15.6017 24.2991 15.6012C24.2992 15.601 24.2995 15.6007 24.2996 15.6006C24.2998 15.6003 24.3 15.6 23.5 15C22.7 14.4 22.7002 14.3997 22.7004 14.3995C22.7005 14.3994 22.7007 14.3991 22.7008 14.399C22.701 14.3986 22.7012 14.3984 22.7014 14.3981C22.7018 14.3976 22.7021 14.3972 22.7023 14.3969C22.7028 14.3963 22.7028 14.3962 22.7026 14.3966C22.7021 14.3972 22.7002 14.3997 22.697 14.4038C22.6905 14.412 22.6787 14.4267 22.6618 14.4471C22.6279 14.488 22.5738 14.5509 22.5009 14.6286C22.3543 14.7849 22.1374 14.9952 21.8627 15.2046C21.3025 15.6314 20.5748 16 19.75 16V18ZM1.5 15C0.605573 15.4472 0.605817 15.4477 0.606066 15.4482C0.606154 15.4484 0.606407 15.4489 0.606584 15.4492C0.606938 15.4499 0.607309 15.4507 0.607697 15.4514C0.608473 15.453 0.609317 15.4546 0.610229 15.4564C0.612053 15.46 0.614152 15.4641 0.616527 15.4686C0.621278 15.4777 0.627142 15.4887 0.634146 15.5016C0.648149 15.5272 0.66675 15.5602 0.690172 15.5993C0.736952 15.6775 0.803352 15.7812 0.891211 15.9017C1.06637 16.1419 1.33066 16.4542 1.69961 16.7649C2.44892 17.3959 3.60885 18 5.25 18V16C4.14115 16 3.42608 15.6041 2.98789 15.2351C2.76309 15.0458 2.6055 14.8581 2.50723 14.7233C2.45837 14.6563 2.42516 14.6037 2.40651 14.5726C2.39721 14.557 2.39165 14.547 2.38966 14.5434C2.38867 14.5415 2.38858 14.5413 2.38938 14.5429C2.38978 14.5436 2.3904 14.5448 2.39124 14.5465C2.39166 14.5473 2.39214 14.5482 2.39267 14.5493C2.39294 14.5498 2.39321 14.5504 2.39351 14.551C2.39365 14.5512 2.39388 14.5517 2.39396 14.5518C2.39419 14.5523 2.39443 14.5528 1.5 15ZM5.25 18C6.89115 18 8.05108 17.3959 8.80039 16.7649C9.16934 16.4542 9.43363 16.1419 9.60879 15.9017C9.69665 15.7812 9.76305 15.6775 9.80983 15.5993C9.83325 15.5602 9.85185 15.5272 9.86585 15.5016C9.87286 15.4887 9.87872 15.4777 9.88347 15.4686C9.88585 15.4641 9.88795 15.46 9.88977 15.4564C9.89068 15.4546 9.89153 15.453 9.8923 15.4514C9.89269 15.4507 9.89306 15.4499 9.89342 15.4492C9.89359 15.4489 9.89385 15.4484 9.89393 15.4482C9.89418 15.4477 9.89443 15.4472 9 15C8.10557 14.5528 8.10581 14.5523 8.10604 14.5518C8.10612 14.5517 8.10635 14.5512 8.10649 14.551C8.10679 14.5504 8.10706 14.5498 8.10733 14.5493C8.10786 14.5482 8.10834 14.5473 8.10876 14.5465C8.1096 14.5448 8.11022 14.5436 8.11062 14.5429C8.11142 14.5413 8.11133 14.5415 8.11034 14.5434C8.10835 14.547 8.10279 14.557 8.09349 14.5726C8.07484 14.6037 8.04163 14.6563 7.99277 14.7233C7.8945 14.8581 7.73691 15.0458 7.51211 15.2351C7.07392 15.6041 6.35885 16 5.25 16V18ZM21.5 16.5V3H19.5V16.5H21.5ZM22.5 2H23.5V0H22.5V2ZM21.5 3C21.5 2.44772 21.9477 2 22.5 2V0C20.8431 0 19.5 1.34315 19.5 3H21.5ZM12.5 11H20.5V9H12.5V11ZM12.5 6H20.5V4H12.5V6ZM13.5 16.5V3H11.5V16.5H13.5ZM14.5 2H15.5V0H14.5V2ZM13.5 3C13.5 2.44772 13.9477 2 14.5 2V0C12.8431 0 11.5 1.34315 11.5 3H13.5Z" fill="#FAF9F7"/>
</g>
<defs>
<clipPath id="clip0_6484_47320">
<rect width="24" height="24" fill="white" transform="translate(0.5)"/>
</clipPath>
</defs>
</svg>
