<svg width="25" height="24" viewBox="0 0 25 24" fill="none" xmlns="http://www.w3.org/2000/svg">
<path d="M10.5 2C9.94771 2 9.5 2.44772 9.5 3C9.5 3.55228 9.94771 4 10.5 4V2ZM14.5 4C15.0523 4 15.5 3.55228 15.5 3C15.5 2.44772 15.0523 2 14.5 2V4ZM13.5 3C13.5 2.44772 13.0523 2 12.5 2C11.9477 2 11.5 2.44772 11.5 3H13.5ZM2.5 20C2.5 20.5523 2.94772 21 3.5 21C4.05228 21 4.5 20.5523 4.5 20H2.5ZM20.5 20C20.5 20.5523 20.9477 21 21.5 21C22.0523 21 22.5 20.5523 22.5 20H20.5ZM1.5 15C0.947715 15 0.5 15.4477 0.5 16C0.5 16.5523 0.947715 17 1.5 17V15ZM23.5 17C24.0523 17 24.5 16.5523 24.5 16C24.5 15.4477 24.0523 15 23.5 15V17ZM1.5 19C0.947715 19 0.5 19.4477 0.5 20C0.5 20.5523 0.947715 21 1.5 21V19ZM23.5 21C24.0523 21 24.5 20.5523 24.5 20C24.5 19.4477 24.0523 19 23.5 19V21ZM10.5 4H14.5V2H10.5V4ZM11.5 3V7H13.5V3H11.5ZM2.5 16V20H4.5V16H2.5ZM20.5 16V20H22.5V16H20.5ZM1.5 17H23.5V15H1.5V17ZM1.5 21H23.5V19H1.5V21ZM12.5 8C16.9183 8 20.5 11.5817 20.5 16H22.5C22.5 10.4771 18.0228 6 12.5 6V8ZM4.5 16C4.5 11.5817 8.08174 8 12.5 8V6C6.97717 6 2.5 10.4771 2.5 16H4.5ZM3.5 17H21.5V15H3.5V17Z" fill="#FAF9F7"/>
</svg>
