<svg width="25" height="24" viewBox="0 0 25 24" fill="none" xmlns="http://www.w3.org/2000/svg">
<path d="M23.5 13H24.5C24.5 12.4477 24.0523 12 23.5 12V13ZM1.5 13V12C0.947715 12 0.5 12.4477 0.5 13H1.5ZM20.5 22C20.5 21.4477 20.0523 21 19.5 21C18.9477 21 18.5 21.4477 18.5 22H20.5ZM18.5 23C18.5 23.5523 18.9477 24 19.5 24C20.0523 24 20.5 23.5523 20.5 23H18.5ZM6.5 22C6.5 21.4477 6.05228 21 5.5 21C4.94772 21 4.5 21.4477 4.5 22H6.5ZM4.5 23C4.5 23.5523 4.94772 24 5.5 24C6.05228 24 6.5 23.5523 6.5 23H4.5ZM1.53259 5H2.53263L2.53256 4.99185L1.53259 5ZM12.7761 5.73812L13.1987 6.64443C13.4391 6.53234 13.6251 6.32936 13.7158 6.08014C13.8065 5.83092 13.7945 5.55587 13.6824 5.3155L12.7761 5.73812ZM8.24455 7.85121L7.33824 8.27383C7.57165 8.77437 8.16663 8.99093 8.66717 8.75752L8.24455 7.85121ZM12.1422 4.37866L11.2359 4.80128V4.80128L12.1422 4.37866ZM7.61062 6.49175L6.70432 6.91437L7.61062 6.49175ZM22.5 13V17H24.5V13H22.5ZM19.5 20H5.5V22H19.5V20ZM2.5 17V13H0.5V17H2.5ZM1.5 14H13.5V12H1.5V14ZM19.6111 14H23.5V12H19.6111V14ZM5.5 20C3.84315 20 2.5 18.6569 2.5 17H0.5C0.5 19.7614 2.73858 22 5.5 22V20ZM22.5 17C22.5 18.6569 21.1569 20 19.5 20V22C22.2614 22 24.5 19.7614 24.5 17H22.5ZM18.5 22V23H20.5V22H18.5ZM4.5 22V23H6.5V22H4.5ZM2.53259 13V5H0.532593V13H2.53259ZM1.53259 5C2.53256 4.99185 2.53256 4.99227 2.53257 4.99267C2.53257 4.99278 2.53257 4.99316 2.53257 4.99339C2.53257 4.99384 2.53258 4.99423 2.53258 4.99457C2.53258 4.99524 2.53258 4.99569 2.53258 4.9959C2.53258 4.99633 2.53258 4.99585 2.53259 4.99449C2.5326 4.99178 2.53266 4.98556 2.53286 4.97609C2.53326 4.95713 2.53422 4.92527 2.53655 4.8824C2.54123 4.79633 2.55131 4.66781 2.57284 4.5114C2.61663 4.19338 2.70418 3.78699 2.87269 3.39453C3.04096 3.0026 3.27399 2.66095 3.59009 2.41861C3.89294 2.18643 4.32978 2 5 2V0C3.92022 0 3.04865 0.313574 2.37323 0.831393C1.71107 1.33905 1.29599 1.9974 1.03492 2.60547C0.774067 3.21301 0.651014 3.80662 0.591535 4.2386C0.561438 4.45719 0.546715 4.64117 0.539503 4.77385C0.535888 4.84035 0.534135 4.89444 0.533302 4.93406C0.532885 4.95389 0.532698 4.97014 0.532624 4.98256C0.532587 4.98877 0.532578 4.99403 0.532583 4.9983C0.532586 5.00044 0.532592 5.00233 0.5326 5.00397C0.532604 5.00479 0.532608 5.00555 0.532612 5.00625C0.532615 5.00659 0.532618 5.00707 0.532619 5.00724C0.532623 5.0077 0.532626 5.00815 1.53259 5ZM5 2C6.55856 2 7.11796 2.43913 7.30991 2.6585C7.41738 2.78132 7.46427 2.8954 7.4853 2.9675C7.496 3.00419 7.49981 3.02957 7.50087 3.0381C7.50139 3.04222 7.50118 3.04171 7.50083 3.03577C7.50066 3.03279 7.50045 3.02839 7.50028 3.02248C7.5002 3.01952 7.50012 3.01618 7.50007 3.01244C7.50005 3.01057 7.50003 3.0086 7.50001 3.00653C7.5 3.00549 7.5 3.00443 7.49999 3.00334C7.49999 3.0028 7.49999 3.00196 7.49999 3.00169C7.49999 3.00085 7.49999 3 8.49999 3C9.49999 3 9.49999 2.99914 9.49999 2.99826C9.49999 2.99796 9.49998 2.99708 9.49998 2.99648C9.49998 2.99527 9.49997 2.99402 9.49996 2.99275C9.49995 2.99019 9.49992 2.98749 9.49988 2.98466C9.4998 2.979 9.49967 2.97279 9.49948 2.96605C9.4991 2.95257 9.49847 2.93694 9.49744 2.9193C9.49538 2.88407 9.49175 2.84059 9.48543 2.79003C9.47283 2.68918 9.44929 2.55831 9.4053 2.4075C9.31696 2.1046 9.1451 1.71868 8.81507 1.3415C8.13202 0.560868 6.94143 0 5 0V2ZM11.2359 4.80128L11.8698 6.16074L13.6824 5.3155L13.0485 3.95604L11.2359 4.80128ZM12.3535 4.83181L7.82193 6.94491L8.66717 8.75752L13.1987 6.64443L12.3535 4.83181ZM9.15086 7.4286L8.51693 6.06913L6.70432 6.91437L7.33824 8.27383L9.15086 7.4286ZM9.24247 4.07574C9.99327 3.72564 10.8857 4.05047 11.2359 4.80128L13.0485 3.95604C12.2315 2.20415 10.1491 1.44621 8.39723 2.26313L9.24247 4.07574ZM8.39723 2.26313C6.64534 3.08005 5.8874 5.16248 6.70432 6.91437L8.51693 6.06913C8.16682 5.31832 8.49165 4.42585 9.24247 4.07574L8.39723 2.26313ZM15 12H18V10H15V12ZM18.5 12.5V15.5H20.5V12.5H18.5ZM18 16H15V18H18V16ZM14.5 15.5V12.5H12.5V15.5H14.5ZM15 16C14.7239 16 14.5 15.7761 14.5 15.5H12.5C12.5 16.8807 13.6193 18 15 18V16ZM18.5 15.5C18.5 15.7761 18.2761 16 18 16V18C19.3807 18 20.5 16.8807 20.5 15.5H18.5ZM18 12C18.2761 12 18.5 12.2239 18.5 12.5H20.5C20.5 11.1193 19.3807 10 18 10V12ZM15 10C13.6193 10 12.5 11.1193 12.5 12.5H14.5C14.5 12.2239 14.7239 12 15 12V10Z" fill="#FAF9F7"/>
</svg>
