<svg width="25" height="24" viewBox="0 0 25 24" fill="none" xmlns="http://www.w3.org/2000/svg">
<path d="M6 8.5L8.89946 4.77212C9.27838 4.28495 9.86099 4 10.4782 4H18.5885C20.22 4 21.1651 5.84833 20.2098 7.17098L16.5987 12.171C16.2227 12.6916 15.6196 13 14.9774 13H4.5C3.39543 13 2.5 13.8954 2.5 15V15C2.5 16.1046 3.39543 17 4.5 17H12.5C13.6046 17 14.5 17.8954 14.5 19V19C14.5 20.1046 13.6046 21 12.5 21H2.5M19 9.5H20.3367C21.919 9.5 22.8747 11.2505 22.019 12.5815L19.5 16.5" stroke="#FAF9F7" stroke-width="2" stroke-linecap="round" stroke-linejoin="round"/>
</svg>
