<svg width="25" height="24" viewBox="0 0 25 24" fill="none" xmlns="http://www.w3.org/2000/svg">
<path d="M7.18878 5.49907V4.49907H6.40703L6.21834 5.2577L7.18878 5.49907ZM15.8112 5.49907L16.7817 5.2577L16.593 4.49907H15.8112V5.49907ZM7.5 9.99907C6.94772 9.99907 6.5 10.4468 6.5 10.9991C6.5 11.5514 6.94772 11.9991 7.5 11.9991V9.99907ZM15.5 11.9991C16.0523 11.9991 16.5 11.5514 16.5 10.9991C16.5 10.4468 16.0523 9.99907 15.5 9.99907V11.9991ZM3.21265 1.54125C2.68366 1.69994 2.38348 2.25743 2.54217 2.78642C2.70087 3.31541 3.25836 3.6156 3.78735 3.4569L3.21265 1.54125ZM7.46979 1.30814L7.18244 0.35031L7.46979 1.30814ZM8.73332 2.04903L7.75714 2.26596V2.26596L8.73332 2.04903ZM8.52381 5.716C8.64362 6.25514 9.1778 6.59507 9.71693 6.47526C10.2561 6.35545 10.596 5.82128 10.4762 5.28214L8.52381 5.716ZM19.1353 3.56327L19.9014 2.92048L19.1353 3.56327ZM18.6423 9.1986L17.8763 9.84139L18.519 10.6074L19.2851 9.96464L18.6423 9.1986ZM13.5 3.07024L12.8572 2.3042L12.0912 2.94699L12.734 3.71303L13.5 3.07024ZM15.4284 5.36838C15.0053 5.72338 14.9501 6.35413 15.3051 6.77721C15.6601 7.20028 16.2909 7.25547 16.7139 6.90047L15.4284 5.36838ZM10.5 22.4991C10.5 23.0514 10.9477 23.4991 11.5 23.4991C12.0523 23.4991 12.5 23.0514 12.5 22.4991H10.5ZM7.5 21.4991C6.94772 21.4991 6.5 21.9468 6.5 22.4991C6.5 23.0514 6.94772 23.4991 7.5 23.4991V21.4991ZM15.5 23.4991C16.0523 23.4991 16.5 23.0514 16.5 22.4991C16.5 21.9468 16.0523 21.4991 15.5 21.4991V23.4991ZM7.18878 6.49907H15.8112V4.49907H7.18878V6.49907ZM15.8112 5.49907C14.8408 5.74044 14.8407 5.74023 14.8407 5.74007C14.8407 5.74009 14.8407 5.73997 14.8407 5.74C14.8407 5.74004 14.8408 5.74029 14.8409 5.74072C14.8411 5.74159 14.8415 5.74324 14.8421 5.74565C14.8432 5.75047 14.8452 5.75834 14.8477 5.76915C14.8529 5.79079 14.8608 5.82422 14.871 5.86864C14.8914 5.95751 14.9209 6.09027 14.9562 6.26062C15.0269 6.60159 15.1204 7.09163 15.2099 7.6806C15.3899 8.8648 15.5494 10.4205 15.4857 11.9577C15.4211 13.5162 15.1309 14.937 14.5073 15.9398C13.9287 16.8702 13.0345 17.4991 11.5 17.4991V19.4991C13.7379 19.4991 15.2686 18.5029 16.2057 16.9959C17.0979 15.5612 17.4139 13.732 17.484 12.0405C17.555 10.3277 17.3777 8.63335 17.1872 7.38005C17.0915 6.75027 16.9913 6.22468 16.9146 5.85471C16.8762 5.66959 16.8437 5.52305 16.8204 5.4215C16.8087 5.37071 16.7994 5.33114 16.7928 5.30358C16.7895 5.2898 16.7869 5.27902 16.785 5.27134C16.7841 5.2675 16.7833 5.26444 16.7828 5.26216C16.7825 5.26102 16.7822 5.26008 16.7821 5.25934C16.782 5.25897 16.7819 5.25856 16.7818 5.25837C16.7817 5.25801 16.7817 5.2577 15.8112 5.49907ZM11.5 17.4991C9.96553 17.4991 9.07126 16.8702 8.49269 15.9398C7.86914 14.937 7.5789 13.5162 7.51429 11.9577C7.45057 10.4205 7.61009 8.8648 7.79008 7.6806C7.87961 7.09163 7.97309 6.60159 8.04376 6.26062C8.07907 6.09027 8.10861 5.95752 8.12899 5.86864C8.13918 5.82422 8.14708 5.79079 8.15226 5.76915C8.15485 5.75834 8.15676 5.75047 8.15793 5.74565C8.15852 5.74324 8.15893 5.74159 8.15914 5.74072C8.15925 5.74029 8.15931 5.74004 8.15932 5.74C8.15933 5.73997 8.1593 5.74009 8.1593 5.74007C8.15926 5.74023 8.15921 5.74044 7.18878 5.49907C6.21834 5.2577 6.21827 5.25801 6.21818 5.25837C6.21813 5.25856 6.21803 5.25897 6.21794 5.25934C6.21775 5.26008 6.21752 5.26102 6.21724 5.26216C6.21668 5.26444 6.21593 5.2675 6.21499 5.27134C6.21311 5.27902 6.2105 5.2898 6.2072 5.30358C6.20061 5.33113 6.19127 5.37071 6.17962 5.4215C6.15632 5.52305 6.12376 5.66959 6.08539 5.85471C6.0087 6.22468 5.90852 6.75027 5.81279 7.38005C5.6223 8.63335 5.445 10.3277 5.516 12.0405C5.58612 13.732 5.90214 15.5612 6.79426 16.9959C7.73136 18.5029 9.26215 19.4991 11.5 19.4991V17.4991ZM7.5 11.9991H15.5V9.99907H7.5V11.9991ZM3.78735 3.4569L7.75714 2.26596L7.18244 0.35031L3.21265 1.54125L3.78735 3.4569ZM7.75714 2.26596L8.52381 5.716L10.4762 5.28214L9.70951 1.8321L7.75714 2.26596ZM7.75714 2.26596L7.75714 2.26596L9.70951 1.8321C9.45747 0.697911 8.2953 0.0164528 7.18244 0.35031L7.75714 2.26596ZM18.3693 4.20606C19.4343 5.47528 19.2687 7.36755 17.9995 8.43255L19.2851 9.96464C21.4005 8.18963 21.6764 5.03586 19.9014 2.92048L18.3693 4.20606ZM14.1428 3.83629C15.412 2.77128 17.3043 2.93683 18.3693 4.20606L19.9014 2.92048C18.1264 0.805109 14.9726 0.529189 12.8572 2.3042L14.1428 3.83629ZM12.734 3.71303L17.8763 9.84139L19.4083 8.55581L14.266 2.42746L12.734 3.71303ZM16.7139 6.90047L19.7781 4.32931L18.4925 2.79723L15.4284 5.36838L16.7139 6.90047ZM10.5 18.4991L10.5 22.4991H12.5L12.5 18.4991H10.5ZM7.5 23.4991H15.5V21.4991H7.5V23.4991Z" fill="#FAF9F7"/>
</svg>
