<svg width="25" height="24" viewBox="0 0 25 24" fill="none" xmlns="http://www.w3.org/2000/svg">
<path d="M5 3.5C4.44772 3.5 4 3.94772 4 4.5C4 5.05228 4.44772 5.5 5 5.5V3.5ZM6 5.5C6.55228 5.5 7 5.05228 7 4.5C7 3.94772 6.55228 3.5 6 3.5V5.5ZM3.5 2H21.5V0H3.5V2ZM22.5 3V21H24.5V3H22.5ZM21.5 22H3.5V24H21.5V22ZM2.5 21V3H0.5V21H2.5ZM3.5 22C2.94772 22 2.5 21.5523 2.5 21H0.5C0.5 22.6569 1.84314 24 3.5 24V22ZM22.5 21C22.5 21.5523 22.0523 22 21.5 22V24C23.1569 24 24.5 22.6569 24.5 21H22.5ZM21.5 2C22.0523 2 22.5 2.44772 22.5 3H24.5C24.5 1.34315 23.1569 0 21.5 0V2ZM3.5 0C1.84315 0 0.5 1.34314 0.5 3H2.5C2.5 2.44772 2.94771 2 3.5 2V0ZM17.5 13C17.5 15.7614 15.2614 18 12.5 18V20C16.366 20 19.5 16.866 19.5 13H17.5ZM12.5 18C9.73858 18 7.5 15.7614 7.5 13H5.5C5.5 16.866 8.63401 20 12.5 20V18ZM7.5 13C7.5 10.2386 9.73858 8 12.5 8V6C8.63401 6 5.5 9.13401 5.5 13H7.5ZM12.5 8C15.2614 8 17.5 10.2386 17.5 13H19.5C19.5 9.13401 16.366 6 12.5 6V8ZM5 5.5H6V3.5H5V5.5ZM6.5 13C5.84922 13.7593 5.84955 13.7595 5.84989 13.7598C5.85002 13.76 5.85038 13.7603 5.85064 13.7605C5.85117 13.7609 5.85176 13.7614 5.8524 13.762C5.85367 13.7631 5.85517 13.7643 5.85689 13.7658C5.86032 13.7687 5.86462 13.7723 5.86977 13.7766C5.88008 13.7852 5.89382 13.7965 5.91084 13.8103C5.94486 13.8378 5.99215 13.8753 6.05158 13.9203C6.17019 14.0101 6.33864 14.1312 6.54792 14.2648C6.96195 14.5291 7.55837 14.8565 8.26138 15.0785C8.96396 15.3004 9.81542 15.43 10.7104 15.2448C11.6243 15.0557 12.507 14.5536 13.2682 13.6402L11.7318 12.3598C11.243 12.9463 10.7507 13.1941 10.3052 13.2863C9.84083 13.3824 9.34854 13.3245 8.86362 13.1714C8.37913 13.0184 7.9443 12.7834 7.62396 12.5789C7.46604 12.4781 7.34153 12.3883 7.25897 12.3258C7.21782 12.2947 7.18747 12.2706 7.169 12.2556C7.15977 12.2482 7.15355 12.243 7.15046 12.2404C7.14892 12.2391 7.14816 12.2385 7.1482 12.2385C7.14823 12.2386 7.14845 12.2387 7.14888 12.2391C7.1491 12.2393 7.14936 12.2395 7.14968 12.2398C7.14983 12.2399 7.15011 12.2402 7.15019 12.2402C7.15048 12.2405 7.15078 12.2407 6.5 13ZM13.2682 13.6402C13.757 13.0536 14.2493 12.8058 14.6948 12.7136C15.1592 12.6176 15.6514 12.6755 16.1364 12.8286C16.6209 12.9816 17.0557 13.2166 17.376 13.4211C17.5339 13.5218 17.6585 13.6116 17.741 13.6742C17.7822 13.7053 17.8125 13.7294 17.831 13.7444C17.8402 13.7518 17.8464 13.757 17.8495 13.7596C17.8511 13.7609 17.8518 13.7615 17.8518 13.7615C17.8518 13.7614 17.8515 13.7612 17.8511 13.7609C17.8509 13.7607 17.8506 13.7605 17.8503 13.7602C17.8502 13.7601 17.8499 13.7598 17.8498 13.7598C17.8495 13.7595 17.8492 13.7593 18.5 13C19.1508 12.2407 19.1505 12.2405 19.1501 12.2402C19.15 12.2401 19.1496 12.2397 19.1494 12.2395C19.1488 12.2391 19.1483 12.2386 19.1476 12.238C19.1463 12.2369 19.1448 12.2357 19.1431 12.2342C19.1397 12.2313 19.1354 12.2277 19.1302 12.2234C19.1199 12.2148 19.1062 12.2035 19.0892 12.1897C19.0552 12.1622 19.0079 12.1248 18.9484 12.0797C18.8298 11.9899 18.6614 11.8688 18.4521 11.7352C18.0381 11.4709 17.4416 11.1434 16.7386 10.9214C16.0361 10.6996 15.1846 10.5699 14.2896 10.7551C13.3757 10.9442 12.493 11.4463 11.7318 12.3598L13.2682 13.6402Z" fill="#FAF9F7"/>
</svg>
