<svg width="23" height="24" viewBox="0 0 23 24" fill="none" xmlns="http://www.w3.org/2000/svg">
<path d="M4.23364 1.71963L5.00186 2.35982L4.23364 1.71963ZM18.7664 1.71963L17.9981 2.35982V2.35982L18.7664 1.71963ZM21.0364 4.44373L21.8047 3.80355V3.80355L21.0364 4.44373ZM1.96356 4.44373L1.19534 3.80355L1.96356 4.44373ZM16.5 10C16.5 9.44771 16.0523 9 15.5 9C14.9477 9 14.5 9.44771 14.5 10H16.5ZM8.5 10C8.5 9.44771 8.05228 9 7.5 9C6.94772 9 6.5 9.44771 6.5 10H8.5ZM21.8047 3.80355L19.5346 1.07945L17.9981 2.35982L20.2682 5.08392L21.8047 3.80355ZM17.2299 0H5.77008V2H17.2299V0ZM3.46542 1.07945L1.19534 3.80355L2.73178 5.08392L5.00186 2.35982L3.46542 1.07945ZM22.5 20V5.7241H20.5V20H22.5ZM0.5 5.7241V20H2.5V5.7241H0.5ZM4.5 24H18.5V22H4.5V24ZM0.5 20C0.5 22.2091 2.29086 24 4.5 24V22C3.39543 22 2.5 21.1046 2.5 20H0.5ZM20.5 20C20.5 21.1046 19.6046 22 18.5 22V24C20.7091 24 22.5 22.2091 22.5 20H20.5ZM5.77008 0C4.87974 0 4.0354 0.395469 3.46542 1.07945L5.00186 2.35982C5.19186 2.13182 5.4733 2 5.77008 2V0ZM19.5346 1.07945C18.9646 0.395469 18.1203 0 17.2299 0V2C17.5267 2 17.8081 2.13182 17.9981 2.35982L19.5346 1.07945ZM20.2682 5.08392C20.418 5.26363 20.5 5.49016 20.5 5.7241H22.5C22.5 5.02229 22.254 4.34269 21.8047 3.80355L20.2682 5.08392ZM1.19534 3.80355C0.746048 4.34269 0.5 5.02229 0.5 5.7241H2.5C2.5 5.49016 2.58202 5.26363 2.73178 5.08392L1.19534 3.80355ZM1.5 6.5H21.5V4.5H1.5V6.5ZM14.5 10C14.5 11.6569 13.1569 13 11.5 13V15C14.2614 15 16.5 12.7614 16.5 10H14.5ZM11.5 13C9.84315 13 8.5 11.6569 8.5 10H6.5C6.5 12.7614 8.73858 15 11.5 15V13Z" fill="#FAF9F7"/>
</svg>
