<svg width="23" height="24" viewBox="0 0 23 24" fill="none" xmlns="http://www.w3.org/2000/svg">
<path d="M16.7777 1.97393L20.2457 2.35926C21.1754 2.46256 21.8924 3.19991 21.7947 4.13022C21.5507 6.45589 20.4013 11.0416 15.4719 15.971C10.5426 20.9003 5.95629 22.0504 3.63019 22.2948C2.69972 22.3926 1.96212 21.6756 1.8588 20.7457L1.47351 17.2781C1.38544 16.4855 1.77671 15.7163 2.46921 15.3207L4.95331 13.9016C5.73635 13.4542 6.72191 13.5863 7.35959 14.224L7.99687 14.8612C8.46972 15.3341 9.15114 15.5342 9.75548 15.2479C10.4715 14.9087 11.5065 14.2796 12.6428 13.1432C13.7792 12.0069 14.4083 10.9719 14.7475 10.2559C15.0338 9.65156 14.8337 8.97013 14.3608 8.49729L13.7236 7.86C13.0859 7.22232 12.9538 6.23677 13.4012 5.45372L14.8202 2.96962C15.2158 2.27713 15.9851 1.88585 16.7777 1.97393Z" stroke="#FAF9F7" stroke-width="2" stroke-linecap="round" stroke-linejoin="round"/>
</svg>
