<svg width="25" height="22" viewBox="0 0 25 22" fill="none" xmlns="http://www.w3.org/2000/svg">
<path d="M1.5 1H3.89566C4.83305 1 5.64468 1.65106 5.84803 2.56614L6.5 5.5M6.5 5.5L7.60424 11.5733C8.12296 14.4263 10.6077 16.5 13.5075 16.5H16.2106C19.012 16.5 21.4406 14.5615 22.0614 11.8297L23.0835 7.33243C23.2969 6.39379 22.5834 5.5 21.6208 5.5H6.5ZM10 20C10 20.5523 9.55228 21 9 21C8.44772 21 8 20.5523 8 20C8 19.4477 8.44772 19 9 19C9.55228 19 10 19.4477 10 20ZM22 20C22 20.5523 21.5523 21 21 21C20.4477 21 20 20.5523 20 20C20 19.4477 20.4477 19 21 19C21.5523 19 22 19.4477 22 20Z" stroke="#FAF9F7" stroke-width="2" stroke-linecap="round"/>
</svg>
