<svg width="19" height="24" viewBox="0 0 19 24" fill="none" xmlns="http://www.w3.org/2000/svg">
<path d="M2.5 9.5C2.5 8.94772 2.05228 8.5 1.5 8.5C0.947715 8.5 0.5 8.94772 0.5 9.5H2.5ZM18.5 9.5C18.5 8.94772 18.0523 8.5 17.5 8.5C16.9477 8.5 16.5 8.94772 16.5 9.5H18.5ZM8.5 23C8.5 23.5523 8.94772 24 9.5 24C10.0523 24 10.5 23.5523 10.5 23H8.5ZM13.5 24C14.0523 24 14.5 23.5523 14.5 23C14.5 22.4477 14.0523 22 13.5 22V24ZM5.5 22C4.94772 22 4.5 22.4477 4.5 23C4.5 23.5523 4.94772 24 5.5 24V22ZM12.5 5V11H14.5V5H12.5ZM6.5 11V5H4.5V11H6.5ZM9.5 14C7.84315 14 6.5 12.6569 6.5 11H4.5C4.5 13.7614 6.73858 16 9.5 16V14ZM12.5 11C12.5 12.6569 11.1569 14 9.5 14V16C12.2614 16 14.5 13.7614 14.5 11H12.5ZM9.5 2C11.1569 2 12.5 3.34315 12.5 5H14.5C14.5 2.23858 12.2614 0 9.5 0V2ZM9.5 0C6.73858 0 4.5 2.23858 4.5 5H6.5C6.5 3.34315 7.84315 2 9.5 2V0ZM2.5 11V9.5H0.5V11H2.5ZM16.5 9.5V11H18.5V9.5H16.5ZM9.5 18C5.63401 18 2.5 14.866 2.5 11H0.5C0.5 15.9706 4.52944 20 9.5 20V18ZM9.5 20C14.4706 20 18.5 15.9706 18.5 11H16.5C16.5 14.866 13.366 18 9.5 18V20ZM8.5 19V23H10.5V19H8.5ZM13.5 22H5.5V24H13.5V22Z" fill="#FAF9F7"/>
</svg>
