<svg width="25" height="23" viewBox="0 0 25 23" fill="none" xmlns="http://www.w3.org/2000/svg">
<path d="M19.8333 8.01449C19.8333 6.15413 19.0607 4.36997 17.6855 3.0545C16.3102 1.73902 14.4449 1 12.5 1C10.5551 1 8.68982 1.73902 7.31455 3.0545C5.93928 4.36997 5.16667 6.15413 5.16667 8.01449C5.16667 13.9484 2.71304 16.809 1.36406 17.9333C1.1615 18.1021 1.29337 18.5362 1.55706 18.5362H8.02214C8.1391 18.5362 8.24073 18.6154 8.27521 18.7271C8.49911 19.4529 9.49866 22 12.5 22C15.5013 22 16.5009 19.4529 16.7248 18.7271C16.7593 18.6154 16.8609 18.5362 16.9779 18.5362H23.4429C23.7066 18.5362 23.8385 18.1021 23.6359 17.9333C22.287 16.809 19.8333 13.9484 19.8333 8.01449Z" stroke="#FAF9F7" stroke-width="2" stroke-linecap="round" stroke-linejoin="round"/>
</svg>
