<svg width="23" height="23" viewBox="0 0 23 23" fill="none" xmlns="http://www.w3.org/2000/svg">
<path d="M10.8079 1.65797C11.0645 1.0432 11.9355 1.0432 12.1921 1.65797L14.3937 6.93186C14.4962 7.17755 14.7214 7.35045 14.9852 7.38616L20.7876 8.17148C21.4378 8.25948 21.6695 9.08097 21.1612 9.49579L16.6809 13.1518C16.4594 13.3326 16.36 13.6235 16.4244 13.902L17.8568 20.0919C18.0119 20.762 17.2583 21.27 16.6953 20.8748L11.9309 17.5309C11.6723 17.3494 11.3277 17.3494 11.0691 17.5309L6.3047 20.8749C5.74167 21.27 4.98807 20.7621 5.14315 20.0919L6.57545 13.902C6.6399 13.6235 6.54042 13.3326 6.31895 13.1518L1.8388 9.49578C1.33048 9.08096 1.56222 8.25948 2.2124 8.17149L8.01479 7.38616C8.27862 7.35045 8.50375 7.17755 8.60631 6.93186L10.8079 1.65797Z" stroke="#FAF9F7" stroke-width="2" stroke-miterlimit="3.3292" stroke-linecap="round" stroke-linejoin="round"/>
</svg>
