<svg width="25" height="25" viewBox="0 0 25 25" fill="none" xmlns="http://www.w3.org/2000/svg">
<path d="M2.11964 2.58082L1.12043 2.54085L2.11964 2.58082ZM3.07887 1.62159L3.0389 0.622388L3.07887 1.62159ZM2.65017 13.4658L1.94306 14.1729H1.94306L2.65017 13.4658ZM1.77388 11.2246L0.774684 11.1846L1.77388 11.2246ZM11.3489 22.1646L12.056 21.4575L11.3489 22.1646ZM22.6626 10.8509L23.3697 10.1438L22.6626 10.8509ZM13.9639 2.15212L13.2568 2.85923L13.9639 2.15212ZM11.7227 1.27584L11.6827 0.276637L11.7227 1.27584ZM9.20701 7.29452C8.81649 6.904 8.18332 6.904 7.7928 7.29452C7.40228 7.68505 7.40228 8.31821 7.7928 8.70873L9.20701 7.29452ZM8.7928 9.70874C9.18332 10.0993 9.81649 10.0993 10.207 9.70874C10.5975 9.31821 10.5975 8.68505 10.207 8.29452L8.7928 9.70874ZM13.2568 2.85923L21.9555 11.558L23.3697 10.1438L14.671 1.44501L13.2568 2.85923ZM21.9555 14.3864L14.8845 21.4575L16.2987 22.8717L23.3697 15.8006L21.9555 14.3864ZM12.056 21.4575L3.35727 12.7587L1.94306 14.1729L10.6418 22.8717L12.056 21.4575ZM2.77309 11.2646L3.11884 2.62079L1.12043 2.54085L0.774684 11.1846L2.77309 11.2646ZM3.11884 2.62079L11.7626 2.27504L11.6827 0.276637L3.0389 0.622388L3.11884 2.62079ZM3.11884 2.62079V2.62079L3.0389 0.622388C1.99711 0.66406 1.16211 1.49906 1.12043 2.54085L3.11884 2.62079ZM3.35727 12.7587C2.96257 12.364 2.75078 11.8223 2.77309 11.2646L0.774684 11.1846C0.730064 12.3001 1.15365 13.3835 1.94306 14.1729L3.35727 12.7587ZM14.8845 21.4575C14.1034 22.2385 12.8371 22.2385 12.056 21.4575L10.6418 22.8717C12.2039 24.4338 14.7366 24.4338 16.2987 22.8717L14.8845 21.4575ZM21.9555 11.558C22.7366 12.339 22.7366 13.6054 21.9555 14.3864L23.3697 15.8006C24.9318 14.2385 24.9318 11.7059 23.3697 10.1438L21.9555 11.558ZM14.671 1.44501C13.8816 0.655605 12.7982 0.232017 11.6827 0.276637L11.7626 2.27504C12.3204 2.25273 12.8621 2.46452 13.2568 2.85923L14.671 1.44501ZM7.7928 8.70873L8.7928 9.70874L10.207 8.29452L9.20701 7.29452L7.7928 8.70873Z" fill="#FAF9F7"/>
</svg>
