<svg width="25" height="18" viewBox="0 0 25 18" fill="none" xmlns="http://www.w3.org/2000/svg">
<path d="M17.5 17V15M17.5 17H7.5M17.5 17H23.5V15.5C23.5 13.567 21.933 12 20 12C18.8708 12 17.8665 12.5348 17.2265 13.3648C17.4037 13.8772 17.5 14.4274 17.5 15M7.5 17V15M7.5 17H1.5V15.5C1.5 13.567 3.067 12 5 12C6.12921 12 7.13351 12.5348 7.77349 13.3648C7.59626 13.8772 7.5 14.4274 7.5 15M17.5 15C17.5 12.2386 15.2614 10 12.5 10C9.73858 10 7.5 12.2386 7.5 15M15.5 4C15.5 5.65685 14.1569 7 12.5 7C10.8431 7 9.5 5.65685 9.5 4C9.5 2.34315 10.8431 1 12.5 1C14.1569 1 15.5 2.34315 15.5 4ZM6.5 7C6.5 8.10457 5.60457 9 4.5 9C3.39543 9 2.5 8.10457 2.5 7C2.5 5.89543 3.39543 5 4.5 5C5.60457 5 6.5 5.89543 6.5 7ZM22.5 7C22.5 8.10457 21.6046 9 20.5 9C19.3954 9 18.5 8.10457 18.5 7C18.5 5.89543 19.3954 5 20.5 5C21.6046 5 22.5 5.89543 22.5 7Z" stroke="#FAF9F7" stroke-width="2"/>
</svg>
