<svg width="25" height="24" viewBox="0 0 25 24" fill="none" xmlns="http://www.w3.org/2000/svg">
<path d="M13.5 7C13.5 6.44772 13.0523 6 12.5 6C11.9477 6 11.5 6.44772 11.5 7H13.5ZM12.5 13H11.5C11.5 13.2652 11.6054 13.5196 11.7929 13.7071L12.5 13ZM14.2929 16.2071C14.6834 16.5976 15.3166 16.5976 15.7071 16.2071C16.0976 15.8166 16.0976 15.1834 15.7071 14.7929L14.2929 16.2071ZM22.5 12C22.5 17.5228 18.0228 22 12.5 22V24C19.1274 24 24.5 18.6274 24.5 12H22.5ZM12.5 22C6.97715 22 2.5 17.5228 2.5 12H0.5C0.5 18.6274 5.87258 24 12.5 24V22ZM2.5 12C2.5 6.47715 6.97715 2 12.5 2V0C5.87258 0 0.5 5.37258 0.5 12H2.5ZM12.5 2C18.0228 2 22.5 6.47715 22.5 12H24.5C24.5 5.37258 19.1274 0 12.5 0V2ZM11.5 7V13H13.5V7H11.5ZM11.7929 13.7071L14.2929 16.2071L15.7071 14.7929L13.2071 12.2929L11.7929 13.7071Z" fill="#FAF9F7"/>
</svg>
