<svg width="24" height="19" viewBox="0 0 24 19" fill="none" xmlns="http://www.w3.org/2000/svg">
<path d="M13.5 18V16M13.5 18H1.5V16C1.5 12.6863 4.18629 10 7.5 10C10.8137 10 13.5 12.6863 13.5 16M13.5 18H22.5V17.5C22.5 14.4624 20.0376 12 17 12C15.4435 12 14.038 12.6466 13.0374 13.6858C13.3354 14.3979 13.5 15.1797 13.5 16M10.5 4C10.5 5.65685 9.15685 7 7.5 7C5.84315 7 4.5 5.65685 4.5 4C4.5 2.34315 5.84315 1 7.5 1C9.15685 1 10.5 2.34315 10.5 4ZM19.5 6.5C19.5 7.88071 18.3807 9 17 9C15.6193 9 14.5 7.88071 14.5 6.5C14.5 5.11929 15.6193 4 17 4C18.3807 4 19.5 5.11929 19.5 6.5Z" stroke="#FAF9F7" stroke-width="2"/>
</svg>
