<svg width="26" height="24" viewBox="0 0 26 24" fill="none" xmlns="http://www.w3.org/2000/svg">
<path d="M0.792185 7C0.792185 7.55228 1.2399 8 1.79218 8C2.34447 8 2.79218 7.55228 2.79218 7H0.792185ZM15.7922 20C15.2399 20 14.7922 20.4477 14.7922 21C14.7922 21.5523 15.2399 22 15.7922 22V20ZM1.60449 10.6568C1.05221 10.6568 0.604492 11.1045 0.604492 11.6568C0.604492 12.2091 1.05221 12.6568 1.60449 12.6568V10.6568ZM7.96845 14.2928L8.67556 13.5857L7.96845 14.2928ZM9.60449 20.6568C9.60449 21.2091 10.0522 21.6568 10.6045 21.6568C11.1568 21.6568 11.6045 21.2091 11.6045 20.6568H9.60449ZM1.60512 15.173C1.05284 15.173 0.605123 15.6207 0.605123 16.173C0.605123 16.7252 1.05284 17.173 1.60512 17.173V15.173ZM3.21993 16.4942L3.60261 15.5703L3.21993 16.4942ZM5.5036 18.7778L6.42748 18.3952H6.42748L5.5036 18.7778ZM4.82481 20.3926C4.82481 20.9449 5.27252 21.3926 5.82481 21.3926C6.37709 21.3926 6.82481 20.9449 6.82481 20.3926H4.82481ZM4.79218 4H20.7922V2H4.79218V4ZM22.7922 6V18H24.7922V6H22.7922ZM2.79218 7V6H0.792185V7H2.79218ZM20.7922 20H15.7922V22H20.7922V20ZM22.7922 18C22.7922 19.1046 21.8968 20 20.7922 20V22C23.0013 22 24.7922 20.2091 24.7922 18H22.7922ZM20.7922 4C21.8968 4 22.7922 4.89543 22.7922 6H24.7922C24.7922 3.79086 23.0013 2 20.7922 2V4ZM4.79218 2C2.58305 2 0.792185 3.79086 0.792185 6H2.79218C2.79218 4.89543 3.68762 4 4.79218 4V2ZM1.60449 12.6568C2.65507 12.6568 3.69536 12.8637 4.66596 13.2658L5.43133 11.418C4.21807 10.9155 2.91771 10.6568 1.60449 10.6568V12.6568ZM4.66596 13.2658C5.63656 13.6678 6.51848 14.2571 7.26135 15L8.67556 13.5857C7.74697 12.6572 6.64458 11.9206 5.43133 11.418L4.66596 13.2658ZM7.26135 15C8.00422 15.7428 8.59349 16.6247 8.99553 17.5953L10.8433 16.83C10.3407 15.6167 9.60415 14.5143 8.67556 13.5857L7.26135 15ZM8.99553 17.5953C9.39757 18.5659 9.60449 19.6062 9.60449 20.6568H11.6045C11.6045 19.3436 11.3458 18.0432 10.8433 16.83L8.99553 17.5953ZM1.60512 17.173C2.02794 17.173 2.44661 17.2562 2.83724 17.418L3.60261 15.5703C2.96933 15.308 2.29058 15.173 1.60512 15.173V17.173ZM2.83724 17.418C3.22787 17.5798 3.58281 17.817 3.88178 18.116L5.296 16.7018C4.8113 16.2171 4.23589 15.8326 3.60261 15.5703L2.83724 17.418ZM3.88178 18.116C4.18076 18.415 4.41792 18.7699 4.57972 19.1605L6.42748 18.3952C6.16517 17.7619 5.78069 17.1865 5.296 16.7018L3.88178 18.116ZM4.57972 19.1605C4.74153 19.5512 4.82481 19.9698 4.82481 20.3926H6.82481C6.82481 19.7072 6.6898 19.0284 6.42748 18.3952L4.57972 19.1605Z" fill="#FAF9F7"/>
</svg>
