<svg width="25" height="24" viewBox="0 0 25 24" fill="none" xmlns="http://www.w3.org/2000/svg">
<path d="M15.5 1V4M23.5 9H20.5M23.5 15H20.5M4.5 9H1.5M4.5 15H1.5M9.5 1V4M15.5 20V23M9.5 20V23M7.5 20H17.5C19.1569 20 20.5 18.6569 20.5 17V7C20.5 5.34315 19.1569 4 17.5 4H7.5C5.84315 4 4.5 5.34315 4.5 7V17C4.5 18.6569 5.84315 20 7.5 20ZM10 15H15C15.2761 15 15.5 14.7761 15.5 14.5V9.5C15.5 9.22386 15.2761 9 15 9H10C9.72386 9 9.5 9.22386 9.5 9.5V14.5C9.5 14.7761 9.72386 15 10 15Z" stroke="#FAF9F7" stroke-width="2" stroke-linecap="round" stroke-linejoin="round"/>
</svg>
