<svg width="25" height="24" viewBox="0 0 25 24" fill="none" xmlns="http://www.w3.org/2000/svg">
<path d="M16.9142 4.41421L16.2071 5.12132L16.9142 4.41421ZM20.4353 7.93535L21.1425 7.22824V7.22824L20.4353 7.93535ZM10.7929 6.29288C10.4024 6.6834 10.4024 7.31657 10.7929 7.70709C11.1834 8.09762 11.8166 8.09762 12.2071 7.7071L10.7929 6.29288ZM14.0858 4.4142L14.7929 5.12131L14.0858 4.4142ZM20.4209 10.778L21.1209 11.4923L20.4209 10.778ZM9.80008 19.7858C9.40562 20.1723 9.39921 20.8054 9.78575 21.1999C10.1723 21.5944 10.8054 21.6008 11.1999 21.2142L9.80008 19.7858ZM16.2071 5.12132L19.7282 8.64246L21.1425 7.22824L17.6213 3.7071L16.2071 5.12132ZM12.2071 7.7071L14.7929 5.12131L13.3787 3.7071L10.7929 6.29288L12.2071 7.7071ZM19.721 10.0638L9.80008 19.7858L11.1999 21.2142L21.1209 11.4923L19.721 10.0638ZM19.7282 8.64245C20.1216 9.03578 20.1183 9.67447 19.721 10.0638L21.1209 11.4923C22.3127 10.3243 22.3224 8.40822 21.1425 7.22824L19.7282 8.64245ZM17.6213 3.7071C16.4497 2.53553 14.5503 2.53553 13.3787 3.7071L14.7929 5.12131C15.1834 4.73079 15.8166 4.73079 16.2071 5.12132L17.6213 3.7071ZM4.5 3H9.5V1H4.5V3ZM10.5 4V17.5H12.5V4H10.5ZM3.5 17.5V4H1.5V17.5H3.5ZM7 21C5.067 21 3.5 19.433 3.5 17.5H1.5C1.5 20.5376 3.96243 23 7 23V21ZM10.5 17.5C10.5 19.433 8.933 21 7 21V23C10.0376 23 12.5 20.5376 12.5 17.5H10.5ZM9.5 3C10.0523 3 10.5 3.44772 10.5 4H12.5C12.5 2.34315 11.1569 1 9.5 1V3ZM4.5 1C2.84315 1 1.5 2.34315 1.5 4H3.5C3.5 3.44772 3.94772 3 4.5 3V1ZM21.5 15V20H23.5V15H21.5ZM18.5 14H20.5V12H18.5V14ZM20.5 21H7V23H20.5V21ZM21.5 20C21.5 20.5523 21.0523 21 20.5 21V23C22.1569 23 23.5 21.6569 23.5 20H21.5ZM23.5 15C23.5 13.3431 22.1569 12 20.5 12V14C21.0523 14 21.5 14.4477 21.5 15H23.5ZM6.5 17.5C6.5 17.2239 6.72386 17 7 17V19C7.82843 19 8.5 18.3284 8.5 17.5H6.5ZM7 17C7.27614 17 7.5 17.2239 7.5 17.5H5.5C5.5 18.3284 6.17157 19 7 19V17ZM7.5 17.5C7.5 17.7761 7.27614 18 7 18V16C6.17157 16 5.5 16.6716 5.5 17.5H7.5ZM7 18C6.72386 18 6.5 17.7761 6.5 17.5H8.5C8.5 16.6716 7.82843 16 7 16V18Z" fill="#FAF9F7"/>
</svg>
