<svg width="25" height="24" viewBox="0 0 25 24" fill="none" xmlns="http://www.w3.org/2000/svg">
<path d="M22.5 7.44447L22.9856 8.31863C23.2929 8.14793 23.488 7.82845 23.4995 7.47715C23.511 7.12584 23.3372 6.79431 23.0417 6.6039L22.5 7.44447ZM12.5 1L13.0417 0.15943C12.7118 -0.0531434 12.2882 -0.0531434 11.9583 0.15943L12.5 1ZM2.5 7.44447L1.9583 6.6039C1.66284 6.79431 1.48905 7.12584 1.50053 7.47715C1.51202 7.82845 1.7071 8.14793 2.01436 8.31863L2.5 7.44447ZM3.0145 16.1425C2.54092 15.8584 1.92666 16.0119 1.64251 16.4855C1.35836 16.9591 1.51192 17.5733 1.9855 17.8575L3.0145 16.1425ZM12.5 23L11.9855 23.8575C12.3022 24.0475 12.6978 24.0475 13.0145 23.8575L12.5 23ZM23.0145 17.8575C23.4881 17.5733 23.6416 16.9591 23.3575 16.4855C23.0733 16.0119 22.4591 15.8584 21.9855 16.1425L23.0145 17.8575ZM23.0417 6.6039L13.0417 0.15943L11.9583 1.84057L21.9583 8.28504L23.0417 6.6039ZM11.9583 0.15943L1.9583 6.6039L3.0417 8.28504L13.0417 1.84057L11.9583 0.15943ZM2.01436 8.31863L12.0144 13.8742L12.9856 12.1258L2.98564 6.57031L2.01436 8.31863ZM12.9856 13.8742L22.9856 8.31863L22.0144 6.57031L12.0144 12.1258L12.9856 13.8742ZM1.9855 17.8575L11.9855 23.8575L13.0145 22.1425L3.0145 16.1425L1.9855 17.8575ZM13.0145 23.8575L23.0145 17.8575L21.9855 16.1425L11.9855 22.1425L13.0145 23.8575ZM3.5 17.5V7.5H1.5V17.5H3.5ZM23.5 17.5V7.5H21.5V17.5H23.5ZM13.5 22V13H11.5V22H13.5Z" fill="#FAF9F7"/>
</svg>
