<svg width="21" height="22" viewBox="0 0 21 22" fill="none" xmlns="http://www.w3.org/2000/svg">
<path d="M20.5 11C20.5 10.4477 20.0523 10 19.5 10C18.9477 10 18.5 10.4477 18.5 11H20.5ZM2.5 11C2.5 10.4477 2.05228 10 1.5 10C0.947715 10 0.5 10.4477 0.5 11H2.5ZM18.5 4C18.5 4.00073 18.5001 4.00494 18.4969 4.01529C18.4935 4.02644 18.4852 4.04845 18.4649 4.08143C18.4225 4.15057 18.3359 4.25453 18.1738 4.38232C17.8436 4.64253 17.3038 4.9206 16.5477 5.17264C15.046 5.67322 12.9077 6 10.5 6V8C13.0629 8 15.4246 7.6552 17.1802 7.07C18.0528 6.77915 18.831 6.41077 19.4117 5.95315C19.9811 5.50441 20.5 4.85195 20.5 4H18.5ZM10.5 6C8.09229 6 5.95402 5.67322 4.45227 5.17264C3.69616 4.9206 3.15642 4.64253 2.82624 4.38232C2.66408 4.25453 2.57752 4.15057 2.53507 4.08143C2.51483 4.04845 2.50645 4.02644 2.50305 4.01529C2.4999 4.00494 2.5 4.00073 2.5 4H0.5C0.5 4.85195 1.01889 5.50441 1.58829 5.95315C2.16896 6.41077 2.94724 6.77915 3.81981 7.07C5.57541 7.6552 7.93715 8 10.5 8V6ZM2.5 4C2.5 3.99927 2.4999 3.99506 2.50305 3.98471C2.50645 3.97356 2.51483 3.95155 2.53507 3.91857C2.57752 3.84943 2.66408 3.74547 2.82624 3.61768C3.15642 3.35747 3.69616 3.0794 4.45227 2.82736C5.95402 2.32678 8.09229 2 10.5 2V0C7.93715 0 5.57541 0.344796 3.81981 0.929996C2.94724 1.22085 2.16896 1.58923 1.58829 2.04685C1.01889 2.49559 0.5 3.14805 0.5 4H2.5ZM10.5 2C12.9077 2 15.046 2.32678 16.5477 2.82736C17.3038 3.0794 17.8436 3.35747 18.1738 3.61768C18.3359 3.74547 18.4225 3.84943 18.4649 3.91857C18.4852 3.95155 18.4935 3.97356 18.4969 3.98471C18.5001 3.99506 18.5 3.99927 18.5 4H20.5C20.5 3.14805 19.9811 2.49559 19.4117 2.04685C18.831 1.58923 18.0528 1.22085 17.1802 0.929996C15.4246 0.344796 13.0629 0 10.5 0V2ZM18.5 11C18.5 11.0007 18.5001 11.0049 18.4969 11.0153C18.4935 11.0264 18.4852 11.0485 18.4649 11.0814C18.4225 11.1506 18.3359 11.2545 18.1738 11.3823C17.8436 11.6425 17.3038 11.9206 16.5477 12.1726C15.046 12.6732 12.9077 13 10.5 13V15C13.0629 15 15.4246 14.6552 17.1802 14.07C18.0528 13.7791 18.831 13.4108 19.4117 12.9531C19.9811 12.5044 20.5 11.8519 20.5 11H18.5ZM10.5 13C8.09229 13 5.95402 12.6732 4.45227 12.1726C3.69616 11.9206 3.15642 11.6425 2.82624 11.3823C2.66408 11.2545 2.57752 11.1506 2.53507 11.0814C2.51483 11.0485 2.50645 11.0264 2.50305 11.0153C2.4999 11.0049 2.5 11.0007 2.5 11H0.5C0.5 11.8519 1.01889 12.5044 1.58829 12.9531C2.16896 13.4108 2.94724 13.7791 3.81981 14.07C5.57541 14.6552 7.93715 15 10.5 15V13ZM18.5 18C18.5 18.0007 18.5001 18.0049 18.4969 18.0153C18.4935 18.0264 18.4852 18.0485 18.4649 18.0814C18.4225 18.1506 18.3359 18.2545 18.1738 18.3823C17.8436 18.6425 17.3038 18.9206 16.5477 19.1726C15.046 19.6732 12.9077 20 10.5 20V22C13.0629 22 15.4246 21.6552 17.1802 21.07C18.0528 20.7791 18.831 20.4108 19.4117 19.9531C19.9811 19.5044 20.5 18.8519 20.5 18H18.5ZM10.5 20C8.09229 20 5.95402 19.6732 4.45227 19.1726C3.69616 18.9206 3.15642 18.6425 2.82624 18.3823C2.66408 18.2545 2.57752 18.1506 2.53507 18.0814C2.51483 18.0485 2.50645 18.0264 2.50305 18.0153C2.4999 18.0049 2.5 18.0007 2.5 18H0.5C0.5 18.8519 1.01889 19.5044 1.58829 19.9531C2.16896 20.4108 2.94724 20.7791 3.81981 21.07C5.57541 21.6552 7.93715 22 10.5 22V20ZM0.5 4V18H2.5V4H0.5ZM18.5 4V18H20.5V4H18.5Z" fill="#FAF9F7"/>
</svg>
