<svg width="25" height="24" viewBox="0 0 25 24" fill="none" xmlns="http://www.w3.org/2000/svg">
<path d="M13.5 16C13.5 15.4477 13.0523 15 12.5 15C11.9477 15 11.5 15.4477 11.5 16H13.5ZM16.1189 21.9245C16.6295 22.135 17.214 21.8917 17.4245 21.3811C17.635 20.8705 17.3917 20.286 16.8811 20.0755L16.1189 21.9245ZM8.11887 20.0755C7.60827 20.286 7.36499 20.8705 7.57548 21.3811C7.78597 21.8917 8.37053 22.135 8.88113 21.9245L8.11887 20.0755ZM22.5 4.5V15.5H24.5V4.5H22.5ZM2.5 15.5V4.5H0.5V15.5H2.5ZM1.99375 5C1.99918 5 2.00465 5 2.01016 5C2.01567 5 2.02122 5 2.02682 5C2.03241 5 2.03805 5 2.04372 5C2.0494 5 2.05512 5 2.06088 5C2.06663 5 2.07243 5 2.07828 5C2.08412 5 2.09 5 2.09592 5C2.10184 5 2.10781 5 2.11381 5C2.11982 5 2.12586 5 2.13195 5C2.13803 5 2.14416 5 2.15033 5C2.15649 5 2.1627 5 2.16895 5C2.1752 5 2.18148 5 2.18781 5C2.19414 5 2.20051 5 2.20691 5C2.21332 5 2.21977 5 2.22626 5C2.23274 5 2.23927 5 2.24584 5C2.25241 5 2.25901 5 2.26566 5C2.2723 5 2.27899 5 2.28572 5C2.29244 5 2.2992 5 2.30601 5C2.31281 5 2.31965 5 2.32654 5C2.33342 5 2.34034 5 2.3473 5C2.35426 5 2.36126 5 2.36829 5C2.37533 5 2.38241 5 2.38952 5C2.39664 5 2.40379 5 2.41098 5C2.41817 5 2.4254 5 2.43267 5C2.43994 5 2.44725 5 2.45459 5C2.46194 5 2.46932 5 2.47674 5C2.48416 5 2.49162 5 2.49912 5C2.50662 5 2.51415 5 2.52172 5C2.52929 5 2.53691 5 2.54455 5C2.5522 5 2.55989 5 2.56761 5C2.57533 5 2.58309 5 2.59089 5C2.59869 5 2.60652 5 2.61439 5C2.62226 5 2.63017 5 2.63812 5C2.64606 5 2.65405 5 2.66207 5C2.67009 5 2.67814 5 2.68623 5C2.69433 5 2.70246 5 2.71062 5C2.71879 5 2.72699 5 2.73523 5C2.74347 5 2.75174 5 2.76006 5C2.76837 5 2.77671 5 2.7851 5C2.79348 5 2.8019 5 2.81036 5C2.81881 5 2.8273 5 2.83583 5C2.84436 5 2.85292 5 2.86152 5C2.87012 5 2.87875 5 2.88742 5C2.89609 5 2.9048 5 2.91354 5C2.92228 5 2.93105 5 2.93986 5C2.94867 5 2.95752 5 2.9664 5C2.97528 5 2.9842 5 2.99315 5C3.0021 5 3.01109 5 3.02011 5C3.02913 5 3.03818 5 3.04727 5C3.05636 5 3.06548 5 3.07464 5C3.0838 5 3.09299 5 3.10222 5C3.11145 5 3.12071 5 3.13 5C3.1393 5 3.14863 5 3.15799 5C3.16736 5 3.17675 5 3.18618 5C3.19562 5 3.20508 5 3.21458 5C3.22408 5 3.23361 5 3.24318 5C3.25274 5 3.26234 5 3.27197 5C3.28161 5 3.29127 5 3.30097 5C3.31067 5 3.3204 5 3.33017 5C3.33993 5 3.34973 5 3.35956 5C3.36939 5 3.37926 5 3.38916 5C3.39905 5 3.40898 5 3.41894 5C3.42891 5 3.4389 5 3.44893 5C3.45896 5 3.46902 5 3.47911 5C3.4892 5 3.49932 5 3.50948 5C3.51964 5 3.52982 5 3.54005 5C3.55027 5 3.56052 5 3.5708 5C3.58109 5 3.5914 5 3.60175 5C3.6121 5 3.62248 5 3.63289 5C3.6433 5 3.65374 5 3.66422 5C3.67469 5 3.6852 5 3.69573 5C3.70627 5 3.71684 5 3.72744 5C3.73804 5 3.74867 5 3.75933 5C3.76999 5 3.78068 5 3.7914 5C3.80213 5 3.81288 5 3.82366 5C3.83445 5 3.84526 5 3.85611 5C3.86695 5 3.87783 5 3.88874 5C3.89964 5 3.91058 5 3.92154 5C3.93251 5 3.94351 5 3.95454 5C3.96556 5 3.97662 5 3.98771 5C3.99879 5 4.00991 5 4.02106 5C4.0322 5 4.04338 5 4.05458 5C4.06579 5 4.07702 5 4.08829 5C4.09955 5 4.11085 5 4.12217 5C4.1335 5 4.14485 5 4.15623 5C4.16761 5 4.17902 5 4.19046 5C4.2019 5 4.21337 5 4.22487 5C4.23637 5 4.24789 5 4.25945 5C4.271 5 4.28259 5 4.2942 5C4.30581 5 4.31746 5 4.32912 5C4.34079 5 4.35249 5 4.36422 5C4.37594 5 4.3877 5 4.39948 5C4.41126 5 4.42307 5 4.43491 5C4.44675 5 4.45862 5 4.47051 5C4.48241 5 4.49433 5 4.50628 5C4.51823 5 4.5302 5 4.54221 5C4.55421 5 4.56625 5 4.5783 5C4.59036 5 4.60245 5 4.61456 5C4.62668 5 4.63882 5 4.65099 5C4.66316 5 4.67535 5 4.68757 5C4.6998 5 4.71204 5 4.72432 5C4.7366 5 4.7489 5 4.76123 5C4.77356 5 4.78591 5 4.79829 5C4.81068 5 4.82309 5 4.83552 5C4.84795 5 4.86042 5 4.8729 5C4.88539 5 4.8979 5 4.91044 5C4.92298 5 4.93555 5 4.94814 5C4.96073 5 4.97335 5 4.98599 5C4.99863 5 5.0113 5 5.02399 5C5.03669 5 5.04941 5 5.06215 5C5.0749 5 5.08767 5 5.10046 5C5.11326 5 5.12608 5 5.13892 5C5.15177 5 5.16464 5 5.17754 5C5.19043 5 5.20335 5 5.2163 5C5.22924 5 5.24221 5 5.25521 5C5.2682 5 5.28122 5 5.29427 5C5.30731 5 5.32038 5 5.33347 5C5.34656 5 5.35968 5 5.37282 5C5.38596 5 5.39913 5 5.41232 5C5.42551 5 5.43872 5 5.45196 5C5.46519 5 5.47846 5 5.49174 5C5.50503 5 5.51833 5 5.53167 5C5.545 5 5.55835 5 5.57173 5C5.58511 5 5.59852 5 5.61194 5C5.62537 5 5.63882 5 5.65229 5C5.66576 5 5.67926 5 5.69277 5C5.70629 5 5.71983 5 5.7334 5C5.74696 5 5.76055 5 5.77416 5C5.78777 5 5.8014 5 5.81506 5C5.82871 5 5.84239 5 5.85609 5C5.86979 5 5.88351 5 5.89725 5C5.911 5 5.92477 5 5.93855 5C5.95234 5 5.96615 5 5.97999 5C5.99382 5 6.00767 5 6.02155 5C6.03543 5 6.04932 5 6.06324 5C6.07716 5 6.09111 5 6.10507 5C6.11903 5 6.13302 5 6.14702 5C6.16103 5 6.17505 5 6.1891 5C6.20315 5 6.21722 5 6.23131 5C6.2454 5 6.25951 5 6.27364 5C6.28778 5 6.30193 5 6.3161 5C6.33028 5 6.34447 5 6.35869 5C6.3729 5 6.38714 5 6.40139 5C6.41565 5 6.42993 5 6.44422 5C6.45852 5 6.47284 5 6.48717 5C6.50151 5 6.51587 5 6.53025 5C6.54462 5 6.55902 5 6.57344 5C6.58786 5 6.60229 5 6.61675 5C6.63121 5 6.64568 5 6.66018 5C6.67467 5 6.68919 5 6.70372 5C6.71826 5 6.73281 5 6.74739 5C6.76196 5 6.77655 5 6.79116 5C6.80577 5 6.82041 5 6.83505 5C6.8497 5 6.86437 5 6.87906 5C6.89375 5 6.90845 5 6.92318 5C6.9379 5 6.95265 5 6.96741 5C6.98217 5 6.99695 5 7.01175 5C7.02655 5 7.04136 5 7.0562 5C7.07103 5 7.08589 5 7.10076 5C7.11563 5 7.13052 5 7.14542 5C7.16033 5 7.17526 5 7.1902 5C7.20514 5 7.2201 5 7.23508 5C7.25006 5 7.26505 5 7.28007 5C7.29508 5 7.31011 5 7.32516 5C7.34021 5 7.35527 5 7.37035 5C7.38543 5 7.40053 5 7.41565 5C7.43077 5 7.4459 5 7.46105 5C7.4762 5 7.49136 5 7.50655 5C7.52173 5 7.53693 5 7.55215 5C7.56736 5 7.5826 5 7.59785 5C7.6131 5 7.62836 5 7.64364 5C7.65893 5 7.67422 5 7.68954 5C7.70485 5 7.72018 5 7.73553 5C7.75087 5 7.76624 5 7.78162 5C7.79699 5 7.81239 5 7.8278 5C7.84321 5 7.85863 5 7.87407 5C7.88951 5 7.90497 5 7.92044 5C7.93591 5 7.9514 5 7.9669 5C7.9824 5 7.99792 5 8.01345 5C8.02898 5 8.04453 5 8.06009 5C8.07565 5 8.09123 5 8.10682 5C8.12241 5 8.13801 5 8.15364 5C8.16926 5 8.18489 5 8.20054 5C8.21619 5 8.23185 5 8.24753 5C8.26321 5 8.2789 5 8.29461 5C8.31032 5 8.32604 5 8.34177 5C8.35751 5 8.37325 5 8.38902 5C8.40478 5 8.42055 5 8.43634 5C8.45213 5 8.46794 5 8.48376 5C8.49957 5 8.5154 5 8.53125 5C8.54709 5 8.56295 5 8.57882 5C8.59469 5 8.61057 5 8.62647 5C8.64237 5 8.65828 5 8.6742 5C8.69012 5 8.70606 5 8.72201 5C8.73795 5 8.75391 5 8.76989 5C8.78586 5 8.80185 5 8.81785 5C8.83385 5 8.84986 5 8.86588 5C8.88191 5 8.89794 5 8.91399 5C8.93004 5 8.9461 5 8.96217 5C8.97824 5 8.99433 5 9.01042 5C9.02652 5 9.04263 5 9.05875 5C9.07487 5 9.091 5 9.10714 5C9.12328 5 9.13944 5 9.1556 5C9.17177 5 9.18795 5 9.20414 5C9.22032 5 9.23652 5 9.25273 5C9.26895 5 9.28517 5 9.3014 5C9.31763 5 9.33388 5 9.35013 5C9.36639 5 9.38265 5 9.39893 5C9.41521 5 9.43149 5 9.44779 5C9.46409 5 9.48039 5 9.49671 5C9.51303 5 9.52936 5 9.5457 5C9.56204 5 9.57839 5 9.59475 5C9.6111 5 9.62747 5 9.64385 5C9.66023 5 9.67662 5 9.69302 5C9.70942 5 9.72583 5 9.74224 5C9.75866 5 9.77509 5 9.79153 5C9.80797 5 9.82441 5 9.84087 5C9.85732 5 9.87379 5 9.89026 5C9.90674 5 9.92322 5 9.93971 5C9.95621 5 9.97271 5 9.98922 5C10.0057 5 10.0222 5 10.0388 5C10.0553 5 10.0718 5 10.0884 5C10.1049 5 10.1215 5 10.138 5C10.1546 5 10.1712 5 10.1878 5C10.2043 5 10.2209 5 10.2375 5C10.2541 5 10.2707 5 10.2873 5C10.3039 5 10.3206 5 10.3372 5C10.3538 5 10.3704 5 10.3871 5C10.4037 5 10.4204 5 10.437 5C10.4537 5 10.4704 5 10.487 5C10.5037 5 10.5204 5 10.5371 5C10.5538 5 10.5705 5 10.5872 5C10.6039 5 10.6206 5 10.6373 5C10.654 5 10.6707 5 10.6874 5C10.7042 5 10.7209 5 10.7377 5C10.7544 5 10.7711 5 10.7879 5C10.8047 5 10.8214 5 10.8382 5C10.855 5 10.8717 5 10.8885 5C10.9053 5 10.9221 5 10.9389 5C10.9557 5 10.9725 5 10.9893 5C11.0061 5 11.0229 5 11.0397 5C11.0565 5 11.0733 5 11.0902 5C11.107 5 11.1238 5 11.1407 5C11.1575 5 11.1743 5 11.1912 5C11.208 5 11.2249 5 11.2418 5C11.2586 5 11.2755 5 11.2923 5C11.3092 5 11.3261 5 11.343 5C11.3598 5 11.3767 5 11.3936 5C11.4105 5 11.4274 5 11.4443 5C11.4612 5 11.4781 5 11.495 5C11.5119 5 11.5288 5 11.5457 5C11.5626 5 11.5796 5 11.5965 5C11.6134 5 11.6303 5 11.6473 5C11.6642 5 11.6811 5 11.6981 5C11.715 5 11.732 5 11.7489 5C11.7659 5 11.7828 5 11.7998 5C11.8167 5 11.8337 5 11.8506 5C11.8676 5 11.8845 5 11.9015 5C11.9185 5 11.9354 5 11.9524 5C11.9694 5 11.9864 5 12.0033 5C12.0203 5 12.0373 5 12.0543 5C12.0713 5 12.0883 5 12.1053 5C12.1222 5 12.1392 5 12.1562 5C12.1732 5 12.1902 5 12.2072 5C12.2242 5 12.2412 5 12.2582 5C12.2752 5 12.2922 5 12.3092 5C12.3262 5 12.3432 5 12.3603 5C12.3773 5 12.3943 5 12.4113 5C12.4283 5 12.4453 5 12.4623 5C12.4794 5 12.4964 5 12.5134 5C12.5304 5 12.5474 5 12.5645 5C12.5815 5 12.5985 5 12.6155 5C12.6326 5 12.6496 5 12.6666 5C12.6836 5 12.7007 5 12.7177 5C12.7347 5 12.7518 5 12.7688 5C12.7858 5 12.8028 5 12.8199 5C12.8369 5 12.8539 5 12.871 5C12.888 5 12.905 5 12.9221 5C12.9391 5 12.9561 5 12.9732 5C12.9902 5 13.0072 5 13.0243 5C13.0413 5 13.0583 5 13.0754 5C13.0924 5 13.1094 5 13.1265 5C13.1435 5 13.1605 5 13.1775 5C13.1946 5 13.2116 5 13.2286 5C13.2457 5 13.2627 5 13.2797 5C13.2967 5 13.3138 5 13.3308 5C13.3478 5 13.3648 5 13.3819 5C13.3989 5 13.4159 5 13.4329 5C13.4499 5 13.467 5 13.484 5C13.501 5 13.518 5 13.535 5C13.552 5 13.5691 5 13.5861 5C13.6031 5 13.6201 5 13.6371 5C13.6541 5 13.6711 5 13.6881 5C13.7051 5 13.7221 5 13.7391 5C13.7561 5 13.7731 5 13.7901 5C13.8071 5 13.8241 5 13.8411 5C13.8581 5 13.875 5 13.892 5C13.909 5 13.926 5 13.943 5C13.9599 5 13.9769 5 13.9939 5C14.0109 5 14.0278 5 14.0448 5C14.0618 5 14.0787 5 14.0957 5C14.1126 5 14.1296 5 14.1465 5C14.1635 5 14.1804 5 14.1974 5C14.2143 5 14.2313 5 14.2482 5C14.2652 5 14.2821 5 14.299 5C14.316 5 14.3329 5 14.3498 5C14.3667 5 14.3836 5 14.4006 5C14.4175 5 14.4344 5 14.4513 5C14.4682 5 14.4851 5 14.502 5C14.5189 5 14.5358 5 14.5527 5C14.5695 5 14.5864 5 14.6033 5C14.6202 5 14.6371 5 14.6539 5C14.6708 5 14.6877 5 14.7045 5C14.7214 5 14.7382 5 14.7551 5C14.7719 5 14.7888 5 14.8056 5C14.8224 5 14.8393 5 14.8561 5C14.8729 5 14.8897 5 14.9066 5C14.9234 5 14.9402 5 14.957 5C14.9738 5 14.9906 5 15.0074 5C15.0242 5 15.041 5 15.0577 5C15.0745 5 15.0913 5 15.108 5C15.1248 5 15.1416 5 15.1583 5C15.1751 5 15.1918 5 15.2086 5C15.2253 5 15.242 5 15.2588 5C15.2755 5 15.2922 5 15.3089 5C15.3256 5 15.3424 5 15.3591 5C15.3758 5 15.3924 5 15.4091 5C15.4258 5 15.4425 5 15.4592 5C15.4758 5 15.4925 5 15.5092 5C15.5258 5 15.5425 5 15.5591 5C15.5757 5 15.5924 5 15.609 5C15.6256 5 15.6422 5 15.6588 5C15.6755 5 15.6921 5 15.7087 5C15.7252 5 15.7418 5 15.7584 5C15.775 5 15.7916 5 15.8081 5C15.8247 5 15.8412 5 15.8578 5C15.8743 5 15.8908 5 15.9074 5C15.9239 5 15.9404 5 15.9569 5C15.9734 5 15.9899 5 16.0064 5C16.0229 5 16.0394 5 16.0559 5C16.0723 5 16.0888 5 16.1053 5C16.1217 5 16.1382 5 16.1546 5C16.171 5 16.1874 5 16.2039 5C16.2203 5 16.2367 5 16.2531 5C16.2695 5 16.2859 5 16.3022 5C16.3186 5 16.335 5 16.3513 5C16.3677 5 16.384 5 16.4004 5C16.4167 5 16.433 5 16.4494 5C16.4657 5 16.482 5 16.4983 5C16.5146 5 16.5309 5 16.5471 5C16.5634 5 16.5797 5 16.5959 5C16.6122 5 16.6284 5 16.6446 5C16.6609 5 16.6771 5 16.6933 5C16.7095 5 16.7257 5 16.7419 5C16.7581 5 16.7743 5 16.7904 5C16.8066 5 16.8227 5 16.8389 5C16.855 5 16.8711 5 16.8873 5C16.9034 5 16.9195 5 16.9356 5C16.9517 5 16.9677 5 16.9838 5C16.9999 5 17.0159 5 17.032 5C17.048 5 17.0641 5 17.0801 5C17.0961 5 17.1121 5 17.1281 5C17.1441 5 17.1601 5 17.1761 5C17.192 5 17.208 5 17.2239 5C17.2399 5 17.2558 5 17.2717 5C17.2877 5 17.3036 5 17.3195 5C17.3353 5 17.3512 5 17.3671 5C17.383 5 17.3988 5 17.4147 5C17.4305 5 17.4463 5 17.4621 5C17.4779 5 17.4937 5 17.5095 5C17.5253 5 17.5411 5 17.5569 5C17.5726 5 17.5884 5 17.6041 5C17.6198 5 17.6355 5 17.6512 5C17.6669 5 17.6826 5 17.6983 5C17.714 5 17.7296 5 17.7453 5C17.7609 5 17.7766 5 17.7922 5C17.8078 5 17.8234 5 17.839 5C17.8546 5 17.8702 5 17.8857 5C17.9013 5 17.9168 5 17.9323 5C17.9479 5 17.9634 5 17.9789 5C17.9944 5 18.0099 5 18.0253 5C18.0408 5 18.0562 5 18.0717 5C18.0871 5 18.1025 5 18.1179 5C18.1334 5 18.1487 5 18.1641 5C18.1795 5 18.1948 5 18.2102 5C18.2255 5 18.2409 5 18.2562 5C18.2715 5 18.2868 5 18.3021 5C18.3173 5 18.3326 5 18.3478 5C18.3631 5 18.3783 5 18.3935 5C18.4087 5 18.4239 5 18.4391 5C18.4543 5 18.4695 5 18.4846 5C18.4997 5 18.5149 5 18.53 5C18.5451 5 18.5602 5 18.5753 5C18.5904 5 18.6054 5 18.6205 5C18.6355 5 18.6505 5 18.6655 5C18.6805 5 18.6955 5 18.7105 5C18.7255 5 18.7404 5 18.7554 5C18.7703 5 18.7852 5 18.8001 5C18.815 5 18.8299 5 18.8448 5C18.8597 5 18.8745 5 18.8893 5C18.9042 5 18.919 5 18.9338 5C18.9486 5 18.9633 5 18.9781 5C18.9929 5 19.0076 5 19.0223 5C19.037 5 19.0517 5 19.0664 5C19.0811 5 19.0958 5 19.1104 5C19.1251 5 19.1397 5 19.1543 5C19.1689 5 19.1835 5 19.1981 5C19.2126 5 19.2272 5 19.2417 5C19.2562 5 19.2707 5 19.2852 5C19.2997 5 19.3142 5 19.3286 5C19.3431 5 19.3575 5 19.3719 5C19.3864 5 19.4008 5 19.4151 5C19.4295 5 19.4438 5 19.4582 5C19.4725 5 19.4868 5 19.5011 5C19.5154 5 19.5297 5 19.5439 5C19.5582 5 19.5724 5 19.5866 5C19.6008 5 19.615 5 19.6292 5C19.6434 5 19.6575 5 19.6716 5C19.6858 5 19.6999 5 19.714 5C19.728 5 19.7421 5 19.7561 5C19.7702 5 19.7842 5 19.7982 5C19.8122 5 19.8262 5 19.8402 5C19.8541 5 19.868 5 19.882 5C19.8959 5 19.9098 5 19.9236 5C19.9375 5 19.9514 5 19.9652 5C19.979 5 19.9928 5 20.0066 5C20.0204 5 20.0341 5 20.0479 5C20.0616 5 20.0753 5 20.089 5C20.1027 5 20.1164 5 20.1301 5C20.1437 5 20.1573 5 20.1709 5C20.1845 5 20.1981 5 20.2117 5C20.2252 5 20.2388 5 20.2523 5C20.2658 5 20.2793 5 20.2928 5C20.3062 5 20.3197 5 20.3331 5C20.3465 5 20.3599 5 20.3733 5C20.3866 5 20.4 5 20.4133 5C20.4267 5 20.44 5 20.4532 5C20.4665 5 20.4798 5 20.493 5C20.5062 5 20.5194 5 20.5326 5C20.5458 5 20.559 5 20.5721 5C20.5852 5 20.5983 5 20.6114 5C20.6245 5 20.6376 5 20.6506 5C20.6637 5 20.6767 5 20.6897 5C20.7027 5 20.7156 5 20.7286 5C20.7415 5 20.7544 5 20.7673 5C20.7802 5 20.7931 5 20.8059 5C20.8187 5 20.8315 5 20.8443 5C20.8571 5 20.8699 5 20.8826 5C20.8954 5 20.9081 5 20.9208 5C20.9335 5 20.9461 5 20.9588 5C20.9714 5 20.984 5 20.9966 5C21.0092 5 21.0217 5 21.0343 5C21.0468 5 21.0593 5 21.0718 5C21.0843 5 21.0967 5 21.1091 5C21.1216 5 21.134 5 21.1464 5C21.1587 5 21.1711 5 21.1834 5C21.1957 5 21.208 5 21.2203 5C21.2326 5 21.2448 5 21.257 5C21.2692 5 21.2814 5 21.2936 5C21.3057 5 21.3179 5 21.33 5C21.3421 5 21.3542 5 21.3662 5C21.3783 5 21.3903 5 21.4023 5C21.4143 5 21.4263 5 21.4382 5C21.4502 5 21.4621 5 21.474 5C21.4858 5 21.4977 5 21.5095 5C21.5214 5 21.5332 5 21.5449 5C21.5567 5 21.5685 5 21.5802 5C21.5919 5 21.6036 5 21.6153 5C21.6269 5 21.6386 5 21.6502 5C21.6618 5 21.6733 5 21.6849 5C21.6964 5 21.708 5 21.7195 5C21.7309 5 21.7424 5 21.7538 5C21.7653 5 21.7767 5 21.7881 5C21.7994 5 21.8108 5 21.8221 5C21.8334 5 21.8447 5 21.856 5C21.8672 5 21.8784 5 21.8896 5C21.9008 5 21.912 5 21.9231 5C21.9343 5 21.9454 5 21.9565 5C21.9676 5 21.9786 5 21.9896 5C22.0006 5 22.0116 5 22.0226 5C22.0335 5 22.0445 5 22.0554 5C22.0663 5 22.0771 5 22.088 5C22.0988 5 22.1096 5 22.1204 5C22.1312 5 22.1419 5 22.1526 5C22.1634 5 22.174 5 22.1847 5C22.1954 5 22.206 5 22.2166 5C22.2272 5 22.2377 5 22.2482 5C22.2588 5 22.2693 5 22.2797 5C22.2902 5 22.3006 5 22.311 5C22.3214 5 22.3318 5 22.3422 5C22.3525 5 22.3628 5 22.3731 5C22.3834 5 22.3936 5 22.4038 5C22.414 5 22.4242 5 22.4344 5C22.4445 5 22.4546 5 22.4647 5C22.4748 5 22.4848 5 22.4949 5C22.5049 5 22.5149 5 22.5248 5C22.5348 5 22.5447 5 22.5546 5C22.5645 5 22.5743 5 22.5842 5C22.594 5 22.6038 5 22.6135 5C22.6233 5 22.633 5 22.6427 5C22.6524 5 22.6621 5 22.6717 5C22.6813 5 22.6909 5 22.7005 5C22.71 5 22.7195 5 22.729 5C22.7385 5 22.748 5 22.7574 5C22.7668 5 22.7762 5 22.7856 5C22.7949 5 22.8042 5 22.8135 5C22.8228 5 22.8321 5 22.8413 5C22.8505 5 22.8597 5 22.8688 5C22.878 5 22.8871 5 22.8962 5C22.9053 5 22.9143 5 22.9233 5C22.9323 5 22.9413 5 22.9503 5C22.9592 5 22.9681 5 22.977 5C22.9859 5 22.9947 5 23.0035 5V3C22.9947 3 22.9859 3 22.977 3C22.9681 3 22.9592 3 22.9503 3C22.9413 3 22.9323 3 22.9233 3C22.9143 3 22.9053 3 22.8962 3C22.8871 3 22.878 3 22.8688 3C22.8597 3 22.8505 3 22.8413 3C22.8321 3 22.8228 3 22.8135 3C22.8042 3 22.7949 3 22.7856 3C22.7762 3 22.7668 3 22.7574 3C22.748 3 22.7385 3 22.729 3C22.7195 3 22.71 3 22.7005 3C22.6909 3 22.6813 3 22.6717 3C22.6621 3 22.6524 3 22.6427 3C22.633 3 22.6233 3 22.6135 3C22.6038 3 22.594 3 22.5842 3C22.5743 3 22.5645 3 22.5546 3C22.5447 3 22.5348 3 22.5248 3C22.5149 3 22.5049 3 22.4949 3C22.4848 3 22.4748 3 22.4647 3C22.4546 3 22.4445 3 22.4344 3C22.4242 3 22.414 3 22.4038 3C22.3936 3 22.3834 3 22.3731 3C22.3628 3 22.3525 3 22.3422 3C22.3318 3 22.3214 3 22.311 3C22.3006 3 22.2902 3 22.2797 3C22.2693 3 22.2588 3 22.2482 3C22.2377 3 22.2272 3 22.2166 3C22.206 3 22.1954 3 22.1847 3C22.174 3 22.1634 3 22.1526 3C22.1419 3 22.1312 3 22.1204 3C22.1096 3 22.0988 3 22.088 3C22.0771 3 22.0663 3 22.0554 3C22.0445 3 22.0335 3 22.0226 3C22.0116 3 22.0006 3 21.9896 3C21.9786 3 21.9676 3 21.9565 3C21.9454 3 21.9343 3 21.9231 3C21.912 3 21.9008 3 21.8896 3C21.8784 3 21.8672 3 21.856 3C21.8447 3 21.8334 3 21.8221 3C21.8108 3 21.7994 3 21.7881 3C21.7767 3 21.7653 3 21.7538 3C21.7424 3 21.7309 3 21.7195 3C21.708 3 21.6964 3 21.6849 3C21.6733 3 21.6618 3 21.6502 3C21.6386 3 21.6269 3 21.6153 3C21.6036 3 21.5919 3 21.5802 3C21.5685 3 21.5567 3 21.5449 3C21.5332 3 21.5214 3 21.5095 3C21.4977 3 21.4858 3 21.474 3C21.4621 3 21.4502 3 21.4382 3C21.4263 3 21.4143 3 21.4023 3C21.3903 3 21.3783 3 21.3662 3C21.3542 3 21.3421 3 21.33 3C21.3179 3 21.3057 3 21.2936 3C21.2814 3 21.2692 3 21.257 3C21.2448 3 21.2326 3 21.2203 3C21.208 3 21.1957 3 21.1834 3C21.1711 3 21.1587 3 21.1464 3C21.134 3 21.1216 3 21.1091 3C21.0967 3 21.0843 3 21.0718 3C21.0593 3 21.0468 3 21.0343 3C21.0217 3 21.0092 3 20.9966 3C20.984 3 20.9714 3 20.9588 3C20.9461 3 20.9335 3 20.9208 3C20.9081 3 20.8954 3 20.8826 3C20.8699 3 20.8571 3 20.8443 3C20.8315 3 20.8187 3 20.8059 3C20.7931 3 20.7802 3 20.7673 3C20.7544 3 20.7415 3 20.7286 3C20.7156 3 20.7027 3 20.6897 3C20.6767 3 20.6637 3 20.6506 3C20.6376 3 20.6245 3 20.6114 3C20.5983 3 20.5852 3 20.5721 3C20.559 3 20.5458 3 20.5326 3C20.5194 3 20.5062 3 20.493 3C20.4798 3 20.4665 3 20.4532 3C20.44 3 20.4267 3 20.4133 3C20.4 3 20.3866 3 20.3733 3C20.3599 3 20.3465 3 20.3331 3C20.3197 3 20.3062 3 20.2928 3C20.2793 3 20.2658 3 20.2523 3C20.2388 3 20.2252 3 20.2117 3C20.1981 3 20.1845 3 20.1709 3C20.1573 3 20.1437 3 20.1301 3C20.1164 3 20.1027 3 20.089 3C20.0753 3 20.0616 3 20.0479 3C20.0341 3 20.0204 3 20.0066 3C19.9928 3 19.979 3 19.9652 3C19.9514 3 19.9375 3 19.9236 3C19.9098 3 19.8959 3 19.882 3C19.868 3 19.8541 3 19.8402 3C19.8262 3 19.8122 3 19.7982 3C19.7842 3 19.7702 3 19.7561 3C19.7421 3 19.728 3 19.714 3C19.6999 3 19.6858 3 19.6716 3C19.6575 3 19.6434 3 19.6292 3C19.615 3 19.6008 3 19.5866 3C19.5724 3 19.5582 3 19.5439 3C19.5297 3 19.5154 3 19.5011 3C19.4868 3 19.4725 3 19.4582 3C19.4438 3 19.4295 3 19.4151 3C19.4008 3 19.3864 3 19.3719 3C19.3575 3 19.3431 3 19.3286 3C19.3142 3 19.2997 3 19.2852 3C19.2707 3 19.2562 3 19.2417 3C19.2272 3 19.2126 3 19.1981 3C19.1835 3 19.1689 3 19.1543 3C19.1397 3 19.1251 3 19.1104 3C19.0958 3 19.0811 3 19.0664 3C19.0517 3 19.037 3 19.0223 3C19.0076 3 18.9929 3 18.9781 3C18.9633 3 18.9486 3 18.9338 3C18.919 3 18.9042 3 18.8893 3C18.8745 3 18.8597 3 18.8448 3C18.8299 3 18.815 3 18.8001 3C18.7852 3 18.7703 3 18.7554 3C18.7404 3 18.7255 3 18.7105 3C18.6955 3 18.6805 3 18.6655 3C18.6505 3 18.6355 3 18.6205 3C18.6054 3 18.5904 3 18.5753 3C18.5602 3 18.5451 3 18.53 3C18.5149 3 18.4997 3 18.4846 3C18.4695 3 18.4543 3 18.4391 3C18.4239 3 18.4087 3 18.3935 3C18.3783 3 18.3631 3 18.3478 3C18.3326 3 18.3173 3 18.3021 3C18.2868 3 18.2715 3 18.2562 3C18.2409 3 18.2255 3 18.2102 3C18.1948 3 18.1795 3 18.1641 3C18.1487 3 18.1334 3 18.1179 3C18.1025 3 18.0871 3 18.0717 3C18.0562 3 18.0408 3 18.0253 3C18.0099 3 17.9944 3 17.9789 3C17.9634 3 17.9479 3 17.9323 3C17.9168 3 17.9013 3 17.8857 3C17.8702 3 17.8546 3 17.839 3C17.8234 3 17.8078 3 17.7922 3C17.7766 3 17.7609 3 17.7453 3C17.7296 3 17.714 3 17.6983 3C17.6826 3 17.6669 3 17.6512 3C17.6355 3 17.6198 3 17.6041 3C17.5884 3 17.5726 3 17.5569 3C17.5411 3 17.5253 3 17.5095 3C17.4937 3 17.4779 3 17.4621 3C17.4463 3 17.4305 3 17.4147 3C17.3988 3 17.383 3 17.3671 3C17.3512 3 17.3353 3 17.3195 3C17.3036 3 17.2877 3 17.2717 3C17.2558 3 17.2399 3 17.2239 3C17.208 3 17.192 3 17.1761 3C17.1601 3 17.1441 3 17.1281 3C17.1121 3 17.0961 3 17.0801 3C17.0641 3 17.048 3 17.032 3C17.0159 3 16.9999 3 16.9838 3C16.9677 3 16.9517 3 16.9356 3C16.9195 3 16.9034 3 16.8873 3C16.8711 3 16.855 3 16.8389 3C16.8227 3 16.8066 3 16.7904 3C16.7743 3 16.7581 3 16.7419 3C16.7257 3 16.7095 3 16.6933 3C16.6771 3 16.6609 3 16.6446 3C16.6284 3 16.6122 3 16.5959 3C16.5797 3 16.5634 3 16.5471 3C16.5309 3 16.5146 3 16.4983 3C16.482 3 16.4657 3 16.4494 3C16.433 3 16.4167 3 16.4004 3C16.384 3 16.3677 3 16.3513 3C16.335 3 16.3186 3 16.3022 3C16.2859 3 16.2695 3 16.2531 3C16.2367 3 16.2203 3 16.2039 3C16.1874 3 16.171 3 16.1546 3C16.1382 3 16.1217 3 16.1053 3C16.0888 3 16.0723 3 16.0559 3C16.0394 3 16.0229 3 16.0064 3C15.9899 3 15.9734 3 15.9569 3C15.9404 3 15.9239 3 15.9074 3C15.8908 3 15.8743 3 15.8578 3C15.8412 3 15.8247 3 15.8081 3C15.7916 3 15.775 3 15.7584 3C15.7418 3 15.7252 3 15.7087 3C15.6921 3 15.6755 3 15.6588 3C15.6422 3 15.6256 3 15.609 3C15.5924 3 15.5757 3 15.5591 3C15.5425 3 15.5258 3 15.5092 3C15.4925 3 15.4758 3 15.4592 3C15.4425 3 15.4258 3 15.4091 3C15.3924 3 15.3758 3 15.3591 3C15.3424 3 15.3256 3 15.3089 3C15.2922 3 15.2755 3 15.2588 3C15.242 3 15.2253 3 15.2086 3C15.1918 3 15.1751 3 15.1583 3C15.1416 3 15.1248 3 15.108 3C15.0913 3 15.0745 3 15.0577 3C15.041 3 15.0242 3 15.0074 3C14.9906 3 14.9738 3 14.957 3C14.9402 3 14.9234 3 14.9066 3C14.8897 3 14.8729 3 14.8561 3C14.8393 3 14.8224 3 14.8056 3C14.7888 3 14.7719 3 14.7551 3C14.7382 3 14.7214 3 14.7045 3C14.6877 3 14.6708 3 14.6539 3C14.6371 3 14.6202 3 14.6033 3C14.5864 3 14.5695 3 14.5527 3C14.5358 3 14.5189 3 14.502 3C14.4851 3 14.4682 3 14.4513 3C14.4344 3 14.4175 3 14.4006 3C14.3836 3 14.3667 3 14.3498 3C14.3329 3 14.316 3 14.299 3C14.2821 3 14.2652 3 14.2482 3C14.2313 3 14.2143 3 14.1974 3C14.1804 3 14.1635 3 14.1465 3C14.1296 3 14.1126 3 14.0957 3C14.0787 3 14.0618 3 14.0448 3C14.0278 3 14.0109 3 13.9939 3C13.9769 3 13.9599 3 13.943 3C13.926 3 13.909 3 13.892 3C13.875 3 13.8581 3 13.8411 3C13.8241 3 13.8071 3 13.7901 3C13.7731 3 13.7561 3 13.7391 3C13.7221 3 13.7051 3 13.6881 3C13.6711 3 13.6541 3 13.6371 3C13.6201 3 13.6031 3 13.5861 3C13.5691 3 13.552 3 13.535 3C13.518 3 13.501 3 13.484 3C13.467 3 13.4499 3 13.4329 3C13.4159 3 13.3989 3 13.3819 3C13.3648 3 13.3478 3 13.3308 3C13.3138 3 13.2967 3 13.2797 3C13.2627 3 13.2457 3 13.2286 3C13.2116 3 13.1946 3 13.1775 3C13.1605 3 13.1435 3 13.1265 3C13.1094 3 13.0924 3 13.0754 3C13.0583 3 13.0413 3 13.0243 3C13.0072 3 12.9902 3 12.9732 3C12.9561 3 12.9391 3 12.9221 3C12.905 3 12.888 3 12.871 3C12.8539 3 12.8369 3 12.8199 3C12.8028 3 12.7858 3 12.7688 3C12.7518 3 12.7347 3 12.7177 3C12.7007 3 12.6836 3 12.6666 3C12.6496 3 12.6326 3 12.6155 3C12.5985 3 12.5815 3 12.5645 3C12.5474 3 12.5304 3 12.5134 3C12.4964 3 12.4794 3 12.4623 3C12.4453 3 12.4283 3 12.4113 3C12.3943 3 12.3773 3 12.3603 3C12.3432 3 12.3262 3 12.3092 3C12.2922 3 12.2752 3 12.2582 3C12.2412 3 12.2242 3 12.2072 3C12.1902 3 12.1732 3 12.1562 3C12.1392 3 12.1222 3 12.1053 3C12.0883 3 12.0713 3 12.0543 3C12.0373 3 12.0203 3 12.0033 3C11.9864 3 11.9694 3 11.9524 3C11.9354 3 11.9185 3 11.9015 3C11.8845 3 11.8676 3 11.8506 3C11.8337 3 11.8167 3 11.7998 3C11.7828 3 11.7659 3 11.7489 3C11.732 3 11.715 3 11.6981 3C11.6811 3 11.6642 3 11.6473 3C11.6303 3 11.6134 3 11.5965 3C11.5796 3 11.5626 3 11.5457 3C11.5288 3 11.5119 3 11.495 3C11.4781 3 11.4612 3 11.4443 3C11.4274 3 11.4105 3 11.3936 3C11.3767 3 11.3598 3 11.343 3C11.3261 3 11.3092 3 11.2923 3C11.2755 3 11.2586 3 11.2418 3C11.2249 3 11.208 3 11.1912 3C11.1743 3 11.1575 3 11.1407 3C11.1238 3 11.107 3 11.0902 3C11.0733 3 11.0565 3 11.0397 3C11.0229 3 11.0061 3 10.9893 3C10.9725 3 10.9557 3 10.9389 3C10.9221 3 10.9053 3 10.8885 3C10.8717 3 10.855 3 10.8382 3C10.8214 3 10.8047 3 10.7879 3C10.7711 3 10.7544 3 10.7377 3C10.7209 3 10.7042 3 10.6874 3C10.6707 3 10.654 3 10.6373 3C10.6206 3 10.6039 3 10.5872 3C10.5705 3 10.5538 3 10.5371 3C10.5204 3 10.5037 3 10.487 3C10.4704 3 10.4537 3 10.437 3C10.4204 3 10.4037 3 10.3871 3C10.3704 3 10.3538 3 10.3372 3C10.3206 3 10.3039 3 10.2873 3C10.2707 3 10.2541 3 10.2375 3C10.2209 3 10.2043 3 10.1878 3C10.1712 3 10.1546 3 10.138 3C10.1215 3 10.1049 3 10.0884 3C10.0718 3 10.0553 3 10.0388 3C10.0222 3 10.0057 3 9.98922 3C9.97271 3 9.95621 3 9.93971 3C9.92322 3 9.90674 3 9.89026 3C9.87379 3 9.85732 3 9.84087 3C9.82441 3 9.80797 3 9.79153 3C9.77509 3 9.75866 3 9.74224 3C9.72583 3 9.70942 3 9.69302 3C9.67662 3 9.66023 3 9.64385 3C9.62747 3 9.6111 3 9.59475 3C9.57839 3 9.56204 3 9.5457 3C9.52936 3 9.51303 3 9.49671 3C9.48039 3 9.46409 3 9.44779 3C9.43149 3 9.41521 3 9.39893 3C9.38265 3 9.36639 3 9.35013 3C9.33388 3 9.31763 3 9.3014 3C9.28517 3 9.26895 3 9.25273 3C9.23652 3 9.22032 3 9.20414 3C9.18795 3 9.17177 3 9.1556 3C9.13944 3 9.12328 3 9.10714 3C9.091 3 9.07487 3 9.05875 3C9.04263 3 9.02652 3 9.01042 3C8.99433 3 8.97824 3 8.96217 3C8.9461 3 8.93004 3 8.91399 3C8.89794 3 8.88191 3 8.86588 3C8.84986 3 8.83385 3 8.81785 3C8.80185 3 8.78586 3 8.76989 3C8.75391 3 8.73795 3 8.72201 3C8.70606 3 8.69012 3 8.6742 3C8.65828 3 8.64237 3 8.62647 3C8.61057 3 8.59469 3 8.57882 3C8.56295 3 8.54709 3 8.53125 3C8.5154 3 8.49957 3 8.48376 3C8.46794 3 8.45213 3 8.43634 3C8.42055 3 8.40478 3 8.38902 3C8.37325 3 8.35751 3 8.34177 3C8.32604 3 8.31032 3 8.29461 3C8.2789 3 8.26321 3 8.24753 3C8.23185 3 8.21619 3 8.20054 3C8.18489 3 8.16926 3 8.15364 3C8.13801 3 8.12241 3 8.10682 3C8.09123 3 8.07565 3 8.06009 3C8.04453 3 8.02898 3 8.01345 3C7.99792 3 7.9824 3 7.9669 3C7.9514 3 7.93591 3 7.92044 3C7.90497 3 7.88951 3 7.87407 3C7.85863 3 7.84321 3 7.8278 3C7.81239 3 7.79699 3 7.78162 3C7.76624 3 7.75087 3 7.73553 3C7.72018 3 7.70485 3 7.68954 3C7.67422 3 7.65893 3 7.64364 3C7.62836 3 7.6131 3 7.59785 3C7.5826 3 7.56736 3 7.55215 3C7.53693 3 7.52173 3 7.50655 3C7.49136 3 7.4762 3 7.46105 3C7.4459 3 7.43077 3 7.41565 3C7.40053 3 7.38543 3 7.37035 3C7.35527 3 7.34021 3 7.32516 3C7.31011 3 7.29508 3 7.28007 3C7.26505 3 7.25006 3 7.23508 3C7.2201 3 7.20514 3 7.1902 3C7.17526 3 7.16033 3 7.14542 3C7.13052 3 7.11563 3 7.10076 3C7.08589 3 7.07103 3 7.0562 3C7.04136 3 7.02655 3 7.01175 3C6.99695 3 6.98217 3 6.96741 3C6.95265 3 6.9379 3 6.92318 3C6.90845 3 6.89375 3 6.87906 3C6.86437 3 6.8497 3 6.83505 3C6.82041 3 6.80577 3 6.79116 3C6.77655 3 6.76196 3 6.74739 3C6.73281 3 6.71826 3 6.70372 3C6.68919 3 6.67467 3 6.66018 3C6.64568 3 6.63121 3 6.61675 3C6.60229 3 6.58786 3 6.57344 3C6.55902 3 6.54462 3 6.53025 3C6.51587 3 6.50151 3 6.48717 3C6.47284 3 6.45852 3 6.44422 3C6.42993 3 6.41565 3 6.40139 3C6.38714 3 6.3729 3 6.35869 3C6.34447 3 6.33028 3 6.3161 3C6.30193 3 6.28778 3 6.27364 3C6.25951 3 6.2454 3 6.23131 3C6.21722 3 6.20315 3 6.1891 3C6.17505 3 6.16103 3 6.14702 3C6.13302 3 6.11903 3 6.10507 3C6.09111 3 6.07716 3 6.06324 3C6.04932 3 6.03543 3 6.02155 3C6.00767 3 5.99382 3 5.97999 3C5.96615 3 5.95234 3 5.93855 3C5.92477 3 5.911 3 5.89725 3C5.88351 3 5.86979 3 5.85609 3C5.84239 3 5.82871 3 5.81506 3C5.8014 3 5.78777 3 5.77416 3C5.76055 3 5.74696 3 5.7334 3C5.71983 3 5.70629 3 5.69277 3C5.67926 3 5.66576 3 5.65229 3C5.63882 3 5.62537 3 5.61194 3C5.59852 3 5.58511 3 5.57173 3C5.55835 3 5.545 3 5.53167 3C5.51833 3 5.50503 3 5.49174 3C5.47846 3 5.46519 3 5.45196 3C5.43872 3 5.42551 3 5.41232 3C5.39913 3 5.38596 3 5.37282 3C5.35968 3 5.34656 3 5.33347 3C5.32038 3 5.30731 3 5.29427 3C5.28122 3 5.2682 3 5.25521 3C5.24221 3 5.22924 3 5.2163 3C5.20335 3 5.19043 3 5.17754 3C5.16464 3 5.15177 3 5.13892 3C5.12608 3 5.11326 3 5.10046 3C5.08767 3 5.0749 3 5.06215 3C5.04941 3 5.03669 3 5.02399 3C5.0113 3 4.99863 3 4.98599 3C4.97335 3 4.96073 3 4.94814 3C4.93555 3 4.92298 3 4.91044 3C4.8979 3 4.88539 3 4.8729 3C4.86042 3 4.84795 3 4.83552 3C4.82309 3 4.81068 3 4.79829 3C4.78591 3 4.77356 3 4.76123 3C4.7489 3 4.7366 3 4.72432 3C4.71204 3 4.6998 3 4.68757 3C4.67535 3 4.66316 3 4.65099 3C4.63882 3 4.62668 3 4.61456 3C4.60245 3 4.59036 3 4.5783 3C4.56625 3 4.55421 3 4.54221 3C4.5302 3 4.51823 3 4.50628 3C4.49433 3 4.48241 3 4.47051 3C4.45862 3 4.44675 3 4.43491 3C4.42307 3 4.41126 3 4.39948 3C4.3877 3 4.37594 3 4.36422 3C4.35249 3 4.34079 3 4.32912 3C4.31746 3 4.30581 3 4.2942 3C4.28259 3 4.271 3 4.25945 3C4.24789 3 4.23637 3 4.22487 3C4.21337 3 4.2019 3 4.19046 3C4.17902 3 4.16761 3 4.15623 3C4.14485 3 4.1335 3 4.12217 3C4.11085 3 4.09955 3 4.08829 3C4.07702 3 4.06579 3 4.05458 3C4.04338 3 4.0322 3 4.02106 3C4.00991 3 3.99879 3 3.98771 3C3.97662 3 3.96556 3 3.95454 3C3.94351 3 3.93251 3 3.92154 3C3.91058 3 3.89964 3 3.88874 3C3.87783 3 3.86695 3 3.85611 3C3.84526 3 3.83445 3 3.82366 3C3.81288 3 3.80213 3 3.7914 3C3.78068 3 3.76999 3 3.75933 3C3.74867 3 3.73804 3 3.72744 3C3.71684 3 3.70627 3 3.69573 3C3.6852 3 3.67469 3 3.66422 3C3.65374 3 3.6433 3 3.63289 3C3.62248 3 3.6121 3 3.60175 3C3.5914 3 3.58109 3 3.5708 3C3.56052 3 3.55027 3 3.54005 3C3.52982 3 3.51964 3 3.50948 3C3.49932 3 3.4892 3 3.47911 3C3.46902 3 3.45896 3 3.44893 3C3.4389 3 3.42891 3 3.41894 3C3.40898 3 3.39905 3 3.38916 3C3.37926 3 3.36939 3 3.35956 3C3.34973 3 3.33993 3 3.33017 3C3.3204 3 3.31067 3 3.30097 3C3.29127 3 3.28161 3 3.27197 3C3.26234 3 3.25274 3 3.24318 3C3.23361 3 3.22408 3 3.21458 3C3.20508 3 3.19562 3 3.18618 3C3.17675 3 3.16736 3 3.15799 3C3.14863 3 3.1393 3 3.13 3C3.12071 3 3.11145 3 3.10222 3C3.09299 3 3.0838 3 3.07464 3C3.06548 3 3.05636 3 3.04727 3C3.03818 3 3.02913 3 3.02011 3C3.01109 3 3.0021 3 2.99315 3C2.9842 3 2.97528 3 2.9664 3C2.95752 3 2.94867 3 2.93986 3C2.93105 3 2.92228 3 2.91354 3C2.9048 3 2.89609 3 2.88742 3C2.87875 3 2.87012 3 2.86152 3C2.85292 3 2.84436 3 2.83583 3C2.8273 3 2.81881 3 2.81036 3C2.8019 3 2.79348 3 2.7851 3C2.77671 3 2.76837 3 2.76006 3C2.75174 3 2.74347 3 2.73523 3C2.72699 3 2.71879 3 2.71062 3C2.70246 3 2.69433 3 2.68623 3C2.67814 3 2.67009 3 2.66207 3C2.65405 3 2.64606 3 2.63812 3C2.63017 3 2.62226 3 2.61439 3C2.60652 3 2.59869 3 2.59089 3C2.58309 3 2.57533 3 2.56761 3C2.55989 3 2.5522 3 2.54455 3C2.53691 3 2.52929 3 2.52172 3C2.51415 3 2.50662 3 2.49912 3C2.49162 3 2.48416 3 2.47674 3C2.46932 3 2.46194 3 2.45459 3C2.44725 3 2.43994 3 2.43267 3C2.4254 3 2.41817 3 2.41098 3C2.40379 3 2.39664 3 2.38952 3C2.38241 3 2.37533 3 2.36829 3C2.36126 3 2.35426 3 2.3473 3C2.34034 3 2.33342 3 2.32654 3C2.31965 3 2.31281 3 2.30601 3C2.2992 3 2.29244 3 2.28572 3C2.27899 3 2.2723 3 2.26566 3C2.25901 3 2.25241 3 2.24584 3C2.23927 3 2.23274 3 2.22626 3C2.21977 3 2.21332 3 2.20691 3C2.20051 3 2.19414 3 2.18781 3C2.18148 3 2.1752 3 2.16895 3C2.1627 3 2.15649 3 2.15033 3C2.14416 3 2.13803 3 2.13195 3C2.12586 3 2.11982 3 2.11381 3C2.10781 3 2.10184 3 2.09592 3C2.09 3 2.08412 3 2.07828 3C2.07243 3 2.06663 3 2.06088 3C2.05512 3 2.0494 3 2.04372 3C2.03805 3 2.03241 3 2.02682 3C2.02122 3 2.01567 3 2.01016 3C2.00465 3 1.99918 3 1.99375 3V5ZM23.0035 15C22.9947 15 22.9859 15 22.977 15C22.9681 15 22.9592 15 22.9503 15C22.9413 15 22.9323 15 22.9233 15C22.9143 15 22.9053 15 22.8962 15C22.8871 15 22.878 15 22.8688 15C22.8597 15 22.8505 15 22.8413 15C22.8321 15 22.8228 15 22.8135 15C22.8042 15 22.7949 15 22.7856 15C22.7762 15 22.7668 15 22.7574 15C22.748 15 22.7385 15 22.729 15C22.7195 15 22.71 15 22.7005 15C22.6909 15 22.6813 15 22.6717 15C22.6621 15 22.6524 15 22.6427 15C22.633 15 22.6233 15 22.6135 15C22.6038 15 22.594 15 22.5842 15C22.5743 15 22.5645 15 22.5546 15C22.5447 15 22.5348 15 22.5248 15C22.5149 15 22.5049 15 22.4949 15C22.4848 15 22.4748 15 22.4647 15C22.4546 15 22.4445 15 22.4344 15C22.4242 15 22.414 15 22.4038 15C22.3936 15 22.3834 15 22.3731 15C22.3628 15 22.3525 15 22.3422 15C22.3318 15 22.3214 15 22.311 15C22.3006 15 22.2902 15 22.2797 15C22.2693 15 22.2588 15 22.2482 15C22.2377 15 22.2272 15 22.2166 15C22.206 15 22.1954 15 22.1847 15C22.174 15 22.1634 15 22.1526 15C22.1419 15 22.1312 15 22.1204 15C22.1096 15 22.0988 15 22.088 15C22.0771 15 22.0663 15 22.0554 15C22.0445 15 22.0336 15 22.0226 15C22.0116 15 22.0006 15 21.9896 15C21.9786 15 21.9676 15 21.9565 15C21.9454 15 21.9343 15 21.9231 15C21.912 15 21.9008 15 21.8896 15C21.8784 15 21.8672 15 21.856 15C21.8447 15 21.8334 15 21.8221 15C21.8108 15 21.7994 15 21.7881 15C21.7767 15 21.7653 15 21.7538 15C21.7424 15 21.7309 15 21.7195 15C21.708 15 21.6964 15 21.6849 15C21.6733 15 21.6618 15 21.6502 15C21.6386 15 21.6269 15 21.6153 15C21.6036 15 21.5919 15 21.5802 15C21.5685 15 21.5567 15 21.5449 15C21.5332 15 21.5214 15 21.5095 15C21.4977 15 21.4858 15 21.474 15C21.4621 15 21.4502 15 21.4382 15C21.4263 15 21.4143 15 21.4023 15C21.3903 15 21.3783 15 21.3662 15C21.3542 15 21.3421 15 21.33 15C21.3179 15 21.3057 15 21.2936 15C21.2814 15 21.2692 15 21.257 15C21.2448 15 21.2326 15 21.2203 15C21.208 15 21.1957 15 21.1834 15C21.1711 15 21.1587 15 21.1464 15C21.134 15 21.1216 15 21.1091 15C21.0967 15 21.0843 15 21.0718 15C21.0593 15 21.0468 15 21.0343 15C21.0217 15 21.0092 15 20.9966 15C20.984 15 20.9714 15 20.9588 15C20.9461 15 20.9335 15 20.9208 15C20.9081 15 20.8954 15 20.8826 15C20.8699 15 20.8571 15 20.8443 15C20.8315 15 20.8187 15 20.8059 15C20.7931 15 20.7802 15 20.7673 15C20.7544 15 20.7415 15 20.7286 15C20.7156 15 20.7027 15 20.6897 15C20.6767 15 20.6637 15 20.6506 15C20.6376 15 20.6245 15 20.6114 15C20.5983 15 20.5852 15 20.5721 15C20.559 15 20.5458 15 20.5326 15C20.5194 15 20.5062 15 20.493 15C20.4798 15 20.4665 15 20.4532 15C20.44 15 20.4267 15 20.4133 15C20.4 15 20.3866 15 20.3733 15C20.3599 15 20.3465 15 20.3331 15C20.3197 15 20.3062 15 20.2928 15C20.2793 15 20.2658 15 20.2523 15C20.2388 15 20.2252 15 20.2117 15C20.1981 15 20.1845 15 20.1709 15C20.1573 15 20.1437 15 20.1301 15C20.1164 15 20.1027 15 20.089 15C20.0753 15 20.0616 15 20.0479 15C20.0341 15 20.0204 15 20.0066 15C19.9928 15 19.979 15 19.9652 15C19.9514 15 19.9375 15 19.9236 15C19.9098 15 19.8959 15 19.882 15C19.868 15 19.8541 15 19.8402 15C19.8262 15 19.8122 15 19.7982 15C19.7842 15 19.7702 15 19.7561 15C19.7421 15 19.728 15 19.714 15C19.6999 15 19.6858 15 19.6716 15C19.6575 15 19.6434 15 19.6292 15C19.615 15 19.6008 15 19.5866 15C19.5724 15 19.5582 15 19.5439 15C19.5297 15 19.5154 15 19.5011 15C19.4868 15 19.4725 15 19.4582 15C19.4438 15 19.4295 15 19.4151 15C19.4008 15 19.3864 15 19.3719 15C19.3575 15 19.3431 15 19.3286 15C19.3142 15 19.2997 15 19.2852 15C19.2707 15 19.2562 15 19.2417 15C19.2272 15 19.2126 15 19.1981 15C19.1835 15 19.1689 15 19.1543 15C19.1397 15 19.1251 15 19.1104 15C19.0958 15 19.0811 15 19.0664 15C19.0517 15 19.037 15 19.0223 15C19.0076 15 18.9929 15 18.9781 15C18.9633 15 18.9486 15 18.9338 15C18.919 15 18.9042 15 18.8893 15C18.8745 15 18.8597 15 18.8448 15C18.8299 15 18.815 15 18.8001 15C18.7852 15 18.7703 15 18.7554 15C18.7404 15 18.7255 15 18.7105 15C18.6955 15 18.6805 15 18.6655 15C18.6505 15 18.6355 15 18.6205 15C18.6054 15 18.5904 15 18.5753 15C18.5602 15 18.5451 15 18.53 15C18.5149 15 18.4997 15 18.4846 15C18.4695 15 18.4543 15 18.4391 15C18.4239 15 18.4087 15 18.3935 15C18.3783 15 18.3631 15 18.3478 15C18.3326 15 18.3173 15 18.3021 15C18.2868 15 18.2715 15 18.2562 15C18.2409 15 18.2255 15 18.2102 15C18.1948 15 18.1795 15 18.1641 15C18.1487 15 18.1334 15 18.1179 15C18.1025 15 18.0871 15 18.0717 15C18.0562 15 18.0408 15 18.0253 15C18.0099 15 17.9944 15 17.9789 15C17.9634 15 17.9479 15 17.9323 15C17.9168 15 17.9013 15 17.8857 15C17.8702 15 17.8546 15 17.839 15C17.8234 15 17.8078 15 17.7922 15C17.7766 15 17.7609 15 17.7453 15C17.7296 15 17.714 15 17.6983 15C17.6826 15 17.6669 15 17.6512 15C17.6355 15 17.6198 15 17.6041 15C17.5884 15 17.5726 15 17.5569 15C17.5411 15 17.5253 15 17.5095 15C17.4937 15 17.4779 15 17.4621 15C17.4463 15 17.4305 15 17.4147 15C17.3988 15 17.383 15 17.3671 15C17.3512 15 17.3353 15 17.3195 15C17.3036 15 17.2877 15 17.2717 15C17.2558 15 17.2399 15 17.2239 15C17.208 15 17.192 15 17.1761 15C17.1601 15 17.1441 15 17.1281 15C17.1121 15 17.0961 15 17.0801 15C17.0641 15 17.048 15 17.032 15C17.0159 15 16.9999 15 16.9838 15C16.9677 15 16.9517 15 16.9356 15C16.9195 15 16.9034 15 16.8873 15C16.8711 15 16.855 15 16.8389 15C16.8227 15 16.8066 15 16.7904 15C16.7743 15 16.7581 15 16.7419 15C16.7257 15 16.7095 15 16.6933 15C16.6771 15 16.6609 15 16.6446 15C16.6284 15 16.6122 15 16.5959 15C16.5797 15 16.5634 15 16.5471 15C16.5309 15 16.5146 15 16.4983 15C16.482 15 16.4657 15 16.4494 15C16.433 15 16.4167 15 16.4004 15C16.384 15 16.3677 15 16.3513 15C16.335 15 16.3186 15 16.3022 15C16.2859 15 16.2695 15 16.2531 15C16.2367 15 16.2203 15 16.2039 15C16.1874 15 16.171 15 16.1546 15C16.1382 15 16.1217 15 16.1053 15C16.0888 15 16.0723 15 16.0559 15C16.0394 15 16.0229 15 16.0064 15C15.9899 15 15.9734 15 15.9569 15C15.9404 15 15.9239 15 15.9074 15C15.8908 15 15.8743 15 15.8578 15C15.8412 15 15.8247 15 15.8081 15C15.7916 15 15.775 15 15.7584 15C15.7418 15 15.7252 15 15.7087 15C15.6921 15 15.6755 15 15.6588 15C15.6422 15 15.6256 15 15.609 15C15.5924 15 15.5757 15 15.5591 15C15.5425 15 15.5258 15 15.5092 15C15.4925 15 15.4758 15 15.4592 15C15.4425 15 15.4258 15 15.4091 15C15.3924 15 15.3758 15 15.3591 15C15.3424 15 15.3256 15 15.3089 15C15.2922 15 15.2755 15 15.2588 15C15.242 15 15.2253 15 15.2086 15C15.1918 15 15.1751 15 15.1583 15C15.1416 15 15.1248 15 15.108 15C15.0913 15 15.0745 15 15.0577 15C15.041 15 15.0242 15 15.0074 15C14.9906 15 14.9738 15 14.957 15C14.9402 15 14.9234 15 14.9066 15C14.8897 15 14.8729 15 14.8561 15C14.8393 15 14.8224 15 14.8056 15C14.7888 15 14.7719 15 14.7551 15C14.7382 15 14.7214 15 14.7045 15C14.6877 15 14.6708 15 14.6539 15C14.6371 15 14.6202 15 14.6033 15C14.5864 15 14.5695 15 14.5527 15C14.5358 15 14.5189 15 14.502 15C14.4851 15 14.4682 15 14.4513 15C14.4344 15 14.4175 15 14.4006 15C14.3836 15 14.3667 15 14.3498 15C14.3329 15 14.316 15 14.299 15C14.2821 15 14.2652 15 14.2482 15C14.2313 15 14.2143 15 14.1974 15C14.1804 15 14.1635 15 14.1465 15C14.1296 15 14.1126 15 14.0957 15C14.0787 15 14.0618 15 14.0448 15C14.0278 15 14.0109 15 13.9939 15C13.9769 15 13.9599 15 13.943 15C13.926 15 13.909 15 13.892 15C13.875 15 13.8581 15 13.8411 15C13.8241 15 13.8071 15 13.7901 15C13.7731 15 13.7561 15 13.7391 15C13.7221 15 13.7051 15 13.6881 15C13.6711 15 13.6541 15 13.6371 15C13.6201 15 13.6031 15 13.5861 15C13.5691 15 13.552 15 13.535 15C13.518 15 13.501 15 13.484 15C13.467 15 13.4499 15 13.4329 15C13.4159 15 13.3989 15 13.3819 15C13.3648 15 13.3478 15 13.3308 15C13.3138 15 13.2967 15 13.2797 15C13.2627 15 13.2457 15 13.2286 15C13.2116 15 13.1946 15 13.1775 15C13.1605 15 13.1435 15 13.1265 15C13.1094 15 13.0924 15 13.0754 15C13.0583 15 13.0413 15 13.0243 15C13.0072 15 12.9902 15 12.9732 15C12.9561 15 12.9391 15 12.9221 15C12.905 15 12.888 15 12.871 15C12.8539 15 12.8369 15 12.8199 15C12.8028 15 12.7858 15 12.7688 15C12.7518 15 12.7347 15 12.7177 15C12.7007 15 12.6836 15 12.6666 15C12.6496 15 12.6326 15 12.6155 15C12.5985 15 12.5815 15 12.5645 15C12.5474 15 12.5304 15 12.5134 15C12.4964 15 12.4794 15 12.4623 15C12.4453 15 12.4283 15 12.4113 15C12.3943 15 12.3773 15 12.3603 15C12.3432 15 12.3262 15 12.3092 15C12.2922 15 12.2752 15 12.2582 15C12.2412 15 12.2242 15 12.2072 15C12.1902 15 12.1732 15 12.1562 15C12.1392 15 12.1222 15 12.1053 15C12.0883 15 12.0713 15 12.0543 15C12.0373 15 12.0203 15 12.0033 15C11.9864 15 11.9694 15 11.9524 15C11.9354 15 11.9185 15 11.9015 15C11.8845 15 11.8676 15 11.8506 15C11.8337 15 11.8167 15 11.7998 15C11.7828 15 11.7659 15 11.7489 15C11.732 15 11.715 15 11.6981 15C11.6811 15 11.6642 15 11.6473 15C11.6303 15 11.6134 15 11.5965 15C11.5796 15 11.5626 15 11.5457 15C11.5288 15 11.5119 15 11.495 15C11.4781 15 11.4612 15 11.4443 15C11.4274 15 11.4105 15 11.3936 15C11.3767 15 11.3598 15 11.343 15C11.3261 15 11.3092 15 11.2923 15C11.2755 15 11.2586 15 11.2417 15C11.2249 15 11.208 15 11.1912 15C11.1743 15 11.1575 15 11.1407 15C11.1238 15 11.107 15 11.0902 15C11.0733 15 11.0565 15 11.0397 15C11.0229 15 11.0061 15 10.9893 15C10.9725 15 10.9557 15 10.9389 15C10.9221 15 10.9053 15 10.8885 15C10.8717 15 10.855 15 10.8382 15C10.8214 15 10.8047 15 10.7879 15C10.7711 15 10.7544 15 10.7377 15C10.7209 15 10.7042 15 10.6874 15C10.6707 15 10.654 15 10.6373 15C10.6206 15 10.6039 15 10.5872 15C10.5705 15 10.5538 15 10.5371 15C10.5204 15 10.5037 15 10.487 15C10.4704 15 10.4537 15 10.437 15C10.4204 15 10.4037 15 10.3871 15C10.3704 15 10.3538 15 10.3372 15C10.3206 15 10.3039 15 10.2873 15C10.2707 15 10.2541 15 10.2375 15C10.2209 15 10.2043 15 10.1878 15C10.1712 15 10.1546 15 10.138 15C10.1215 15 10.1049 15 10.0884 15C10.0718 15 10.0553 15 10.0388 15C10.0222 15 10.0057 15 9.98922 15C9.97271 15 9.95621 15 9.93971 15C9.92322 15 9.90674 15 9.89026 15C9.87379 15 9.85732 15 9.84087 15C9.82441 15 9.80796 15 9.79153 15C9.77509 15 9.75866 15 9.74224 15C9.72583 15 9.70942 15 9.69302 15C9.67662 15 9.66023 15 9.64385 15C9.62747 15 9.6111 15 9.59475 15C9.57839 15 9.56204 15 9.5457 15C9.52936 15 9.51303 15 9.49671 15C9.48039 15 9.46409 15 9.44779 15C9.43149 15 9.4152 15 9.39893 15C9.38265 15 9.36639 15 9.35013 15C9.33388 15 9.31763 15 9.3014 15C9.28517 15 9.26895 15 9.25273 15C9.23652 15 9.22032 15 9.20413 15C9.18795 15 9.17177 15 9.1556 15C9.13944 15 9.12328 15 9.10714 15C9.091 15 9.07487 15 9.05875 15C9.04263 15 9.02652 15 9.01042 15C8.99433 15 8.97824 15 8.96217 15C8.9461 15 8.93004 15 8.91399 15C8.89794 15 8.8819 15 8.86588 15C8.84986 15 8.83385 15 8.81785 15C8.80185 15 8.78586 15 8.76989 15C8.75391 15 8.73795 15 8.722 15C8.70606 15 8.69012 15 8.6742 15C8.65828 15 8.64237 15 8.62647 15C8.61057 15 8.59469 15 8.57882 15C8.56295 15 8.54709 15 8.53125 15C8.5154 15 8.49957 15 8.48375 15C8.46794 15 8.45213 15 8.43634 15C8.42055 15 8.40478 15 8.38902 15C8.37325 15 8.3575 15 8.34177 15C8.32604 15 8.31031 15 8.29461 15C8.2789 15 8.26321 15 8.24753 15C8.23185 15 8.21619 15 8.20054 15C8.18489 15 8.16925 15 8.15363 15C8.13801 15 8.12241 15 8.10682 15C8.09123 15 8.07565 15 8.06009 15C8.04453 15 8.02898 15 8.01345 15C7.99791 15 7.9824 15 7.9669 15C7.9514 15 7.93591 15 7.92044 15C7.90497 15 7.88951 15 7.87407 15C7.85863 15 7.8432 15 7.8278 15C7.81239 15 7.79699 15 7.78161 15C7.76624 15 7.75087 15 7.73553 15C7.72018 15 7.70485 15 7.68954 15C7.67422 15 7.65893 15 7.64364 15C7.62836 15 7.6131 15 7.59785 15C7.5826 15 7.56736 15 7.55215 15C7.53693 15 7.52173 15 7.50655 15C7.49136 15 7.4762 15 7.46105 15C7.4459 15 7.43076 15 7.41565 15C7.40053 15 7.38543 15 7.37035 15C7.35527 15 7.3402 15 7.32516 15C7.31011 15 7.29508 15 7.28007 15C7.26505 15 7.25006 15 7.23508 15C7.2201 15 7.20514 15 7.1902 15C7.17526 15 7.16033 15 7.14542 15C7.13052 15 7.11563 15 7.10076 15C7.08589 15 7.07103 15 7.0562 15C7.04136 15 7.02655 15 7.01175 15C6.99695 15 6.98217 15 6.96741 15C6.95264 15 6.9379 15 6.92318 15C6.90845 15 6.89375 15 6.87906 15C6.86437 15 6.8497 15 6.83505 15C6.8204 15 6.80577 15 6.79116 15C6.77655 15 6.76196 15 6.74738 15C6.73281 15 6.71826 15 6.70372 15C6.68919 15 6.67467 15 6.66018 15C6.64568 15 6.63121 15 6.61675 15C6.60229 15 6.58785 15 6.57344 15C6.55902 15 6.54462 15 6.53025 15C6.51587 15 6.50151 15 6.48717 15C6.47284 15 6.45852 15 6.44422 15C6.42993 15 6.41565 15 6.40139 15C6.38714 15 6.3729 15 6.35869 15C6.34447 15 6.33028 15 6.3161 15C6.30193 15 6.28778 15 6.27364 15C6.25951 15 6.2454 15 6.23131 15C6.21722 15 6.20315 15 6.1891 15C6.17505 15 6.16103 15 6.14702 15C6.13302 15 6.11903 15 6.10507 15C6.0911 15 6.07716 15 6.06324 15C6.04932 15 6.03543 15 6.02155 15C6.00767 15 5.99382 15 5.97999 15C5.96615 15 5.95234 15 5.93855 15C5.92476 15 5.911 15 5.89725 15C5.88351 15 5.86979 15 5.85609 15C5.84239 15 5.82871 15 5.81506 15C5.8014 15 5.78777 15 5.77416 15C5.76055 15 5.74696 15 5.7334 15C5.71983 15 5.70629 15 5.69277 15C5.67926 15 5.66576 15 5.65229 15C5.63881 15 5.62537 15 5.61194 15C5.59851 15 5.58511 15 5.57173 15C5.55835 15 5.545 15 5.53167 15C5.51833 15 5.50502 15 5.49174 15C5.47845 15 5.46519 15 5.45196 15C5.43872 15 5.42551 15 5.41232 15C5.39913 15 5.38596 15 5.37282 15C5.35968 15 5.34656 15 5.33347 15C5.32038 15 5.30731 15 5.29426 15C5.28122 15 5.2682 15 5.25521 15C5.24221 15 5.22924 15 5.2163 15C5.20335 15 5.19043 15 5.17753 15C5.16464 15 5.15177 15 5.13892 15C5.12608 15 5.11326 15 5.10046 15C5.08767 15 5.0749 15 5.06215 15C5.04941 15 5.03669 15 5.02399 15C5.0113 15 4.99863 15 4.98599 15C4.97335 15 4.96073 15 4.94814 15C4.93555 15 4.92298 15 4.91044 15C4.8979 15 4.88539 15 4.8729 15C4.86041 15 4.84795 15 4.83552 15C4.82308 15 4.81068 15 4.79829 15C4.78591 15 4.77356 15 4.76123 15C4.7489 15 4.7366 15 4.72432 15C4.71204 15 4.6998 15 4.68757 15C4.67535 15 4.66316 15 4.65099 15C4.63882 15 4.62668 15 4.61456 15C4.60245 15 4.59036 15 4.5783 15C4.56624 15 4.55421 15 4.54221 15C4.5302 15 4.51823 15 4.50628 15C4.49433 15 4.4824 15 4.47051 15C4.45862 15 4.44675 15 4.43491 15C4.42307 15 4.41126 15 4.39948 15C4.3877 15 4.37594 15 4.36422 15C4.35249 15 4.34079 15 4.32912 15C4.31745 15 4.30581 15 4.2942 15C4.28259 15 4.271 15 4.25945 15C4.24789 15 4.23637 15 4.22487 15C4.21337 15 4.2019 15 4.19046 15C4.17902 15 4.16761 15 4.15623 15C4.14485 15 4.13349 15 4.12217 15C4.11085 15 4.09955 15 4.08829 15C4.07702 15 4.06579 15 4.05458 15C4.04338 15 4.0322 15 4.02105 15C4.00991 15 3.99879 15 3.9877 15C3.97662 15 3.96556 15 3.95453 15C3.94351 15 3.93251 15 3.92154 15C3.91058 15 3.89964 15 3.88873 15C3.87783 15 3.86695 15 3.85611 15C3.84526 15 3.83445 15 3.82366 15C3.81288 15 3.80213 15 3.7914 15C3.78068 15 3.76999 15 3.75933 15C3.74867 15 3.73804 15 3.72744 15C3.71684 15 3.70627 15 3.69573 15C3.6852 15 3.67469 15 3.66422 15C3.65374 15 3.6433 15 3.63289 15C3.62248 15 3.6121 15 3.60175 15C3.5914 15 3.58109 15 3.5708 15C3.56052 15 3.55027 15 3.54004 15C3.52982 15 3.51964 15 3.50948 15C3.49932 15 3.4892 15 3.47911 15C3.46901 15 3.45895 15 3.44893 15C3.4389 15 3.42891 15 3.41894 15C3.40898 15 3.39905 15 3.38915 15C3.37926 15 3.36939 15 3.35956 15C3.34973 15 3.33993 15 3.33017 15C3.3204 15 3.31067 15 3.30097 15C3.29127 15 3.28161 15 3.27197 15C3.26234 15 3.25274 15 3.24318 15C3.23361 15 3.22408 15 3.21458 15C3.20508 15 3.19562 15 3.18618 15C3.17675 15 3.16736 15 3.15799 15C3.14863 15 3.1393 15 3.13 15C3.12071 15 3.11145 15 3.10222 15C3.09299 15 3.0838 15 3.07464 15C3.06548 15 3.05636 15 3.04727 15C3.03818 15 3.02913 15 3.0201 15C3.01108 15 3.0021 15 2.99315 15C2.9842 15 2.97528 15 2.9664 15C2.95752 15 2.94867 15 2.93986 15C2.93105 15 2.92228 15 2.91354 15C2.9048 15 2.89609 15 2.88742 15C2.87875 15 2.87012 15 2.86152 15C2.85292 15 2.84436 15 2.83583 15C2.8273 15 2.81881 15 2.81036 15C2.8019 15 2.79348 15 2.7851 15C2.77671 15 2.76837 15 2.76005 15C2.75174 15 2.74347 15 2.73523 15C2.72699 15 2.71879 15 2.71062 15C2.70246 15 2.69433 15 2.68623 15C2.67814 15 2.67008 15 2.66207 15C2.65405 15 2.64606 15 2.63812 15C2.63017 15 2.62226 15 2.61439 15C2.60652 15 2.59869 15 2.59089 15C2.58309 15 2.57533 15 2.56761 15C2.55989 15 2.5522 15 2.54455 15C2.5369 15 2.52929 15 2.52172 15C2.51415 15 2.50661 15 2.49912 15C2.49162 15 2.48416 15 2.47674 15C2.46932 15 2.46194 15 2.45459 15C2.44725 15 2.43994 15 2.43267 15C2.4254 15 2.41817 15 2.41098 15C2.40379 15 2.39664 15 2.38952 15C2.38241 15 2.37533 15 2.36829 15C2.36126 15 2.35426 15 2.3473 15C2.34034 15 2.33342 15 2.32654 15C2.31965 15 2.31281 15 2.30601 15C2.2992 15 2.29244 15 2.28571 15C2.27899 15 2.2723 15 2.26566 15C2.25901 15 2.25241 15 2.24584 15C2.23927 15 2.23274 15 2.22626 15C2.21977 15 2.21332 15 2.20691 15C2.20051 15 2.19414 15 2.18781 15C2.18148 15 2.1752 15 2.16895 15C2.1627 15 2.15649 15 2.15033 15C2.14416 15 2.13803 15 2.13195 15C2.12586 15 2.11982 15 2.11381 15C2.10781 15 2.10184 15 2.09592 15C2.09 15 2.08412 15 2.07828 15C2.07243 15 2.06663 15 2.06088 15C2.05512 15 2.0494 15 2.04372 15C2.03805 15 2.03241 15 2.02682 15C2.02122 15 2.01567 15 2.01016 15C2.00465 15 1.99918 15 1.99375 15V17C1.99918 17 2.00465 17 2.01016 17C2.01567 17 2.02122 17 2.02682 17C2.03241 17 2.03805 17 2.04372 17C2.0494 17 2.05512 17 2.06088 17C2.06663 17 2.07243 17 2.07828 17C2.08412 17 2.09 17 2.09592 17C2.10184 17 2.10781 17 2.11381 17C2.11982 17 2.12586 17 2.13195 17C2.13803 17 2.14416 17 2.15033 17C2.15649 17 2.1627 17 2.16895 17C2.1752 17 2.18148 17 2.18781 17C2.19414 17 2.20051 17 2.20691 17C2.21332 17 2.21977 17 2.22626 17C2.23274 17 2.23927 17 2.24584 17C2.25241 17 2.25901 17 2.26566 17C2.2723 17 2.27899 17 2.28571 17C2.29244 17 2.2992 17 2.30601 17C2.31281 17 2.31965 17 2.32654 17C2.33342 17 2.34034 17 2.3473 17C2.35426 17 2.36126 17 2.36829 17C2.37533 17 2.38241 17 2.38952 17C2.39664 17 2.40379 17 2.41098 17C2.41817 17 2.4254 17 2.43267 17C2.43994 17 2.44725 17 2.45459 17C2.46194 17 2.46932 17 2.47674 17C2.48416 17 2.49162 17 2.49912 17C2.50661 17 2.51415 17 2.52172 17C2.52929 17 2.5369 17 2.54455 17C2.5522 17 2.55989 17 2.56761 17C2.57533 17 2.58309 17 2.59089 17C2.59869 17 2.60652 17 2.61439 17C2.62226 17 2.63017 17 2.63812 17C2.64606 17 2.65405 17 2.66207 17C2.67008 17 2.67814 17 2.68623 17C2.69433 17 2.70246 17 2.71062 17C2.71879 17 2.72699 17 2.73523 17C2.74347 17 2.75174 17 2.76005 17C2.76837 17 2.77671 17 2.7851 17C2.79348 17 2.8019 17 2.81036 17C2.81881 17 2.8273 17 2.83583 17C2.84436 17 2.85292 17 2.86152 17C2.87012 17 2.87875 17 2.88742 17C2.89609 17 2.9048 17 2.91354 17C2.92228 17 2.93105 17 2.93986 17C2.94867 17 2.95752 17 2.9664 17C2.97528 17 2.9842 17 2.99315 17C3.0021 17 3.01108 17 3.0201 17C3.02913 17 3.03818 17 3.04727 17C3.05636 17 3.06548 17 3.07464 17C3.0838 17 3.09299 17 3.10222 17C3.11145 17 3.12071 17 3.13 17C3.1393 17 3.14863 17 3.15799 17C3.16736 17 3.17675 17 3.18618 17C3.19562 17 3.20508 17 3.21458 17C3.22408 17 3.23361 17 3.24318 17C3.25274 17 3.26234 17 3.27197 17C3.28161 17 3.29127 17 3.30097 17C3.31067 17 3.3204 17 3.33017 17C3.33993 17 3.34973 17 3.35956 17C3.36939 17 3.37926 17 3.38915 17C3.39905 17 3.40898 17 3.41894 17C3.42891 17 3.4389 17 3.44893 17C3.45895 17 3.46901 17 3.47911 17C3.4892 17 3.49932 17 3.50948 17C3.51964 17 3.52982 17 3.54004 17C3.55027 17 3.56052 17 3.5708 17C3.58109 17 3.5914 17 3.60175 17C3.6121 17 3.62248 17 3.63289 17C3.6433 17 3.65374 17 3.66422 17C3.67469 17 3.6852 17 3.69573 17C3.70627 17 3.71684 17 3.72744 17C3.73804 17 3.74867 17 3.75933 17C3.76999 17 3.78068 17 3.7914 17C3.80213 17 3.81288 17 3.82366 17C3.83445 17 3.84526 17 3.85611 17C3.86695 17 3.87783 17 3.88873 17C3.89964 17 3.91058 17 3.92154 17C3.93251 17 3.94351 17 3.95453 17C3.96556 17 3.97662 17 3.9877 17C3.99879 17 4.00991 17 4.02105 17C4.0322 17 4.04338 17 4.05458 17C4.06579 17 4.07702 17 4.08829 17C4.09955 17 4.11085 17 4.12217 17C4.13349 17 4.14485 17 4.15623 17C4.16761 17 4.17902 17 4.19046 17C4.2019 17 4.21337 17 4.22487 17C4.23637 17 4.24789 17 4.25945 17C4.271 17 4.28259 17 4.2942 17C4.30581 17 4.31745 17 4.32912 17C4.34079 17 4.35249 17 4.36422 17C4.37594 17 4.3877 17 4.39948 17C4.41126 17 4.42307 17 4.43491 17C4.44675 17 4.45862 17 4.47051 17C4.4824 17 4.49433 17 4.50628 17C4.51823 17 4.5302 17 4.54221 17C4.55421 17 4.56624 17 4.5783 17C4.59036 17 4.60245 17 4.61456 17C4.62668 17 4.63882 17 4.65099 17C4.66316 17 4.67535 17 4.68757 17C4.6998 17 4.71204 17 4.72432 17C4.7366 17 4.7489 17 4.76123 17C4.77356 17 4.78591 17 4.79829 17C4.81068 17 4.82308 17 4.83552 17C4.84795 17 4.86041 17 4.8729 17C4.88539 17 4.8979 17 4.91044 17C4.92298 17 4.93555 17 4.94814 17C4.96073 17 4.97335 17 4.98599 17C4.99863 17 5.0113 17 5.02399 17C5.03669 17 5.04941 17 5.06215 17C5.0749 17 5.08767 17 5.10046 17C5.11326 17 5.12608 17 5.13892 17C5.15177 17 5.16464 17 5.17753 17C5.19043 17 5.20335 17 5.2163 17C5.22924 17 5.24221 17 5.25521 17C5.2682 17 5.28122 17 5.29426 17C5.30731 17 5.32038 17 5.33347 17C5.34656 17 5.35968 17 5.37282 17C5.38596 17 5.39913 17 5.41232 17C5.42551 17 5.43872 17 5.45196 17C5.46519 17 5.47845 17 5.49174 17C5.50502 17 5.51833 17 5.53167 17C5.545 17 5.55835 17 5.57173 17C5.58511 17 5.59851 17 5.61194 17C5.62537 17 5.63881 17 5.65229 17C5.66576 17 5.67926 17 5.69277 17C5.70629 17 5.71983 17 5.7334 17C5.74696 17 5.76055 17 5.77416 17C5.78777 17 5.8014 17 5.81506 17C5.82871 17 5.84239 17 5.85609 17C5.86979 17 5.88351 17 5.89725 17C5.911 17 5.92476 17 5.93855 17C5.95234 17 5.96615 17 5.97999 17C5.99382 17 6.00767 17 6.02155 17C6.03543 17 6.04932 17 6.06324 17C6.07716 17 6.0911 17 6.10507 17C6.11903 17 6.13302 17 6.14702 17C6.16103 17 6.17505 17 6.1891 17C6.20315 17 6.21722 17 6.23131 17C6.2454 17 6.25951 17 6.27364 17C6.28778 17 6.30193 17 6.3161 17C6.33028 17 6.34447 17 6.35869 17C6.3729 17 6.38714 17 6.40139 17C6.41565 17 6.42993 17 6.44422 17C6.45852 17 6.47284 17 6.48717 17C6.50151 17 6.51587 17 6.53025 17C6.54462 17 6.55902 17 6.57344 17C6.58785 17 6.60229 17 6.61675 17C6.63121 17 6.64568 17 6.66018 17C6.67467 17 6.68919 17 6.70372 17C6.71826 17 6.73281 17 6.74738 17C6.76196 17 6.77655 17 6.79116 17C6.80577 17 6.8204 17 6.83505 17C6.8497 17 6.86437 17 6.87906 17C6.89375 17 6.90845 17 6.92318 17C6.9379 17 6.95264 17 6.96741 17C6.98217 17 6.99695 17 7.01175 17C7.02655 17 7.04136 17 7.0562 17C7.07103 17 7.08589 17 7.10076 17C7.11563 17 7.13052 17 7.14542 17C7.16033 17 7.17526 17 7.1902 17C7.20514 17 7.2201 17 7.23508 17C7.25006 17 7.26505 17 7.28007 17C7.29508 17 7.31011 17 7.32516 17C7.3402 17 7.35527 17 7.37035 17C7.38543 17 7.40053 17 7.41565 17C7.43076 17 7.4459 17 7.46105 17C7.4762 17 7.49136 17 7.50655 17C7.52173 17 7.53693 17 7.55215 17C7.56736 17 7.5826 17 7.59785 17C7.6131 17 7.62836 17 7.64364 17C7.65893 17 7.67422 17 7.68954 17C7.70485 17 7.72018 17 7.73553 17C7.75087 17 7.76624 17 7.78161 17C7.79699 17 7.81239 17 7.8278 17C7.8432 17 7.85863 17 7.87407 17C7.88951 17 7.90497 17 7.92044 17C7.93591 17 7.9514 17 7.9669 17C7.9824 17 7.99791 17 8.01345 17C8.02898 17 8.04453 17 8.06009 17C8.07565 17 8.09123 17 8.10682 17C8.12241 17 8.13801 17 8.15363 17C8.16925 17 8.18489 17 8.20054 17C8.21619 17 8.23185 17 8.24753 17C8.26321 17 8.2789 17 8.29461 17C8.31031 17 8.32604 17 8.34177 17C8.3575 17 8.37325 17 8.38902 17C8.40478 17 8.42055 17 8.43634 17C8.45213 17 8.46794 17 8.48375 17C8.49957 17 8.5154 17 8.53125 17C8.54709 17 8.56295 17 8.57882 17C8.59469 17 8.61057 17 8.62647 17C8.64237 17 8.65828 17 8.6742 17C8.69012 17 8.70606 17 8.722 17C8.73795 17 8.75391 17 8.76989 17C8.78586 17 8.80185 17 8.81785 17C8.83385 17 8.84986 17 8.86588 17C8.8819 17 8.89794 17 8.91399 17C8.93004 17 8.9461 17 8.96217 17C8.97824 17 8.99433 17 9.01042 17C9.02652 17 9.04263 17 9.05875 17C9.07487 17 9.091 17 9.10714 17C9.12328 17 9.13944 17 9.1556 17C9.17177 17 9.18795 17 9.20413 17C9.22032 17 9.23652 17 9.25273 17C9.26895 17 9.28517 17 9.3014 17C9.31763 17 9.33388 17 9.35013 17C9.36639 17 9.38265 17 9.39893 17C9.4152 17 9.43149 17 9.44779 17C9.46409 17 9.48039 17 9.49671 17C9.51303 17 9.52936 17 9.5457 17C9.56204 17 9.57839 17 9.59475 17C9.6111 17 9.62747 17 9.64385 17C9.66023 17 9.67662 17 9.69302 17C9.70942 17 9.72583 17 9.74224 17C9.75866 17 9.77509 17 9.79153 17C9.80796 17 9.82441 17 9.84087 17C9.85732 17 9.87379 17 9.89026 17C9.90674 17 9.92322 17 9.93971 17C9.95621 17 9.97271 17 9.98922 17C10.0057 17 10.0222 17 10.0388 17C10.0553 17 10.0718 17 10.0884 17C10.1049 17 10.1215 17 10.138 17C10.1546 17 10.1712 17 10.1878 17C10.2043 17 10.2209 17 10.2375 17C10.2541 17 10.2707 17 10.2873 17C10.3039 17 10.3206 17 10.3372 17C10.3538 17 10.3704 17 10.3871 17C10.4037 17 10.4204 17 10.437 17C10.4537 17 10.4704 17 10.487 17C10.5037 17 10.5204 17 10.5371 17C10.5538 17 10.5705 17 10.5872 17C10.6039 17 10.6206 17 10.6373 17C10.654 17 10.6707 17 10.6874 17C10.7042 17 10.7209 17 10.7377 17C10.7544 17 10.7711 17 10.7879 17C10.8047 17 10.8214 17 10.8382 17C10.855 17 10.8717 17 10.8885 17C10.9053 17 10.9221 17 10.9389 17C10.9557 17 10.9725 17 10.9893 17C11.0061 17 11.0229 17 11.0397 17C11.0565 17 11.0733 17 11.0902 17C11.107 17 11.1238 17 11.1407 17C11.1575 17 11.1743 17 11.1912 17C11.208 17 11.2249 17 11.2417 17C11.2586 17 11.2755 17 11.2923 17C11.3092 17 11.3261 17 11.343 17C11.3598 17 11.3767 17 11.3936 17C11.4105 17 11.4274 17 11.4443 17C11.4612 17 11.4781 17 11.495 17C11.5119 17 11.5288 17 11.5457 17C11.5626 17 11.5796 17 11.5965 17C11.6134 17 11.6303 17 11.6473 17C11.6642 17 11.6811 17 11.6981 17C11.715 17 11.732 17 11.7489 17C11.7659 17 11.7828 17 11.7998 17C11.8167 17 11.8337 17 11.8506 17C11.8676 17 11.8845 17 11.9015 17C11.9185 17 11.9354 17 11.9524 17C11.9694 17 11.9864 17 12.0033 17C12.0203 17 12.0373 17 12.0543 17C12.0713 17 12.0883 17 12.1053 17C12.1222 17 12.1392 17 12.1562 17C12.1732 17 12.1902 17 12.2072 17C12.2242 17 12.2412 17 12.2582 17C12.2752 17 12.2922 17 12.3092 17C12.3262 17 12.3432 17 12.3603 17C12.3773 17 12.3943 17 12.4113 17C12.4283 17 12.4453 17 12.4623 17C12.4794 17 12.4964 17 12.5134 17C12.5304 17 12.5474 17 12.5645 17C12.5815 17 12.5985 17 12.6155 17C12.6326 17 12.6496 17 12.6666 17C12.6836 17 12.7007 17 12.7177 17C12.7347 17 12.7518 17 12.7688 17C12.7858 17 12.8028 17 12.8199 17C12.8369 17 12.8539 17 12.871 17C12.888 17 12.905 17 12.9221 17C12.9391 17 12.9561 17 12.9732 17C12.9902 17 13.0072 17 13.0243 17C13.0413 17 13.0583 17 13.0754 17C13.0924 17 13.1094 17 13.1265 17C13.1435 17 13.1605 17 13.1775 17C13.1946 17 13.2116 17 13.2286 17C13.2457 17 13.2627 17 13.2797 17C13.2967 17 13.3138 17 13.3308 17C13.3478 17 13.3648 17 13.3819 17C13.3989 17 13.4159 17 13.4329 17C13.4499 17 13.467 17 13.484 17C13.501 17 13.518 17 13.535 17C13.552 17 13.5691 17 13.5861 17C13.6031 17 13.6201 17 13.6371 17C13.6541 17 13.6711 17 13.6881 17C13.7051 17 13.7221 17 13.7391 17C13.7561 17 13.7731 17 13.7901 17C13.8071 17 13.8241 17 13.8411 17C13.8581 17 13.875 17 13.892 17C13.909 17 13.926 17 13.943 17C13.9599 17 13.9769 17 13.9939 17C14.0109 17 14.0278 17 14.0448 17C14.0618 17 14.0787 17 14.0957 17C14.1126 17 14.1296 17 14.1465 17C14.1635 17 14.1804 17 14.1974 17C14.2143 17 14.2313 17 14.2482 17C14.2652 17 14.2821 17 14.299 17C14.316 17 14.3329 17 14.3498 17C14.3667 17 14.3836 17 14.4006 17C14.4175 17 14.4344 17 14.4513 17C14.4682 17 14.4851 17 14.502 17C14.5189 17 14.5358 17 14.5527 17C14.5695 17 14.5864 17 14.6033 17C14.6202 17 14.6371 17 14.6539 17C14.6708 17 14.6877 17 14.7045 17C14.7214 17 14.7382 17 14.7551 17C14.7719 17 14.7888 17 14.8056 17C14.8224 17 14.8393 17 14.8561 17C14.8729 17 14.8897 17 14.9066 17C14.9234 17 14.9402 17 14.957 17C14.9738 17 14.9906 17 15.0074 17C15.0242 17 15.041 17 15.0577 17C15.0745 17 15.0913 17 15.108 17C15.1248 17 15.1416 17 15.1583 17C15.1751 17 15.1918 17 15.2086 17C15.2253 17 15.242 17 15.2588 17C15.2755 17 15.2922 17 15.3089 17C15.3256 17 15.3424 17 15.3591 17C15.3758 17 15.3924 17 15.4091 17C15.4258 17 15.4425 17 15.4592 17C15.4758 17 15.4925 17 15.5092 17C15.5258 17 15.5425 17 15.5591 17C15.5757 17 15.5924 17 15.609 17C15.6256 17 15.6422 17 15.6588 17C15.6755 17 15.6921 17 15.7087 17C15.7252 17 15.7418 17 15.7584 17C15.775 17 15.7916 17 15.8081 17C15.8247 17 15.8412 17 15.8578 17C15.8743 17 15.8908 17 15.9074 17C15.9239 17 15.9404 17 15.9569 17C15.9734 17 15.9899 17 16.0064 17C16.0229 17 16.0394 17 16.0559 17C16.0723 17 16.0888 17 16.1053 17C16.1217 17 16.1382 17 16.1546 17C16.171 17 16.1874 17 16.2039 17C16.2203 17 16.2367 17 16.2531 17C16.2695 17 16.2859 17 16.3022 17C16.3186 17 16.335 17 16.3513 17C16.3677 17 16.384 17 16.4004 17C16.4167 17 16.433 17 16.4494 17C16.4657 17 16.482 17 16.4983 17C16.5146 17 16.5309 17 16.5471 17C16.5634 17 16.5797 17 16.5959 17C16.6122 17 16.6284 17 16.6446 17C16.6609 17 16.6771 17 16.6933 17C16.7095 17 16.7257 17 16.7419 17C16.7581 17 16.7743 17 16.7904 17C16.8066 17 16.8227 17 16.8389 17C16.855 17 16.8711 17 16.8873 17C16.9034 17 16.9195 17 16.9356 17C16.9517 17 16.9677 17 16.9838 17C16.9999 17 17.0159 17 17.032 17C17.048 17 17.0641 17 17.0801 17C17.0961 17 17.1121 17 17.1281 17C17.1441 17 17.1601 17 17.1761 17C17.192 17 17.208 17 17.2239 17C17.2399 17 17.2558 17 17.2717 17C17.2877 17 17.3036 17 17.3195 17C17.3353 17 17.3512 17 17.3671 17C17.383 17 17.3988 17 17.4147 17C17.4305 17 17.4463 17 17.4621 17C17.4779 17 17.4937 17 17.5095 17C17.5253 17 17.5411 17 17.5569 17C17.5726 17 17.5884 17 17.6041 17C17.6198 17 17.6355 17 17.6512 17C17.6669 17 17.6826 17 17.6983 17C17.714 17 17.7296 17 17.7453 17C17.7609 17 17.7766 17 17.7922 17C17.8078 17 17.8234 17 17.839 17C17.8546 17 17.8702 17 17.8857 17C17.9013 17 17.9168 17 17.9323 17C17.9479 17 17.9634 17 17.9789 17C17.9944 17 18.0099 17 18.0253 17C18.0408 17 18.0562 17 18.0717 17C18.0871 17 18.1025 17 18.1179 17C18.1334 17 18.1487 17 18.1641 17C18.1795 17 18.1948 17 18.2102 17C18.2255 17 18.2409 17 18.2562 17C18.2715 17 18.2868 17 18.3021 17C18.3173 17 18.3326 17 18.3478 17C18.3631 17 18.3783 17 18.3935 17C18.4087 17 18.4239 17 18.4391 17C18.4543 17 18.4695 17 18.4846 17C18.4997 17 18.5149 17 18.53 17C18.5451 17 18.5602 17 18.5753 17C18.5904 17 18.6054 17 18.6205 17C18.6355 17 18.6505 17 18.6655 17C18.6805 17 18.6955 17 18.7105 17C18.7255 17 18.7404 17 18.7554 17C18.7703 17 18.7852 17 18.8001 17C18.815 17 18.8299 17 18.8448 17C18.8597 17 18.8745 17 18.8893 17C18.9042 17 18.919 17 18.9338 17C18.9486 17 18.9633 17 18.9781 17C18.9929 17 19.0076 17 19.0223 17C19.037 17 19.0517 17 19.0664 17C19.0811 17 19.0958 17 19.1104 17C19.1251 17 19.1397 17 19.1543 17C19.1689 17 19.1835 17 19.1981 17C19.2126 17 19.2272 17 19.2417 17C19.2562 17 19.2707 17 19.2852 17C19.2997 17 19.3142 17 19.3286 17C19.3431 17 19.3575 17 19.3719 17C19.3864 17 19.4008 17 19.4151 17C19.4295 17 19.4438 17 19.4582 17C19.4725 17 19.4868 17 19.5011 17C19.5154 17 19.5297 17 19.5439 17C19.5582 17 19.5724 17 19.5866 17C19.6008 17 19.615 17 19.6292 17C19.6434 17 19.6575 17 19.6716 17C19.6858 17 19.6999 17 19.714 17C19.728 17 19.7421 17 19.7561 17C19.7702 17 19.7842 17 19.7982 17C19.8122 17 19.8262 17 19.8402 17C19.8541 17 19.868 17 19.882 17C19.8959 17 19.9098 17 19.9236 17C19.9375 17 19.9514 17 19.9652 17C19.979 17 19.9928 17 20.0066 17C20.0204 17 20.0341 17 20.0479 17C20.0616 17 20.0753 17 20.089 17C20.1027 17 20.1164 17 20.1301 17C20.1437 17 20.1573 17 20.1709 17C20.1845 17 20.1981 17 20.2117 17C20.2252 17 20.2388 17 20.2523 17C20.2658 17 20.2793 17 20.2928 17C20.3062 17 20.3197 17 20.3331 17C20.3465 17 20.3599 17 20.3733 17C20.3866 17 20.4 17 20.4133 17C20.4267 17 20.44 17 20.4532 17C20.4665 17 20.4798 17 20.493 17C20.5062 17 20.5194 17 20.5326 17C20.5458 17 20.559 17 20.5721 17C20.5852 17 20.5983 17 20.6114 17C20.6245 17 20.6376 17 20.6506 17C20.6637 17 20.6767 17 20.6897 17C20.7027 17 20.7156 17 20.7286 17C20.7415 17 20.7544 17 20.7673 17C20.7802 17 20.7931 17 20.8059 17C20.8187 17 20.8315 17 20.8443 17C20.8571 17 20.8699 17 20.8826 17C20.8954 17 20.9081 17 20.9208 17C20.9335 17 20.9461 17 20.9588 17C20.9714 17 20.984 17 20.9966 17C21.0092 17 21.0217 17 21.0343 17C21.0468 17 21.0593 17 21.0718 17C21.0843 17 21.0967 17 21.1091 17C21.1216 17 21.134 17 21.1464 17C21.1587 17 21.1711 17 21.1834 17C21.1957 17 21.208 17 21.2203 17C21.2326 17 21.2448 17 21.257 17C21.2692 17 21.2814 17 21.2936 17C21.3057 17 21.3179 17 21.33 17C21.3421 17 21.3542 17 21.3662 17C21.3783 17 21.3903 17 21.4023 17C21.4143 17 21.4263 17 21.4382 17C21.4502 17 21.4621 17 21.474 17C21.4858 17 21.4977 17 21.5095 17C21.5214 17 21.5332 17 21.5449 17C21.5567 17 21.5685 17 21.5802 17C21.5919 17 21.6036 17 21.6153 17C21.6269 17 21.6386 17 21.6502 17C21.6618 17 21.6733 17 21.6849 17C21.6964 17 21.708 17 21.7195 17C21.7309 17 21.7424 17 21.7538 17C21.7653 17 21.7767 17 21.7881 17C21.7994 17 21.8108 17 21.8221 17C21.8334 17 21.8447 17 21.856 17C21.8672 17 21.8784 17 21.8896 17C21.9008 17 21.912 17 21.9231 17C21.9343 17 21.9454 17 21.9565 17C21.9676 17 21.9786 17 21.9896 17C22.0006 17 22.0116 17 22.0226 17C22.0336 17 22.0445 17 22.0554 17C22.0663 17 22.0771 17 22.088 17C22.0988 17 22.1096 17 22.1204 17C22.1312 17 22.1419 17 22.1526 17C22.1634 17 22.174 17 22.1847 17C22.1954 17 22.206 17 22.2166 17C22.2272 17 22.2377 17 22.2482 17C22.2588 17 22.2693 17 22.2797 17C22.2902 17 22.3006 17 22.311 17C22.3214 17 22.3318 17 22.3422 17C22.3525 17 22.3628 17 22.3731 17C22.3834 17 22.3936 17 22.4038 17C22.414 17 22.4242 17 22.4344 17C22.4445 17 22.4546 17 22.4647 17C22.4748 17 22.4848 17 22.4949 17C22.5049 17 22.5149 17 22.5248 17C22.5348 17 22.5447 17 22.5546 17C22.5645 17 22.5743 17 22.5842 17C22.594 17 22.6038 17 22.6135 17C22.6233 17 22.633 17 22.6427 17C22.6524 17 22.6621 17 22.6717 17C22.6813 17 22.6909 17 22.7005 17C22.71 17 22.7195 17 22.729 17C22.7385 17 22.748 17 22.7574 17C22.7668 17 22.7762 17 22.7856 17C22.7949 17 22.8042 17 22.8135 17C22.8228 17 22.8321 17 22.8413 17C22.8505 17 22.8597 17 22.8688 17C22.878 17 22.8871 17 22.8962 17C22.9053 17 22.9143 17 22.9233 17C22.9323 17 22.9413 17 22.9503 17C22.9592 17 22.9681 17 22.977 17C22.9859 17 22.9947 17 23.0035 17V15ZM0.5 15.5C0.5 16.3119 1.14898 17 1.99375 17V15C2.28624 15 2.5 15.2403 2.5 15.5H0.5ZM22.5 15.5C22.5 15.233 22.7182 15 23.0035 15V17C23.841 17 24.5 16.3193 24.5 15.5H22.5ZM24.5 4.5C24.5 3.68073 23.841 3 23.0035 3V5C22.7182 5 22.5 4.76698 22.5 4.5H24.5ZM2.5 4.5C2.5 4.75966 2.28624 5 1.99375 5V3C1.14899 3 0.5 3.68806 0.5 4.5H2.5ZM11.5 16V20H13.5V16H11.5ZM16.5 21C16.8811 20.0755 16.881 20.0754 16.8809 20.0754C16.8808 20.0754 16.8807 20.0753 16.8806 20.0753C16.8804 20.0752 16.8801 20.0751 16.8799 20.075C16.8793 20.0747 16.8786 20.0744 16.8777 20.0741C16.876 20.0734 16.8736 20.0724 16.8707 20.0712C16.8649 20.0689 16.8569 20.0656 16.8466 20.0614C16.826 20.0531 16.7966 20.0414 16.7593 20.0266C16.6845 19.9972 16.5776 19.9558 16.445 19.9065C16.1804 19.8081 15.8104 19.6768 15.3875 19.5452C14.5718 19.2913 13.4487 19 12.5 19V21C13.1256 21 14.0025 21.2087 14.7932 21.4548C15.1735 21.5732 15.5083 21.6919 15.7477 21.781C15.8671 21.8254 15.962 21.8622 16.0261 21.8874C16.0582 21.9 16.0824 21.9098 16.0982 21.9161C16.106 21.9193 16.1118 21.9216 16.1152 21.923C16.117 21.9238 16.1182 21.9242 16.1188 21.9245C16.1191 21.9246 16.1192 21.9247 16.1193 21.9247C16.1193 21.9247 16.1192 21.9247 16.1192 21.9246C16.1191 21.9246 16.1191 21.9246 16.1191 21.9246C16.119 21.9246 16.1189 21.9245 16.5 21ZM12.5 19C11.5513 19 10.4282 19.2913 9.61247 19.5452C9.18957 19.6768 8.81955 19.8081 8.55496 19.9065C8.42236 19.9558 8.31546 19.9972 8.24075 20.0266C8.20337 20.0414 8.174 20.0531 8.15343 20.0614C8.14314 20.0656 8.13505 20.0689 8.12926 20.0712C8.12636 20.0724 8.12404 20.0734 8.12231 20.0741C8.12144 20.0744 8.12072 20.0747 8.12014 20.075C8.11986 20.0751 8.11961 20.0752 8.1194 20.0753C8.11929 20.0753 8.11916 20.0754 8.11911 20.0754C8.11898 20.0754 8.11887 20.0755 8.5 21C8.88113 21.9245 8.88103 21.9246 8.88095 21.9246C8.88093 21.9246 8.88086 21.9246 8.88083 21.9246C8.88076 21.9247 8.88073 21.9247 8.88074 21.9247C8.88076 21.9247 8.88092 21.9246 8.88122 21.9245C8.88183 21.9242 8.88301 21.9238 8.88475 21.923C8.88824 21.9216 8.89396 21.9193 8.90183 21.9161C8.91756 21.9098 8.94184 21.9 8.97386 21.8874C9.03796 21.8622 9.13287 21.8254 9.25228 21.781C9.49171 21.6919 9.82652 21.5732 10.2068 21.4548C10.9975 21.2087 11.8744 21 12.5 21V19Z" fill="#FAF9F7"/>
</svg>
