<svg width="25" height="24" viewBox="0 0 25 24" fill="none" xmlns="http://www.w3.org/2000/svg">
<path d="M5.97578 7.28963L6.09198 6.96387C7.62288 2.6721 12.355 0.446957 16.6368 2.00542C20.6361 3.46104 22.8676 7.73249 21.7429 11.8371C21.4157 13.0314 21.1318 14.0515 20.9748 14.5793C20.4157 16.4589 18.2537 20.883 18.2537 20.883M2.9082 14.0284C2.9082 14.0284 3.54078 13.1557 3.87107 12.5516C4.14304 12.0542 4.48496 11.2361 4.48496 11.2361M15.8784 15.729L17.4726 11.3963C18.2639 9.2455 17.1571 6.8611 15.0036 6.07728C12.6881 5.23454 10.1521 6.58888 9.44081 8.94801C8.96594 10.5231 8.39752 12.2406 7.81866 13.6032C6.51565 16.6704 4.66034 18.6905 4.66034 18.6905M14.3073 19.5675C14.3073 19.5675 13.9403 20.4518 13.6057 20.9707C13.201 21.5983 12.7287 22.1985 12.7287 22.1985M13.5836 10.5394C13.5836 10.5394 12.4606 13.297 11.3983 15.8226C10.2637 18.5198 7.72988 21.3215 7.72988 21.3215" stroke="#FAF9F7" stroke-width="2" stroke-linecap="round" stroke-linejoin="round"/>
</svg>
