<svg width="25" height="24" viewBox="0 0 25 24" fill="none" xmlns="http://www.w3.org/2000/svg">
<path d="M3.5 17.5L2.79289 16.7929L2.5 17.0858V17.5H3.5ZM8 21V22H9V21H8ZM8 19.5V18.5H7V19.5H8ZM10 19.5V20.5H11V19.5H10ZM10 17V16H9V17H10ZM12.25 17V18H13.25V17H12.25ZM3.5 21H2.5V22H3.5V21ZM9.00716 11.3832C9.19121 11.904 9.76253 12.1769 10.2832 11.9928C10.804 11.8088 11.0769 11.2375 10.8928 10.7168L9.00716 11.3832ZM12.7507 13.2344C12.2727 12.9579 11.6609 13.1212 11.3844 13.5993C11.1079 14.0773 11.2712 14.6891 11.7493 14.9656L12.7507 13.2344ZM16 6C15.4477 6 15 6.44772 15 7C15 7.55228 15.4477 8 16 8V6ZM16.5 8.5C16.5 9.05228 16.9477 9.5 17.5 9.5C18.0523 9.5 18.5 9.05228 18.5 8.5H16.5ZM9.29289 10.2929L2.79289 16.7929L4.20711 18.2071L10.7071 11.7071L9.29289 10.2929ZM9 21V19.5H7V21H9ZM8 20.5H10V18.5H8V20.5ZM11 19.5V17H9V19.5H11ZM10 18H12.25V16H10V18ZM13.25 17V14H11.25V17H13.25ZM2.5 17.5V21H4.5V17.5H2.5ZM8 20H3.5V22H8V20ZM20.5 9C20.5 11.7614 18.2614 14 15.5 14V16C19.366 16 22.5 12.866 22.5 9H20.5ZM10.5 9C10.5 6.23858 12.7386 4 15.5 4V2C11.634 2 8.5 5.13401 8.5 9H10.5ZM15.5 4C18.2614 4 20.5 6.23858 20.5 9H22.5C22.5 5.13401 19.366 2 15.5 2V4ZM10.8928 10.7168C10.6715 10.0904 10.5 9.51227 10.5 9H8.5C8.5 9.89027 8.78633 10.7585 9.00716 11.3832L10.8928 10.7168ZM15.5 14C14.6036 14 13.5 13.6678 12.7507 13.2344L11.7493 14.9656C12.765 15.5532 14.2106 16 15.5 16V14ZM16 7C16 8 15.9995 8 15.999 8C15.9989 8 15.9984 8 15.9981 8C15.9974 8 15.9968 8 15.9962 7.99999C15.9949 7.99999 15.9937 7.99998 15.9925 7.99997C15.9901 7.99995 15.9878 7.99992 15.9856 7.99989C15.9812 7.99982 15.9771 7.99972 15.9735 7.9996C15.9662 7.99937 15.9604 7.99906 15.9559 7.99876C15.9471 7.99817 15.9435 7.99762 15.9445 7.99776C15.9467 7.99807 15.9656 8.00097 15.9963 8.01118C16.0541 8.03045 16.1651 8.07927 16.2929 8.20711L17.7071 6.79289C17.3349 6.42073 16.9459 6.21955 16.6287 6.11382C16.4719 6.06153 16.3346 6.03318 16.2274 6.01786C16.1737 6.01019 16.1271 6.00573 16.089 6.00319C16.0699 6.00192 16.0528 6.00112 16.038 6.00064C16.0305 6.0004 16.0237 6.00024 16.0173 6.00014C16.0142 6.00009 16.0111 6.00006 16.0082 6.00003C16.0068 6.00002 16.0054 6.00001 16.004 6.00001C16.0033 6.00001 16.0026 6 16.002 6C16.0016 6 16.0012 6 16.001 6C16.0005 6 16 6 16 7ZM16.2929 8.20711C16.4207 8.33494 16.4696 8.44593 16.4888 8.50373C16.499 8.53436 16.5019 8.55334 16.5022 8.55548C16.5024 8.55647 16.5018 8.55291 16.5012 8.54406C16.5009 8.53961 16.5006 8.5338 16.5004 8.5265C16.5003 8.52286 16.5002 8.51883 16.5001 8.51442C16.5001 8.51222 16.5 8.50991 16.5 8.50751C16.5 8.50631 16.5 8.50508 16.5 8.50383C16.5 8.5032 16.5 8.50257 16.5 8.50193C16.5 8.50162 16.5 8.50113 16.5 8.50097C16.5 8.50049 16.5 8.5 17.5 8.5C18.5 8.5 18.5 8.49951 18.5 8.49902C18.5 8.49885 18.5 8.49835 18.5 8.49802C18.5 8.49735 18.5 8.49667 18.5 8.49599C18.5 8.49461 18.5 8.49321 18.5 8.49176C18.4999 8.48887 18.4999 8.48585 18.4999 8.48268C18.4998 8.47635 18.4996 8.46945 18.4994 8.46202C18.4989 8.44716 18.4981 8.43011 18.4968 8.41102C18.4943 8.37287 18.4898 8.32634 18.4821 8.27264C18.4668 8.16541 18.4385 8.02814 18.3862 7.87127C18.2804 7.55407 18.0793 7.16506 17.7071 6.79289L16.2929 8.20711Z" fill="#FAF9F7"/>
</svg>
