<svg width="25" height="24" viewBox="0 0 25 24" fill="none" xmlns="http://www.w3.org/2000/svg">
<g clip-path="url(#clip0_6484_47610)">
<path d="M6.70492 1V0C6.35958 0 6.03868 0.178185 5.8561 0.47132C5.67353 0.764454 5.65512 1.13105 5.80741 1.44099L6.70492 1ZM18.2954 1L19.1929 1.44099C19.3452 1.13105 19.3268 0.764454 19.1442 0.47132C18.9616 0.178185 18.6407 0 18.2954 0V1ZM16.0966 5.475L15.1991 5.03401C15.1316 5.17124 15.0966 5.3221 15.0966 5.475H16.0966ZM16.0966 9.4865H15.0966V9.48669L16.0966 9.4865ZM16.7991 11.5308L16.0454 12.188L16.0501 12.1934L16.7991 11.5308ZM22.7931 18.3058L23.5469 17.6486L23.5421 17.6431L22.7931 18.3058ZM2.2072 18.3058L1.45822 17.6431L1.45345 17.6486L2.2072 18.3058ZM8.20123 11.5308L8.9502 12.1934L8.95488 12.188L8.20123 11.5308ZM8.90373 9.4865L9.90373 9.48669V9.4865H8.90373ZM8.90373 5.475H9.90373C9.90373 5.3221 9.86867 5.17124 9.80124 5.03401L8.90373 5.475ZM21.8537 18.763C22.2751 19.12 22.9061 19.0678 23.263 18.6463C23.62 18.2249 23.5678 17.5939 23.1463 17.237L21.8537 18.763ZM10.6944 18L10.6945 17L10.6944 18ZM6.22701 15.3134C5.84779 14.9119 5.21489 14.8938 4.81337 15.273C4.41186 15.6522 4.39378 16.2851 4.77299 16.6866L6.22701 15.3134ZM6.70492 2H18.2954V0H6.70492V2ZM17.3979 0.559006L15.1991 5.03401L16.9941 5.91599L19.1929 1.44099L17.3979 0.559006ZM15.0966 5.475V9.4865H17.0966V5.475H15.0966ZM15.0966 9.48669C15.0967 10.406 15.406 11.4549 16.0454 12.188L17.5527 10.8735C17.2927 10.5754 17.0967 10.0256 17.0966 9.48631L15.0966 9.48669ZM22.0393 18.9629C22.5211 19.5154 22.6136 20.2943 22.372 20.9627C22.1301 21.6319 21.639 22 21.0968 22V24C22.6908 24 23.8031 22.8872 24.2529 21.6424C24.7031 20.3968 24.5756 18.8286 23.5468 17.6486L22.0393 18.9629ZM21.0968 22H3.90231V24H21.0968V22ZM3.90231 22C3.36021 22 2.8694 21.6321 2.62778 20.9629C2.38646 20.2946 2.4791 19.5156 2.96095 18.9629L1.45345 17.6486C0.4248 18.8284 0.296859 20.3965 0.746655 21.6422C1.19615 22.887 2.30814 24 3.90231 24V22ZM8.95488 12.188C9.59425 11.4549 9.90356 10.406 9.90373 9.48669L7.90373 9.48631C7.90363 10.0256 7.70755 10.5754 7.44758 10.8735L8.95488 12.188ZM9.90373 9.4865V5.475H7.90373V9.4865H9.90373ZM9.80124 5.03401L7.60243 0.559006L5.80741 1.44099L8.00622 5.91599L9.80124 5.03401ZM23.5421 17.6431L17.548 10.8681L16.0501 12.1934L22.0441 18.9684L23.5421 17.6431ZM2.95615 18.9684L8.95018 12.1934L7.45227 10.8681L1.45824 17.6431L2.95615 18.9684ZM22.5 18C23.1463 17.237 23.1461 17.2368 23.1459 17.2366C23.1458 17.2365 23.1455 17.2363 23.1454 17.2361C23.145 17.2358 23.1446 17.2355 23.1441 17.2351C23.1433 17.2343 23.1422 17.2335 23.1411 17.2325C23.1387 17.2305 23.1358 17.2281 23.1323 17.2252C23.1252 17.2193 23.1159 17.2116 23.1043 17.2022C23.0811 17.1833 23.0489 17.1575 23.0081 17.1256C22.9266 17.062 22.8105 16.9743 22.6635 16.8705C22.3702 16.6635 21.9501 16.3899 21.4332 16.1162C20.4118 15.5755 18.9474 15 17.3056 15V17C18.497 17 19.6298 17.4245 20.4974 17.8838C20.9249 18.1101 21.2721 18.3365 21.5101 18.5045C21.6288 18.5882 21.7192 18.6567 21.7779 18.7025C21.8072 18.7254 21.8285 18.7425 21.8413 18.7529C21.8477 18.7581 21.8519 18.7616 21.854 18.7634C21.8551 18.7642 21.8556 18.7647 21.8555 18.7646C21.8555 18.7646 21.8553 18.7644 21.855 18.7642C21.8548 18.7641 21.8547 18.7639 21.8544 18.7637C21.8543 18.7636 21.8541 18.7634 21.8541 18.7634C21.8539 18.7632 21.8537 18.763 22.5 18ZM17.3056 15C15.3793 15 14.3624 15.6119 13.4823 16.1444C12.7097 16.6119 12.0738 17 10.6945 17L10.6944 19C12.6207 19 13.6376 18.3881 14.5177 17.8556C15.2903 17.3881 15.9262 17 17.3056 17V15ZM10.6945 17C9.24947 17 8.11901 16.5639 7.34936 16.1292C6.9641 15.9117 6.67197 15.6959 6.48074 15.5391C6.38534 15.4609 6.31576 15.398 6.27298 15.3577C6.25161 15.3376 6.23701 15.3232 6.22929 15.3155C6.22543 15.3117 6.2233 15.3095 6.22291 15.3091C6.22272 15.3089 6.22296 15.3091 6.22364 15.3098C6.22398 15.3102 6.22444 15.3107 6.225 15.3112C6.22528 15.3115 6.22558 15.3119 6.22592 15.3122C6.22609 15.3124 6.22636 15.3127 6.22644 15.3128C6.22672 15.3131 6.22701 15.3134 5.5 16C4.77299 16.6866 4.77329 16.6869 4.7736 16.6873C4.77371 16.6874 4.77403 16.6877 4.77425 16.688C4.7747 16.6884 4.77518 16.6889 4.7757 16.6895C4.77672 16.6906 4.77786 16.6918 4.77912 16.6931C4.78164 16.6957 4.78465 16.6988 4.78813 16.7024C4.79509 16.7096 4.80397 16.7186 4.81475 16.7294C4.83632 16.751 4.86552 16.7796 4.90226 16.8141C4.97569 16.8833 5.0795 16.9766 5.21284 17.0859C5.47907 17.3041 5.86576 17.5883 6.36592 17.8707C7.3671 18.4361 8.83387 19 10.6944 19L10.6945 17Z" fill="#FAF9F7"/>
</g>
<defs>
<clipPath id="clip0_6484_47610">
<rect width="24" height="24" fill="white" transform="translate(0.5)"/>
</clipPath>
</defs>
</svg>
