<svg width="25" height="24" viewBox="0 0 25 24" fill="none" xmlns="http://www.w3.org/2000/svg">
<g clip-path="url(#clip0_6484_47599)">
<path d="M10.5 1H14.5M10.5 4H14.5M12.5 12H16.5M18.5 18H10.5M8.5 10H12.5M0.5 12H4.5M6.5 12H10.5M10.5 14H12.5M20.5 20H22.5M22.5 15H24.5M14.5 10H16.5M19.5 11H24.5M16.5 16H20.5M10.5 23H18.5M11.5 1V8M13.5 15V22M23.5 19V24M19.5 10V16M1.5 1H7.5V7H1.5V1ZM1.5 17H7.5V23H1.5V17ZM17.5 1H23.5V7H17.5V1Z" stroke="#FAF9F7" stroke-width="2"/>
</g>
<defs>
<clipPath id="clip0_6484_47599">
<rect width="24" height="24" fill="white" transform="translate(0.5)"/>
</clipPath>
</defs>
</svg>
