<svg width="25" height="24" viewBox="0 0 25 24" fill="none" xmlns="http://www.w3.org/2000/svg">
<path d="M7.5 7C6.94772 7 6.5 7.44772 6.5 8C6.5 8.55228 6.94772 9 7.5 9V7ZM8.5 9C9.05228 9 9.5 8.55228 9.5 8C9.5 7.44772 9.05228 7 8.5 7V9ZM7.5 17C6.94772 17 6.5 17.4477 6.5 18C6.5 18.5523 6.94772 19 7.5 19V17ZM8.5 19C9.05228 19 9.5 18.5523 9.5 18C9.5 17.4477 9.05228 17 8.5 17V19ZM3.5 4H21.5V2H3.5V4ZM22.5 5V21H24.5V5H22.5ZM21.5 22H3.5V24H21.5V22ZM2.5 21V5H0.5V21H2.5ZM3.5 22C2.94772 22 2.5 21.5523 2.5 21H0.5C0.5 22.6569 1.84314 24 3.5 24V22ZM22.5 21C22.5 21.5523 22.0523 22 21.5 22V24C23.1569 24 24.5 22.6569 24.5 21H22.5ZM21.5 4C22.0523 4 22.5 4.44772 22.5 5H24.5C24.5 3.34315 23.1569 2 21.5 2V4ZM3.5 2C1.84315 2 0.5 3.34315 0.5 5H2.5C2.5 4.44772 2.94772 4 3.5 4V2ZM1.5 14H23.5V12H1.5V14ZM7.5 9H8.5V7H7.5V9ZM7.5 19H8.5V17H7.5V19Z" fill="#FAF9F7"/>
</svg>
