<svg width="25" height="24" viewBox="0 0 25 24" fill="none" xmlns="http://www.w3.org/2000/svg">
<path d="M3.50236 4L3.18606 3.05134C2.77803 3.18739 2.50271 3.5691 2.50236 3.99921L3.50236 4ZM21.4976 4L22.4976 3.99921C22.4973 3.5691 22.222 3.18738 21.8139 3.05134L21.4976 4ZM12.4999 23L12.0937 23.9138C12.3523 24.0287 12.6475 24.0287 12.906 23.9138L12.4999 23ZM12.4999 1L12.8162 0.0513405C12.6109 -0.0171143 12.3889 -0.0171134 12.1836 0.0513428L12.4999 1ZM10.2071 10.2426C9.81657 9.85208 9.18341 9.85208 8.79288 10.2426C8.40236 10.6331 8.40236 11.2663 8.79288 11.6568L10.2071 10.2426ZM11.6213 13.071L10.9142 13.7781L11.6213 14.4852L12.3284 13.7781L11.6213 13.071ZM16.5711 9.53549C16.9616 9.14497 16.9616 8.5118 16.5711 8.12128C16.1805 7.73076 15.5474 7.73076 15.1568 8.12128L16.5711 9.53549ZM20.5 13C20.5 15.503 18.5954 17.7422 16.386 19.4606C15.3128 20.2953 14.234 20.9552 13.4205 21.4071C13.015 21.6324 12.6783 21.8044 12.4451 21.9191C12.3286 21.9765 12.2381 22.0194 12.1781 22.0474C12.1481 22.0614 12.1257 22.0717 12.1114 22.0782C12.1043 22.0814 12.0992 22.0837 12.0963 22.0851C12.0948 22.0857 12.0938 22.0862 12.0934 22.0863C12.0932 22.0864 12.0931 22.0865 12.0932 22.0864C12.0932 22.0864 12.0933 22.0864 12.0934 22.0864C12.0935 22.0863 12.0938 22.0862 12.4999 23C12.906 23.9138 12.9063 23.9137 12.9066 23.9135C12.9068 23.9135 12.9071 23.9133 12.9074 23.9132C12.908 23.9129 12.9088 23.9126 12.9097 23.9122C12.9114 23.9114 12.9137 23.9104 12.9166 23.9091C12.9223 23.9065 12.9301 23.903 12.94 23.8985C12.9598 23.8895 12.9879 23.8766 13.0238 23.8598C13.0956 23.8263 13.1985 23.7774 13.3281 23.7137C13.5871 23.5862 13.9536 23.3988 14.3918 23.1554C15.2658 22.6698 16.437 21.9547 17.6139 21.0394C19.9045 19.2578 22.5 16.497 22.5 13H20.5ZM12.4999 23C12.906 22.0862 12.9062 22.0863 12.9064 22.0864C12.9064 22.0864 12.9066 22.0864 12.9066 22.0865C12.9067 22.0865 12.9066 22.0864 12.9064 22.0864C12.906 22.0862 12.905 22.0857 12.9035 22.0851C12.9006 22.0837 12.8955 22.0814 12.8884 22.0782C12.8741 22.0717 12.8517 22.0614 12.8217 22.0474C12.7617 22.0194 12.6712 21.9765 12.5547 21.9192C12.3215 21.8044 11.9849 21.6324 11.5793 21.4071C10.7659 20.9552 9.68702 20.2953 8.61389 19.4607C6.40452 17.7422 4.5 15.503 4.5 13L2.5 13C2.5 16.497 5.09544 19.2578 7.386 21.0393C8.56285 21.9547 9.73399 22.6698 10.608 23.1554C11.0462 23.3988 11.4126 23.5862 11.6717 23.7137C11.8012 23.7774 11.9041 23.8263 11.9759 23.8598C12.0118 23.8765 12.04 23.8895 12.0598 23.8985C12.0697 23.903 12.0775 23.9065 12.0832 23.9091C12.086 23.9104 12.0883 23.9114 12.0901 23.9122C12.091 23.9126 12.0917 23.9129 12.0923 23.9132C12.0926 23.9133 12.093 23.9135 12.0931 23.9135C12.0935 23.9137 12.0937 23.9138 12.4999 23ZM4.5 13C4.5 10.0001 4.50059 7.75026 4.50118 6.25039C4.50148 5.50046 4.50177 4.93803 4.50199 4.56309C4.5021 4.37563 4.5022 4.23503 4.50226 4.14132C4.50229 4.09446 4.50232 4.05932 4.50234 4.0359C4.50235 4.02419 4.50235 4.01541 4.50236 4.00956C4.50236 4.00663 4.50236 4.00444 4.50236 4.00298C4.50236 4.00225 4.50236 4.0017 4.50236 4.00133C4.50236 4.00115 4.50236 4.00102 4.50236 4.00093C4.50236 4.00088 4.50236 4.00085 4.50236 4.00082C4.50236 4.0008 4.50236 4.00079 3.50236 4C2.50236 3.99921 2.50236 3.99922 2.50236 3.99924C2.50236 3.99927 2.50236 3.9993 2.50236 3.99935C2.50236 3.99944 2.50236 3.99958 2.50236 3.99976C2.50236 4.00013 2.50236 4.00068 2.50236 4.00142C2.50236 4.00289 2.50236 4.00509 2.50236 4.00802C2.50235 4.01389 2.50235 4.02269 2.50234 4.03441C2.50232 4.05787 2.5023 4.09304 2.50226 4.13993C2.5022 4.23372 2.50211 4.37437 2.50199 4.56191C2.50177 4.93697 2.50148 5.49954 2.50118 6.24961C2.50059 7.74974 2.5 9.99987 2.5 13L4.5 13ZM21.4976 4C20.4976 4.00079 20.4976 4.0008 20.4976 4.00082C20.4976 4.00084 20.4976 4.00088 20.4976 4.00092C20.4976 4.00101 20.4976 4.00115 20.4976 4.00133C20.4976 4.0017 20.4976 4.00224 20.4976 4.00297C20.4976 4.00443 20.4976 4.00663 20.4976 4.00955C20.4976 4.0154 20.4976 4.02418 20.4977 4.03589C20.4977 4.05932 20.4977 4.09446 20.4977 4.14131C20.4978 4.23503 20.4979 4.37562 20.498 4.56309C20.4982 4.93803 20.4985 5.50046 20.4988 6.25039C20.4994 7.75026 20.5 10.0001 20.5 13H22.5C22.5 9.99987 22.4994 7.74974 22.4988 6.24961C22.4985 5.49954 22.4982 4.93697 22.498 4.56191C22.4979 4.37438 22.4978 4.23372 22.4977 4.13994C22.4977 4.09304 22.4977 4.05787 22.4977 4.03442C22.4976 4.02269 22.4976 4.01389 22.4976 4.00803C22.4976 4.00509 22.4976 4.00289 22.4976 4.00142C22.4976 4.00069 22.4976 4.00014 22.4976 3.99977C22.4976 3.99958 22.4976 3.99945 22.4976 3.99935C22.4976 3.99931 22.4976 3.99927 22.4976 3.99925C22.4976 3.99922 22.4976 3.99921 21.4976 4ZM3.81867 4.94866L12.8162 1.94866L12.1836 0.0513428L3.18606 3.05134L3.81867 4.94866ZM12.1836 1.94866L21.1813 4.94866L21.8139 3.05134L12.8162 0.0513405L12.1836 1.94866ZM8.79288 11.6568L10.9142 13.7781L12.3284 12.3639L10.2071 10.2426L8.79288 11.6568ZM12.3284 13.7781L16.5711 9.53549L15.1568 8.12128L10.9142 12.3639L12.3284 13.7781Z" fill="#FAF9F7"/>
</svg>
