<svg width="25" height="24" viewBox="0 0 25 24" fill="none" xmlns="http://www.w3.org/2000/svg">
<path d="M8.90378 13.606H3.89978L3.07178 16H0.425781L4.94378 3.41797H7.87778L12.3958 16H9.73178L8.90378 13.606ZM8.21978 11.59L6.40178 6.33397L4.58378 11.59H8.21978Z" fill="#FAF9F7"/>
<path d="M18.6905 5.86597C19.4345 5.86597 20.0885 6.01597 20.6525 6.31597C21.2165 6.60397 21.6605 6.98197 21.9845 7.44997V6.02797H24.5225V16.072C24.5225 16.996 24.3365 17.818 23.9645 18.538C23.5925 19.27 23.0345 19.846 22.2905 20.266C21.5465 20.698 20.6465 20.914 19.5905 20.914C18.1745 20.914 17.0105 20.584 16.0985 19.924C15.1985 19.264 14.6885 18.364 14.5685 17.224H17.0705C17.2025 17.68 17.4845 18.04 17.9165 18.304C18.3605 18.58 18.8945 18.718 19.5185 18.718C20.2505 18.718 20.8445 18.496 21.3005 18.052C21.7565 17.62 21.9845 16.96 21.9845 16.072V14.524C21.6605 14.992 21.2105 15.382 20.6345 15.694C20.0705 16.006 19.4225 16.162 18.6905 16.162C17.8505 16.162 17.0825 15.946 16.3865 15.514C15.6905 15.082 15.1385 14.476 14.7305 13.696C14.3345 12.904 14.1365 11.998 14.1365 10.978C14.1365 9.96997 14.3345 9.07597 14.7305 8.29597C15.1385 7.51597 15.6845 6.91597 16.3685 6.49597C17.0645 6.07597 17.8385 5.86597 18.6905 5.86597ZM21.9845 11.014C21.9845 10.402 21.8645 9.87997 21.6245 9.44797C21.3845 9.00397 21.0605 8.66797 20.6525 8.43997C20.2445 8.19997 19.8065 8.07997 19.3385 8.07997C18.8705 8.07997 18.4385 8.19397 18.0425 8.42197C17.6465 8.64997 17.3225 8.98597 17.0705 9.42997C16.8305 9.86197 16.7105 10.378 16.7105 10.978C16.7105 11.578 16.8305 12.106 17.0705 12.562C17.3225 13.006 17.6465 13.348 18.0425 13.588C18.4505 13.828 18.8825 13.948 19.3385 13.948C19.8065 13.948 20.2445 13.834 20.6525 13.606C21.0605 13.366 21.3845 13.03 21.6245 12.598C21.8645 12.154 21.9845 11.626 21.9845 11.014Z" fill="#FAF9F7"/>
</svg>
