<svg width="25" height="24" viewBox="0 0 25 24" fill="none" xmlns="http://www.w3.org/2000/svg">
<path d="M5.5 6V5H4.5V6H5.5ZM19.5 6H20.5V5H19.5V6ZM13.5 9.5C13.5 8.94772 13.0523 8.5 12.5 8.5C11.9477 8.5 11.5 8.94772 11.5 9.5H13.5ZM11.5 19.5C11.5 20.0523 11.9477 20.5 12.5 20.5C13.0523 20.5 13.5 20.0523 13.5 19.5H11.5ZM17 10.5C17 9.94771 16.5523 9.5 16 9.5C15.4477 9.5 15 9.94771 15 10.5H17ZM16 12.4444L16.6577 13.1978C16.8752 13.0079 17 12.7332 17 12.4444H16ZM11.8423 14.7467C11.4263 15.1099 11.3835 15.7416 11.7467 16.1577C12.1099 16.5737 12.7416 16.6165 13.1577 16.2533L11.8423 14.7467ZM10 12C10 11.4477 9.55228 11 9 11C8.44772 11 8 11.4477 8 12H10ZM9 15.0556H8C8 15.4187 8.19689 15.7533 8.51436 15.9297L9 15.0556ZM12.0144 17.8742C12.4971 18.1424 13.1059 17.9684 13.3742 17.4856C13.6424 17.0029 13.4684 16.3941 12.9856 16.1258L12.0144 17.8742ZM16.5 6V7H17.5V6H16.5ZM8.5 6H7.5V7H8.5V6ZM5.5 7H19.5V5H5.5V7ZM18.5 6V19H20.5V6H18.5ZM15.5 22H9.5V24H15.5V22ZM6.5 19V6H4.5V19H6.5ZM9.5 22C7.84315 22 6.5 20.6569 6.5 19H4.5C4.5 21.7614 6.73858 24 9.5 24V22ZM18.5 19C18.5 20.6569 17.1569 22 15.5 22V24C18.2614 24 20.5 21.7614 20.5 19H18.5ZM11.5 9.5V19.5H13.5V9.5H11.5ZM15 10.5V12.4444H17V10.5H15ZM15.3423 11.6911L11.8423 14.7467L13.1577 16.2533L16.6577 13.1978L15.3423 11.6911ZM8 12V15.0556H10V12H8ZM8.51436 15.9297L12.0144 17.8742L12.9856 16.1258L9.48564 14.1814L8.51436 15.9297ZM9 2H16V0H9V2ZM15.5 1.5V6H17.5V1.5H15.5ZM16.5 5H8.5V7H16.5V5ZM9.5 6V1.5H7.5V6H9.5ZM16 2C15.7239 2 15.5 1.77614 15.5 1.5H17.5C17.5 0.671573 16.8284 0 16 0V2ZM9 0C8.17157 0 7.5 0.671573 7.5 1.5H9.5C9.5 1.77614 9.27614 2 9 2V0Z" fill="#FAF9F7"/>
</svg>
