<svg width="25" height="24" viewBox="0 0 25 24" fill="none" xmlns="http://www.w3.org/2000/svg">
<path d="M12.5 9V12.5L14.5 14M8.5 19H16.5C18.1569 19 19.5 17.6569 19.5 16V8C19.5 6.34315 18.1569 5 16.5 5H8.5C6.84315 5 5.5 6.34315 5.5 8V16C5.5 17.6569 6.84315 19 8.5 19ZM18 5L17.4052 2.83711C17.1068 1.75198 16.1201 1 14.9947 1H10.0053C8.87989 1 7.89321 1.75198 7.59479 2.83711L7 5H18ZM7 19H18L17.4052 21.1629C17.1068 22.248 16.1201 23 14.9947 23H10.0053C8.87989 23 7.89321 22.248 7.5948 21.1629L7 19Z" stroke="#FAF9F7" stroke-width="2" stroke-linecap="round" stroke-linejoin="round"/>
</svg>
