<svg width="29" height="27" viewBox="0 0 29 27" fill="none" xmlns="http://www.w3.org/2000/svg">
<path d="M1.625 10.7721C3.29645 9.10063 5.28076 7.77476 7.46462 6.87017C9.64848 5.96558 11.9891 5.5 14.3529 5.5C16.7167 5.5 19.0574 5.96558 21.2412 6.87017C23.4251 7.77475 25.4094 9.10062 27.0808 10.7721M5.60205 14.7496C6.75118 13.6004 8.11539 12.6889 9.61679 12.067C11.1182 11.4451 12.7274 11.125 14.3525 11.125C15.9776 11.125 17.5868 11.4451 19.0882 12.067C20.5896 12.6889 21.9538 13.6004 23.1029 14.7496M9.5802 18.727C10.207 18.1002 10.9511 17.603 11.7701 17.2638C12.589 16.9246 13.4667 16.75 14.3532 16.75C15.2396 16.75 16.1173 16.9246 16.9363 17.2638C17.7552 17.603 18.4993 18.1002 19.1261 18.727" stroke="#FAF9F7" stroke-width="2" stroke-linecap="round"/>
</svg>
