<svg width="25" height="24" viewBox="0 0 25 24" fill="none" xmlns="http://www.w3.org/2000/svg">
<path d="M4.80763 8.99553C4.40913 9.37792 4.39607 10.011 4.77846 10.4094C5.16085 10.8079 5.79388 10.821 6.19237 10.4386L4.80763 8.99553ZM12.5 3L13.1924 2.27846C12.8055 1.90718 12.1945 1.90718 11.8076 2.27846L12.5 3ZM18.8076 10.4386C19.2061 10.821 19.8392 10.8079 20.2215 10.4094C20.6039 10.011 20.5909 9.37792 20.1924 8.99553L18.8076 10.4386ZM13.5317 4.26688C13.5317 3.71459 13.084 3.26688 12.5317 3.26688C11.9795 3.26688 11.5317 3.71459 11.5317 4.26688H13.5317ZM11.5317 19.9999C11.5317 20.5522 11.9795 20.9999 12.5317 20.9999C13.084 20.9999 13.5317 20.5522 13.5317 19.9999H11.5317ZM6.19237 10.4386L13.1924 3.72154L11.8076 2.27846L4.80763 8.99553L6.19237 10.4386ZM11.8076 3.72154L18.8076 10.4386L20.1924 8.99553L13.1924 2.27846L11.8076 3.72154ZM11.5317 4.26688V19.9999H13.5317V4.26688H11.5317Z" fill="#FAF9F7"/>
</svg>
