<svg width="25" height="24" viewBox="0 0 25 24" fill="none" xmlns="http://www.w3.org/2000/svg">
<path d="M9.18475 4.43771C8.63258 4.42632 8.17573 4.86471 8.16434 5.41688C8.15295 5.96905 8.59133 6.4259 9.1435 6.43729L9.18475 4.43771ZM18.8636 5.63756L19.8633 5.61694C19.8523 5.08081 19.4203 4.64883 18.8842 4.63777L18.8636 5.63756ZM18.0638 15.3576C18.0752 15.9098 18.5321 16.3482 19.0842 16.3368C19.6364 16.3254 20.0748 15.8685 20.0634 15.3164L18.0638 15.3576ZM18.6973 7.2629C19.0878 6.87238 19.0878 6.23921 18.6973 5.84869C18.3068 5.45817 17.6736 5.45817 17.2831 5.84869L18.6973 7.2629ZM6.15813 16.9736C5.7676 17.3642 5.7676 17.9973 6.15813 18.3879C6.54865 18.7784 7.18182 18.7784 7.57234 18.3879L6.15813 16.9736ZM9.1435 6.43729L18.8429 6.63735L18.8842 4.63777L9.18475 4.43771L9.1435 6.43729ZM17.8638 5.65818L18.0638 15.3576L20.0634 15.3164L19.8633 5.61694L17.8638 5.65818ZM17.2831 5.84869L6.15813 16.9736L7.57234 18.3879L18.6973 7.2629L17.2831 5.84869Z" fill="#FAF9F7"/>
</svg>
