<svg width="25" height="24" viewBox="0 0 25 24" fill="none" xmlns="http://www.w3.org/2000/svg">
<path d="M6.19237 13.5613C5.79388 13.1789 5.16085 13.192 4.77846 13.5905C4.39607 13.989 4.40913 14.622 4.80763 15.0044L6.19237 13.5613ZM12.5 20.9999L11.8076 21.7215C12.1945 22.0928 12.8055 22.0928 13.1924 21.7215L12.5 20.9999ZM20.1924 15.0044C20.5909 14.622 20.6039 13.989 20.2215 13.5905C19.8391 13.192 19.2061 13.1789 18.8076 13.5613L20.1924 15.0044ZM11.5317 19.7331C11.5317 20.2853 11.9795 20.7331 12.5317 20.7331C13.084 20.7331 13.5317 20.2853 13.5317 19.7331H11.5317ZM13.5317 4C13.5317 3.44772 13.084 3 12.5317 3C11.9795 3 11.5317 3.44772 11.5317 4H13.5317ZM4.80763 15.0044L11.8076 21.7215L13.1924 20.2784L6.19237 13.5613L4.80763 15.0044ZM13.1924 21.7215L20.1924 15.0044L18.8076 13.5613L11.8076 20.2784L13.1924 21.7215ZM13.5317 19.7331V4H11.5317V19.7331H13.5317Z" fill="#FAF9F7"/>
</svg>
