<svg width="25" height="24" viewBox="0 0 25 24" fill="none" xmlns="http://www.w3.org/2000/svg">
<path d="M20.0638 8.6867C20.0752 8.13453 19.6368 7.67768 19.0847 7.66629C18.5325 7.6549 18.0757 8.09329 18.0643 8.64546L20.0638 8.6867ZM18.864 18.3655L18.8846 19.3653C19.4207 19.3542 19.8527 18.9223 19.8638 18.3861L18.864 18.3655ZM9.14394 17.5658C8.59177 17.5772 8.15338 18.034 8.16477 18.5862C8.17616 19.1384 8.63301 19.5767 9.18518 19.5654L9.14394 17.5658ZM17.2387 18.1993C17.6292 18.5898 18.2623 18.5898 18.6529 18.1993C19.0434 17.8087 19.0434 17.1756 18.6529 16.785L17.2387 18.1993ZM7.52791 5.66008C7.13738 5.26956 6.50422 5.26956 6.11369 5.66008C5.72317 6.0506 5.72317 6.68377 6.11369 7.07429L7.52791 5.66008ZM18.0643 8.64546L17.8642 18.3449L19.8638 18.3861L20.0638 8.6867L18.0643 8.64546ZM18.8434 17.3657L9.14394 17.5658L9.18518 19.5654L18.8846 19.3653L18.8434 17.3657ZM18.6529 16.785L7.52791 5.66008L6.11369 7.07429L17.2387 18.1993L18.6529 16.785Z" fill="#FAF9F7"/>
</svg>
