<svg width="25" height="24" viewBox="0 0 25 24" fill="none" xmlns="http://www.w3.org/2000/svg">
<path d="M18 20.353C16.4221 21.394 14.5318 22 12.5 22C6.97715 22 2.5 17.5228 2.5 12C2.5 6.47715 6.97715 2 12.5 2C18.0228 2 22.5 6.47715 22.5 12C22.5 13.6569 21.1569 15 19.5 15C17.8431 15 16.5 13.6569 16.5 12M16.5 8V13M16.5 12C16.5 14.2091 14.7091 16 12.5 16C10.2909 16 8.5 14.2091 8.5 12C8.5 9.79086 10.2909 8 12.5 8C14.7091 8 16.5 9.79086 16.5 12Z" stroke="#FAF9F7" stroke-width="2" stroke-linecap="round" stroke-linejoin="round"/>
</svg>
