<svg width="25" height="24" viewBox="0 0 25 24" fill="none" xmlns="http://www.w3.org/2000/svg">
<path d="M10.9386 5.69237C11.321 5.29388 11.3079 4.66085 10.9094 4.27846C10.511 3.89607 9.87792 3.90913 9.49553 4.30763L10.9386 5.69237ZM3.5 12L2.77846 11.3076C2.40718 11.6945 2.40718 12.3055 2.77846 12.6924L3.5 12ZM9.49553 19.6924C9.87792 20.0909 10.511 20.1039 10.9094 19.7215C11.3079 19.3392 11.321 18.7061 10.9386 18.3076L9.49553 19.6924ZM4.76688 11.0317C4.21459 11.0317 3.76688 11.4795 3.76688 12.0317C3.76688 12.584 4.21459 13.0317 4.76688 13.0317V11.0317ZM20.4999 13.0317C21.0522 13.0317 21.4999 12.584 21.4999 12.0317C21.4999 11.4795 21.0522 11.0317 20.4999 11.0317V13.0317ZM9.49553 4.30763L2.77846 11.3076L4.22154 12.6924L10.9386 5.69237L9.49553 4.30763ZM2.77846 12.6924L9.49553 19.6924L10.9386 18.3076L4.22154 11.3076L2.77846 12.6924ZM4.76688 13.0317H20.4999V11.0317H4.76688V13.0317Z" fill="#FAF9F7"/>
</svg>
