<svg width="25" height="24" viewBox="0 0 25 24" fill="none" xmlns="http://www.w3.org/2000/svg">
<path d="M10.5 5H22.5M10.5 12H22.5M10.5 19H22.5M5.5 12C5.5 13.1046 4.60457 14 3.5 14C2.39543 14 1.5 13.1046 1.5 12C1.5 10.8954 2.39543 10 3.5 10C4.60457 10 5.5 10.8954 5.5 12ZM5.5 5C5.5 6.10457 4.60457 7 3.5 7C2.39543 7 1.5 6.10457 1.5 5C1.5 3.89543 2.39543 3 3.5 3C4.60457 3 5.5 3.89543 5.5 5ZM5.5 19C5.5 20.1046 4.60457 21 3.5 21C2.39543 21 1.5 20.1046 1.5 19C1.5 17.8954 2.39543 17 3.5 17C4.60457 17 5.5 17.8954 5.5 19Z" stroke="#FAF9F7" stroke-width="2" stroke-linecap="round" stroke-linejoin="round"/>
</svg>
