<svg width="25" height="24" viewBox="0 0 25 24" fill="none" xmlns="http://www.w3.org/2000/svg">
<path d="M15.4821 4.47818L14.6165 4.97891C14.7952 5.2879 15.1251 5.47818 15.4821 5.47818V4.47818ZM2.05132 12.3162C2.22596 12.8402 2.79228 13.1233 3.31623 12.9487C3.84017 12.774 4.12333 12.2077 3.94868 11.6838L2.05132 12.3162ZM20.6056 11.5528C20.3586 12.0468 20.5588 12.6474 21.0528 12.8944C21.5468 13.1414 22.1474 12.9412 22.3944 12.4472L20.6056 11.5528ZM8.60903 17.61C8.21054 17.2277 7.57751 17.2407 7.19512 17.6392C6.81273 18.0377 6.82579 18.6707 7.22428 19.0531L8.60903 17.61ZM12 22.2499L11.3076 22.9714C11.6945 23.3427 12.3054 23.3427 12.6924 22.9714L12 22.2499ZM16.7757 19.0531C17.1742 18.6707 17.1872 18.0377 16.8049 17.6392C16.4225 17.2407 15.7894 17.2277 15.3909 17.61L16.7757 19.0531ZM11 21.2193C11 21.7716 11.4477 22.2193 12 22.2193C12.5523 22.2193 13 21.7716 13 21.2193H11ZM13 10.125C13 9.57271 12.5523 9.125 12 9.125C11.4477 9.125 11 9.57271 11 10.125H13ZM9.45636 2C11.6598 2 13.5851 3.19594 14.6165 4.97891L16.3477 3.97746C14.9735 1.6019 12.4026 0 9.45636 0V2ZM3.5 7.95636C3.5 4.99673 6.1999 2 9.45636 2V0C5.02904 0 1.5 3.95964 1.5 7.95636H3.5ZM3.94868 11.6838C3.50632 10.3567 3.5 9.00917 3.5 7.95636H1.5C1.5 8.99083 1.49368 10.6433 2.05132 12.3162L3.94868 11.6838ZM21 9C21 10.0252 20.9854 10.7931 20.6056 11.5528L22.3944 12.4472C23.0146 11.2069 23 9.97482 23 9H21ZM16.4127 5.47818C17.6287 5.47818 18.8073 5.90795 19.6675 6.58664C20.5288 7.26624 21 8.13034 21 9H23C23 7.36966 22.1183 5.97285 20.9063 5.01654C19.6932 4.05932 18.0781 3.47818 16.4127 3.47818V5.47818ZM15.4821 5.47818H16.4127V3.47818H15.4821V5.47818ZM7.22428 19.0531L11.3076 22.9714L12.6924 21.5283L8.60903 17.61L7.22428 19.0531ZM12.6924 22.9714L16.7757 19.0531L15.3909 17.61L11.3076 21.5283L12.6924 22.9714ZM13 21.2193V10.125H11V21.2193H13Z" fill="#FAF9F7"/>
</svg>
