<svg width="25" height="25" viewBox="0 0 25 25" fill="none" xmlns="http://www.w3.org/2000/svg">
<path d="M21.5 12.999C21.5 12.4467 21.0523 11.999 20.5 11.999C19.9477 11.999 19.5 12.4467 19.5 12.999H21.5ZM4.5 12.999C4.5 12.4467 4.05228 11.999 3.5 11.999C2.94772 11.999 2.5 12.4467 2.5 12.999H4.5ZM16.6799 7.25857C17.0691 7.6504 17.7023 7.65251 18.0941 7.26329C18.4859 6.87407 18.488 6.24091 18.0988 5.84908L16.6799 7.25857ZM12.2294 1.35938L12.9389 0.654631C12.7512 0.46565 12.4958 0.359375 12.2294 0.359375C11.963 0.359375 11.7077 0.46565 11.52 0.654631L12.2294 1.35938ZM6.36004 5.84908C5.97082 6.24091 5.97293 6.87407 6.36475 7.26329C6.75658 7.65251 7.38974 7.6504 7.77896 7.25857L6.36004 5.84908ZM13.2286 2.25896C13.2286 1.70668 12.7809 1.25896 12.2286 1.25896C11.6764 1.25896 11.2286 1.70668 11.2286 2.25896H13.2286ZM11.2286 13.259C11.2286 13.8112 11.6764 14.259 12.2286 14.259C12.7809 14.259 13.2286 13.8112 13.2286 13.259H11.2286ZM19.5 12.999V17.999H21.5V12.999H19.5ZM15.5 21.999H8.5V23.999H15.5V21.999ZM4.5 17.999V12.999H2.5V17.999H4.5ZM8.5 21.999C6.29086 21.999 4.5 20.2082 4.5 17.999H2.5C2.5 21.3127 5.18629 23.999 8.5 23.999V21.999ZM19.5 17.999C19.5 20.2082 17.7091 21.999 15.5 21.999V23.999C18.8137 23.999 21.5 21.3127 21.5 17.999H19.5ZM18.0988 5.84908L12.9389 0.654631L11.52 2.06412L16.6799 7.25857L18.0988 5.84908ZM11.52 0.654631L6.36004 5.84908L7.77896 7.25857L12.9389 2.06412L11.52 0.654631ZM11.2286 2.25896V13.259H13.2286V2.25896H11.2286Z" fill="#FAF9F7"/>
</svg>
