<svg width="25" height="24" viewBox="0 0 25 24" fill="none" xmlns="http://www.w3.org/2000/svg">
<path d="M15.5044 4.30763C15.122 3.90913 14.489 3.89607 14.0905 4.27846C13.692 4.66085 13.6789 5.29388 14.0613 5.69237L15.5044 4.30763ZM21.4999 12L22.2215 12.6924C22.5928 12.3055 22.5928 11.6945 22.2215 11.3076L21.4999 12ZM14.0613 18.3076C13.6789 18.7061 13.692 19.3391 14.0905 19.7215C14.489 20.1039 15.122 20.0909 15.5044 19.6924L14.0613 18.3076ZM20.2331 13.0317C20.7853 13.0317 21.2331 12.584 21.2331 12.0317C21.2331 11.4795 20.7853 11.0317 20.2331 11.0317V13.0317ZM4.5 11.0317C3.94772 11.0317 3.5 11.4795 3.5 12.0317C3.5 12.584 3.94772 13.0317 4.5 13.0317V11.0317ZM14.0613 5.69237L20.7784 12.6924L22.2215 11.3076L15.5044 4.30763L14.0613 5.69237ZM20.7784 11.3076L14.0613 18.3076L15.5044 19.6924L22.2215 12.6924L20.7784 11.3076ZM20.2331 11.0317H4.5V13.0317H20.2331V11.0317Z" fill="#FAF9F7"/>
</svg>
