<svg width="25" height="24" viewBox="0 0 25 24" fill="none" xmlns="http://www.w3.org/2000/svg">
<path d="M14.5877 2.64453C14.0354 2.64453 13.5877 3.09225 13.5877 3.64453C13.5877 4.19682 14.0354 4.64453 14.5877 4.64453V2.64453ZM20.8621 3.64453L21.8621 3.64453C21.8621 3.37931 21.7567 3.12496 21.5692 2.93742C21.3817 2.74989 21.1273 2.64453 20.8621 2.64453V3.64453ZM19.8621 9.93537C19.8621 10.4877 20.3098 10.9354 20.8621 10.9354C21.4144 10.9354 21.8621 10.4877 21.8621 9.93537L19.8621 9.93537ZM21.2074 4.70596C21.5979 4.31543 21.5979 3.68227 21.2074 3.29174C20.8168 2.90122 20.1837 2.90122 19.7932 3.29174L21.2074 4.70596ZM13.7932 9.29174C13.4026 9.68227 13.4026 10.3154 13.7932 10.706C14.1837 11.0965 14.8168 11.0965 15.2074 10.706L13.7932 9.29174ZM10.4121 21.3534C10.9644 21.3534 11.4121 20.9057 11.4121 20.3534C11.4121 19.8011 10.9644 19.3534 10.4121 19.3534V21.3534ZM4.1377 20.3534H3.1377C3.1377 20.6186 3.24305 20.873 3.43059 21.0605C3.61812 21.2481 3.87248 21.3534 4.1377 21.3534V20.3534ZM5.1377 14.0626C5.1377 13.5103 4.68998 13.0626 4.1377 13.0626C3.58541 13.0626 3.1377 13.5103 3.1377 14.0626H5.1377ZM11.2077 14.7127C11.5983 14.3222 11.5983 13.689 11.2077 13.2985C10.8172 12.9079 10.184 12.9079 9.79352 13.2985L11.2077 14.7127ZM3.79352 19.2985C3.403 19.689 3.403 20.3222 3.79352 20.7127C4.18405 21.1032 4.81721 21.1032 5.20774 20.7127L3.79352 19.2985ZM14.5877 4.64453L20.8621 4.64453V2.64453L14.5877 2.64453V4.64453ZM19.8621 3.64453L19.8621 9.93537L21.8621 9.93537L21.8621 3.64453L19.8621 3.64453ZM19.7932 3.29174L13.7932 9.29174L15.2074 10.706L21.2074 4.70596L19.7932 3.29174ZM10.4121 19.3534H4.1377V21.3534H10.4121V19.3534ZM5.1377 20.3534L5.1377 14.0626H3.1377L3.1377 20.3534H5.1377ZM9.79352 13.2985L3.79352 19.2985L5.20774 20.7127L11.2077 14.7127L9.79352 13.2985Z" fill="#FAF9F7"/>
</svg>
