<svg width="25" height="24" viewBox="0 0 25 24" fill="none" xmlns="http://www.w3.org/2000/svg">
<path d="M15.7139 2.64856C15.1616 2.64856 14.7139 3.09628 14.7139 3.64856C14.7139 4.20084 15.1616 4.64856 15.7139 4.64856V2.64856ZM20.9883 3.64856H21.9883C21.9883 3.38334 21.883 3.12899 21.6954 2.94145C21.5079 2.75392 21.2536 2.64856 20.9883 2.64856V3.64856ZM19.9883 8.9394C19.9883 9.49168 20.4361 9.9394 20.9883 9.9394C21.5406 9.9394 21.9883 9.49168 21.9883 8.9394H19.9883ZM20.7189 5.21875C21.1094 4.82821 21.1094 4.19505 20.7188 3.80454C20.3283 3.41403 19.6951 3.41405 19.3046 3.80459L20.7189 5.21875ZM14.293 8.81655C13.9025 9.20709 13.9025 9.84026 14.2931 10.2308C14.6836 10.6213 15.3168 10.6213 15.7073 10.2307L14.293 8.81655ZM21.8705 14.7139C21.8706 14.1617 21.4229 13.7139 20.8706 13.7139C20.3183 13.7138 19.8706 14.1615 19.8705 14.7138L21.8705 14.7139ZM20.87 19.9883L20.8699 20.9883C21.1351 20.9883 21.3895 20.883 21.577 20.6955C21.7646 20.5079 21.87 20.2536 21.87 19.9884L20.87 19.9883ZM15.5793 18.9878C15.027 18.9877 14.5792 19.4354 14.5792 19.9877C14.5791 20.54 15.0268 20.9877 15.5791 20.9878L15.5793 18.9878ZM19.3375 19.7545C19.7478 20.1242 20.3801 20.0914 20.7498 19.6811C21.1196 19.2708 21.0867 18.6385 20.6764 18.2688L19.3375 19.7545ZM15.6696 13.7568C15.2593 13.3871 14.627 13.42 14.2573 13.8302C13.8876 14.2405 13.9204 14.8728 14.3307 15.2425L15.6696 13.7568ZM9.41178 21.0112C9.96406 21.0112 10.4118 20.5634 10.4118 20.0112C10.4118 19.4589 9.96406 19.0112 9.41178 19.0112V21.0112ZM4.13734 20.0112H3.13734C3.13734 20.2764 3.2427 20.5307 3.43024 20.7183C3.61777 20.9058 3.87213 21.0112 4.13734 21.0112V20.0112ZM5.13735 14.7203C5.13735 14.168 4.68963 13.7203 4.13735 13.7203C3.58506 13.7203 3.13735 14.168 3.13735 14.7203H5.13735ZM4.44565 18.1683C4.03577 18.5385 4.00357 19.1708 4.37372 19.5807C4.74388 19.9906 5.37622 20.0228 5.78611 19.6526L4.44565 18.1683ZM10.6704 15.2418C11.0803 14.8716 11.1125 14.2393 10.7423 13.8294C10.3722 13.4195 9.73981 13.3873 9.32993 13.7574L10.6704 15.2418ZM3.12891 8.91497C3.12885 9.46725 3.57653 9.91501 4.12881 9.91506C4.6811 9.91511 5.12885 9.46744 5.12891 8.91515L3.12891 8.91497ZM4.1294 3.64062L4.12949 2.64062C3.86428 2.6406 3.60991 2.74593 3.42236 2.93345C3.23481 3.12097 3.12943 3.37531 3.1294 3.64053L4.1294 3.64062ZM9.42014 4.64112C9.97243 4.64117 10.4202 4.1935 10.4202 3.64122C10.4203 3.08893 9.97262 2.64117 9.42033 2.64112L9.42014 4.64112ZM5.93708 3.91212C5.54655 3.52161 4.91339 3.52162 4.52287 3.91216C4.13236 4.30269 4.13237 4.93586 4.52291 5.32637L5.93708 3.91212ZM9.40328 10.2065C9.79381 10.597 10.427 10.597 10.8175 10.2065C11.208 9.81593 11.208 9.18276 10.8175 8.79225L9.40328 10.2065ZM15.7139 4.64856L20.9883 4.64856V2.64856L15.7139 2.64856V4.64856ZM19.9883 3.64856V8.9394H21.9883V3.64856H19.9883ZM19.3046 3.80459L14.293 8.81655L15.7073 10.2307L20.7189 5.21875L19.3046 3.80459ZM19.8705 14.7138L19.87 19.9882L21.87 19.9884L21.8705 14.7139L19.8705 14.7138ZM20.8701 18.9883L15.5793 18.9878L15.5791 20.9878L20.8699 20.9883L20.8701 18.9883ZM20.6764 18.2688L15.6696 13.7568L14.3307 15.2425L19.3375 19.7545L20.6764 18.2688ZM9.41178 19.0112H4.13734V21.0112H9.41178V19.0112ZM5.13734 20.0112L5.13735 14.7203H3.13735L3.13734 20.0112H5.13734ZM5.78611 19.6526L10.6704 15.2418L9.32993 13.7574L4.44565 18.1683L5.78611 19.6526ZM5.12891 8.91515L5.1294 3.64072L3.1294 3.64053L3.12891 8.91497L5.12891 8.91515ZM4.12931 4.64062L9.42014 4.64112L9.42033 2.64112L4.12949 2.64062L4.12931 4.64062ZM4.52291 5.32637L9.40328 10.2065L10.8175 8.79225L5.93708 3.91212L4.52291 5.32637Z" fill="#FAF9F7"/>
</svg>
