<svg width="25" height="24" viewBox="0 0 25 24" fill="none" xmlns="http://www.w3.org/2000/svg">
<path d="M2.5 4C2.5 2.89543 3.39543 2 4.5 2C5.60457 2 6.5 2.89543 6.5 4C6.5 5.10457 5.60457 6 4.5 6C3.39543 6 2.5 5.10457 2.5 4Z" stroke="#FAF9F7" stroke-width="2"/>
<path d="M10.5 4C10.5 2.89543 11.3954 2 12.5 2C13.6046 2 14.5 2.89543 14.5 4C14.5 5.10457 13.6046 6 12.5 6C11.3954 6 10.5 5.10457 10.5 4Z" stroke="#FAF9F7" stroke-width="2"/>
<path d="M18.5 4C18.5 2.89543 19.3954 2 20.5 2C21.6046 2 22.5 2.89543 22.5 4C22.5 5.10457 21.6046 6 20.5 6C19.3954 6 18.5 5.10457 18.5 4Z" stroke="#FAF9F7" stroke-width="2"/>
<path d="M2.5 12C2.5 10.8954 3.39543 10 4.5 10C5.60457 10 6.5 10.8954 6.5 12C6.5 13.1046 5.60457 14 4.5 14C3.39543 14 2.5 13.1046 2.5 12Z" stroke="#FAF9F7" stroke-width="2"/>
<path d="M10.5 12C10.5 10.8954 11.3954 10 12.5 10C13.6046 10 14.5 10.8954 14.5 12C14.5 13.1046 13.6046 14 12.5 14C11.3954 14 10.5 13.1046 10.5 12Z" stroke="#FAF9F7" stroke-width="2"/>
<path d="M18.5 12C18.5 10.8954 19.3954 10 20.5 10C21.6046 10 22.5 10.8954 22.5 12C22.5 13.1046 21.6046 14 20.5 14C19.3954 14 18.5 13.1046 18.5 12Z" stroke="#FAF9F7" stroke-width="2"/>
<path d="M2.5 20C2.5 18.8954 3.39543 18 4.5 18C5.60457 18 6.5 18.8954 6.5 20C6.5 21.1046 5.60457 22 4.5 22C3.39543 22 2.5 21.1046 2.5 20Z" stroke="#FAF9F7" stroke-width="2"/>
<path d="M10.5 20C10.5 18.8954 11.3954 18 12.5 18C13.6046 18 14.5 18.8954 14.5 20C14.5 21.1046 13.6046 22 12.5 22C11.3954 22 10.5 21.1046 10.5 20Z" stroke="#FAF9F7" stroke-width="2"/>
<path d="M18.5 20C18.5 18.8954 19.3954 18 20.5 18C21.6046 18 22.5 18.8954 22.5 20C22.5 21.1046 21.6046 22 20.5 22C19.3954 22 18.5 21.1046 18.5 20Z" stroke="#FAF9F7" stroke-width="2"/>
</svg>
