<svg width="25" height="24" viewBox="0 0 25 24" fill="none" xmlns="http://www.w3.org/2000/svg">
<path d="M2.5 2.25C2.5 2.11193 2.61193 2 2.75 2H6.25C6.38807 2 6.5 2.11193 6.5 2.25V5.75C6.5 5.88807 6.38807 6 6.25 6H2.75C2.61193 6 2.5 5.88807 2.5 5.75V2.25Z" stroke="#FAF9F7" stroke-width="2"/>
<path d="M10.5 2.25C10.5 2.11193 10.6119 2 10.75 2H14.25C14.3881 2 14.5 2.11193 14.5 2.25V5.75C14.5 5.88807 14.3881 6 14.25 6H10.75C10.6119 6 10.5 5.88807 10.5 5.75V2.25Z" stroke="#FAF9F7" stroke-width="2"/>
<path d="M18.5 2.25C18.5 2.11193 18.6119 2 18.75 2H22.25C22.3881 2 22.5 2.11193 22.5 2.25V5.75C22.5 5.88807 22.3881 6 22.25 6H18.75C18.6119 6 18.5 5.88807 18.5 5.75V2.25Z" stroke="#FAF9F7" stroke-width="2"/>
<path d="M2.5 10.25C2.5 10.1119 2.61193 10 2.75 10H6.25C6.38807 10 6.5 10.1119 6.5 10.25V13.75C6.5 13.8881 6.38807 14 6.25 14H2.75C2.61193 14 2.5 13.8881 2.5 13.75V10.25Z" stroke="#FAF9F7" stroke-width="2"/>
<path d="M10.5 10.25C10.5 10.1119 10.6119 10 10.75 10H14.25C14.3881 10 14.5 10.1119 14.5 10.25V13.75C14.5 13.8881 14.3881 14 14.25 14H10.75C10.6119 14 10.5 13.8881 10.5 13.75V10.25Z" stroke="#FAF9F7" stroke-width="2"/>
<path d="M18.5 10.25C18.5 10.1119 18.6119 10 18.75 10H22.25C22.3881 10 22.5 10.1119 22.5 10.25V13.75C22.5 13.8881 22.3881 14 22.25 14H18.75C18.6119 14 18.5 13.8881 18.5 13.75V10.25Z" stroke="#FAF9F7" stroke-width="2"/>
<path d="M2.5 18.25C2.5 18.1119 2.61193 18 2.75 18H6.25C6.38807 18 6.5 18.1119 6.5 18.25V21.75C6.5 21.8881 6.38807 22 6.25 22H2.75C2.61193 22 2.5 21.8881 2.5 21.75V18.25Z" stroke="#FAF9F7" stroke-width="2"/>
<path d="M10.5 18.25C10.5 18.1119 10.6119 18 10.75 18H14.25C14.3881 18 14.5 18.1119 14.5 18.25V21.75C14.5 21.8881 14.3881 22 14.25 22H10.75C10.6119 22 10.5 21.8881 10.5 21.75V18.25Z" stroke="#FAF9F7" stroke-width="2"/>
<path d="M18.5 18.25C18.5 18.1119 18.6119 18 18.75 18H22.25C22.3881 18 22.5 18.1119 22.5 18.25V21.75C22.5 21.8881 22.3881 22 22.25 22H18.75C18.6119 22 18.5 21.8881 18.5 21.75V18.25Z" stroke="#FAF9F7" stroke-width="2"/>
</svg>
