<svg width="25" height="24" viewBox="0 0 25 24" fill="none" xmlns="http://www.w3.org/2000/svg">
<path d="M1.5 2C1.5 1.44772 1.94772 1 2.5 1H8.5C9.05228 1 9.5 1.44772 9.5 2V8C9.5 8.55228 9.05228 9 8.5 9H2.5C1.94772 9 1.5 8.55228 1.5 8V2Z" stroke="#FAF9F7" stroke-width="2"/>
<path d="M15.5 2C15.5 1.44772 15.9477 1 16.5 1H22.5C23.0523 1 23.5 1.44772 23.5 2V8C23.5 8.55228 23.0523 9 22.5 9H16.5C15.9477 9 15.5 8.55228 15.5 8V2Z" stroke="#FAF9F7" stroke-width="2"/>
<path d="M1.5 16C1.5 15.4477 1.94772 15 2.5 15H8.5C9.05228 15 9.5 15.4477 9.5 16V22C9.5 22.5523 9.05228 23 8.5 23H2.5C1.94772 23 1.5 22.5523 1.5 22V16Z" stroke="#FAF9F7" stroke-width="2"/>
<path d="M15.5 16C15.5 15.4477 15.9477 15 16.5 15H22.5C23.0523 15 23.5 15.4477 23.5 16V22C23.5 22.5523 23.0523 23 22.5 23H16.5C15.9477 23 15.5 22.5523 15.5 22V16Z" stroke="#FAF9F7" stroke-width="2"/>
</svg>
