<svg width="25" height="24" viewBox="0 0 25 24" fill="none" xmlns="http://www.w3.org/2000/svg">
<path d="M6.55027 18.364C6.15975 17.9734 5.52658 17.9734 5.13606 18.364C4.74553 18.7545 4.74553 19.3876 5.13606 19.7782L6.55027 18.364ZM5.13606 4.22183C4.74553 4.61235 4.74553 5.24551 5.13606 5.63604C5.52658 6.02656 6.15975 6.02656 6.55027 5.63604L5.13606 4.22183ZM12.2474 8.33588C11.8805 7.9231 11.2484 7.88592 10.8356 8.25283C10.4229 8.61975 10.3857 9.25183 10.7526 9.66461L12.2474 8.33588ZM14.1667 12.0002L14.9141 12.6646C15.2509 12.2857 15.2509 11.7148 14.9141 11.3359L14.1667 12.0002ZM10.7526 14.3359C10.3857 14.7487 10.4229 15.3807 10.8356 15.7477C11.2484 16.1146 11.8805 16.0774 12.2474 15.6646L10.7526 14.3359ZM14 13.0002C14.5523 13.0002 15 12.5525 15 12.0002C15 11.448 14.5523 11.0002 14 11.0002V13.0002ZM1.5 11.0002C0.947715 11.0002 0.5 11.448 0.5 12.0002C0.5 12.5525 0.947715 13.0002 1.5 13.0002V11.0002ZM19.2782 5.63604C22.7929 9.15076 22.7929 14.8492 19.2782 18.364L20.6924 19.7782C24.9882 15.4824 24.9882 8.51759 20.6924 4.22183L19.2782 5.63604ZM19.2782 18.364C15.7635 21.8787 10.065 21.8787 6.55027 18.364L5.13606 19.7782C9.43182 24.0739 16.3966 24.0739 20.6924 19.7782L19.2782 18.364ZM6.55027 5.63604C10.065 2.12132 15.7635 2.12132 19.2782 5.63604L20.6924 4.22183C16.3966 -0.0739415 9.43182 -0.0739422 5.13606 4.22183L6.55027 5.63604ZM10.7526 9.66461L13.4193 12.6646L14.9141 11.3359L12.2474 8.33588L10.7526 9.66461ZM13.4193 11.3359L10.7526 14.3359L12.2474 15.6646L14.9141 12.6646L13.4193 11.3359ZM14 11.0002H1.5V13.0002H14V11.0002Z" fill="#FAF9F7"/>
</svg>
