<svg width="25" height="24" viewBox="0 0 25 24" fill="none" xmlns="http://www.w3.org/2000/svg">
<path d="M9.5 2V1C8.94772 1 8.5 1.44772 8.5 2H9.5ZM23.5 2H24.5C24.5 1.44772 24.0523 1 23.5 1V2ZM23.5 22V23C24.0523 23 24.5 22.5523 24.5 22H23.5ZM9.5 22H8.5C8.5 22.5523 8.94772 23 9.5 23V22ZM8.5 5C8.5 5.55228 8.94772 6 9.5 6C10.0523 6 10.5 5.55228 10.5 5H8.5ZM10.5 19C10.5 18.4477 10.0523 18 9.5 18C8.94772 18 8.5 18.4477 8.5 19H10.5ZM14.2474 8.33564C13.8805 7.92285 13.2484 7.88567 12.8356 8.25259C12.4229 8.61951 12.3857 9.25158 12.7526 9.66436L14.2474 8.33564ZM16.1667 12L16.9141 12.6644C17.2509 12.2855 17.2509 11.7145 16.9141 11.3356L16.1667 12ZM12.7526 14.3356C12.3857 14.7484 12.4229 15.3805 12.8356 15.7474C13.2484 16.1143 13.8805 16.0771 14.2474 15.6644L12.7526 14.3356ZM16 13C16.5523 13 17 12.5523 17 12C17 11.4477 16.5523 11 16 11V13ZM1.5 11C0.947715 11 0.5 11.4477 0.5 12C0.5 12.5523 0.947715 13 1.5 13V11ZM9.5 3H23.5V1H9.5V3ZM22.5 2V22H24.5V2H22.5ZM23.5 21H9.5V23H23.5V21ZM10.5 5V2H8.5V5H10.5ZM10.5 22V19H8.5V22H10.5ZM12.7526 9.66436L15.4193 12.6644L16.9141 11.3356L14.2474 8.33564L12.7526 9.66436ZM15.4193 11.3356L12.7526 14.3356L14.2474 15.6644L16.9141 12.6644L15.4193 11.3356ZM16 11H1.5V13H16V11Z" fill="#FAF9F7"/>
</svg>
