<svg width="25" height="24" viewBox="0 0 25 24" fill="none" xmlns="http://www.w3.org/2000/svg">
<path d="M21.2473 8.33588C20.8804 7.9231 20.2483 7.88592 19.8355 8.25283C19.4227 8.61975 19.3856 9.25182 19.7525 9.66461L21.2473 8.33588ZM23.1666 12.0002L23.914 12.6646C24.2508 12.2857 24.2508 11.7148 23.914 11.3359L23.1666 12.0002ZM19.7525 14.3359C19.3856 14.7487 19.4227 15.3807 19.8355 15.7477C20.2483 16.1146 20.8804 16.0774 21.2473 15.6646L19.7525 14.3359ZM22.9999 13.0002C23.5522 13.0002 23.9999 12.5525 23.9999 12.0002C23.9999 11.448 23.5522 11.0002 22.9999 11.0002V13.0002ZM10.4999 11.0002C9.94761 11.0002 9.49989 11.448 9.49989 12.0002C9.49989 12.5525 9.94761 13.0002 10.4999 13.0002V11.0002ZM17.5711 19.0711C17.9616 18.6805 17.9616 18.0474 17.5711 17.6569C17.1805 17.2663 16.5474 17.2663 16.1569 17.6569L17.5711 19.0711ZM16.1569 6.34315C16.5474 6.73367 17.1805 6.73367 17.5711 6.34315C17.9616 5.95262 17.9616 5.31946 17.5711 4.92893L16.1569 6.34315ZM19.7525 9.66461L22.4192 12.6646L23.914 11.3359L21.2473 8.33588L19.7525 9.66461ZM22.4192 11.3359L19.7525 14.3359L21.2473 15.6646L23.914 12.6646L22.4192 11.3359ZM22.9999 11.0002H10.4999V13.0002H22.9999V11.0002ZM3.42893 4.92893C-0.476311 8.83418 -0.476311 15.1658 3.42893 19.0711L4.84315 17.6569C1.71895 14.5327 1.71895 9.46734 4.84315 6.34315L3.42893 4.92893ZM3.42893 19.0711C7.33418 22.9763 13.6658 22.9763 17.5711 19.0711L16.1569 17.6569C13.0327 20.781 7.96734 20.781 4.84315 17.6569L3.42893 19.0711ZM17.5711 4.92893C13.6658 1.02369 7.33418 1.02369 3.42893 4.92893L4.84315 6.34315C7.96734 3.21895 13.0327 3.21895 16.1569 6.34315L17.5711 4.92893Z" fill="#FAF9F7"/>
</svg>
