<svg width="25" height="24" viewBox="0 0 25 24" fill="none" xmlns="http://www.w3.org/2000/svg">
<path d="M15.5 2H16.5V1H15.5V2ZM1.5 2V1H0.5V2H1.5ZM1.5 22H0.5V23H1.5V22ZM15.5 22V23H16.5V22H15.5ZM14.5 5C14.5 5.55228 14.9477 6 15.5 6C16.0523 6 16.5 5.55228 16.5 5H14.5ZM16.5 19C16.5 18.4477 16.0523 18 15.5 18C14.9477 18 14.5 18.4477 14.5 19H16.5ZM21.2474 8.33564C20.8805 7.92285 20.2484 7.88567 19.8356 8.25259C19.4229 8.61951 19.3857 9.25158 19.7526 9.66436L21.2474 8.33564ZM23.1667 12L23.9141 12.6644C24.2509 12.2855 24.2509 11.7145 23.9141 11.3356L23.1667 12ZM19.7526 14.3356C19.3857 14.7484 19.4229 15.3805 19.8356 15.7474C20.2484 16.1143 20.8805 16.0771 21.2474 15.6644L19.7526 14.3356ZM23 13C23.5523 13 24 12.5523 24 12C24 11.4477 23.5523 11 23 11V13ZM9.5 11C8.94772 11 8.5 11.4477 8.5 12C8.5 12.5523 8.94772 13 9.5 13V11ZM15.5 1H1.5V3H15.5V1ZM0.5 2V22H2.5V2H0.5ZM1.5 23H15.5V21H1.5V23ZM16.5 5V2H14.5V5H16.5ZM16.5 22V19H14.5V22H16.5ZM19.7526 9.66436L22.4193 12.6644L23.9141 11.3356L21.2474 8.33564L19.7526 9.66436ZM22.4193 11.3356L19.7526 14.3356L21.2474 15.6644L23.9141 12.6644L22.4193 11.3356ZM23 11H9.5V13H23V11Z" fill="#FAF9F7"/>
</svg>
