<svg width="25" height="24" viewBox="0 0 25 24" fill="none" xmlns="http://www.w3.org/2000/svg">
<path d="M3.73706 9.51926C4.26094 7.69228 5.34976 6.07804 6.84746 4.9079C8.34517 3.73777 10.1749 3.07181 12.0743 3.00548C13.9738 2.93915 15.8455 3.47586 17.4212 4.53867C18.9968 5.60148 20.1956 7.13583 20.8456 8.92182M20.6805 15.4987C20.0035 17.1033 18.8754 18.477 17.4332 19.4532C15.9909 20.4294 14.2964 20.9662 12.5552 20.9985C10.8139 21.0307 9.10067 20.5571 7.62325 19.635C6.14582 18.7129 4.96766 17.382 4.23164 15.8036M6.21422 14.9349L3.64727 15.3156L2.41162 17.5975M18.6337 9.72988L21.2006 9.34923L22.4363 7.06728" stroke="#FAF9F7" stroke-width="2" stroke-linecap="round" stroke-linejoin="round"/>
</svg>
