<svg width="25" height="24" viewBox="0 0 25 24" fill="none" xmlns="http://www.w3.org/2000/svg">
<path d="M15.4821 4.47818L14.6165 4.97891C14.7952 5.2879 15.1251 5.47818 15.4821 5.47818V4.47818ZM2.05132 12.3162C2.22596 12.8402 2.79228 13.1233 3.31623 12.9487C3.84017 12.774 4.12333 12.2077 3.94868 11.6838L2.05132 12.3162ZM20.6056 11.5528C20.3586 12.0468 20.5588 12.6474 21.0528 12.8944C21.5468 13.1414 22.1474 12.9412 22.3944 12.4472L20.6056 11.5528ZM15.3905 15.3899C15.789 15.7723 16.422 15.7593 16.8044 15.3608C17.1868 14.9623 17.1738 14.3292 16.7753 13.9469L15.3905 15.3899ZM11.9996 10.7501L12.6919 10.0286C12.305 9.65728 11.6941 9.65728 11.3072 10.0286L11.9996 10.7501ZM7.22384 13.9469C6.82535 14.3292 6.81229 14.9623 7.19468 15.3608C7.57707 15.7593 8.2101 15.7723 8.60859 15.3899L7.22384 13.9469ZM12.9995 11.7807C12.9995 11.2284 12.5518 10.7807 11.9995 10.7807C11.4472 10.7807 10.9995 11.2284 10.9995 11.7807H12.9995ZM10.9995 22.7807C10.9995 23.333 11.4472 23.7807 11.9995 23.7807C12.5518 23.7807 12.9995 23.333 12.9995 22.7807H10.9995ZM9.45636 2C11.6598 2 13.5851 3.19594 14.6165 4.97891L16.3477 3.97746C14.9735 1.6019 12.4026 0 9.45636 0V2ZM3.5 7.95636C3.5 4.99673 6.1999 2 9.45636 2V0C5.02904 0 1.5 3.95964 1.5 7.95636H3.5ZM3.94868 11.6838C3.50632 10.3567 3.5 9.00917 3.5 7.95636H1.5C1.5 8.99083 1.49368 10.6433 2.05132 12.3162L3.94868 11.6838ZM21 9C21 10.0252 20.9854 10.7931 20.6056 11.5528L22.3944 12.4472C23.0146 11.2069 23 9.97482 23 9H21ZM16.4127 5.47818C17.6287 5.47818 18.8073 5.90795 19.6675 6.58664C20.5288 7.26624 21 8.13034 21 9H23C23 7.36966 22.1183 5.97285 20.9063 5.01654C19.6932 4.05932 18.0781 3.47818 16.4127 3.47818V5.47818ZM15.4821 5.47818H16.4127V3.47818H15.4821V5.47818ZM16.7753 13.9469L12.6919 10.0286L11.3072 11.4716L15.3905 15.3899L16.7753 13.9469ZM11.3072 10.0286L7.22384 13.9469L8.60859 15.3899L12.6919 11.4716L11.3072 10.0286ZM10.9995 11.7807V22.7807H12.9995V11.7807H10.9995Z" fill="#FAF9F7"/>
</svg>
