<svg width="25" height="24" viewBox="0 0 25 24" fill="none" xmlns="http://www.w3.org/2000/svg">
<path d="M19.5 15C19.5 15 19.8961 12.8768 20 11.5C20.1176 9.94233 20.0967 9.0591 20 7.5C19.9026 5.92876 20.5 2.5 20.5 2.5L15 3.5M9.5 4H4.5M7 4.5L5.5 15C5.5 15 8.5 11 12 9C15.5 7 20 7 20 7M23.5 15C23.5 17.2091 21.7091 19 19.5 19C17.2909 19 15.5 17.2091 15.5 15C15.5 12.7909 17.2909 11 19.5 11C21.7091 11 23.5 12.7909 23.5 15ZM9.5 15C9.5 17.2091 7.70914 19 5.5 19C3.29086 19 1.5 17.2091 1.5 15C1.5 12.7909 3.29086 11 5.5 11C7.70914 11 9.5 12.7909 9.5 15Z" stroke="#FAF9F7" stroke-width="2" stroke-linecap="round" stroke-linejoin="round"/>
</svg>
