<svg width="25" height="24" viewBox="0 0 25 24" fill="none" xmlns="http://www.w3.org/2000/svg">
<path d="M13.5 15V21.5659C13.5 22.5664 12.1935 22.9469 11.6563 22.1028L6.5 14M18.5 13C20.1569 13 21.5 11.6569 21.5 10C21.5 8.34315 20.1569 7 18.5 7M18.5 3V17C18.5 17 14.7866 14.5758 11.5 14C10.1355 13.761 8.2117 13.7339 6.49277 13.7778C4.34555 13.8327 2.5 12.1479 2.5 10C2.5 7.85208 4.34556 6.16729 6.49277 6.22216C8.2117 6.26609 10.1355 6.23903 11.5 6C14.7866 5.42425 18.5 3 18.5 3Z" stroke="#FAF9F7" stroke-width="2"/>
</svg>
