<svg width="25" height="24" viewBox="0 0 25 24" fill="none" xmlns="http://www.w3.org/2000/svg">
<path d="M19.5 15.5C20.0523 15.5 20.5 15.0523 20.5 14.5C20.5 13.9477 20.0523 13.5 19.5 13.5V15.5ZM16.5 13.5C15.9477 13.5 15.5 13.9477 15.5 14.5C15.5 15.0523 15.9477 15.5 16.5 15.5V13.5ZM5.5 13.5C4.94772 13.5 4.5 13.9477 4.5 14.5C4.5 15.0523 4.94772 15.5 5.5 15.5V13.5ZM8 15.5C8.55228 15.5 9 15.0523 9 14.5C9 13.9477 8.55228 13.5 8 13.5V15.5ZM18.0826 3.97101L17.2251 4.4855V4.4855L18.0826 3.97101ZM19.942 7.07003L20.7995 6.55553L20.7995 6.55553L19.942 7.07003ZM22.5939 12.0939L21.8868 12.801L21.8868 12.801L22.5939 12.0939ZM23.0402 12.5402L23.7473 11.8331L23.7473 11.8331L23.0402 12.5402ZM1.95982 12.5402L1.25271 11.8331H1.25271L1.95982 12.5402ZM2.40613 12.0939L3.11324 12.801H3.11324L2.40613 12.0939ZM5.05798 7.07003L4.20049 6.55553L5.05798 7.07003ZM6.91739 3.97101L7.77489 4.4855V4.4855L6.91739 3.97101ZM22.8836 10.3082L22.4364 9.41375V9.41375L22.8836 10.3082ZM2.11635 10.3082L2.56357 9.41375L2.56356 9.41375L2.11635 10.3082ZM19.5 13.5H16.5V15.5H19.5V13.5ZM5.5 15.5H8V13.5H5.5V15.5ZM8.63238 4H16.3676V2H8.63238V4ZM17.2251 4.4855L19.0845 7.58452L20.7995 6.55553L18.9401 3.45651L17.2251 4.4855ZM21.5845 9H22.2639V7H21.5845V9ZM21.8868 12.801L22.3331 13.2473L23.7473 11.8331L23.301 11.3868L21.8868 12.801ZM22.5 13.6503V16.2929H24.5V13.6503H22.5ZM21.5 18.7071V19H23.5V18.7071H21.5ZM20.5 20H19V22H20.5V20ZM16 17H9V19H16V17ZM6 20H4.5V22H6V20ZM3.5 19V18.7071H1.5V19H3.5ZM2.5 16.2929V13.6503H0.5V16.2929H2.5ZM2.66693 13.2473L3.11324 12.801L1.69902 11.3868L1.25271 11.8331L2.66693 13.2473ZM2.5 9.3109V9.23607H0.5V9.3109H2.5ZM2.73607 9H3.41548V7H2.73607V9ZM5.91548 7.58452L7.77489 4.4855L6.0599 3.45651L4.20049 6.55553L5.91548 7.58452ZM22.5 9.23607V9.3109H24.5V9.23607H22.5ZM22.5 9.3109C22.5 9.35445 22.4754 9.39427 22.4364 9.41375L23.3309 11.2026C24.0474 10.8443 24.5 10.112 24.5 9.3109H22.5ZM3.41548 9C4.43957 9 5.38858 8.46268 5.91548 7.58452L4.20049 6.55553C4.03504 6.83128 3.73705 7 3.41548 7V9ZM2.5 9.23607C2.5 9.10569 2.60569 9 2.73607 9V7C1.50112 7 0.5 8.00112 0.5 9.23607H2.5ZM2.56356 9.41375C2.52461 9.39427 2.5 9.35445 2.5 9.3109H0.5C0.5 10.112 0.952613 10.8443 1.66914 11.2026L2.56356 9.41375ZM3.11324 12.801C4.13402 11.7802 3.85476 10.0593 2.56357 9.41375L1.66914 11.2026C1.73934 11.2377 1.75452 11.3313 1.69902 11.3868L3.11324 12.801ZM2.5 13.6503C2.5 13.4991 2.56004 13.3542 2.66693 13.2473L1.25271 11.8331C0.770759 12.315 0.5 12.9687 0.5 13.6503H2.5ZM2.70711 16.7929C2.5745 16.6603 2.5 16.4804 2.5 16.2929H0.5C0.5 17.0109 0.785212 17.6994 1.29289 18.2071L2.70711 16.7929ZM3.5 18.7071C3.5 17.9891 3.21479 17.3006 2.70711 16.7929L1.29289 18.2071C1.4255 18.3397 1.5 18.5196 1.5 18.7071H3.5ZM4.5 20C3.94772 20 3.5 19.5523 3.5 19H1.5C1.5 20.6569 2.84315 22 4.5 22V20ZM6.5 19.5C6.5 19.7761 6.27614 20 6 20V22C7.38071 22 8.5 20.8807 8.5 19.5H6.5ZM9 17C7.61929 17 6.5 18.1193 6.5 19.5H8.5C8.5 19.2239 8.72386 19 9 19V17ZM18.5 19.5C18.5 18.1193 17.3807 17 16 17V19C16.2761 19 16.5 19.2239 16.5 19.5H18.5ZM19 20C18.7239 20 18.5 19.7761 18.5 19.5H16.5C16.5 20.8807 17.6193 22 19 22V20ZM21.5 19C21.5 19.5523 21.0523 20 20.5 20V22C22.1569 22 23.5 20.6569 23.5 19H21.5ZM22.2929 16.7929C21.7852 17.3006 21.5 17.9891 21.5 18.7071H23.5C23.5 18.5196 23.5745 18.3397 23.7071 18.2071L22.2929 16.7929ZM22.5 16.2929C22.5 16.4804 22.4255 16.6603 22.2929 16.7929L23.7071 18.2071C24.2148 17.6994 24.5 17.0109 24.5 16.2929H22.5ZM22.3331 13.2473C22.44 13.3542 22.5 13.4991 22.5 13.6503H24.5C24.5 12.9687 24.2292 12.315 23.7473 11.8331L22.3331 13.2473ZM23.301 11.3868C23.2455 11.3313 23.2607 11.2377 23.3309 11.2026L22.4364 9.41375C21.1452 10.0593 20.866 11.7802 21.8868 12.801L23.301 11.3868ZM22.2639 9C22.3943 9 22.5 9.10569 22.5 9.23607H24.5C24.5 8.00112 23.4989 7 22.2639 7V9ZM19.0845 7.58452C19.6114 8.46268 20.5604 9 21.5845 9V7C21.263 7 20.965 6.83128 20.7995 6.55553L19.0845 7.58452ZM16.3676 4C16.7189 4 17.0444 4.1843 17.2251 4.4855L18.9401 3.45651C18.3979 2.5529 17.4214 2 16.3676 2V4ZM8.63238 2C7.57859 2 6.60207 2.5529 6.0599 3.45651L7.77489 4.4855C7.95561 4.1843 8.28112 4 8.63238 4V2Z" fill="#FAF9F7"/>
</svg>
