<svg width="25" height="24" viewBox="0 0 25 24" fill="none" xmlns="http://www.w3.org/2000/svg">
<path d="M3.5 15L2.60557 14.5528C1.928 14.214 1.5 13.5215 1.5 12.7639V11.886C1.5 11.0523 2.01715 10.3061 2.79775 10.0133L4.8464 9.2451C5.26962 9.08639 5.62607 8.78561 5.94919 8.46956C6.6995 7.73568 8.48478 6.5 12 6.5C15.1009 6.5 16.8556 7.65388 17.7412 8.53041C18.2797 9.06331 18.9806 9.49418 19.7309 9.59887C21.102 9.79019 23.1704 10.3518 23.5 12C23.7112 13.0559 23.744 13.755 23.7114 14.2104C23.6735 14.7395 23.202 15 22.6716 15H21.5M16.5 15H8.5M8.5 15.5C8.5 16.8807 7.38071 18 6 18C4.61929 18 3.5 16.8807 3.5 15.5C3.5 14.1193 4.61929 13 6 13C7.38071 13 8.5 14.1193 8.5 15.5ZM21.5 15.5C21.5 16.8807 20.3807 18 19 18C17.6193 18 16.5 16.8807 16.5 15.5C16.5 14.1193 17.6193 13 19 13C20.3807 13 21.5 14.1193 21.5 15.5Z" stroke="#FAF9F7" stroke-width="2"/>
</svg>
