<svg width="25" height="24" viewBox="0 0 25 24" fill="none" xmlns="http://www.w3.org/2000/svg">
<path d="M10.9024 15.2961C10.7135 15.8151 10.981 16.389 11.5 16.5778C12.019 16.7667 12.5928 16.4992 12.7817 15.9802L10.9024 15.2961ZM14.8339 10.342C15.0227 9.82304 14.7552 9.2492 14.2362 9.06031C13.7172 8.87141 13.1434 9.139 12.9545 9.65798L14.8339 10.342ZM11.5 3C11.5 3.55228 11.9477 4 12.5 4C13.0523 4 13.5 3.55228 13.5 3H11.5ZM21.5 11C20.9477 11 20.5 11.4477 20.5 12C20.5 12.5523 20.9477 13 21.5 13V11ZM3.5 13C4.05228 13 4.5 12.5523 4.5 12C4.5 11.4477 4.05228 11 3.5 11V13ZM6.20711 3.29289C5.81658 2.90237 5.18342 2.90237 4.79289 3.29289C4.40237 3.68342 4.40237 4.31658 4.79289 4.70711L6.20711 3.29289ZM6.20711 6.12132C6.59763 6.51184 7.2308 6.51184 7.62132 6.12132C8.01184 5.7308 8.01184 5.09763 7.62132 4.70711L6.20711 6.12132ZM20.6213 4.70711C21.0118 4.31658 21.0118 3.68342 20.6213 3.29289C20.2308 2.90237 19.5976 2.90237 19.2071 3.29289L20.6213 4.70711ZM17.7929 4.70711C17.4023 5.09763 17.4023 5.7308 17.7929 6.12132C18.1834 6.51184 18.8166 6.51184 19.2071 6.12132L17.7929 4.70711ZM22.5 12C22.5 17.5228 18.0228 22 12.5 22V24C19.1274 24 24.5 18.6274 24.5 12H22.5ZM12.5 22C6.97715 22 2.5 17.5228 2.5 12H0.5C0.5 18.6274 5.87258 24 12.5 24V22ZM2.5 12C2.5 6.47715 6.97715 2 12.5 2V0C5.87258 0 0.5 5.37258 0.5 12H2.5ZM12.5 2C18.0228 2 22.5 6.47715 22.5 12H24.5C24.5 5.37258 19.1274 0 12.5 0V2ZM12.7817 15.9802L14.8339 10.342L12.9545 9.65798L10.9024 15.2961L12.7817 15.9802ZM11.5 1V3H13.5V1H11.5ZM23.5 11H21.5V13H23.5V11ZM3.5 11H1.5V13H3.5V11ZM4.79289 4.70711L6.20711 6.12132L7.62132 4.70711L6.20711 3.29289L4.79289 4.70711ZM19.2071 3.29289L17.7929 4.70711L19.2071 6.12132L20.6213 4.70711L19.2071 3.29289ZM4 19C4.76822 19.6402 4.76786 19.6406 4.76751 19.641C4.76741 19.6412 4.76706 19.6416 4.76686 19.6418C4.76644 19.6423 4.76605 19.6428 4.76571 19.6432C4.76502 19.644 4.76447 19.6447 4.76407 19.6451C4.76328 19.6461 4.76307 19.6463 4.76345 19.6459C4.76421 19.645 4.76733 19.6414 4.77284 19.6353C4.78385 19.623 4.8044 19.6007 4.83471 19.5696C4.89535 19.5075 4.9949 19.4107 5.13517 19.2905C5.41568 19.0501 5.85859 18.7162 6.47885 18.3779C7.71369 17.7043 9.67482 17 12.5 17V15C9.32518 15 7.03631 15.7957 5.52115 16.6221C4.76641 17.0338 4.20932 17.4499 3.83358 17.772C3.64572 17.933 3.50308 18.0706 3.40357 18.1726C3.3538 18.2235 3.31478 18.2656 3.28625 18.2973C3.27198 18.3132 3.26033 18.3265 3.25126 18.3369C3.24673 18.3422 3.24284 18.3467 3.2396 18.3505C3.23797 18.3524 3.23651 18.3542 3.23521 18.3557C3.23456 18.3565 3.23395 18.3572 3.23337 18.3579C3.23309 18.3582 3.23269 18.3587 3.23255 18.3589C3.23216 18.3594 3.23178 18.3598 4 19ZM12.5 17C15.3252 17 17.2863 17.7043 18.5211 18.3779C19.1414 18.7162 19.5843 19.0501 19.8648 19.2905C20.0051 19.4107 20.1046 19.5075 20.1653 19.5696C20.1956 19.6007 20.2161 19.623 20.2272 19.6353C20.2327 19.6414 20.2358 19.645 20.2366 19.6459C20.2369 19.6463 20.2367 19.6461 20.2359 19.6451C20.2355 19.6447 20.235 19.644 20.2343 19.6432C20.2339 19.6428 20.2336 19.6423 20.2331 19.6418C20.2329 19.6416 20.2326 19.6412 20.2325 19.641C20.2321 19.6406 20.2318 19.6402 21 19C21.7682 18.3598 21.7678 18.3594 21.7675 18.3589C21.7673 18.3587 21.7669 18.3582 21.7666 18.3579C21.7661 18.3572 21.7654 18.3565 21.7648 18.3557C21.7635 18.3542 21.762 18.3524 21.7604 18.3505C21.7572 18.3467 21.7533 18.3422 21.7487 18.3369C21.7397 18.3265 21.728 18.3132 21.7138 18.2973C21.6852 18.2656 21.6462 18.2235 21.5964 18.1726C21.4969 18.0706 21.3543 17.933 21.1664 17.772C20.7907 17.4499 20.2336 17.0338 19.4789 16.6221C17.9637 15.7957 15.6748 15 12.5 15V17Z" fill="#FAF9F7"/>
</svg>
