<svg width="25" height="25" viewBox="0 0 25 25" fill="none" xmlns="http://www.w3.org/2000/svg">
<path d="M22.5 11C22.5 15.346 16.3077 20.9022 13.6687 23.0727C12.9838 23.636 12.0162 23.636 11.3313 23.0727C8.69234 20.9022 2.5 15.346 2.5 11C2.5 5.47715 6.97715 1 12.5 1C18.0228 1 22.5 5.47715 22.5 11Z" stroke="#FAF9F7" stroke-width="2"/>
<path d="M15.5 11C15.5 12.6569 14.1569 14 12.5 14C10.8431 14 9.5 12.6569 9.5 11C9.5 9.34315 10.8431 8 12.5 8C14.1569 8 15.5 9.34315 15.5 11Z" stroke="#FAF9F7" stroke-width="2"/>
</svg>
