<svg width="25" height="24" viewBox="0 0 25 24" fill="none" xmlns="http://www.w3.org/2000/svg">
<path d="M1.5 5L1.00386 4.13176C0.692286 4.3098 0.5 4.64114 0.5 5H1.5ZM23.5 1H24.5C24.5 0.64353 24.3102 0.314012 24.0019 0.13509C23.6936 -0.0438321 23.3134 -0.045102 23.0039 0.131757L23.5 1ZM23.5 19L23.9961 19.8682C24.3077 19.6902 24.5 19.3589 24.5 19H23.5ZM1.5 23H0.5C0.5 23.3565 0.689758 23.686 0.998073 23.8649C1.30639 24.0438 1.68664 24.0451 1.99614 23.8682L1.5 23ZM8.5 1L8.94721 0.105573C8.64816 -0.0439545 8.29416 -0.0341288 8.00386 0.131757L8.5 1ZM16.5 23L16.0528 23.8944C16.3518 24.044 16.7058 24.0341 16.9961 23.8682L16.5 23ZM22.5 1V19H24.5V1H22.5ZM2.5 23V5H0.5V23H2.5ZM1.99614 5.86824L8.99614 1.86824L8.00386 0.131757L1.00386 4.13176L1.99614 5.86824ZM8.00386 18.1318L1.00386 22.1318L1.99614 23.8682L8.99614 19.8682L8.00386 18.1318ZM8.05279 1.89443L16.0528 5.89443L16.9472 4.10557L8.94721 0.105573L8.05279 1.89443ZM16.9961 5.86824L23.9961 1.86824L23.0039 0.131757L16.0039 4.13176L16.9961 5.86824ZM23.0039 18.1318L16.0039 22.1318L16.9961 23.8682L23.9961 19.8682L23.0039 18.1318ZM16.9472 22.1056L8.94721 18.1056L8.05279 19.8944L16.0528 23.8944L16.9472 22.1056ZM15.5 5V22.5H17.5V5H15.5ZM7.5 1.5V19H9.5V1.5H7.5Z" fill="#FAF9F7"/>
</svg>
