<svg width="25" height="24" viewBox="0 0 25 24" fill="none" xmlns="http://www.w3.org/2000/svg">
<path d="M5.36358 6.13573L7.67775 3.82157L15.7773 5.62148L18.0327 3.36613C18.0719 3.32693 18.1111 3.29067 18.1541 3.25568C18.5955 2.89633 21.2551 0.814097 22.3341 1.89309C23.4131 2.97209 21.3309 5.6317 20.9716 6.07317C20.9366 6.11616 20.9003 6.15536 20.8611 6.19456L18.6058 8.4499L20.4057 16.5495L18.0915 18.8637L14.4145 12.429L9.60622 16.7423L10.1848 19.6993L8.19201 21.6921L6.32782 17.8994L2.53516 16.0352L4.52791 14.0425L7.4849 14.621L11.7983 9.81269L5.36358 6.13573Z" stroke="#FAF9F7" stroke-width="2"/>
</svg>
