<svg width="25" height="24" viewBox="0 0 25 24" fill="none" xmlns="http://www.w3.org/2000/svg">
<path d="M15.5 18C15.5 18 17.973 11.9056 16.5 8.25C15.5892 5.98959 12.5 2 12.5 2C12.5 2 9.41081 5.98959 8.49998 8.25C7.02698 11.9056 9.49998 18 9.49998 18M15.5 18H9.49998M15.5 18H20.5L17 12M9.49998 18H4.5L8 12M8.5 8C8.5 8 10 9 12.5 9C15 9 16.5 8 16.5 8M11.1795 18C11.1795 18 10.783 18.939 10.5213 19.7857C10.2596 20.6324 12.5 22.5 12.5 22.5C12.5 22.5 14.785 20.6109 14.4703 19.7857C14.1556 18.9605 13.8122 18 13.8122 18H11.1795Z" stroke="#FAF9F7" stroke-width="2"/>
</svg>
