<svg width="25" height="24" viewBox="0 0 25 24" fill="none" xmlns="http://www.w3.org/2000/svg">
<g clip-path="url(#clip0_6484_47484)">
<path d="M15.5 4V6M15.5 11V13M15.5 18V20M1.5 6C1.5 4.89543 2.39543 4 3.5 4H21.5C22.6046 4 23.5 4.89543 23.5 6V9.17071C22.3348 9.58254 21.5 10.6938 21.5 12C21.5 13.3062 22.3348 14.4175 23.5 14.8293V18C23.5 19.1046 22.6046 20 21.5 20H3.5C2.39543 20 1.5 19.1046 1.5 18V14.8293C2.66519 14.4175 3.5 13.3062 3.5 12C3.5 10.6938 2.66519 9.58254 1.5 9.17071V6Z" stroke="#FAF9F7" stroke-width="2" stroke-linecap="round" stroke-linejoin="round"/>
</g>
<defs>
<clipPath id="clip0_6484_47484">
<rect width="24" height="24" fill="white" transform="translate(0.5)"/>
</clipPath>
</defs>
</svg>
