<svg width="25" height="24" viewBox="0 0 25 24" fill="none" xmlns="http://www.w3.org/2000/svg">
<path d="M15.5 16V3H1.5V16H15.5ZM15.5 16H23.5V12L19.5 8H15.5V16ZM8.5 18.5C8.5 19.8807 7.38071 21 6 21C4.61929 21 3.5 19.8807 3.5 18.5C3.5 17.1193 4.61929 16 6 16C7.38071 16 8.5 17.1193 8.5 18.5ZM20.5 18.5C20.5 19.8807 19.3807 21 18 21C16.6193 21 15.5 19.8807 15.5 18.5C15.5 17.1193 16.6193 16 18 16C19.3807 16 20.5 17.1193 20.5 18.5Z" stroke="#FAF9F7" stroke-width="2" stroke-linecap="round" stroke-linejoin="round"/>
</svg>
