<svg width="22" height="14" viewBox="0 0 22 14" fill="none" xmlns="http://www.w3.org/2000/svg">
<path fill-rule="evenodd" clip-rule="evenodd" d="M17.8388 0.498431C19.4992 -0.622177 21.7373 0.567468 21.7373 2.57065V10.7564C21.7373 12.7596 19.4992 13.9492 17.8388 12.8286L11.7744 8.73574C11.673 8.6673 11.5786 8.59327 11.4912 8.51444V10.7564C11.4912 12.7596 9.25302 13.9492 7.59262 12.8286L1.52821 8.73574C0.059602 7.74457 0.0596077 5.58247 1.52822 4.5913L7.59262 0.498432C9.25302 -0.622176 11.4912 0.567469 11.4912 2.57065V4.81261C11.5786 4.73377 11.673 4.65975 11.7744 4.5913L17.8388 0.498431ZM19.7373 2.57065C19.7373 2.17001 19.2897 1.93208 18.9576 2.1562L12.8932 6.24908C12.5995 6.44731 12.5995 6.87973 12.8932 7.07797L18.9576 11.1708C19.2897 11.395 19.7373 11.157 19.7373 10.7564V2.57065ZM9.49116 2.57065C9.49116 2.17001 9.04354 1.93208 8.71145 2.1562L2.64705 6.24908C2.35333 6.44731 2.35333 6.87973 2.64705 7.07797L8.71145 11.1708C9.04353 11.395 9.49116 11.157 9.49116 10.7564V2.57065Z" fill="#FAF9F7"/>
</svg>
