<svg width="21" height="20" viewBox="0 0 21 20" fill="none" xmlns="http://www.w3.org/2000/svg">
<path d="M7.35423 5.59276C6.96138 5.20458 6.32823 5.20836 5.94004 5.60122C5.55186 5.99407 5.55565 6.62722 5.9485 7.01541L7.35423 5.59276ZM18.7972 19.7113C19.19 20.0995 19.8232 20.0957 20.2113 19.7029C20.5995 19.31 20.5957 18.6768 20.2029 18.2887L18.7972 19.7113ZM5.9485 12.9393C5.55565 13.3274 5.55186 13.9606 5.94004 14.3534C6.32823 14.7463 6.96138 14.7501 7.35423 14.3619L5.9485 12.9393ZM10.7355 11.0209C11.1283 10.6327 11.1321 9.99954 10.7439 9.60669C10.3557 9.21384 9.72258 9.21005 9.32973 9.59823L10.7355 11.0209ZM12.6428 6.32434C12.25 6.71252 12.2462 7.34567 12.6344 7.73852C13.0226 8.13138 13.6557 8.13516 14.0486 7.74698L12.6428 6.32434ZM20.1348 1.73313C20.5276 1.34495 20.5314 0.711797 20.1432 0.318945C19.755 -0.073908 19.1219 -0.0776942 18.729 0.310488L20.1348 1.73313ZM6.5 4C6.5 5.10457 5.60457 6 4.5 6V8C6.70914 8 8.5 6.20914 8.5 4H6.5ZM4.5 6C3.39543 6 2.5 5.10457 2.5 4H0.5C0.5 6.20914 2.29086 8 4.5 8V6ZM2.5 4C2.5 2.89543 3.39543 2 4.5 2V0C2.29086 0 0.5 1.79086 0.5 4H2.5ZM4.5 2C5.60457 2 6.5 2.89543 6.5 4H8.5C8.5 1.79086 6.70914 0 4.5 0V2ZM5.9485 7.01541L18.7972 19.7113L20.2029 18.2887L7.35423 5.59276L5.9485 7.01541ZM7.35423 14.3619L10.7355 11.0209L9.32973 9.59823L5.9485 12.9393L7.35423 14.3619ZM14.0486 7.74698L20.1348 1.73313L18.729 0.310488L12.6428 6.32434L14.0486 7.74698ZM6.5 16C6.5 17.1046 5.60457 18 4.5 18V20C6.70914 20 8.5 18.2091 8.5 16H6.5ZM4.5 18C3.39543 18 2.5 17.1046 2.5 16H0.5C0.5 18.2091 2.29086 20 4.5 20V18ZM2.5 16C2.5 14.8954 3.39543 14 4.5 14V12C2.29086 12 0.5 13.7909 0.5 16H2.5ZM4.5 14C5.60457 14 6.5 14.8954 6.5 16H8.5C8.5 13.7909 6.70914 12 4.5 12V14Z" fill="#FAF9F7"/>
</svg>
