<svg width="22" height="14" viewBox="0 0 22 14" fill="none" xmlns="http://www.w3.org/2000/svg">
<path fill-rule="evenodd" clip-rule="evenodd" d="M14.6018 0.498431C12.9413 -0.622177 10.7032 0.567469 10.7032 2.57065V4.81262C10.6158 4.73378 10.5214 4.65975 10.42 4.5913L4.35557 0.498431C2.69517 -0.622176 0.457031 0.567468 0.457031 2.57065V10.7564C0.457031 12.7596 2.69517 13.9492 4.35558 12.8286L10.42 8.73574C10.5214 8.6673 10.6158 8.59327 10.7032 8.51443V10.7564C10.7032 12.7596 12.9414 13.9492 14.6018 12.8286L20.6662 8.73574C22.1348 7.74457 22.1348 5.58247 20.6662 4.5913L14.6018 0.498431ZM12.7032 2.57065C12.7032 2.17001 13.1508 1.93208 13.4829 2.1562L19.5473 6.24908C19.841 6.44731 19.841 6.87973 19.5473 7.07797L13.4829 11.1708C13.1508 11.395 12.7032 11.157 12.7032 10.7564V2.57065ZM2.45703 2.57065C2.45703 2.17001 2.90466 1.93208 3.23674 2.1562L9.30114 6.24908C9.59487 6.44731 9.59487 6.87973 9.30115 7.07797L3.23674 11.1708C2.90466 11.395 2.45703 11.157 2.45703 10.7564V2.57065Z" fill="#FAF9F7"/>
</svg>
