<svg width="24" height="20" viewBox="0 0 24 20" fill="none" xmlns="http://www.w3.org/2000/svg">
<path d="M6.88679 0.292893C6.49627 -0.0976311 5.8631 -0.0976311 5.47258 0.292893C5.08206 0.683417 5.08206 1.31658 5.47258 1.70711L6.88679 0.292893ZM21.4726 17.7071C21.8631 18.0976 22.4963 18.0976 22.8868 17.7071C23.2773 17.3166 23.2773 16.6834 22.8868 16.2929L21.4726 17.7071ZM1.83497 11.8124L2.7022 11.3145L1.83497 11.8124ZM1.83497 9.30039L0.967735 8.80248L1.83497 9.30039ZM22.5246 9.3003L21.6573 9.79822V9.79822L22.5246 9.3003ZM21.8042 10.963C21.6567 11.4953 21.9685 12.0463 22.5007 12.1939C23.033 12.3414 23.584 12.0296 23.7316 11.4974L21.8042 10.963ZM15.826 2.17097C15.3039 1.99091 14.7347 2.2682 14.5546 2.79031C14.3746 3.31242 14.6519 3.88164 15.174 4.0617L15.826 2.17097ZM20.841 15.7009C21.2281 15.307 21.2226 14.6739 20.8288 14.2867C20.4349 13.8996 19.8017 13.9051 19.4146 14.2989L20.841 15.7009ZM8.70014 4.24391C9.21183 4.03607 9.45814 3.45278 9.2503 2.9411C9.04246 2.42941 8.45917 2.1831 7.94748 2.39094L8.70014 4.24391ZM5.47258 1.70711L21.4726 17.7071L22.8868 16.2929L6.88679 0.292893L5.47258 1.70711ZM12.1798 17.5564C8.39339 17.5564 4.92466 15.1854 2.7022 11.3145L0.967746 12.3103C3.44527 16.6255 7.49415 19.5564 12.1798 19.5564V17.5564ZM0.967735 8.80248C0.344084 9.88873 0.344089 11.2241 0.967746 12.3103L2.7022 11.3145C2.4326 10.8449 2.4326 10.2679 2.7022 9.7983L0.967735 8.80248ZM21.6573 9.79822C21.8626 10.1557 21.9117 10.5756 21.8042 10.963L23.7316 11.4974C23.9799 10.6014 23.8668 9.62971 23.3918 8.80239L21.6573 9.79822ZM15.174 4.0617C17.7514 4.95054 20.0394 6.98022 21.6573 9.79822L23.3918 8.80239C21.5834 5.65274 18.9478 3.24756 15.826 2.17097L15.174 4.0617ZM19.4146 14.2989C17.3801 16.3688 14.867 17.5564 12.1798 17.5564V19.5564C15.4897 19.5564 18.4956 18.0871 20.841 15.7009L19.4146 14.2989ZM2.7022 9.7983C4.21737 7.15924 6.32167 5.21003 8.70014 4.24391L7.94748 2.39094C5.08162 3.55503 2.66221 5.85113 0.967735 8.80248L2.7022 9.7983ZM14.1194 10.0689C14.2252 10.4901 14.1911 10.9343 14.0221 11.3344L15.8646 12.1125C16.2025 11.3123 16.2708 10.4238 16.059 9.58138L14.1194 10.0689ZM14.0221 11.3344C13.8532 11.7345 13.5586 12.0688 13.1828 12.2866L14.186 14.0169C14.9375 13.5812 15.5267 12.9127 15.8646 12.1125L14.0221 11.3344ZM13.1828 12.2866C12.8071 12.5045 12.3707 12.5941 11.9395 12.5419L11.6993 14.5274C12.5616 14.6318 13.4345 14.4525 14.186 14.0169L13.1828 12.2866ZM11.9395 12.5419C11.5083 12.4898 11.1058 12.2987 10.7929 11.9975L9.40609 13.4386C10.032 14.0409 10.8369 14.4231 11.6993 14.5274L11.9395 12.5419ZM10.7929 11.9975C10.4799 11.6964 10.2735 11.3015 10.2049 10.8727L8.23001 11.1889C8.36737 12.0466 8.78019 12.8363 9.40609 13.4386L10.7929 11.9975ZM10.2049 10.8727C10.1362 10.4438 10.209 10.0042 10.4122 9.62042L8.64475 8.68445C8.23824 9.45209 8.09266 10.3312 8.23001 11.1889L10.2049 10.8727ZM10.4122 9.62042C10.6155 9.2366 10.9381 8.92937 11.3315 8.74517L10.4833 6.93395C9.69661 7.30235 9.05126 7.9168 8.64475 8.68445L10.4122 9.62042ZM11.3315 8.74517C11.7248 8.56098 12.1674 8.50982 12.5924 8.59943L13.005 6.64247C12.1551 6.46324 11.2699 6.56556 10.4833 6.93395L11.3315 8.74517Z" fill="#FAF9F7"/>
</svg>
