<svg width="21" height="18" viewBox="0 0 21 18" fill="none" xmlns="http://www.w3.org/2000/svg">
<path d="M13.5 2.5C13.5 1.67157 14.1716 1 15 1H18C18.8284 1 19.5 1.67157 19.5 2.5V15.5C19.5 16.3284 18.8284 17 18 17H15C14.1716 17 13.5 16.3284 13.5 15.5V2.5Z" stroke="#FAF9F7" stroke-width="2" stroke-linecap="round" stroke-linejoin="round"/>
<path d="M1.5 2.5C1.5 1.67157 2.17157 1 3 1H6C6.82843 1 7.5 1.67157 7.5 2.5V15.5C7.5 16.3284 6.82843 17 6 17H3C2.17157 17 1.5 16.3284 1.5 15.5V2.5Z" stroke="#FAF9F7" stroke-width="2" stroke-linecap="round" stroke-linejoin="round"/>
</svg>
