<svg width="26" height="24" viewBox="0 0 26 24" fill="none" xmlns="http://www.w3.org/2000/svg">
<path d="M1.5 14C1.5 12.3431 2.84315 11 4.5 11H5.67687C6.47912 11 7.20374 10.5206 7.51753 9.78228L10.8831 1.86318C11.1056 1.33981 11.6192 1 12.1879 1V1C13.8847 1 15.2015 2.48022 15.0041 4.16543L14.6337 7.32541C14.5293 8.21693 15.2259 9 16.1235 9H20.5228C22.5159 9 23.9549 10.9077 23.4074 12.8242L21.1217 20.8242C20.7537 22.1121 19.5765 23 18.2371 23H4.5C2.84315 23 1.5 21.6569 1.5 20V14Z" stroke="#FAF9F7" stroke-width="2"/>
<path d="M6.5 10V23" stroke="#FAF9F7" stroke-width="2"/>
</svg>
