<svg width="26" height="24" viewBox="0 0 26 24" fill="none" xmlns="http://www.w3.org/2000/svg">
<path d="M1.5 10C1.5 11.6569 2.84315 13 4.5 13H5.67687C6.47912 13 7.20374 13.4794 7.51753 14.2177L10.8831 22.1368C11.1056 22.6602 11.6192 23 12.1879 23V23C13.8847 23 15.2015 21.5198 15.0041 19.8346L14.6337 16.6746C14.5293 15.7831 15.2259 15 16.1235 15H20.5228C22.5159 15 23.9549 13.0923 23.4074 11.1758L21.1217 3.17584C20.7537 1.88793 19.5765 1 18.2371 1H4.5C2.84315 1 1.5 2.34315 1.5 4V10Z" stroke="#FAF9F7" stroke-width="2"/>
<path d="M6.5 1V14" stroke="#FAF9F7" stroke-width="2"/>
</svg>
