<svg width="25" height="24" viewBox="0 0 25 24" fill="none" xmlns="http://www.w3.org/2000/svg">
<rect x="3.5" y="11" width="18" height="12" rx="2" stroke="#FAF9F7" stroke-width="2"/>
<path d="M6.5 6C6.5 6.55228 6.94772 7 7.5 7C8.05228 7 8.5 6.55228 8.5 6H6.5ZM12.5 1V0V1ZM8.5 6C8.5 4.93913 8.92143 3.92172 9.67157 3.17157L8.25736 1.75736C7.13214 2.88258 6.5 4.4087 6.5 6H8.5ZM9.67157 3.17157C10.4217 2.42143 11.4391 2 12.5 2V0C10.9087 0 9.38258 0.632141 8.25736 1.75736L9.67157 3.17157ZM12.5 2C13.5609 2 14.5783 2.42143 15.3284 3.17157L16.7426 1.75736C15.6174 0.632141 14.0913 0 12.5 0V2ZM15.3284 3.17157C16.0786 3.92172 16.5 4.93913 16.5 6H18.5C18.5 4.4087 17.8679 2.88258 16.7426 1.75736L15.3284 3.17157ZM16.5 6V11.0001H18.5V6H16.5Z" fill="#FAF9F7"/>
</svg>
