<svg width="24" height="18" viewBox="0 0 24 18" fill="none" xmlns="http://www.w3.org/2000/svg">
<path d="M1.83497 10.2561C1.38835 9.47815 1.38834 8.52198 1.83497 7.74407C4.18496 3.65097 7.94378 1 12.1798 1C16.4158 1 20.1746 3.65094 22.5246 7.74398C22.9712 8.52189 22.9712 9.47806 22.5246 10.256C20.1746 14.3491 16.4158 17 12.1798 17C7.94377 17 4.18497 14.3491 1.83497 10.2561Z" stroke="#FAF9F7" stroke-width="2"/>
<path d="M15.1797 9C15.1797 10.6569 13.8365 12 12.1797 12C10.5228 12 9.17969 10.6569 9.17969 9C9.17969 7.34315 10.5228 6 12.1797 6C13.8365 6 15.1797 7.34315 15.1797 9Z" stroke="#FAF9F7" stroke-width="2"/>
</svg>
