<svg width="25" height="24" viewBox="0 0 25 24" fill="none" xmlns="http://www.w3.org/2000/svg">
<g clip-path="url(#clip0_6484_47674)">
<path d="M11.5 11C10.9477 11 10.5 11.4477 10.5 12C10.5 12.5523 10.9477 13 11.5 13V11ZM13.5 13C14.0523 13 14.5 12.5523 14.5 12C14.5 11.4477 14.0523 11 13.5 11V13ZM4.5 7H20.5V5H4.5V7ZM22.5 9V19H24.5V9H22.5ZM20.5 21H4.5V23H20.5V21ZM2.5 19V9H0.5V19H2.5ZM4.5 21C3.39543 21 2.5 20.1046 2.5 19H0.5C0.5 21.2091 2.29086 23 4.5 23V21ZM22.5 19C22.5 20.1046 21.6046 21 20.5 21V23C22.7091 23 24.5 21.2091 24.5 19H22.5ZM20.5 7C21.6046 7 22.5 7.89543 22.5 9H24.5C24.5 6.79086 22.7091 5 20.5 5V7ZM4.5 5C2.29086 5 0.5 6.79086 0.5 9H2.5C2.5 7.89543 3.39543 7 4.5 7V5ZM10.5 3H14.5V1H10.5V3ZM15.5 4V6H17.5V4H15.5ZM9.5 6V4H7.5V6H9.5ZM14.5 3C15.0523 3 15.5 3.44772 15.5 4H17.5C17.5 2.34315 16.1569 1 14.5 1V3ZM10.5 1C8.84315 1 7.5 2.34315 7.5 4H9.5C9.5 3.44772 9.94772 3 10.5 3V1ZM1.5 14C0.976984 14.8523 0.977235 14.8525 0.977504 14.8526C0.977619 14.8527 0.977908 14.8529 0.978137 14.853C0.978597 14.8533 0.979132 14.8536 0.979742 14.854C0.980961 14.8548 0.982481 14.8557 0.984298 14.8568C0.987933 14.859 0.992759 14.8619 0.998765 14.8655C1.01077 14.8728 1.0275 14.8827 1.04883 14.8953C1.09148 14.9204 1.15257 14.9559 1.23119 15.0002C1.38839 15.0887 1.61593 15.2128 1.90658 15.3604C2.48746 15.6554 3.32293 16.0458 4.35506 16.4355C6.41328 17.2128 9.28673 18 12.5 18V16C9.60216 16 6.97561 15.2872 5.06161 14.5645C4.10763 14.2042 3.33893 13.8446 2.81217 13.5771C2.549 13.4435 2.34685 13.3331 2.21282 13.2576C2.14583 13.2199 2.09591 13.1909 2.06396 13.1721C2.04799 13.1627 2.03652 13.1558 2.02966 13.1517C2.02623 13.1496 2.02395 13.1482 2.02284 13.1476C2.02228 13.1472 2.02202 13.1471 2.02205 13.1471C2.02206 13.1471 2.02215 13.1471 2.02231 13.1472C2.02239 13.1473 2.02257 13.1474 2.02261 13.1474C2.0228 13.1475 2.02302 13.1477 1.5 14ZM12.5 18C15.7133 18 18.5867 17.2128 20.6449 16.4355C21.6771 16.0458 22.5125 15.6554 23.0934 15.3604C23.3841 15.2128 23.6116 15.0887 23.7688 15.0002C23.8474 14.9559 23.9085 14.9204 23.9512 14.8953C23.9725 14.8827 23.9892 14.8728 24.0012 14.8655C24.0072 14.8619 24.0121 14.859 24.0157 14.8568C24.0175 14.8557 24.019 14.8548 24.0203 14.854C24.0209 14.8536 24.0214 14.8533 24.0219 14.853C24.0221 14.8529 24.0224 14.8527 24.0225 14.8526C24.0228 14.8525 24.023 14.8523 23.5 14C22.977 13.1477 22.9772 13.1475 22.9774 13.1474C22.9774 13.1474 22.9776 13.1473 22.9777 13.1472C22.9779 13.1471 22.9779 13.1471 22.978 13.1471C22.978 13.1471 22.9777 13.1472 22.9772 13.1476C22.9761 13.1482 22.9738 13.1496 22.9703 13.1517C22.9635 13.1558 22.952 13.1627 22.936 13.1721C22.9041 13.1909 22.8542 13.2199 22.7872 13.2576C22.6532 13.3331 22.451 13.4435 22.1878 13.5771C21.6611 13.8446 20.8924 14.2042 19.9384 14.5645C18.0244 15.2872 15.3978 16 12.5 16V18ZM11.5 13H13.5V11H11.5V13Z" fill="#FAF9F7"/>
</g>
<defs>
<clipPath id="clip0_6484_47674">
<rect width="24" height="24" fill="white" transform="translate(0.5)"/>
</clipPath>
</defs>
</svg>
