<svg width="25" height="24" viewBox="0 0 25 24" fill="none" xmlns="http://www.w3.org/2000/svg">
<g clip-path="url(#clip0_6484_47672)">
<path d="M17.5 9V7C17.5 5.89543 16.6046 5 15.5 5H3.5C2.39543 5 1.5 5.89543 1.5 7V13C1.5 14.1046 2.39543 15 3.5 15H7.35714M9.5 19H21.5C22.6046 19 23.5 18.1046 23.5 17V11C23.5 9.89543 22.6046 9 21.5 9H9.5C8.39543 9 7.5 9.89543 7.5 11V17C7.5 18.1046 8.39543 19 9.5 19ZM17.5 14C17.5 15.1046 16.6046 16 15.5 16C14.3954 16 13.5 15.1046 13.5 14C13.5 12.8954 14.3954 12 15.5 12C16.6046 12 17.5 12.8954 17.5 14Z" stroke="#FAF9F7" stroke-width="2"/>
</g>
<defs>
<clipPath id="clip0_6484_47672">
<rect width="24" height="24" fill="white" transform="translate(0.5)"/>
</clipPath>
</defs>
</svg>
