<svg width="25" height="24" viewBox="0 0 25 24" fill="none" xmlns="http://www.w3.org/2000/svg">
<path d="M20.7718 15.8163C20.1608 17.3287 19.189 18.6687 17.9412 19.7195C16.6935 20.7702 15.2076 21.4997 13.6132 21.8444C12.0189 22.1891 10.3644 22.1386 8.794 21.6972C7.22363 21.2557 5.78509 20.4369 4.6038 19.312C3.42252 18.187 2.53436 16.7902 2.01676 15.2433C1.49917 13.6964 1.36786 12.0463 1.63428 10.437C1.9007 8.82766 2.55677 7.30795 3.54527 6.01035C4.53377 4.71276 5.8247 3.67668 7.30548 2.99246M16.3268 1.83144C15.5768 1.52077 14.7935 1.3033 13.9944 1.18253C13.1753 1.05873 12.5 1.74181 12.5 2.57024L12.5 9.57024C12.5 10.3987 13.1716 11.0702 14 11.0702L21 11.0702C21.8284 11.0702 22.5115 10.395 22.3877 9.57585C22.2669 8.77677 22.0495 7.99344 21.7388 7.2434C21.2363 6.03015 20.4997 4.92776 19.5711 3.99917C18.6425 3.07058 17.5401 2.33399 16.3268 1.83144Z" stroke="#FAF9F7" stroke-width="2" stroke-linecap="round"/>
</svg>
