<svg width="25" height="24" viewBox="0 0 25 24" fill="none" xmlns="http://www.w3.org/2000/svg">
<path d="M12.5 22.5V6.5M4.5 12H20.5V22H4.5V12ZM3.5 12H21.5C22.0523 12 22.5 11.5523 22.5 11V7C22.5 6.44772 22.0523 6 21.5 6H3.5C2.94772 6 2.5 6.44772 2.5 7V11C2.5 11.5523 2.94772 12 3.5 12ZM12.5 6.00006C12.5 6.00006 14.8954 6.00006 16 6.00006C17.1046 6.00006 18 5.10463 18 4.00006C18 2.89549 17.1046 2.00006 16 2.00006C15.5345 2.00006 15.164 1.98357 14.5 2.5C13.4105 3.34729 12.5 6.00006 12.5 6.00006ZM13 6.00006C13 6.00006 10.6046 6.00006 9.5 6.00006C8.39543 6.00006 7.5 5.10463 7.5 4.00006C7.5 2.89549 8.39543 2.00006 9.5 2.00006C9.96551 2.00006 10.336 1.98357 11 2.5C12.0895 3.34729 13 6.00006 13 6.00006Z" stroke="#FAF9F7" stroke-width="2"/>
</svg>
