<svg width="25" height="24" viewBox="0 0 25 24" fill="none" xmlns="http://www.w3.org/2000/svg">
<path d="M12.5 22.5V23M12.5 5V11M12.5 5C13.6046 5 14.5 4.10457 14.5 3C14.5 1.89543 13.6046 1 12.5 1C11.3954 1 10.5 1.89543 10.5 3C10.5 4.10457 11.3954 5 12.5 5ZM8.5 7.19731C6.5 5.5 5.5 4 5.5 1H1.5M16.5 7.19731C19 5.5 19.5 4 19.5 1H23.5M2.5 7H3.5M21.5 7H22.5M8.5 11H6.5C5.39543 11 4.5 11.8954 4.5 13C4.5 14.1046 5.39543 15 6.5 15H16.5C17.6046 15 18.5 15.8954 18.5 17C18.5 18.1046 17.6046 19 16.5 19H8.5" stroke="#FAF9F7" stroke-width="2" stroke-linecap="round" stroke-linejoin="round"/>
</svg>
