<svg width="26" height="25" viewBox="0 0 26 25" fill="none" xmlns="http://www.w3.org/2000/svg">
<path d="M12.1466 13.5589C12.5372 13.9494 13.1703 13.9494 13.5608 13.5589C13.9514 13.1684 13.9514 12.5352 13.5608 12.1447L12.1466 13.5589ZM11.4395 10.0234C11.049 9.63284 10.4158 9.63284 10.0253 10.0234C9.63479 10.4139 9.63479 11.0471 10.0253 11.4376L11.4395 10.0234ZM19.2177 20.6299C19.6082 21.0205 20.2414 21.0205 20.6319 20.6299C21.0224 20.2394 21.0224 19.6063 20.6319 19.2157L19.2177 20.6299ZM19.2177 17.8015C18.8272 17.411 18.194 17.411 17.8035 17.8015C17.413 18.192 17.413 18.8252 17.8035 19.2157L19.2177 17.8015ZM22.3997 16.7409L22.5411 17.7308L24.521 17.448L23.1068 16.0338L22.3997 16.7409ZM16.7428 22.3977L16.0357 23.1048L17.4499 24.5191L17.7328 22.5392L16.7428 22.3977ZM12.5002 18.1551L11.5102 18.0137L11.4395 18.5086L11.7931 18.8622L12.5002 18.1551ZM18.157 12.4982L18.8642 11.7911L18.5106 11.4376L18.0156 11.5083L18.157 12.4982ZM13.2073 13.2053L13.0659 12.2154L12.3234 12.3215L12.2173 13.0639L13.2073 13.2053ZM17.4499 17.448L17.3085 16.458L16.5661 16.5641L16.46 17.3066L17.4499 17.448ZM14.4569 9.26816C14.6584 9.78237 15.2386 10.0359 15.7528 9.83437C16.267 9.63287 16.5205 9.05267 16.319 8.53845L14.4569 9.26816ZM8.54043 16.3171C9.05464 16.5186 9.63485 16.2651 9.83635 15.7509C10.0379 15.2366 9.78435 14.6564 9.27014 14.4549L8.54043 16.3171ZM18.3154 8.17499C18.4913 8.6985 19.0583 8.98028 19.5818 8.80436C20.1054 8.62843 20.3871 8.06142 20.2112 7.53791L18.3154 8.17499ZM7.53986 20.2093C8.06338 20.3852 8.63039 20.1034 8.80631 19.5799C8.98223 19.0564 8.70046 18.4894 8.17694 18.3134L7.53986 20.2093ZM13.5608 12.1447L11.4395 10.0234L10.0253 11.4376L12.1466 13.5589L13.5608 12.1447ZM20.6319 19.2157L19.2177 17.8015L17.8035 19.2157L19.2177 20.6299L20.6319 19.2157ZM17.4499 21.6906L13.2073 17.448L11.7931 18.8622L16.0357 23.1048L17.4499 21.6906ZM17.4499 13.2053L21.6926 17.448L23.1068 16.0338L18.8642 11.7911L17.4499 13.2053ZM13.4901 18.2965L14.1972 13.3468L12.2173 13.0639L11.5102 18.0137L13.4901 18.2965ZM13.3487 14.1953L18.2985 13.4882L18.0156 11.5083L13.0659 12.2154L13.3487 14.1953ZM22.2583 15.7509L17.3085 16.458L17.5914 18.4379L22.5411 17.7308L22.2583 15.7509ZM16.46 17.3066L15.7529 22.2563L17.7328 22.5392L18.4399 17.5894L16.46 17.3066ZM7.90399 13.5589C6.34189 11.9968 6.34189 9.46411 7.90399 7.90201L6.48978 6.4878C4.14663 8.83095 4.14663 12.6299 6.48978 14.9731L7.90399 13.5589ZM7.90399 7.90201C9.46609 6.33992 11.9987 6.33992 13.5608 7.90201L14.9751 6.4878C12.6319 4.14465 8.83292 4.14465 6.48978 6.4878L7.90399 7.90201ZM13.5608 7.90201C13.9644 8.30558 14.2624 8.77174 14.4569 9.26816L16.319 8.53845C16.0259 7.79029 15.5771 7.08989 14.9751 6.4878L13.5608 7.90201ZM9.27014 14.4549C8.77371 14.2604 8.30756 13.9624 7.90399 13.5589L6.48978 14.9731C7.09187 15.5752 7.79226 16.0239 8.54043 16.3171L9.27014 14.4549ZM5.07557 16.3873C1.95137 13.2631 1.95137 8.19781 5.07557 5.07361L3.66135 3.6594C-0.243889 7.56464 -0.243889 13.8963 3.66135 17.8015L5.07557 16.3873ZM5.07557 5.07361C8.19976 1.94942 13.2651 1.94942 16.3893 5.07361L17.8035 3.6594C13.8982 -0.245842 7.5666 -0.245842 3.66135 3.6594L5.07557 5.07361ZM16.3893 5.07361C17.2937 5.978 17.9349 7.04262 18.3154 8.17499L20.2112 7.53791C19.7345 6.11935 18.9311 4.78701 17.8035 3.6594L16.3893 5.07361ZM8.17694 18.3134C7.04458 17.9329 5.97995 17.2917 5.07557 16.3873L3.66135 17.8015C4.78897 18.9292 6.1213 19.7326 7.53986 20.2093L8.17694 18.3134Z" fill="#FAF9F7"/>
</svg>
