<svg width="25" height="24" viewBox="0 0 25 24" fill="none" xmlns="http://www.w3.org/2000/svg">
<path d="M22.5 8V9C23.0523 9 23.5 8.55228 23.5 8H22.5ZM2.5 8H1.5C1.5 8.55228 1.94772 9 2.5 9V8ZM3.5 8V7C2.94772 7 2.5 7.44772 2.5 8H3.5ZM21.5 8H22.5C22.5 7.44772 22.0523 7 21.5 7V8ZM10.5 12C9.94772 12 9.5 12.4477 9.5 13C9.5 13.5523 9.94772 14 10.5 14V12ZM14.5 14C15.0523 14 15.5 13.5523 15.5 13C15.5 12.4477 15.0523 12 14.5 12V14ZM3.5 4H21.5V2H3.5V4ZM21.5 4V8H23.5V4H21.5ZM22.5 7H2.5V9H22.5V7ZM3.5 8V4H1.5V8H3.5ZM21.5 4H23.5C23.5 2.89543 22.6046 2 21.5 2V4ZM3.5 2C2.39543 2 1.5 2.89543 1.5 4H3.5V4V2ZM3.5 9H21.5V7H3.5V9ZM20.5 8V20H22.5V8H20.5ZM20.5 20H4.5V22H20.5V20ZM4.5 20V8H2.5V20H4.5ZM4.5 20H4.5H2.5C2.5 21.1046 3.39543 22 4.5 22V20ZM20.5 20V22C21.6046 22 22.5 21.1046 22.5 20H20.5ZM10.5 14H14.5V12H10.5V14Z" fill="#FAF9F7"/>
</svg>
