<svg width="25" height="24" viewBox="0 0 25 24" fill="none" xmlns="http://www.w3.org/2000/svg">
<path d="M2.5 9.25694C2.5 7.45818 3.95818 6 5.75694 6C6.84591 6 7.86283 5.45576 8.46688 4.54969L8.5 4.5C9.12474 3.56288 10.1765 3 11.3028 3H13.6972C14.8235 3 15.8753 3.56288 16.5 4.5L16.5331 4.54969C17.1372 5.45576 18.1541 6 19.2431 6C21.0418 6 22.5 7.45818 22.5 9.25694V17C22.5 19.2091 20.7091 21 18.5 21H6.5C4.29086 21 2.5 19.2091 2.5 17V9.25694Z" stroke="#FAF9F7" stroke-width="2" stroke-linecap="round" stroke-linejoin="round"/>
<path d="M16.5 13C16.5 15.2091 14.7091 17 12.5 17C10.2909 17 8.5 15.2091 8.5 13C8.5 10.7909 10.2909 9 12.5 9C14.7091 9 16.5 10.7909 16.5 13Z" stroke="#FAF9F7" stroke-width="2" stroke-linecap="round" stroke-linejoin="round"/>
</svg>
