<svg width="25" height="24" viewBox="0 0 25 24" fill="none" xmlns="http://www.w3.org/2000/svg">
<g clip-path="url(#clip0_6484_47539)">
<path d="M19.5 10V7.5C19.5 6.39543 18.6046 5.5 17.5 5.5H7.5C6.39543 5.5 5.5 6.39543 5.5 7.5V10M16.5 5.5V4C16.5 2.89543 15.6046 2 14.5 2H10.5C9.39543 2 8.5 2.89543 8.5 4V5.5M3.5 22H21.5C22.6046 22 23.5 21.1046 23.5 20V12C23.5 10.8954 22.6046 10 21.5 10H3.5C2.39543 10 1.5 10.8954 1.5 12V20C1.5 21.1046 2.39543 22 3.5 22Z" stroke="#FAF9F7" stroke-width="2"/>
</g>
<defs>
<clipPath id="clip0_6484_47539">
<rect width="24" height="24" fill="white" transform="translate(0.5)"/>
</clipPath>
</defs>
</svg>
