<svg width="25" height="24" viewBox="0 0 25 24" fill="none" xmlns="http://www.w3.org/2000/svg">
<path d="M4.5 4C4.5 2.89543 5.39543 2 6.5 2H9.73393C9.89704 2 10.0596 2.00498 10.2213 2.01484C11.7372 2.16549 12.9211 3.44449 12.9211 5V7.5C12.9211 8.88071 14.0403 10 15.4211 10H17.5C19.0023 10 20.2467 11.1043 20.4658 12.5454C20.4885 12.7903 20.5 13.037 20.5 13.2847V20C20.5 21.1046 19.6046 22 18.5 22H6.5C5.39543 22 4.5 21.1046 4.5 20V4ZM14.9211 5C14.9211 4.58138 14.8696 4.17477 14.7727 3.78616C15.1624 4.10221 15.5246 4.45673 15.8532 4.84691L18.6132 8.12437C18.2552 8.04298 17.8826 8 17.5 8H15.4211C15.1449 8 14.9211 7.77614 14.9211 7.5V5Z" stroke="#FAF9F7" stroke-width="2"/>
</svg>
