<svg width="25" height="24" viewBox="0 0 25 24" fill="none" xmlns="http://www.w3.org/2000/svg">
<g clip-path="url(#clip0_6484_47549)">
<path d="M17.7316 1.72871L18.5036 1.09307V1.09307L17.7316 1.72871ZM20.044 4.53706L19.272 5.1727L20.044 4.53706ZM17.7316 14.7287L18.5036 14.0931V14.0931L17.7316 14.7287ZM20.044 17.5371L19.272 18.1727V18.1727L20.044 17.5371ZM4.5 18.5H3.5C3.5 19.0523 3.94772 19.5 4.5 19.5V18.5ZM9 19.5C9.55228 19.5 10 19.0523 10 18.5C10 17.9477 9.55228 17.5 9 17.5V19.5ZM5.5 1C5.5 0.447715 5.05228 0 4.5 0C3.94772 0 3.5 0.447715 3.5 1H5.5ZM9 6.5C9.55228 6.5 10 6.05228 10 5.5C10 4.94772 9.55228 4.5 9 4.5V6.5ZM13.5 3C13.5 2.44772 13.9477 2 14.5 2V0C12.8431 0 11.5 1.34315 11.5 3H13.5ZM14.5 2H16.1876V0H14.5V2ZM16.1876 2C16.4865 2 16.7697 2.13365 16.9596 2.36436L18.5036 1.09307C17.9337 0.400963 17.0842 0 16.1876 0V2ZM16.9596 2.36436L19.272 5.1727L20.8159 3.90141L18.5036 1.09307L16.9596 2.36436ZM19.272 5.1727C19.4194 5.35173 19.5 5.57644 19.5 5.80835H21.5C21.5 5.11261 21.2582 4.43851 20.8159 3.90141L19.272 5.1727ZM19.5 5.80835V9H21.5V5.80835H19.5ZM19.5 9C19.5 9.55228 19.0523 10 18.5 10V12C20.1569 12 21.5 10.6569 21.5 9H19.5ZM18.5 10H14.5V12H18.5V10ZM14.5 10C13.9477 10 13.5 9.55229 13.5 9H11.5C11.5 10.6569 12.8431 12 14.5 12V10ZM13.5 9V3H11.5V9H13.5ZM13.5 16C13.5 15.4477 13.9477 15 14.5 15V13C12.8431 13 11.5 14.3431 11.5 16H13.5ZM14.5 15H16.1876V13H14.5V15ZM16.1876 15C16.4865 15 16.7697 15.1337 16.9596 15.3644L18.5036 14.0931C17.9337 13.401 17.0842 13 16.1876 13V15ZM16.9596 15.3644L19.272 18.1727L20.8159 16.9014L18.5036 14.0931L16.9596 15.3644ZM19.272 18.1727C19.4194 18.3517 19.5 18.5764 19.5 18.8083H21.5C21.5 18.1126 21.2582 17.4385 20.8159 16.9014L19.272 18.1727ZM19.5 18.8083V22H21.5V18.8083H19.5ZM19.5 22C19.5 22.5523 19.0523 23 18.5 23V25C20.1569 25 21.5 23.6569 21.5 22H19.5ZM18.5 23H14.5V25H18.5V23ZM14.5 23C13.9477 23 13.5 22.5523 13.5 22H11.5C11.5 23.6569 12.8431 25 14.5 25V23ZM13.5 22V16H11.5V22H13.5ZM4.5 19.5H9V17.5H4.5V19.5ZM3.5 1V5.5H5.5V1H3.5ZM3.5 5.5V18.5H5.5V5.5H3.5ZM4.5 6.5H9V4.5H4.5V6.5Z" fill="#FAF9F7"/>
</g>
<defs>
<clipPath id="clip0_6484_47549">
<rect width="24" height="24" fill="white" transform="translate(0.5)"/>
</clipPath>
</defs>
</svg>
