<svg width="25" height="24" viewBox="0 0 25 24" fill="none" xmlns="http://www.w3.org/2000/svg">
<path d="M5.2652 20.3217C4.89059 20.7275 4.9159 21.3602 5.32172 21.7348C5.72754 22.1094 6.3602 22.0841 6.7348 21.6783L5.2652 20.3217ZM16.7221 9.3844L17.4569 10.0627V10.0627L16.7221 9.3844ZM19.4582 9.19305L20.0914 8.41909V8.41909L19.4582 9.19305ZM22.8668 13.274C23.2942 13.6237 23.9242 13.5607 24.274 13.1332C24.6237 12.7058 24.5607 12.0758 24.1332 11.726L22.8668 13.274ZM4 13C4 13.5523 4.44772 14 5 14C5.55228 14 6 13.5523 6 13H4ZM12 13C12 13.5523 12.4477 14 13 14C13.5523 14 14 13.5523 14 13H12ZM3.5 4H21.5V2H3.5V4ZM22.5 5V19H24.5V5H22.5ZM21.5 20H3.5V22H21.5V20ZM2.5 19V5H0.5V19H2.5ZM3.5 20C2.94772 20 2.5 19.5523 2.5 19H0.5C0.5 20.6569 1.84314 22 3.5 22V20ZM22.5 19C22.5 19.5523 22.0523 20 21.5 20V22C23.1569 22 24.5 20.6569 24.5 19H22.5ZM21.5 4C22.0523 4 22.5 4.44772 22.5 5H24.5C24.5 3.34315 23.1569 2 21.5 2V4ZM3.5 2C1.84315 2 0.5 3.34315 0.5 5H2.5C2.5 4.44772 2.94772 4 3.5 4V2ZM6.7348 21.6783L17.4569 10.0627L15.9873 8.70612L5.2652 20.3217L6.7348 21.6783ZM18.8249 9.96701L22.8668 13.274L24.1332 11.726L20.0914 8.41909L18.8249 9.96701ZM17.4569 10.0627C17.8158 9.67389 18.4154 9.63195 18.8249 9.96701L20.0914 8.41909C18.8629 7.41392 17.064 7.53973 15.9873 8.70612L17.4569 10.0627ZM0.792893 10.7071L8.54289 18.4571L9.95711 17.0429L2.20711 9.29289L0.792893 10.7071ZM6 13C6 13.0142 6.00846 12.8888 6.16543 12.6344C6.30866 12.4022 6.53205 12.1349 6.8251 11.8819C7.41906 11.3691 8.19587 11 9 11V9C7.59499 9 6.3718 9.63094 5.51804 10.3681C5.08724 10.7401 4.72484 11.1603 4.46325 11.5844C4.21539 11.9862 4 12.4858 4 13H6ZM9 11C9.80413 11 10.5809 11.3691 11.1749 11.8819C11.468 12.1349 11.6913 12.4022 11.8346 12.6344C11.9915 12.8888 12 13.0142 12 13H14C14 12.4858 13.7846 11.9862 13.5368 11.5844C13.2752 11.1603 12.9128 10.7401 12.482 10.3681C11.6282 9.63094 10.405 9 9 9V11Z" fill="#FAF9F7"/>
</svg>
