<svg width="25" height="24" viewBox="0 0 25 24" fill="none" xmlns="http://www.w3.org/2000/svg">
<path d="M6.5 3L6.12861 2.07152C5.74895 2.22339 5.5 2.5911 5.5 3H6.5ZM11.5 1H12.5C12.5 0.668176 12.3354 0.357963 12.0606 0.171933C11.7859 -0.0140972 11.4367 -0.051713 11.1286 0.0715233L11.5 1ZM10.5 4C10.5 4.55228 10.9477 5 11.5 5C12.0523 5 12.5 4.55228 12.5 4H10.5ZM13.5 8L13.2127 7.04217C12.7897 7.16907 12.5 7.55839 12.5 8H13.5ZM23.5 5H24.5C24.5 4.68389 24.3505 4.3864 24.0969 4.19771C23.8433 4.00901 23.5154 3.95134 23.2127 4.04217L23.5 5ZM4 13H6.5V11H4V13ZM5.5 12V14.5H7.5V12H5.5ZM4 16C3.17157 16 2.5 15.3284 2.5 14.5H0.5C0.5 16.433 2.067 18 4 18V16ZM5.5 14.5C5.5 15.3284 4.82843 16 4 16V18C5.933 18 7.5 16.433 7.5 14.5H5.5ZM4 11C2.067 11 0.5 12.567 0.5 14.5H2.5C2.5 13.6716 3.17157 13 4 13V11ZM11 19H13.5V17H11V19ZM12.5 18V20.5H14.5V18H12.5ZM11 22C10.1716 22 9.5 21.3284 9.5 20.5H7.5C7.5 22.433 9.067 24 11 24V22ZM12.5 20.5C12.5 21.3284 11.8284 22 11 22V24C12.933 24 14.5 22.433 14.5 20.5H12.5ZM11 17C9.067 17 7.5 18.567 7.5 20.5H9.5C9.5 19.6716 10.1716 19 11 19V17ZM21 17H23.5V15H21V17ZM22.5 16V18.5H24.5V16H22.5ZM21 20C20.1716 20 19.5 19.3284 19.5 18.5H17.5C17.5 20.433 19.067 22 21 22V20ZM22.5 18.5C22.5 19.3284 21.8284 20 21 20V22C22.933 22 24.5 20.433 24.5 18.5H22.5ZM21 15C19.067 15 17.5 16.567 17.5 18.5H19.5C19.5 17.6716 20.1716 17 21 17V15ZM13.7873 13.9578L23.7873 10.9578L23.2127 9.04217L13.2127 12.0422L13.7873 13.9578ZM6.87139 3.92848L11.8714 1.92848L11.1286 0.0715233L6.12861 2.07152L6.87139 3.92848ZM10.5 1V4H12.5V1H10.5ZM7.5 12V3H5.5V12H7.5ZM13.7873 8.95783L23.7873 5.95783L23.2127 4.04217L13.2127 7.04217L13.7873 8.95783ZM22.5 5V16H24.5V5H22.5ZM14.5 18V8H12.5V18H14.5Z" fill="#FAF9F7"/>
</svg>
