<svg width="25" height="23" viewBox="0 0 25 23" fill="none" xmlns="http://www.w3.org/2000/svg">
<path d="M17.5005 7C16.9483 7 16.5005 7.44772 16.5005 8C16.5005 8.55228 16.9483 9 17.5005 9V7ZM23.5005 9C24.0528 9 24.5005 8.55228 24.5005 8C24.5005 7.44772 24.0528 7 23.5005 7V9ZM10.5005 13.5C9.94825 13.5 9.50054 13.9477 9.50054 14.5C9.50054 15.0523 9.94825 15.5 10.5005 15.5V13.5ZM23.5005 15.5C24.0528 15.5 24.5005 15.0523 24.5005 14.5C24.5005 13.9477 24.0528 13.5 23.5005 13.5V15.5ZM1.50054 20.5C0.948256 20.5 0.500541 20.9477 0.500541 21.5C0.500541 22.0523 0.948256 22.5 1.50054 22.5V20.5ZM23.5005 22.5C24.0528 22.5 24.5005 22.0523 24.5005 21.5C24.5005 20.9477 24.0528 20.5 23.5005 20.5V22.5ZM1.45508 2.96955H0.455078H1.45508ZM2.81871 2.13115L3.34247 1.27928L2.81871 2.13115ZM11.0005 7.16159L10.4768 8.01346V8.01346L11.0005 7.16159ZM11.0005 8.83841L11.5243 9.69028L11.0005 8.83841ZM2.81871 13.8689L3.34247 14.7207H3.34247L2.81871 13.8689ZM1.45508 13.0304H2.45508H1.45508ZM17.5005 9H23.5005V7H17.5005V9ZM10.5005 15.5H23.5005V13.5H10.5005V15.5ZM1.50054 22.5H23.5005V20.5H1.50054V22.5ZM2.45508 2.96955C2.45508 2.95559 2.45789 2.956 2.45383 2.96319C2.45093 2.96833 2.44503 2.97585 2.43338 2.98301C2.42162 2.99025 2.39985 2.99939 2.36859 2.99997C2.33368 3.00062 2.30642 2.99006 2.29496 2.98301L3.34247 1.27928C1.97472 0.438341 0.455078 1.55679 0.455078 2.96955H2.45508ZM2.29496 2.98301L10.4768 8.01346L11.5243 6.30972L3.34247 1.27928L2.29496 2.98301ZM10.4768 8.01346C10.4728 8.01101 10.4677 8.00701 10.4629 8.00179C10.4583 7.99678 10.4557 7.99249 10.4544 7.99008C10.4532 7.98783 10.4535 7.98765 10.454 7.98987C10.4545 7.99215 10.4551 7.99569 10.4551 8C10.4551 8.00431 10.4545 8.00785 10.454 8.01013C10.4535 8.01235 10.4532 8.01217 10.4544 8.00993C10.4557 8.00751 10.4583 8.00322 10.4629 7.99821C10.4677 7.99299 10.4728 7.98899 10.4768 7.98654L11.5243 9.69028C12.7653 8.92724 12.7653 7.07276 11.5243 6.30972L10.4768 8.01346ZM10.4768 7.98654L2.29496 13.017L3.34247 14.7207L11.5243 9.69028L10.4768 7.98654ZM2.29496 13.017C2.30642 13.0099 2.33368 12.9994 2.36859 13C2.39985 13.0006 2.42162 13.0098 2.43338 13.017C2.44504 13.0242 2.45093 13.0317 2.45383 13.0368C2.45789 13.044 2.45508 13.0444 2.45508 13.0304H0.455078C0.455078 14.4432 1.97472 15.5617 3.34247 14.7207L2.29496 13.017ZM2.45508 13.0304L2.45508 2.96955H0.455078L0.455078 13.0304H2.45508Z" fill="#FAF9F7"/>
</svg>
