<svg width="25" height="24" viewBox="0 0 25 24" fill="none" xmlns="http://www.w3.org/2000/svg">
<path d="M6.35064 16.0803C6.6711 16.5301 7.29553 16.6349 7.74533 16.3144C8.19513 15.994 8.29997 15.3695 7.9795 14.9197L6.35064 16.0803ZM17.0205 14.9197C16.7 15.3695 16.8049 15.994 17.2547 16.3144C17.7045 16.6349 18.3289 16.5301 18.6494 16.0803L17.0205 14.9197ZM18.8474 19.7277C18.4209 20.0785 18.3595 20.7087 18.7103 21.1352C19.0611 21.5618 19.6913 21.6232 20.1178 21.2723L18.8474 19.7277ZM5.59808 21.8176C6.04963 22.1356 6.67347 22.0273 6.99146 21.5758C7.30944 21.1242 7.20116 20.5004 6.74961 20.1824L5.59808 21.8176ZM10.1118 21.2828L9.12188 21.4243V21.4243L10.1118 21.2828ZM14.8882 21.2828L15.8781 21.4243V21.4243L14.8882 21.2828ZM15.1739 19.2828L14.1839 19.1414V19.1414L15.1739 19.2828ZM9.82612 19.2828L10.8161 19.1414V19.1414L9.82612 19.2828ZM7 11.8636C7 8.92126 9.44234 6.5 12.5 6.5V4.5C8.37796 4.5 5 7.77693 5 11.8636H7ZM12.5 6.5C15.5577 6.5 18 8.92126 18 11.8636H20C20 7.77693 16.622 4.5 12.5 4.5V6.5ZM7.9795 14.9197C7.36097 14.0516 7 12.9995 7 11.8636H5C5 13.4319 5.5004 14.8869 6.35064 16.0803L7.9795 14.9197ZM18 11.8636C18 12.9995 17.639 14.0516 17.0205 14.9197L18.6494 16.0803C19.4996 14.8869 20 13.4319 20 11.8636H18ZM2.5 12C2.5 6.47715 6.97715 2 12.5 2V0C5.87258 0 0.5 5.37258 0.5 12H2.5ZM12.5 2C18.0228 2 22.5 6.47715 22.5 12H24.5C24.5 5.37258 19.1274 0 12.5 0V2ZM22.5 12C22.5 15.1123 21.0794 17.892 18.8474 19.7277L20.1178 21.2723C22.7919 19.0731 24.5 15.7356 24.5 12H22.5ZM6.74961 20.1824C4.17723 18.3709 2.5 15.3813 2.5 12H0.5C0.5 16.0594 2.51656 19.6476 5.59808 21.8176L6.74961 20.1824ZM13.5 12C13.5 12.5523 13.0523 13 12.5 13V15C14.1569 15 15.5 13.6569 15.5 12H13.5ZM12.5 13C11.9477 13 11.5 12.5523 11.5 12H9.5C9.5 13.6569 10.8431 15 12.5 15V13ZM11.5 12C11.5 11.4477 11.9477 11 12.5 11V9C10.8431 9 9.5 10.3431 9.5 12H11.5ZM12.5 11C13.0523 11 13.5 11.4477 13.5 12H15.5C15.5 10.3431 14.1569 9 12.5 9V11ZM11.806 18H13.194V16H11.806V18ZM14.1839 19.1414L13.8982 21.1414L15.8781 21.4243L16.1638 19.4243L14.1839 19.1414ZM12.9083 22H12.0917V24H12.9083V22ZM11.1018 21.1414L10.8161 19.1414L8.83617 19.4243L9.12188 21.4243L11.1018 21.1414ZM12.0917 22C11.5941 22 11.1722 21.6341 11.1018 21.1414L9.12188 21.4243C9.33302 22.9022 10.5988 24 12.0917 24V22ZM13.8982 21.1414C13.8278 21.6341 13.4059 22 12.9083 22V24C14.4012 24 15.667 22.9022 15.8781 21.4243L13.8982 21.1414ZM13.194 18C13.8025 18 14.27 18.539 14.1839 19.1414L16.1638 19.4243C16.422 17.617 15.0196 16 13.194 16V18ZM11.806 16C9.98037 16 8.57799 17.617 8.83617 19.4243L10.8161 19.1414C10.73 18.539 11.1975 18 11.806 18V16Z" fill="#FAF9F7"/>
</svg>
