<svg width="25" height="24" viewBox="0 0 25 24" fill="none" xmlns="http://www.w3.org/2000/svg">
<path d="M1.5 5.2L0.875305 4.41913C0.63809 4.6089 0.5 4.89622 0.5 5.2H1.5ZM12.5 21L11.8753 21.7809L12.5 22.2806L13.1247 21.7809L12.5 21ZM1.5 21H0.5C0.5 21.3844 0.720346 21.7348 1.06681 21.9013C1.41328 22.0678 1.82452 22.021 2.12469 21.7809L1.5 21ZM23.5 5.2H24.5C24.5 4.89622 24.3619 4.6089 24.1247 4.41913L23.5 5.2ZM23.5 21L22.8753 21.7809C23.1755 22.021 23.5867 22.0678 23.9332 21.9013C24.2797 21.7348 24.5 21.3844 24.5 21H23.5ZM11.5 5.2V21H13.5V5.2H11.5ZM2.5 21V5.2H0.5V21H2.5ZM1.5 5.2C2.1247 5.98087 2.12452 5.98101 2.12435 5.98114C2.12431 5.98117 2.12416 5.9813 2.12407 5.98136C2.12391 5.9815 2.12378 5.9816 2.1237 5.98166C2.12353 5.9818 2.12353 5.9818 2.12369 5.98168C2.124 5.98143 2.12496 5.98066 2.12657 5.9794C2.12977 5.97688 2.13552 5.97237 2.14373 5.96602C2.16016 5.9533 2.18641 5.93319 2.22182 5.90675C2.29271 5.85382 2.39993 5.77578 2.53818 5.68098C2.81555 5.49079 3.21324 5.23627 3.68934 4.98235C4.66435 4.46235 5.86652 4 7 4V2C5.38348 2 3.83565 2.63765 2.74816 3.21765C2.19301 3.51373 1.73133 3.80921 1.40713 4.03152C1.2446 4.14297 1.1155 4.2368 1.02525 4.30419C0.980092 4.3379 0.944578 4.36506 0.919382 4.38457C0.906781 4.39432 0.896752 4.40217 0.88938 4.40798C0.885694 4.41088 0.882671 4.41327 0.880322 4.41514C0.879147 4.41607 0.878141 4.41687 0.877304 4.41754C0.876886 4.41787 0.87651 4.41817 0.876177 4.41843C0.87601 4.41857 0.875792 4.41874 0.875709 4.41881C0.875502 4.41897 0.875305 4.41913 1.5 5.2ZM7 4C8.13348 4 9.33565 4.46235 10.3107 4.98235C10.7868 5.23627 11.1845 5.49079 11.4618 5.68098C11.6001 5.77578 11.7073 5.85382 11.7782 5.90675C11.8136 5.93319 11.8398 5.9533 11.8563 5.96602C11.8645 5.97237 11.8702 5.97688 11.8734 5.9794C11.875 5.98066 11.876 5.98143 11.8763 5.98168C11.8765 5.9818 11.8765 5.9818 11.8763 5.98166C11.8762 5.9816 11.8761 5.9815 11.8759 5.98136C11.8758 5.9813 11.8757 5.98117 11.8756 5.98114C11.8755 5.98101 11.8753 5.98087 12.5 5.2C13.1247 4.41913 13.1245 4.41897 13.1243 4.41881C13.1242 4.41874 13.124 4.41857 13.1238 4.41843C13.1235 4.41817 13.1231 4.41787 13.1227 4.41754C13.1219 4.41687 13.1209 4.41607 13.1197 4.41514C13.1173 4.41327 13.1143 4.41088 13.1106 4.40798C13.1032 4.40217 13.0932 4.39432 13.0806 4.38457C13.0554 4.36506 13.0199 4.3379 12.9748 4.30419C12.8845 4.2368 12.7554 4.14297 12.5929 4.03152C12.2687 3.80921 11.807 3.51373 11.2518 3.21765C10.1643 2.63765 8.61652 2 7 2V4ZM12.5 21C13.1247 20.2191 13.1245 20.219 13.1243 20.2188C13.1242 20.2187 13.124 20.2186 13.1238 20.2184C13.1235 20.2182 13.1231 20.2179 13.1227 20.2175C13.1219 20.2169 13.1209 20.2161 13.1197 20.2151C13.1173 20.2133 13.1143 20.2109 13.1106 20.208C13.1032 20.2022 13.0932 20.1943 13.0806 20.1846C13.0554 20.1651 13.0199 20.1379 12.9748 20.1042C12.8845 20.0368 12.7554 19.943 12.5929 19.8315C12.2687 19.6092 11.807 19.3137 11.2518 19.0176C10.1643 18.4377 8.61652 17.8 7 17.8V19.8C8.13348 19.8 9.33565 20.2623 10.3107 20.7824C10.7868 21.0363 11.1845 21.2908 11.4618 21.481C11.6001 21.5758 11.7073 21.6538 11.7782 21.7067C11.8136 21.7332 11.8398 21.7533 11.8563 21.766C11.8645 21.7724 11.8702 21.7769 11.8734 21.7794C11.875 21.7807 11.876 21.7814 11.8763 21.7817C11.8765 21.7818 11.8765 21.7818 11.8763 21.7817C11.8762 21.7816 11.8761 21.7815 11.8759 21.7814C11.8758 21.7813 11.8757 21.7812 11.8756 21.7811C11.8755 21.781 11.8753 21.7809 12.5 21ZM7 17.8C5.38348 17.8 3.83565 18.4377 2.74816 19.0176C2.19301 19.3137 1.73133 19.6092 1.40713 19.8315C1.2446 19.943 1.1155 20.0368 1.02525 20.1042C0.980092 20.1379 0.944578 20.1651 0.919382 20.1846C0.906781 20.1943 0.896753 20.2022 0.889381 20.208C0.885694 20.2109 0.882671 20.2133 0.880322 20.2151C0.879147 20.2161 0.878141 20.2169 0.877305 20.2175C0.876886 20.2179 0.87651 20.2182 0.876177 20.2184C0.876011 20.2186 0.875792 20.2187 0.875709 20.2188C0.875502 20.219 0.875305 20.2191 1.5 21C2.12469 21.7809 2.12452 21.781 2.12435 21.7811C2.12431 21.7812 2.12416 21.7813 2.12407 21.7814C2.12391 21.7815 2.12378 21.7816 2.1237 21.7817C2.12353 21.7818 2.12353 21.7818 2.12369 21.7817C2.124 21.7814 2.12496 21.7807 2.12656 21.7794C2.12977 21.7769 2.13552 21.7724 2.14373 21.766C2.16016 21.7533 2.18641 21.7332 2.22182 21.7067C2.29271 21.6538 2.39993 21.5758 2.53818 21.481C2.81555 21.2908 3.21324 21.0363 3.68934 20.7824C4.66435 20.2623 5.86652 19.8 7 19.8V17.8ZM22.5 5.2V21H24.5V5.2H22.5ZM12.5 5.2C13.1247 5.98087 13.1245 5.98101 13.1244 5.98114C13.1243 5.98117 13.1242 5.9813 13.1241 5.98136C13.1239 5.9815 13.1238 5.9816 13.1237 5.98166C13.1235 5.9818 13.1235 5.9818 13.1237 5.98168C13.124 5.98143 13.125 5.98066 13.1266 5.9794C13.1298 5.97688 13.1355 5.97237 13.1437 5.96602C13.1602 5.9533 13.1864 5.93319 13.2218 5.90675C13.2927 5.85382 13.3999 5.77578 13.5382 5.68098C13.8155 5.49079 14.2132 5.23627 14.6893 4.98235C15.6643 4.46235 16.8665 4 18 4V2C16.3835 2 14.8357 2.63765 13.7482 3.21765C13.193 3.51373 12.7313 3.80921 12.4071 4.03152C12.2446 4.14297 12.1155 4.2368 12.0252 4.30419C11.9801 4.3379 11.9446 4.36506 11.9194 4.38457C11.9068 4.39432 11.8968 4.40217 11.8894 4.40798C11.8857 4.41088 11.8827 4.41327 11.8803 4.41514C11.8791 4.41607 11.8781 4.41687 11.8773 4.41754C11.8769 4.41787 11.8765 4.41817 11.8762 4.41843C11.876 4.41857 11.8758 4.41874 11.8757 4.41881C11.8755 4.41897 11.8753 4.41913 12.5 5.2ZM18 4C19.1335 4 20.3356 4.46235 21.3107 4.98235C21.7868 5.23627 22.1845 5.49079 22.4618 5.68098C22.6001 5.77578 22.7073 5.85382 22.7782 5.90675C22.8136 5.93319 22.8398 5.9533 22.8563 5.96602C22.8645 5.97237 22.8702 5.97688 22.8734 5.9794C22.875 5.98066 22.876 5.98143 22.8763 5.98168C22.8765 5.9818 22.8765 5.9818 22.8763 5.98166C22.8762 5.9816 22.8761 5.9815 22.8759 5.98136C22.8758 5.9813 22.8757 5.98117 22.8756 5.98114C22.8755 5.98101 22.8753 5.98087 23.5 5.2C24.1247 4.41913 24.1245 4.41897 24.1243 4.41881C24.1242 4.41874 24.124 4.41857 24.1238 4.41843C24.1235 4.41817 24.1231 4.41787 24.1227 4.41754C24.1219 4.41687 24.1209 4.41607 24.1197 4.41514C24.1173 4.41327 24.1143 4.41088 24.1106 4.40798C24.1032 4.40217 24.0932 4.39432 24.0806 4.38457C24.0554 4.36506 24.0199 4.3379 23.9748 4.30419C23.8845 4.2368 23.7554 4.14297 23.5929 4.03152C23.2687 3.80921 22.807 3.51373 22.2518 3.21765C21.1644 2.63765 19.6165 2 18 2V4ZM23.5 21C24.1247 20.2191 24.1245 20.219 24.1243 20.2188C24.1242 20.2187 24.124 20.2186 24.1238 20.2184C24.1235 20.2182 24.1231 20.2179 24.1227 20.2175C24.1219 20.2169 24.1209 20.2161 24.1197 20.2151C24.1173 20.2133 24.1143 20.2109 24.1106 20.208C24.1032 20.2022 24.0932 20.1943 24.0806 20.1846C24.0554 20.1651 24.0199 20.1379 23.9748 20.1042C23.8845 20.0368 23.7554 19.943 23.5929 19.8315C23.2687 19.6092 22.807 19.3137 22.2518 19.0176C21.1644 18.4377 19.6165 17.8 18 17.8V19.8C19.1335 19.8 20.3356 20.2623 21.3107 20.7824C21.7868 21.0363 22.1845 21.2908 22.4618 21.481C22.6001 21.5758 22.7073 21.6538 22.7782 21.7067C22.8136 21.7332 22.8398 21.7533 22.8563 21.766C22.8645 21.7724 22.8702 21.7769 22.8734 21.7794C22.875 21.7807 22.876 21.7814 22.8763 21.7817C22.8765 21.7818 22.8765 21.7818 22.8763 21.7817C22.8762 21.7816 22.8761 21.7815 22.8759 21.7814C22.8758 21.7813 22.8757 21.7812 22.8756 21.7811C22.8755 21.781 22.8753 21.7809 23.5 21ZM18 17.8C16.3835 17.8 14.8357 18.4377 13.7482 19.0176C13.193 19.3137 12.7313 19.6092 12.4071 19.8315C12.2446 19.943 12.1155 20.0368 12.0252 20.1042C11.9801 20.1379 11.9446 20.1651 11.9194 20.1846C11.9068 20.1943 11.8968 20.2022 11.8894 20.208C11.8857 20.2109 11.8827 20.2133 11.8803 20.2151C11.8791 20.2161 11.8781 20.2169 11.8773 20.2175C11.8769 20.2179 11.8765 20.2182 11.8762 20.2184C11.876 20.2186 11.8758 20.2187 11.8757 20.2188C11.8755 20.219 11.8753 20.2191 12.5 21C13.1247 21.7809 13.1245 21.781 13.1244 21.7811C13.1243 21.7812 13.1242 21.7813 13.1241 21.7814C13.1239 21.7815 13.1238 21.7816 13.1237 21.7817C13.1235 21.7818 13.1235 21.7818 13.1237 21.7817C13.124 21.7814 13.125 21.7807 13.1266 21.7794C13.1298 21.7769 13.1355 21.7724 13.1437 21.766C13.1602 21.7533 13.1864 21.7332 13.2218 21.7067C13.2927 21.6538 13.3999 21.5758 13.5382 21.481C13.8155 21.2908 14.2132 21.0363 14.6893 20.7824C15.6643 20.2623 16.8665 19.8 18 19.8V17.8Z" fill="#FAF9F7"/>
</svg>
