<svg width="25" height="24" viewBox="0 0 25 24" fill="none" xmlns="http://www.w3.org/2000/svg">
<mask id="path-1-inside-1_6484_47544" fill="white">
<path d="M1.5 9.16724H5.5L10.5 5.16724V19.1672L5.5 15.1672H1.5V9.16724Z"/>
</mask>
<path d="M20.9091 3.29289C20.5186 2.90237 19.8854 2.90237 19.4949 3.29289C19.1044 3.68342 19.1044 4.31658 19.4949 4.70711L20.9091 3.29289ZM22.5865 7.56866L21.6626 7.95134L22.5865 7.56866ZM22.5865 15.9877L23.5104 16.3704L22.5865 15.9877ZM19.4949 18.8492C19.1044 19.2398 19.1044 19.8729 19.4949 20.2635C19.8854 20.654 20.5186 20.654 20.9091 20.2635L19.4949 18.8492ZM16.6421 7.09612C16.2516 6.70559 15.6184 6.70559 15.2279 7.09612C14.8374 7.48664 14.8374 8.11981 15.2279 8.51033L16.6421 7.09612ZM17.2357 9.74976L16.3118 10.1324L17.2357 9.74976ZM17.2357 14.342L16.3118 13.9593L17.2357 14.342ZM15.2279 15.5814C14.8374 15.9719 14.8374 16.6051 15.2279 16.9956C15.6184 17.3861 16.2516 17.3861 16.6421 16.9956L15.2279 15.5814ZM19.4949 4.70711C20.4235 5.63569 21.1601 6.73808 21.6626 7.95134L23.5104 7.18597C22.9073 5.73007 22.0234 4.4072 20.9091 3.29289L19.4949 4.70711ZM21.6626 7.95134C22.1652 9.1646 22.4238 10.465 22.4238 11.7782H24.4238C24.4238 10.2023 24.1134 8.64188 23.5104 7.18597L21.6626 7.95134ZM22.4238 11.7782C22.4238 13.0914 22.1652 14.3918 21.6626 15.605L23.5104 16.3704C24.1134 14.9145 24.4238 13.354 24.4238 11.7782H22.4238ZM21.6626 15.605C21.1601 16.8183 20.4235 17.9207 19.4949 18.8492L20.9091 20.2635C22.0234 19.1492 22.9073 17.8263 23.5104 16.3704L21.6626 15.605ZM15.2279 8.51033C15.6922 8.97462 16.0605 9.52582 16.3118 10.1324L18.1595 9.36708C17.8078 8.5178 17.2921 7.74613 16.6421 7.09612L15.2279 8.51033ZM16.3118 10.1324C16.5631 10.7391 16.6924 11.3893 16.6924 12.0459H18.6924C18.6924 11.1266 18.5113 10.2164 18.1595 9.36708L16.3118 10.1324ZM16.6924 12.0459C16.6924 12.7025 16.5631 13.3527 16.3118 13.9593L18.1595 14.7246C18.5113 13.8754 18.6924 12.9651 18.6924 12.0459H16.6924ZM16.3118 13.9593C16.0605 14.5659 15.6922 15.1171 15.2279 15.5814L16.6421 16.9956C17.2921 16.3456 17.8078 15.5739 18.1595 14.7246L16.3118 13.9593ZM1.5 9.16724V7.16724C0.39543 7.16724 -0.5 8.06267 -0.5 9.16724H1.5ZM10.5 5.16724H12.5C12.5 4.39843 12.0593 3.69767 11.3664 3.36463C10.6734 3.03159 9.85095 3.12523 9.25061 3.6055L10.5 5.16724ZM10.5 19.1672L9.25061 20.729C9.85095 21.2092 10.6734 21.3029 11.3664 20.9698C12.0593 20.6368 12.5 19.936 12.5 19.1672H10.5ZM1.5 15.1672H-0.5C-0.5 16.2718 0.39543 17.1672 1.5 17.1672L1.5 15.1672ZM5.5 15.1672L6.74939 13.6055C6.39476 13.3218 5.95414 13.1672 5.5 13.1672V15.1672ZM5.5 9.16724V11.1672C5.95414 11.1672 6.39476 11.0127 6.74939 10.729L5.5 9.16724ZM8.5 5.16724V19.1672H12.5V5.16724H8.5ZM3.5 15.1672V9.16724H-0.5V15.1672H3.5ZM11.7494 17.6055L6.74939 13.6055L4.25061 16.729L9.25061 20.729L11.7494 17.6055ZM5.5 13.1672H1.5V17.1672H5.5V13.1672ZM1.5 11.1672H5.5V7.16724H1.5V11.1672ZM6.74939 10.729L11.7494 6.72897L9.25061 3.6055L4.25061 7.6055L6.74939 10.729Z" fill="#FAF9F7" mask="url(#path-1-inside-1_6484_47544)"/>
</svg>
