<svg width="25" height="24" viewBox="0 0 25 24" fill="none" xmlns="http://www.w3.org/2000/svg">
<path d="M1.9138 17.0896C1.41102 16.8611 0.818171 17.0834 0.589634 17.5862C0.361097 18.089 0.583416 18.6818 1.0862 18.9104L1.9138 17.0896ZM12.5 23L12.0862 23.9104C12.3491 24.0299 12.6509 24.0299 12.9138 23.9104L12.5 23ZM23.9138 18.9104C24.4166 18.6818 24.6389 18.089 24.4104 17.5862C24.1818 17.0834 23.589 16.8611 23.0862 17.0896L23.9138 18.9104ZM1.9138 10.5896C1.41102 10.3611 0.818171 10.5834 0.589634 11.0862C0.361097 11.589 0.583416 12.1818 1.0862 12.4104L1.9138 10.5896ZM12.5 16.5L12.0862 17.4104C12.3491 17.5299 12.6509 17.5299 12.9138 17.4104L12.5 16.5ZM23.9138 12.4104C24.4166 12.1818 24.6389 11.589 24.4104 11.0862C24.1818 10.5834 23.589 10.3611 23.0862 10.5896L23.9138 12.4104ZM23.5 5L23.9138 5.91037C24.2837 5.74225 24.5151 5.36706 24.4992 4.96108C24.4834 4.55511 24.2236 4.19905 23.8417 4.06021L23.5 5ZM12.5 1L12.8417 0.0602066C12.621 -0.0200689 12.379 -0.0200689 12.1583 0.0602066L12.5 1ZM1.5 5L1.15826 4.06021C0.776435 4.19905 0.516569 4.55511 0.500758 4.96108C0.484946 5.36706 0.716331 5.74225 1.0862 5.91037L1.5 5ZM12.5 10L12.0862 10.9104C12.3491 11.0299 12.6509 11.0299 12.9138 10.9104L12.5 10ZM1.0862 18.9104L12.0862 23.9104L12.9138 22.0896L1.9138 17.0896L1.0862 18.9104ZM12.9138 23.9104L23.9138 18.9104L23.0862 17.0896L12.0862 22.0896L12.9138 23.9104ZM1.0862 12.4104L12.0862 17.4104L12.9138 15.5896L1.9138 10.5896L1.0862 12.4104ZM12.9138 17.4104L23.9138 12.4104L23.0862 10.5896L12.0862 15.5896L12.9138 17.4104ZM23.8417 4.06021L12.8417 0.0602066L12.1583 1.93979L23.1583 5.93979L23.8417 4.06021ZM12.1583 0.0602066L1.15826 4.06021L1.84174 5.93979L12.8417 1.93979L12.1583 0.0602066ZM1.0862 5.91037L12.0862 10.9104L12.9138 9.08963L1.9138 4.08963L1.0862 5.91037ZM12.9138 10.9104L23.9138 5.91037L23.0862 4.08963L12.0862 9.08963L12.9138 10.9104Z" fill="#FAF9F7"/>
</svg>
