<svg width="25" height="24" viewBox="0 0 25 24" fill="none" xmlns="http://www.w3.org/2000/svg">
<path d="M16.5 10.2H15.5C15.5 10.5654 15.6993 10.9018 16.0199 11.0772C16.3405 11.2527 16.7313 11.2393 17.0391 11.0423L16.5 10.2ZM21.5 7H22.5C22.5 6.63456 22.3007 6.29821 21.9801 6.12277C21.6595 5.94733 21.2687 5.96073 20.9609 6.15773L21.5 7ZM21.5 17L20.9609 17.8423C21.2687 18.0393 21.6595 18.0527 21.9801 17.8772C22.3007 17.7018 22.5 17.3654 22.5 17H21.5ZM16.5 13.8L17.0391 12.9577C16.7313 12.7607 16.3405 12.7473 16.0199 12.9228C15.6993 13.0982 15.5 13.4346 15.5 13.8H16.5ZM14.6333 5H5.36667V7H14.6333V5ZM17.5 7.71429C17.5 6.13677 16.1347 5 14.6333 5V7C15.1939 7 15.5 7.39826 15.5 7.71429H17.5ZM17.5 10.2V7.71429H15.5V10.2H17.5ZM20.9609 6.15773L15.9609 9.35773L17.0391 11.0423L22.0391 7.84227L20.9609 6.15773ZM22.5 17V7H20.5V17H22.5ZM15.9609 14.6423L20.9609 17.8423L22.0391 16.1577L17.0391 12.9577L15.9609 14.6423ZM17.5 16.2857V13.8H15.5V16.2857H17.5ZM14.6333 19C16.1347 19 17.5 17.8632 17.5 16.2857H15.5C15.5 16.6017 15.1939 17 14.6333 17V19ZM5.36667 19H14.6333V17H5.36667V19ZM2.5 16.2857C2.5 17.8632 3.86532 19 5.36667 19V17C4.80615 17 4.5 16.6017 4.5 16.2857H2.5ZM2.5 7.71429V16.2857H4.5V7.71429H2.5ZM5.36667 5C3.86532 5 2.5 6.13677 2.5 7.71429H4.5C4.5 7.39826 4.80615 7 5.36667 7V5ZM7.5 6V18H9.5V6H7.5Z" fill="#FAF9F7"/>
</svg>
