<svg width="25" height="24" viewBox="0 0 25 24" fill="none" xmlns="http://www.w3.org/2000/svg">
<path d="M20.2782 4.22183C24.5739 8.51759 24.5739 15.4824 20.2782 19.7782C15.9824 24.0739 9.01759 24.0739 4.72183 19.7782M20.2782 4.22183C15.9824 -0.0739419 9.01759 -0.0739419 4.72183 4.22183M20.2782 4.22183L16.0355 8.46448M4.72183 19.7782C0.426058 15.4824 0.426058 8.51759 4.72183 4.22183M4.72183 19.7782L8.96447 15.5354M4.72183 4.22183L8.61091 8.11089M16.0355 15.5355L19.9246 19.4246M17.5 12C17.5 14.7614 15.2614 17 12.5 17C9.73858 17 7.5 14.7614 7.5 12C7.5 9.23858 9.73858 7 12.5 7C15.2614 7 17.5 9.23858 17.5 12Z" stroke="#FAF9F7" stroke-width="2"/>
</svg>
