<svg width="25" height="24" viewBox="0 0 25 24" fill="none" xmlns="http://www.w3.org/2000/svg">
<path d="M9.43485 12.0625C9.04816 11.1743 8.83333 10.1913 8.83333 9.1571C8.83333 5.96911 10.8748 3.26674 13.6989 2.33203C13.2152 3.3047 12.9427 4.40474 12.9427 5.56963C12.9427 9.53224 16.0967 12.7446 19.9875 12.7446C20.748 12.7446 21.4805 12.6218 22.1667 12.3947C21.2612 14.2154 19.6158 15.5898 17.6333 16.1076M5.83975 22.7429C3.32528 22.0243 1.5 19.8736 1.5 17.332C1.5 14.2024 4.26769 11.6654 7.68182 11.6654C9.96996 11.6654 11.9678 12.8049 13.0366 14.4987H14.25C16.5972 14.4987 18.5 16.4015 18.5 18.7487C18.5 21.0959 16.5972 22.9987 14.25 22.9987H7.29544C6.78409 22.9987 6.29383 22.9084 5.83975 22.7429Z" stroke="#FAF9F7" stroke-width="2"/>
</svg>
