<svg width="25" height="24" viewBox="0 0 25 24" fill="none" xmlns="http://www.w3.org/2000/svg">
<path d="M16.0997 18V22M14.5 19.1738L17.7633 21.0579M14.5 21.0579L17.7633 19.1739M5.08341 16.7998V23M2.5 18.0398L7.66683 21.7599M2.5 21.7602L7.66683 18.0401M10.0951 12.7291C7.43268 11.9683 5.5 9.69106 5.5 7C5.5 3.68629 8.4305 1 12.0455 1C14.4682 1 16.5835 2.2066 17.7152 4H19C21.4853 4 23.5 6.01472 23.5 8.5C23.5 10.9853 21.4853 13 19 13H11.6364C11.0949 13 10.5759 12.9044 10.0951 12.7291Z" stroke="#FAF9F7" stroke-width="2" stroke-linecap="round" stroke-linejoin="round"/>
</svg>
