<svg width="25" height="24" viewBox="0 0 25 24" fill="none" xmlns="http://www.w3.org/2000/svg">
<path d="M23.2889 8.42229L24.1833 8.8695L23.2889 8.42229ZM1.71115 8.42229L2.60557 7.97508L1.71115 8.42229ZM2.94721 10.8944L2.05279 11.3416L2.94721 10.8944ZM22.0528 10.8944L21.1584 10.4472V10.4472L22.0528 10.8944ZM18.5 3.5C17.9477 3.5 17.5 3.94772 17.5 4.5C17.5 5.05228 17.9477 5.5 18.5 5.5V3.5ZM19.5 5.5C20.0523 5.5 20.5 5.05228 20.5 4.5C20.5 3.94772 20.0523 3.5 19.5 3.5V5.5ZM4.5 12C4.5 12.5523 4.94772 13 5.5 13C6.05228 13 6.5 12.5523 6.5 12H4.5ZM18.5 12C18.5 12.5523 18.9477 13 19.5 13C20.0523 13 20.5 12.5523 20.5 12H18.5ZM20.5 17C20.5 16.4477 20.0523 16 19.5 16C18.9477 16 18.5 16.4477 18.5 17H20.5ZM22.3944 20.5528L21.9472 19.6584L21.9472 19.6584L22.3944 20.5528ZM22.5292 20.4854L22.9764 21.3798L22.9764 21.3798L22.5292 20.4854ZM23.8944 17.0528C23.6474 16.5588 23.0468 16.3586 22.5528 16.6056C22.0588 16.8526 21.8586 17.4532 22.1056 17.9472L23.8944 17.0528ZM23.3146 18.1292L24.209 17.682L23.3146 18.1292ZM15.5 19C15.5 18.4477 15.0523 18 14.5 18C13.9477 18 13.5 18.4477 13.5 19H15.5ZM15.3906 22.5937L14.8359 23.4258L15.3906 22.5937ZM15.4453 23.8321C15.9048 24.1384 16.5257 24.0142 16.8321 23.5547C17.1384 23.0952 17.0142 22.4743 16.5547 22.1679L15.4453 23.8321ZM11 18C11 17.4477 10.5523 17 10 17C9.44772 17 9 17.4477 9 18H11ZM9.1094 22.5937L8.5547 21.7617H8.5547L9.1094 22.5937ZM9.00385 22.6641L8.44915 21.8321H8.44915L9.00385 22.6641ZM7.5 22C6.94772 22 6.5 22.4477 6.5 23C6.5 23.5523 6.94772 24 7.5 24V22ZM6.5 17C6.5 16.4477 6.05228 16 5.5 16C4.94772 16 4.5 16.4477 4.5 17H6.5ZM2.60557 20.5528L3.05279 19.6584L3.05278 19.6584L2.60557 20.5528ZM2.47082 20.4854L2.02361 21.3798L2.02361 21.3798L2.47082 20.4854ZM2.89443 17.9472C3.14142 17.4532 2.94119 16.8526 2.44721 16.6056C1.95324 16.3586 1.35256 16.5588 1.10557 17.0528L2.89443 17.9472ZM1.68541 18.1292L0.790983 17.682H0.790983L1.68541 18.1292ZM3.5 2H21.5V0H3.5V2ZM20.2639 11H4.73607V13H20.2639V11ZM3.84164 10.4472L2.60557 7.97508L0.816718 8.8695L2.05279 11.3416L3.84164 10.4472ZM2.5 7.52786V3H0.5V7.52786H2.5ZM22.5 3V7.52786H24.5V3H22.5ZM22.3944 7.97508L21.1584 10.4472L22.9472 11.3416L24.1833 8.8695L22.3944 7.97508ZM22.5 7.52786C22.5 7.68311 22.4639 7.83622 22.3944 7.97508L24.1833 8.8695C24.3916 8.45294 24.5 7.9936 24.5 7.52786H22.5ZM2.60557 7.97508C2.53614 7.83622 2.5 7.68311 2.5 7.52786H0.5C0.5 7.9936 0.608435 8.45294 0.816718 8.8695L2.60557 7.97508ZM4.73607 11C4.3573 11 4.01103 10.786 3.84164 10.4472L2.05279 11.3416C2.56096 12.358 3.59975 13 4.73607 13V11ZM20.2639 13C21.4002 13 22.439 12.358 22.9472 11.3416L21.1584 10.4472C20.989 10.786 20.6427 11 20.2639 11V13ZM21.5 2C22.0523 2 22.5 2.44772 22.5 3H24.5C24.5 1.34315 23.1569 0 21.5 0V2ZM3.5 0C1.84315 0 0.5 1.34315 0.5 3H2.5C2.5 2.44772 2.94772 2 3.5 2V0ZM18.5 5.5H19.5V3.5H18.5V5.5ZM6.5 12V10H4.5V12H6.5ZM7.5 9H17.5V7H7.5V9ZM18.5 10V12H20.5V10H18.5ZM17.5 9C18.0523 9 18.5 9.44772 18.5 10H20.5C20.5 8.34315 19.1569 7 17.5 7V9ZM6.5 10C6.5 9.44772 6.94772 9 7.5 9V7C5.84315 7 4.5 8.34315 4.5 10H6.5ZM18.5 17V18.7639H20.5V17H18.5ZM22.8416 21.4472L22.9764 21.3798L22.082 19.591L21.9472 19.6584L22.8416 21.4472ZM22.1056 17.9472L22.4202 18.5764L24.209 17.682L23.8944 17.0528L22.1056 17.9472ZM24.5 18.9146C24.5 18.4867 24.4004 18.0647 24.209 17.682L22.4202 18.5764C22.4727 18.6814 22.5 18.7972 22.5 18.9146H24.5ZM22.9764 21.3798C23.9102 20.913 24.5 19.9586 24.5 18.9146H22.5C22.5 19.201 22.3382 19.4629 22.082 19.591L22.9764 21.3798ZM21.9472 19.6584C21.6657 19.7991 21.3343 19.7991 21.0528 19.6584L20.1584 21.4472C21.0029 21.8695 21.9971 21.8695 22.8416 21.4472L21.9472 19.6584ZM18.5 18.7639C18.5 19.9002 19.142 20.939 20.1584 21.4472L21.0528 19.6584C20.714 19.489 20.5 19.1427 20.5 18.7639H18.5ZM13.5 19V20.9296H15.5V19H13.5ZM14.8359 23.4258L15.4453 23.8321L16.5547 22.1679L15.9453 21.7617L14.8359 23.4258ZM13.5 20.9296C13.5 21.9327 14.0013 22.8694 14.8359 23.4258L15.9453 21.7617C15.6671 21.5762 15.5 21.264 15.5 20.9296H13.5ZM9 18V20.9296H11V18H9ZM8.5547 21.7617L8.44915 21.8321L9.55855 23.4962L9.6641 23.4258L8.5547 21.7617ZM7.89445 22H7.5V24H7.89445V22ZM8.44915 21.8321C8.28488 21.9416 8.09187 22 7.89445 22V24C8.48672 24 9.06575 23.8247 9.55855 23.4962L8.44915 21.8321ZM9 20.9296C9 21.264 8.8329 21.5762 8.5547 21.7617L9.6641 23.4258C10.4987 22.8694 11 21.9327 11 20.9296H9ZM4.5 17V18.7639H6.5V17H4.5ZM3.05278 19.6584L2.91803 19.591L2.02361 21.3798L2.15837 21.4472L3.05278 19.6584ZM1.10557 17.0528L0.790983 17.682L2.57984 18.5764L2.89443 17.9472L1.10557 17.0528ZM2.5 18.9146C2.5 18.7972 2.52733 18.6814 2.57984 18.5764L0.790983 17.682C0.599624 18.0647 0.5 18.4867 0.5 18.9146H2.5ZM2.91803 19.591C2.66184 19.4629 2.5 19.201 2.5 18.9146H0.5C0.5 19.9586 1.08984 20.913 2.02361 21.3798L2.91803 19.591ZM2.15836 21.4472C3.00294 21.8695 3.99706 21.8695 4.84164 21.4472L3.94721 19.6584C3.66569 19.7991 3.33431 19.7991 3.05279 19.6584L2.15836 21.4472ZM4.5 18.7639C4.5 19.1427 4.286 19.489 3.94721 19.6584L4.84164 21.4472C5.85799 20.939 6.5 19.9002 6.5 18.7639H4.5Z" fill="#FAF9F7"/>
</svg>
