<svg width="25" height="24" viewBox="0 0 25 24" fill="none" xmlns="http://www.w3.org/2000/svg">
<path d="M7.5317 8.03737L8.30199 8.67506C8.33117 8.63981 8.3579 8.6026 8.38199 8.56369L7.5317 8.03737ZM11.7 4.14286L12.2478 4.97948V4.97948L11.7 4.14286ZM7.63538 16.0847L8.48874 15.5634C8.45947 15.5155 8.42621 15.4701 8.38933 15.4278L7.63538 16.0847ZM8.05696 16.7748L7.2036 17.2961L7.2036 17.2961L8.05696 16.7748ZM8.4383 18.3426L9.42877 18.4804H9.42877L8.4383 18.3426ZM7.7 20.25L8.44818 20.9135H8.44818L7.7 20.25ZM4.5 23L3.91733 22.1873C3.52966 22.4652 3.39227 22.9783 3.58916 23.4128C3.78605 23.8472 4.26239 24.0822 4.72695 23.9739L4.5 23ZM13.3 19.8571L13.8478 20.6938L13.3 19.8571ZM17.4683 15.9626L16.698 15.3249C16.6688 15.3602 16.6421 15.3974 16.618 15.4363L17.4683 15.9626ZM17.3646 7.9153L16.5113 8.43663C16.5405 8.48454 16.5738 8.5299 16.6107 8.57223L17.3646 7.9153ZM16.943 7.22522L17.7964 6.70389V6.70389L16.943 7.22522ZM16.5617 5.6574L15.5712 5.51961V5.51961L16.5617 5.6574ZM17.3 3.75L16.5518 3.08651L16.5518 3.08651L17.3 3.75ZM20.5 1L21.0827 1.81271C21.4703 1.53477 21.6077 1.02172 21.4108 0.587243C21.214 0.152766 20.7376 -0.0821637 20.273 0.0260943L20.5 1ZM8.38199 8.56369C8.73648 7.991 9.77126 6.60101 12.2478 4.97948L11.1522 3.30624C8.44329 5.07994 7.19729 6.67764 6.68141 7.51105L8.38199 8.56369ZM7.1 12C7.1 10.7408 7.54867 9.58503 8.30199 8.67506L6.76141 7.39968C5.72443 8.65227 5.1 10.2548 5.1 12H7.1ZM8.38933 15.4278C7.58335 14.5027 7.1 13.3068 7.1 12H5.1C5.1 13.8119 5.77292 15.4694 6.88142 16.7416L8.38933 15.4278ZM6.78202 16.606L7.2036 17.2961L8.91032 16.2535L8.48874 15.5634L6.78202 16.606ZM7.2036 17.2961C7.41209 17.6374 7.48342 17.9491 7.44784 18.2048L9.42877 18.4804C9.54591 17.6383 9.28222 16.8622 8.91031 16.2535L7.2036 17.2961ZM7.44784 18.2048C7.36954 18.7676 7.2038 19.3024 6.95182 19.5865L8.44818 20.9135C9.11378 20.1629 9.33997 19.1187 9.42877 18.4804L7.44784 18.2048ZM6.95182 19.5865C6.45543 20.1463 5.71012 20.7906 5.05768 21.3146C4.73743 21.5718 4.45042 21.7914 4.24377 21.9464C4.14059 22.0238 4.0578 22.0849 4.00134 22.1262C3.97313 22.1469 3.95152 22.1626 3.93726 22.1729C3.93013 22.1781 3.92485 22.1819 3.92149 22.1843C3.91982 22.1855 3.91862 22.1864 3.91793 22.1869C3.91758 22.1871 3.91735 22.1873 3.91725 22.1873C3.9172 22.1874 3.91718 22.1874 3.9172 22.1874C3.9172 22.1874 3.91724 22.1874 3.91724 22.1874C3.91728 22.1873 3.91733 22.1873 4.5 23C5.08267 23.8127 5.08274 23.8127 5.08281 23.8126C5.08284 23.8126 5.08292 23.8125 5.08299 23.8125C5.08313 23.8124 5.08331 23.8123 5.08351 23.8121C5.08392 23.8118 5.08445 23.8114 5.08511 23.811C5.08643 23.81 5.08826 23.8087 5.09057 23.807C5.09519 23.8037 5.10178 23.7989 5.11023 23.7928C5.12713 23.7806 5.15152 23.7629 5.18262 23.7401C5.24482 23.6946 5.334 23.6288 5.44411 23.5462C5.66407 23.3811 5.96898 23.1478 6.31002 22.874C6.98014 22.3358 7.83483 21.6051 8.44818 20.9135L6.95182 19.5865ZM4.5 23C4.72695 23.9739 4.72706 23.9739 4.72718 23.9739C4.72726 23.9738 4.72741 23.9738 4.72756 23.9738C4.72785 23.9737 4.72824 23.9736 4.72872 23.9735C4.72969 23.9733 4.73103 23.973 4.73275 23.9725C4.73618 23.9717 4.74109 23.9706 4.74745 23.9691C4.76016 23.9661 4.77867 23.9617 4.80266 23.956C4.85064 23.9445 4.92058 23.9277 5.01008 23.9057C5.18904 23.8618 5.4464 23.7975 5.76285 23.7151C6.39517 23.5504 7.26639 23.3127 8.22128 23.0207C10.0912 22.4489 12.4194 21.629 13.8478 20.6938L12.7522 19.0205C11.5909 19.7809 9.51913 20.5324 7.63643 21.1082C6.71504 21.3899 5.87182 21.62 5.25879 21.7797C4.95256 21.8594 4.70451 21.9214 4.53373 21.9633C4.44836 21.9842 4.38235 22.0001 4.33809 22.0107C4.31597 22.016 4.29928 22.0199 4.28834 22.0225C4.28287 22.0238 4.27884 22.0247 4.27627 22.0253C4.27499 22.0256 4.27408 22.0259 4.27354 22.026C4.27327 22.026 4.27309 22.0261 4.27301 22.0261C4.27297 22.0261 4.27298 22.0261 4.27296 22.0261C4.27299 22.0261 4.27305 22.0261 4.5 23ZM13.8478 20.6938C16.5567 18.9201 17.8027 17.3224 18.3186 16.489L16.618 15.4363C16.2635 16.009 15.2287 17.399 12.7522 19.0205L13.8478 20.6938ZM17.9 12C17.9 13.2592 17.4513 14.415 16.698 15.3249L18.2386 16.6003C19.2756 15.3477 19.9 13.7452 19.9 12H17.9ZM16.6107 8.57223C17.4166 9.49725 17.9 10.6932 17.9 12H19.9C19.9 10.1881 19.2271 8.5306 18.1186 7.25838L16.6107 8.57223ZM16.0897 7.74654L16.5113 8.43663L18.218 7.39398L17.7964 6.70389L16.0897 7.74654ZM15.5712 5.51961C15.4541 6.36166 15.7178 7.13777 16.0897 7.74654L17.7964 6.70389C17.5879 6.36261 17.5166 6.0509 17.5522 5.79519L15.5712 5.51961ZM16.5518 3.08651C15.8862 3.83707 15.66 4.88131 15.5712 5.51961L17.5522 5.79519C17.6305 5.23236 17.7962 4.69764 18.0482 4.41349L16.5518 3.08651ZM20.5 1C19.9173 0.187291 19.9173 0.187338 19.9172 0.18739C19.9172 0.187415 19.9171 0.187474 19.917 0.187524C19.9169 0.187625 19.9167 0.187748 19.9165 0.187894C19.9161 0.188187 19.9155 0.188571 19.9149 0.189045C19.9136 0.189994 19.9117 0.191304 19.9094 0.19297C19.9048 0.196301 19.8982 0.201054 19.8898 0.207175C19.8729 0.219415 19.8485 0.237133 19.8174 0.259902C19.7552 0.305425 19.666 0.371215 19.5559 0.453839C19.3359 0.618882 19.031 0.852152 18.69 1.12604C18.0199 1.66422 17.1652 2.39486 16.5518 3.08651L18.0482 4.41349C18.5446 3.85374 19.2899 3.20939 19.9423 2.68542C20.2626 2.42823 20.5496 2.20863 20.7562 2.05358C20.8594 1.97616 20.9422 1.91509 20.9987 1.87377C21.0269 1.85312 21.0485 1.83742 21.0627 1.8271C21.0699 1.82194 21.0752 1.81812 21.0785 1.8157C21.0802 1.8145 21.0814 1.81364 21.0821 1.81314C21.0824 1.81289 21.0826 1.81272 21.0827 1.81265C21.0828 1.81262 21.0828 1.8126 21.0828 1.81261C21.0828 1.81262 21.0828 1.81264 21.0828 1.81264C21.0827 1.81267 21.0827 1.81271 20.5 1ZM12.2478 4.97948C13.4091 4.21907 15.4809 3.46757 17.3636 2.89185C18.285 2.61009 19.1282 2.38 19.7412 2.22034C20.0474 2.14059 20.2955 2.0786 20.4663 2.03672C20.5516 2.01578 20.6177 1.99988 20.6619 1.98931C20.684 1.98403 20.7007 1.98008 20.7117 1.9775C20.7171 1.97621 20.7212 1.97526 20.7237 1.97466C20.725 1.97436 20.7259 1.97415 20.7265 1.97402C20.7267 1.97396 20.7269 1.97392 20.727 1.9739C20.727 1.97389 20.727 1.97389 20.727 1.97389C20.727 1.97389 20.727 1.97391 20.5 1C20.273 0.0260943 20.2729 0.0261184 20.2728 0.0261479C20.2727 0.0261651 20.2726 0.0262003 20.2724 0.0262347C20.2721 0.0263036 20.2718 0.0263947 20.2713 0.0265077C20.2703 0.0267339 20.269 0.0270481 20.2673 0.02745C20.2638 0.0282536 20.2589 0.0294076 20.2526 0.0309072C20.2398 0.0339065 20.2213 0.0382892 20.1973 0.0440187C20.1494 0.055477 20.0794 0.0723264 19.9899 0.0942743C19.811 0.138162 19.5536 0.202485 19.2371 0.284902C18.6048 0.449583 17.7336 0.687271 16.7787 0.979272C14.9088 1.55107 12.5806 2.371 11.1522 3.30624L12.2478 4.97948ZM13.5 12C13.5 12.5523 13.0523 13 12.5 13V15C14.1569 15 15.5 13.6569 15.5 12H13.5ZM12.5 13C11.9477 13 11.5 12.5523 11.5 12H9.5C9.5 13.6569 10.8431 15 12.5 15V13ZM11.5 12C11.5 11.4477 11.9477 11 12.5 11V9C10.8431 9 9.5 10.3431 9.5 12H11.5ZM12.5 11C13.0523 11 13.5 11.4477 13.5 12H15.5C15.5 10.3431 14.1569 9 12.5 9V11Z" fill="#FAF9F7"/>
</svg>
