<svg width="25" height="24" viewBox="0 0 25 24" fill="none" xmlns="http://www.w3.org/2000/svg">
<path d="M6.09509 22.7291L6.43757 21.7896C6.41527 21.7815 6.39267 21.7741 6.36984 21.7676L6.09509 22.7291ZM13.7152 14L12.8696 14.5337C13.0527 14.824 13.372 15 13.7152 15V14ZM13.5 1C13.5 0.447715 13.0523 0 12.5 0C11.9477 0 11.5 0.447715 11.5 1H13.5ZM11.5 2C11.5 2.55228 11.9477 3 12.5 3C13.0523 3 13.5 2.55228 13.5 2H11.5ZM18.8638 4.22185C18.4733 4.61237 18.4733 5.24554 18.8638 5.63606C19.2543 6.02659 19.8875 6.02659 20.278 5.63606L18.8638 4.22185ZM20.9851 4.92896C21.3757 4.53843 21.3757 3.90527 20.9851 3.51474C20.5946 3.12422 19.9614 3.12422 19.5709 3.51474L20.9851 4.92896ZM5.42879 3.51476C5.03826 3.12423 4.4051 3.12423 4.01457 3.51476C3.62405 3.90528 3.62405 4.53845 4.01457 4.92897L5.42879 3.51476ZM4.72168 5.63608C5.1122 6.0266 5.74537 6.0266 6.13589 5.63608C6.52642 5.24555 6.52642 4.61239 6.13589 4.22186L4.72168 5.63608ZM22.5 11.0001C21.9477 11.0001 21.5 11.4478 21.5 12.0001C21.5 12.5523 21.9477 13.0001 22.5 13.0001V11.0001ZM23.5 13.0001C24.0523 13.0001 24.5 12.5523 24.5 12.0001C24.5 11.4478 24.0523 11.0001 23.5 11.0001V13.0001ZM6.36984 21.7676C4.07454 21.1117 2.5 19.1831 2.5 17H0.5C0.5 20.199 2.79081 22.8249 5.82033 23.6906L6.36984 21.7676ZM2.5 17C2.5 14.3187 4.8991 12 8.04545 12V10C3.9619 10 0.5 13.0539 0.5 17H2.5ZM8.04545 12C10.138 12 11.9279 13.0415 12.8696 14.5337L14.5609 13.4663C13.2391 11.3717 10.7984 10 8.04545 10V12ZM13.7152 15H15V13H13.7152V15ZM15 15C16.933 15 18.5 16.567 18.5 18.5H20.5C20.5 15.4624 18.0376 13 15 13V15ZM18.5 18.5C18.5 20.433 16.933 22 15 22V24C18.0376 24 20.5 21.5376 20.5 18.5H18.5ZM7.63636 22C7.21346 22 6.8102 21.9254 6.43757 21.7896L5.7526 23.6686C6.34154 23.8833 6.97644 24 7.63636 24V22ZM12.5 7C15.2614 7 17.5 9.23858 17.5 12H19.5C19.5 8.13401 16.366 5 12.5 5V7ZM7.56918 11.1655C7.96578 8.80145 10.0235 7 12.5 7V5C9.03051 5 6.15229 7.52312 5.59674 10.8345L7.56918 11.1655ZM17.5 12C17.5 12.875 17.2761 13.6948 16.8832 14.4081L18.635 15.373C19.1866 14.3716 19.5 13.2209 19.5 12H17.5ZM11.5 1V2H13.5V1H11.5ZM20.278 5.63606L20.9851 4.92896L19.5709 3.51474L18.8638 4.22185L20.278 5.63606ZM4.01457 4.92897L4.72168 5.63608L6.13589 4.22186L5.42879 3.51476L4.01457 4.92897ZM22.5 13.0001H23.5V11.0001H22.5V13.0001ZM15 22H7.63636V24H15V22Z" fill="#FAF9F7"/>
</svg>
