<svg width="25" height="24" viewBox="0 0 25 24" fill="none" xmlns="http://www.w3.org/2000/svg">
<path d="M15.5114 13.4778L13.7907 15.9353M20.5087 13.3147L18.2144 16.5913M10.5141 13.641L7.07261 18.5559M11.4963 19.2119L10.9227 20.031M6.51663 11.8041L4.7959 14.2616M10.0949 12.7291C7.43249 11.9683 5.49982 9.69106 5.49982 7C5.49982 3.68629 8.43032 1 12.0453 1C14.468 1 16.5833 2.2066 17.7151 4H18.9998C21.4851 4 23.4998 6.01472 23.4998 8.5C23.4998 10.9853 21.4851 13 18.9998 13H11.6362C11.0948 13 10.5757 12.9044 10.0949 12.7291Z" stroke="#FAF9F7" stroke-width="2" stroke-linecap="round" stroke-linejoin="round"/>
</svg>
