<svg width="25" height="24" viewBox="0 0 25 24" fill="none" xmlns="http://www.w3.org/2000/svg">
<path d="M10.0182 10.8446L10.2659 11.8134L10.0182 10.8446ZM14.3446 6.51816L13.3758 6.27041L14.3446 6.51816ZM7.39427 12.4844L7.64202 11.5156L7.39427 12.4844ZM7.39427 11.5156L7.14652 10.5468H7.14652L7.39427 11.5156ZM14.3446 17.4818L15.3134 17.2341L14.3446 17.4818ZM10.0182 13.1554L9.77041 14.1242H9.77041L10.0182 13.1554ZM15.9844 20.1057L15.0156 19.858L15.9844 20.1057ZM15.0156 20.1057L14.0468 20.3535L15.0156 20.1057ZM20.9818 13.1554L20.7341 12.1866L20.9818 13.1554ZM16.6554 17.4818L17.6242 17.7296L16.6554 17.4818ZM23.6057 11.5156L23.358 12.4844L23.6057 11.5156ZM23.6057 12.4844L23.8535 13.4532L23.6057 12.4844ZM16.6554 6.51817L15.6866 6.76592V6.76592L16.6554 6.51817ZM20.9818 10.8446L21.2296 9.87577L20.9818 10.8446ZM15.9844 3.89427L16.9532 3.64652L15.9844 3.89427ZM15.0156 3.89427L15.9844 4.14203V4.14202L15.0156 3.89427ZM4.5 1C4.5 0.447715 4.05228 0 3.5 0C2.94772 0 2.5 0.447715 2.5 1H4.5ZM2.5 5C2.5 5.55228 2.94772 6 3.5 6C4.05228 6 4.5 5.55228 4.5 5H2.5ZM5.5 4C6.05228 4 6.5 3.55228 6.5 3C6.5 2.44772 6.05228 2 5.5 2V4ZM1.5 2C0.947715 2 0.5 2.44772 0.5 3C0.5 3.55228 0.947715 4 1.5 4V2ZM5.5 19C5.5 18.4477 5.05228 18 4.5 18C3.94772 18 3.5 18.4477 3.5 19H5.5ZM3.5 23C3.5 23.5523 3.94772 24 4.5 24C5.05228 24 5.5 23.5523 5.5 23H3.5ZM6.5 22C7.05228 22 7.5 21.5523 7.5 21C7.5 20.4477 7.05228 20 6.5 20V22ZM2.5 20C1.94772 20 1.5 20.4477 1.5 21C1.5 21.5523 1.94772 22 2.5 22V20ZM15.0156 4.14203L15.6866 6.76592L17.6242 6.27042L16.9532 3.64652L15.0156 4.14203ZM20.7341 11.8134L23.358 12.4844L23.8535 10.5468L21.2296 9.87577L20.7341 11.8134ZM23.358 11.5156L20.7341 12.1866L21.2296 14.1242L23.8535 13.4532L23.358 11.5156ZM15.6866 17.2341L15.0156 19.858L16.9532 20.3535L17.6242 17.7296L15.6866 17.2341ZM15.9844 19.858L15.3134 17.2341L13.3758 17.7296L14.0468 20.3535L15.9844 19.858ZM10.2659 12.1866L7.64202 11.5156L7.14652 13.4532L9.77041 14.1242L10.2659 12.1866ZM7.64203 12.4844L10.2659 11.8134L9.77042 9.87577L7.14652 10.5468L7.64203 12.4844ZM15.3134 6.76592L15.9844 4.14203L14.0468 3.64652L13.3758 6.27041L15.3134 6.76592ZM10.2659 11.8134C12.7443 11.1796 14.6796 9.24433 15.3134 6.76592L13.3758 6.27041C12.9231 8.04071 11.5407 9.42307 9.77042 9.87577L10.2659 11.8134ZM7.64202 11.5156C8.14353 11.6438 8.14352 12.3562 7.64203 12.4844L7.14652 10.5468C5.64204 10.9315 5.64202 13.0685 7.14652 13.4532L7.64202 11.5156ZM15.3134 17.2341C14.6796 14.7557 12.7443 12.8204 10.2659 12.1866L9.77041 14.1242C11.5407 14.5769 12.9231 15.9593 13.3758 17.7296L15.3134 17.2341ZM15.0156 19.858C15.1438 19.3565 15.8562 19.3565 15.9844 19.858L14.0468 20.3535C14.4315 21.858 16.5685 21.858 16.9532 20.3535L15.0156 19.858ZM20.7341 12.1866C18.2557 12.8204 16.3204 14.7557 15.6866 17.2341L17.6242 17.7296C18.0769 15.9593 19.4593 14.5769 21.2296 14.1242L20.7341 12.1866ZM23.358 12.4844C22.8565 12.3562 22.8565 11.6438 23.358 11.5156L23.8535 13.4532C25.358 13.0685 25.358 10.9315 23.8535 10.5468L23.358 12.4844ZM15.6866 6.76592C16.3204 9.24433 18.2557 11.1796 20.7341 11.8134L21.2296 9.87577C19.4593 9.42306 18.0769 8.04071 17.6242 6.27041L15.6866 6.76592ZM16.9532 3.64652C16.5685 2.14204 14.4315 2.14202 14.0468 3.64652L15.9844 4.14202C15.8562 4.64353 15.1438 4.64352 15.0156 4.14203L16.9532 3.64652ZM2.5 1V5H4.5V1H2.5ZM5.5 2H1.5V4H5.5V2ZM3.5 19V23H5.5V19H3.5ZM6.5 20H2.5V22H6.5V20Z" fill="#FAF9F7"/>
</svg>
