<svg width="25" height="24" viewBox="0 0 25 24" fill="none" xmlns="http://www.w3.org/2000/svg">
<path d="M13.5 13C13.5 12.4477 13.0523 12 12.5 12C11.9477 12 11.5 12.4477 11.5 13H13.5ZM13.5 4.5C12.9477 4.5 12.5 4.94772 12.5 5.5C12.5 6.05228 12.9477 6.5 13.5 6.5V4.5ZM16.5 6.5C17.0523 6.5 17.5 6.05228 17.5 5.5C17.5 4.94772 17.0523 4.5 16.5 4.5V6.5ZM13.5 8C12.9477 8 12.5 8.44772 12.5 9C12.5 9.55229 12.9477 10 13.5 10V8ZM16.5 10C17.0523 10 17.5 9.55229 17.5 9C17.5 8.44772 17.0523 8 16.5 8V10ZM8.5 12.5278L9.16691 13.2729L9.5 12.9748V12.5278H8.5ZM16.5 12.5278H15.5V12.9748L15.8331 13.2729L16.5 12.5278ZM13.5 17C13.5 17.5523 13.0523 18 12.5 18V20C14.1569 20 15.5 18.6569 15.5 17H13.5ZM12.5 18C11.9477 18 11.5 17.5523 11.5 17H9.5C9.5 18.6569 10.8431 20 12.5 20V18ZM11.5 17C11.5 16.4477 11.9477 16 12.5 16V14C10.8431 14 9.5 15.3431 9.5 17H11.5ZM12.5 16C13.0523 16 13.5 16.4477 13.5 17H15.5C15.5 15.3431 14.1569 14 12.5 14V16ZM11.5 13V15H13.5V13H11.5ZM13.5 6.5H16.5V4.5H13.5V6.5ZM13.5 10H16.5V8H13.5V10ZM9.5 5C9.5 3.34315 10.8431 2 12.5 2V0C9.73858 0 7.5 2.23858 7.5 5H9.5ZM9.5 12.5278V5H7.5V12.5278H9.5ZM7.5 17C7.5 15.5193 8.1424 14.1899 9.16691 13.2729L7.83309 11.7827C6.4026 13.063 5.5 14.9267 5.5 17H7.5ZM12.5 22C9.73858 22 7.5 19.7614 7.5 17H5.5C5.5 20.866 8.63401 24 12.5 24V22ZM17.5 17C17.5 19.7614 15.2614 22 12.5 22V24C16.366 24 19.5 20.866 19.5 17H17.5ZM15.8331 13.2729C16.8576 14.1899 17.5 15.5193 17.5 17H19.5C19.5 14.9267 18.5974 13.063 17.1669 11.7827L15.8331 13.2729ZM15.5 5V12.5278H17.5V5H15.5ZM12.5 2C14.1569 2 15.5 3.34315 15.5 5H17.5C17.5 2.23858 15.2614 0 12.5 0V2Z" fill="#FAF9F7"/>
</svg>
