<svg width="25" height="24" viewBox="0 0 25 24" fill="none" xmlns="http://www.w3.org/2000/svg">
<path d="M6.5 12.2769C5.86263 12.8769 5.5 13.5665 5.5 14.3C5.5 16.6196 9.12666 18.5 13.6004 18.5C16.7062 18.5 19.4038 17.5937 20.763 16.2633M5.5 16C4.46403 16.6881 3.5 18.0271 3.5 18.9763C3.5 21.1985 6.89517 23 11.0833 23C12.3124 23 13.4733 22.8448 14.5 22.5694M23.5 7C23.5 10.3137 18.5751 13 12.5 13C6.42487 13 1.5 10.3137 1.5 7C1.5 3.68629 6.42487 1 12.5 1C18.5751 1 23.5 3.68629 23.5 7Z" stroke="#FAF9F7" stroke-width="2" stroke-linecap="round" stroke-linejoin="round"/>
</svg>
