<svg width="25" height="24" viewBox="0 0 25 24" fill="none" xmlns="http://www.w3.org/2000/svg">
<path d="M21.5 10V11H22.5V10H21.5ZM3.5 10H2.5V11H3.5V10ZM13.5 10C13.5 9.44771 13.0523 9 12.5 9C11.9477 9 11.5 9.44771 11.5 10H13.5ZM19.5 19C19.5 18.4477 19.0523 18 18.5 18C17.9477 18 17.5 18.4477 17.5 19H19.5ZM12.5 2C16.9183 2 20.5 5.58171 20.5 10H22.5C22.5 4.47714 18.0228 0 12.5 0V2ZM4.5 10C4.5 5.58171 8.08174 2 12.5 2V0C6.97717 0 2.5 4.47714 2.5 10H4.5ZM3.5 11H21.5V9H3.5V11ZM11.5 10V20.5H13.5V10H11.5ZM12.5 20.5C11.5 20.5 11.5 20.5006 11.5 20.5012C11.5 20.5014 11.5 20.502 11.5 20.5025C11.5 20.5033 11.5 20.5042 11.5 20.5052C11.5 20.5071 11.5 20.5091 11.5001 20.5113C11.5001 20.5158 11.5002 20.5208 11.5003 20.5265C11.5005 20.5379 11.5009 20.5518 11.5015 20.568C11.5028 20.6005 11.5052 20.6425 11.5095 20.6928C11.5181 20.793 11.5346 20.9281 11.5663 21.0867C11.629 21.4004 11.7559 21.8284 12.0175 22.2645C12.5796 23.2013 13.6612 24 15.5 24V22C14.3388 22 13.9204 21.5487 13.7325 21.2355C13.6191 21.0466 13.5585 20.8496 13.5275 20.6945C13.5123 20.6188 13.5053 20.5585 13.5022 20.522C13.5007 20.5039 13.5001 20.4923 13.4999 20.4881C13.4999 20.486 13.4999 20.4859 13.4999 20.4878C13.4999 20.4888 13.4999 20.4903 13.5 20.4923C13.5 20.4933 13.5 20.4944 13.5 20.4957C13.5 20.4964 13.5 20.497 13.5 20.4978C13.5 20.4981 13.5 20.4987 13.5 20.4989C13.5 20.4994 13.5 20.5 12.5 20.5ZM15.5 24C17.3388 24 18.4204 23.2013 18.9825 22.2645C19.2441 21.8284 19.371 21.4004 19.4337 21.0867C19.4654 20.9281 19.4819 20.793 19.4905 20.6928C19.4948 20.6425 19.4972 20.6005 19.4985 20.568C19.4991 20.5518 19.4995 20.5379 19.4997 20.5265C19.4998 20.5208 19.4999 20.5158 19.4999 20.5113C19.5 20.5091 19.5 20.5071 19.5 20.5052C19.5 20.5042 19.5 20.5033 19.5 20.5025C19.5 20.502 19.5 20.5014 19.5 20.5012C19.5 20.5006 19.5 20.5 18.5 20.5C17.5 20.5 17.5 20.4994 17.5 20.4989C17.5 20.4987 17.5 20.4981 17.5 20.4978C17.5 20.497 17.5 20.4964 17.5 20.4957C17.5 20.4944 17.5 20.4933 17.5 20.4923C17.5001 20.4903 17.5001 20.4888 17.5001 20.4878C17.5001 20.4859 17.5001 20.486 17.5001 20.4881C17.4999 20.4923 17.4993 20.5039 17.4978 20.522C17.4947 20.5585 17.4877 20.6188 17.4725 20.6945C17.4415 20.8496 17.3809 21.0466 17.2675 21.2355C17.0796 21.5487 16.6612 22 15.5 22V24ZM19.5 20.5V19H17.5V20.5H19.5Z" fill="#FAF9F7"/>
</svg>
